M48
; DRILL file {KiCad 7.0.7} date Sun Jan 28 22:30:19 2024
; FORMAT={-:-/ absolute / metric / decimal}
; #@! TF.CreationDate,2024-01-28T22:30:19+01:00
; #@! TF.GenerationSoftware,Kicad,Pcbnew,7.0.7
; #@! TF.FileFunction,Plated,1,2,PTH
FMAT,2
METRIC
; #@! TA.AperFunction,Plated,PTH,ViaDrill
T1C0.400
; #@! TA.AperFunction,Plated,PTH,ComponentDrill
T2C1.016
; #@! TA.AperFunction,Plated,PTH,ComponentDrill
T3C1.075
; #@! TA.AperFunction,Plated,PTH,ComponentDrill
T4C1.190
%
G90
G05
T1
X29.5Y25.2
X29.5Y20.6
X33.6Y9.9
X57.3Y21.9
T2
X20.309Y32.959
X20.309Y17.719
X22.849Y32.959
X22.849Y17.719
X25.389Y32.959
X25.389Y17.719
X27.929Y32.959
X27.929Y17.719
X29.08Y30.033
X30.469Y32.959
X30.469Y17.719
X31.62Y30.033
X33.009Y32.959
X33.009Y17.719
X35.549Y32.959
X35.549Y17.719
X38.089Y32.959
X38.089Y17.719
X39.493Y30.033
X40.629Y32.959
X40.629Y17.719
X42.034Y30.033
X43.169Y32.959
X43.169Y17.719
X45.709Y32.959
X45.709Y17.719
X48.249Y32.959
X48.249Y17.719
T3
X29.198Y40.105
X31.738Y40.105
X34.278Y40.105
X36.818Y40.105
T4
X5.0Y16.959
X5.0Y14.419
X5.0Y11.879
X5.04Y35.499
X5.04Y32.959
X5.04Y27.499
X5.04Y24.959
X5.04Y22.419
X17.98Y41.945
X20.52Y41.945
X23.06Y41.945
X36.141Y6.018
X38.681Y6.018
X55.79Y33.9
X58.33Y33.9
X60.87Y33.9
T0
M30
