%TF.GenerationSoftware,KiCad,Pcbnew,7.0.7*%
%TF.CreationDate,2024-01-28T22:30:17+01:00*%
%TF.ProjectId,midi-dmx_bridge,6d696469-2d64-46d7-985f-627269646765,1.0*%
%TF.SameCoordinates,PX5f5e100PY7459280*%
%TF.FileFunction,Paste,Top*%
%TF.FilePolarity,Positive*%
%FSLAX46Y46*%
G04 Gerber Fmt 4.6, Leading zero omitted, Abs format (unit mm)*
G04 Created by KiCad (PCBNEW 7.0.7) date 2024-01-28 22:30:17*
%MOMM*%
%LPD*%
G01*
G04 APERTURE LIST*
G04 Aperture macros list*
%AMRoundRect*
0 Rectangle with rounded corners*
0 $1 Rounding radius*
0 $2 $3 $4 $5 $6 $7 $8 $9 X,Y pos of 4 corners*
0 Add a 4 corners polygon primitive as box body*
4,1,4,$2,$3,$4,$5,$6,$7,$8,$9,$2,$3,0*
0 Add four circle primitives for the rounded corners*
1,1,$1+$1,$2,$3*
1,1,$1+$1,$4,$5*
1,1,$1+$1,$6,$7*
1,1,$1+$1,$8,$9*
0 Add four rect primitives between the rounded corners*
20,1,$1+$1,$2,$3,$4,$5,0*
20,1,$1+$1,$4,$5,$6,$7,0*
20,1,$1+$1,$6,$7,$8,$9,0*
20,1,$1+$1,$8,$9,$2,$3,0*%
G04 Aperture macros list end*
%ADD10C,0.100000*%
%ADD11C,0.150000*%
%ADD12C,0.300000*%
%ADD13C,0.400000*%
%ADD14RoundRect,0.250000X-0.625000X0.312500X-0.625000X-0.312500X0.625000X-0.312500X0.625000X0.312500X0*%
%ADD15R,2.000000X1.780000*%
%ADD16RoundRect,0.250000X-0.312500X-0.625000X0.312500X-0.625000X0.312500X0.625000X-0.312500X0.625000X0*%
%ADD17RoundRect,0.250000X0.650000X-0.325000X0.650000X0.325000X-0.650000X0.325000X-0.650000X-0.325000X0*%
%ADD18RoundRect,0.250000X0.625000X-0.312500X0.625000X0.312500X-0.625000X0.312500X-0.625000X-0.312500X0*%
%ADD19RoundRect,0.225000X0.225000X0.375000X-0.225000X0.375000X-0.225000X-0.375000X0.225000X-0.375000X0*%
%ADD20RoundRect,0.250000X0.325000X0.650000X-0.325000X0.650000X-0.325000X-0.650000X0.325000X-0.650000X0*%
%ADD21RoundRect,0.225000X0.375000X-0.225000X0.375000X0.225000X-0.375000X0.225000X-0.375000X-0.225000X0*%
%ADD22RoundRect,0.150000X0.150000X-0.825000X0.150000X0.825000X-0.150000X0.825000X-0.150000X-0.825000X0*%
%ADD23RoundRect,0.250000X-0.325000X-0.650000X0.325000X-0.650000X0.325000X0.650000X-0.325000X0.650000X0*%
%ADD24RoundRect,0.250000X-0.650000X0.325000X-0.650000X-0.325000X0.650000X-0.325000X0.650000X0.325000X0*%
G04 APERTURE END LIST*
D10*
D11*
X77002200Y-44007200D02*
X185002200Y-44007200D01*
X185002200Y-76007200D01*
X77002200Y-76007200D01*
X77002200Y-44007200D01*
D10*
D11*
X-90000000Y112000000D02*
X187002200Y112000000D01*
X187002200Y-78007200D01*
X-90000000Y-78007200D01*
X-90000000Y112000000D01*
D10*
D11*
X-88000000Y110000000D02*
X185002200Y110000000D01*
X185002200Y-76007200D01*
X-88000000Y-76007200D01*
X-88000000Y110000000D01*
D10*
D11*
X-40000000Y110000000D02*
X-40000000Y112000000D01*
D10*
D11*
X10000000Y110000000D02*
X10000000Y112000000D01*
D10*
D11*
X60000000Y110000000D02*
X60000000Y112000000D01*
D10*
D11*
X110000000Y110000000D02*
X110000000Y112000000D01*
D10*
D11*
X160000000Y110000000D02*
X160000000Y112000000D01*
D10*
D11*
X-63910840Y110406396D02*
X-64653697Y110406396D01*
X-64282269Y110406396D02*
X-64282269Y111706396D01*
X-64282269Y111706396D02*
X-64406078Y111520681D01*
X-64406078Y111520681D02*
X-64529888Y111396872D01*
X-64529888Y111396872D02*
X-64653697Y111334967D01*
D10*
D11*
X-14653697Y111582586D02*
X-14591793Y111644491D01*
X-14591793Y111644491D02*
X-14467983Y111706396D01*
X-14467983Y111706396D02*
X-14158459Y111706396D01*
X-14158459Y111706396D02*
X-14034650Y111644491D01*
X-14034650Y111644491D02*
X-13972745Y111582586D01*
X-13972745Y111582586D02*
X-13910840Y111458777D01*
X-13910840Y111458777D02*
X-13910840Y111334967D01*
X-13910840Y111334967D02*
X-13972745Y111149253D01*
X-13972745Y111149253D02*
X-14715602Y110406396D01*
X-14715602Y110406396D02*
X-13910840Y110406396D01*
D10*
D11*
X35284398Y111706396D02*
X36089160Y111706396D01*
X36089160Y111706396D02*
X35655826Y111211158D01*
X35655826Y111211158D02*
X35841541Y111211158D01*
X35841541Y111211158D02*
X35965350Y111149253D01*
X35965350Y111149253D02*
X36027255Y111087348D01*
X36027255Y111087348D02*
X36089160Y110963539D01*
X36089160Y110963539D02*
X36089160Y110654015D01*
X36089160Y110654015D02*
X36027255Y110530205D01*
X36027255Y110530205D02*
X35965350Y110468300D01*
X35965350Y110468300D02*
X35841541Y110406396D01*
X35841541Y110406396D02*
X35470112Y110406396D01*
X35470112Y110406396D02*
X35346303Y110468300D01*
X35346303Y110468300D02*
X35284398Y110530205D01*
D10*
D11*
X85965350Y111273062D02*
X85965350Y110406396D01*
X85655826Y111768300D02*
X85346303Y110839729D01*
X85346303Y110839729D02*
X86151064Y110839729D01*
D10*
D11*
X136027255Y111706396D02*
X135408207Y111706396D01*
X135408207Y111706396D02*
X135346303Y111087348D01*
X135346303Y111087348D02*
X135408207Y111149253D01*
X135408207Y111149253D02*
X135532017Y111211158D01*
X135532017Y111211158D02*
X135841541Y111211158D01*
X135841541Y111211158D02*
X135965350Y111149253D01*
X135965350Y111149253D02*
X136027255Y111087348D01*
X136027255Y111087348D02*
X136089160Y110963539D01*
X136089160Y110963539D02*
X136089160Y110654015D01*
X136089160Y110654015D02*
X136027255Y110530205D01*
X136027255Y110530205D02*
X135965350Y110468300D01*
X135965350Y110468300D02*
X135841541Y110406396D01*
X135841541Y110406396D02*
X135532017Y110406396D01*
X135532017Y110406396D02*
X135408207Y110468300D01*
X135408207Y110468300D02*
X135346303Y110530205D01*
D10*
D11*
X185965350Y111706396D02*
X185717731Y111706396D01*
X185717731Y111706396D02*
X185593922Y111644491D01*
X185593922Y111644491D02*
X185532017Y111582586D01*
X185532017Y111582586D02*
X185408207Y111396872D01*
X185408207Y111396872D02*
X185346303Y111149253D01*
X185346303Y111149253D02*
X185346303Y110654015D01*
X185346303Y110654015D02*
X185408207Y110530205D01*
X185408207Y110530205D02*
X185470112Y110468300D01*
X185470112Y110468300D02*
X185593922Y110406396D01*
X185593922Y110406396D02*
X185841541Y110406396D01*
X185841541Y110406396D02*
X185965350Y110468300D01*
X185965350Y110468300D02*
X186027255Y110530205D01*
X186027255Y110530205D02*
X186089160Y110654015D01*
X186089160Y110654015D02*
X186089160Y110963539D01*
X186089160Y110963539D02*
X186027255Y111087348D01*
X186027255Y111087348D02*
X185965350Y111149253D01*
X185965350Y111149253D02*
X185841541Y111211158D01*
X185841541Y111211158D02*
X185593922Y111211158D01*
X185593922Y111211158D02*
X185470112Y111149253D01*
X185470112Y111149253D02*
X185408207Y111087348D01*
X185408207Y111087348D02*
X185346303Y110963539D01*
D10*
D11*
X-40000000Y-76007200D02*
X-40000000Y-78007200D01*
D10*
D11*
X10000000Y-76007200D02*
X10000000Y-78007200D01*
D10*
D11*
X60000000Y-76007200D02*
X60000000Y-78007200D01*
D10*
D11*
X110000000Y-76007200D02*
X110000000Y-78007200D01*
D10*
D11*
X160000000Y-76007200D02*
X160000000Y-78007200D01*
D10*
D11*
X-63910840Y-77600804D02*
X-64653697Y-77600804D01*
X-64282269Y-77600804D02*
X-64282269Y-76300804D01*
X-64282269Y-76300804D02*
X-64406078Y-76486519D01*
X-64406078Y-76486519D02*
X-64529888Y-76610328D01*
X-64529888Y-76610328D02*
X-64653697Y-76672233D01*
D10*
D11*
X-14653697Y-76424614D02*
X-14591793Y-76362709D01*
X-14591793Y-76362709D02*
X-14467983Y-76300804D01*
X-14467983Y-76300804D02*
X-14158459Y-76300804D01*
X-14158459Y-76300804D02*
X-14034650Y-76362709D01*
X-14034650Y-76362709D02*
X-13972745Y-76424614D01*
X-13972745Y-76424614D02*
X-13910840Y-76548423D01*
X-13910840Y-76548423D02*
X-13910840Y-76672233D01*
X-13910840Y-76672233D02*
X-13972745Y-76857947D01*
X-13972745Y-76857947D02*
X-14715602Y-77600804D01*
X-14715602Y-77600804D02*
X-13910840Y-77600804D01*
D10*
D11*
X35284398Y-76300804D02*
X36089160Y-76300804D01*
X36089160Y-76300804D02*
X35655826Y-76796042D01*
X35655826Y-76796042D02*
X35841541Y-76796042D01*
X35841541Y-76796042D02*
X35965350Y-76857947D01*
X35965350Y-76857947D02*
X36027255Y-76919852D01*
X36027255Y-76919852D02*
X36089160Y-77043661D01*
X36089160Y-77043661D02*
X36089160Y-77353185D01*
X36089160Y-77353185D02*
X36027255Y-77476995D01*
X36027255Y-77476995D02*
X35965350Y-77538900D01*
X35965350Y-77538900D02*
X35841541Y-77600804D01*
X35841541Y-77600804D02*
X35470112Y-77600804D01*
X35470112Y-77600804D02*
X35346303Y-77538900D01*
X35346303Y-77538900D02*
X35284398Y-77476995D01*
D10*
D11*
X85965350Y-76734138D02*
X85965350Y-77600804D01*
X85655826Y-76238900D02*
X85346303Y-77167471D01*
X85346303Y-77167471D02*
X86151064Y-77167471D01*
D10*
D11*
X136027255Y-76300804D02*
X135408207Y-76300804D01*
X135408207Y-76300804D02*
X135346303Y-76919852D01*
X135346303Y-76919852D02*
X135408207Y-76857947D01*
X135408207Y-76857947D02*
X135532017Y-76796042D01*
X135532017Y-76796042D02*
X135841541Y-76796042D01*
X135841541Y-76796042D02*
X135965350Y-76857947D01*
X135965350Y-76857947D02*
X136027255Y-76919852D01*
X136027255Y-76919852D02*
X136089160Y-77043661D01*
X136089160Y-77043661D02*
X136089160Y-77353185D01*
X136089160Y-77353185D02*
X136027255Y-77476995D01*
X136027255Y-77476995D02*
X135965350Y-77538900D01*
X135965350Y-77538900D02*
X135841541Y-77600804D01*
X135841541Y-77600804D02*
X135532017Y-77600804D01*
X135532017Y-77600804D02*
X135408207Y-77538900D01*
X135408207Y-77538900D02*
X135346303Y-77476995D01*
D10*
D11*
X185965350Y-76300804D02*
X185717731Y-76300804D01*
X185717731Y-76300804D02*
X185593922Y-76362709D01*
X185593922Y-76362709D02*
X185532017Y-76424614D01*
X185532017Y-76424614D02*
X185408207Y-76610328D01*
X185408207Y-76610328D02*
X185346303Y-76857947D01*
X185346303Y-76857947D02*
X185346303Y-77353185D01*
X185346303Y-77353185D02*
X185408207Y-77476995D01*
X185408207Y-77476995D02*
X185470112Y-77538900D01*
X185470112Y-77538900D02*
X185593922Y-77600804D01*
X185593922Y-77600804D02*
X185841541Y-77600804D01*
X185841541Y-77600804D02*
X185965350Y-77538900D01*
X185965350Y-77538900D02*
X186027255Y-77476995D01*
X186027255Y-77476995D02*
X186089160Y-77353185D01*
X186089160Y-77353185D02*
X186089160Y-77043661D01*
X186089160Y-77043661D02*
X186027255Y-76919852D01*
X186027255Y-76919852D02*
X185965350Y-76857947D01*
X185965350Y-76857947D02*
X185841541Y-76796042D01*
X185841541Y-76796042D02*
X185593922Y-76796042D01*
X185593922Y-76796042D02*
X185470112Y-76857947D01*
X185470112Y-76857947D02*
X185408207Y-76919852D01*
X185408207Y-76919852D02*
X185346303Y-77043661D01*
D10*
D11*
X-90000000Y62000000D02*
X-88000000Y62000000D01*
D10*
D11*
X-90000000Y12000000D02*
X-88000000Y12000000D01*
D10*
D11*
X-90000000Y-38000000D02*
X-88000000Y-38000000D01*
D10*
D11*
X-89309524Y86777824D02*
X-88690477Y86777824D01*
X-89433334Y86406396D02*
X-89000001Y87706396D01*
X-89000001Y87706396D02*
X-88566667Y86406396D01*
D10*
D11*
X-88907143Y37087348D02*
X-88721429Y37025443D01*
X-88721429Y37025443D02*
X-88659524Y36963539D01*
X-88659524Y36963539D02*
X-88597620Y36839729D01*
X-88597620Y36839729D02*
X-88597620Y36654015D01*
X-88597620Y36654015D02*
X-88659524Y36530205D01*
X-88659524Y36530205D02*
X-88721429Y36468300D01*
X-88721429Y36468300D02*
X-88845239Y36406396D01*
X-88845239Y36406396D02*
X-89340477Y36406396D01*
X-89340477Y36406396D02*
X-89340477Y37706396D01*
X-89340477Y37706396D02*
X-88907143Y37706396D01*
X-88907143Y37706396D02*
X-88783334Y37644491D01*
X-88783334Y37644491D02*
X-88721429Y37582586D01*
X-88721429Y37582586D02*
X-88659524Y37458777D01*
X-88659524Y37458777D02*
X-88659524Y37334967D01*
X-88659524Y37334967D02*
X-88721429Y37211158D01*
X-88721429Y37211158D02*
X-88783334Y37149253D01*
X-88783334Y37149253D02*
X-88907143Y37087348D01*
X-88907143Y37087348D02*
X-89340477Y37087348D01*
D10*
D11*
X-88597620Y-13469795D02*
X-88659524Y-13531700D01*
X-88659524Y-13531700D02*
X-88845239Y-13593604D01*
X-88845239Y-13593604D02*
X-88969048Y-13593604D01*
X-88969048Y-13593604D02*
X-89154762Y-13531700D01*
X-89154762Y-13531700D02*
X-89278572Y-13407890D01*
X-89278572Y-13407890D02*
X-89340477Y-13284080D01*
X-89340477Y-13284080D02*
X-89402381Y-13036461D01*
X-89402381Y-13036461D02*
X-89402381Y-12850747D01*
X-89402381Y-12850747D02*
X-89340477Y-12603128D01*
X-89340477Y-12603128D02*
X-89278572Y-12479319D01*
X-89278572Y-12479319D02*
X-89154762Y-12355509D01*
X-89154762Y-12355509D02*
X-88969048Y-12293604D01*
X-88969048Y-12293604D02*
X-88845239Y-12293604D01*
X-88845239Y-12293604D02*
X-88659524Y-12355509D01*
X-88659524Y-12355509D02*
X-88597620Y-12417414D01*
D10*
D11*
X-89340477Y-63593604D02*
X-89340477Y-62293604D01*
X-89340477Y-62293604D02*
X-89030953Y-62293604D01*
X-89030953Y-62293604D02*
X-88845239Y-62355509D01*
X-88845239Y-62355509D02*
X-88721429Y-62479319D01*
X-88721429Y-62479319D02*
X-88659524Y-62603128D01*
X-88659524Y-62603128D02*
X-88597620Y-62850747D01*
X-88597620Y-62850747D02*
X-88597620Y-63036461D01*
X-88597620Y-63036461D02*
X-88659524Y-63284080D01*
X-88659524Y-63284080D02*
X-88721429Y-63407890D01*
X-88721429Y-63407890D02*
X-88845239Y-63531700D01*
X-88845239Y-63531700D02*
X-89030953Y-63593604D01*
X-89030953Y-63593604D02*
X-89340477Y-63593604D01*
D10*
D11*
X187002200Y62000000D02*
X185002200Y62000000D01*
D10*
D11*
X187002200Y12000000D02*
X185002200Y12000000D01*
D10*
D11*
X187002200Y-38000000D02*
X185002200Y-38000000D01*
D10*
D11*
X185692676Y86777824D02*
X186311723Y86777824D01*
X185568866Y86406396D02*
X186002199Y87706396D01*
X186002199Y87706396D02*
X186435533Y86406396D01*
D10*
D11*
X186095057Y37087348D02*
X186280771Y37025443D01*
X186280771Y37025443D02*
X186342676Y36963539D01*
X186342676Y36963539D02*
X186404580Y36839729D01*
X186404580Y36839729D02*
X186404580Y36654015D01*
X186404580Y36654015D02*
X186342676Y36530205D01*
X186342676Y36530205D02*
X186280771Y36468300D01*
X186280771Y36468300D02*
X186156961Y36406396D01*
X186156961Y36406396D02*
X185661723Y36406396D01*
X185661723Y36406396D02*
X185661723Y37706396D01*
X185661723Y37706396D02*
X186095057Y37706396D01*
X186095057Y37706396D02*
X186218866Y37644491D01*
X186218866Y37644491D02*
X186280771Y37582586D01*
X186280771Y37582586D02*
X186342676Y37458777D01*
X186342676Y37458777D02*
X186342676Y37334967D01*
X186342676Y37334967D02*
X186280771Y37211158D01*
X186280771Y37211158D02*
X186218866Y37149253D01*
X186218866Y37149253D02*
X186095057Y37087348D01*
X186095057Y37087348D02*
X185661723Y37087348D01*
D10*
D11*
X186404580Y-13469795D02*
X186342676Y-13531700D01*
X186342676Y-13531700D02*
X186156961Y-13593604D01*
X186156961Y-13593604D02*
X186033152Y-13593604D01*
X186033152Y-13593604D02*
X185847438Y-13531700D01*
X185847438Y-13531700D02*
X185723628Y-13407890D01*
X185723628Y-13407890D02*
X185661723Y-13284080D01*
X185661723Y-13284080D02*
X185599819Y-13036461D01*
X185599819Y-13036461D02*
X185599819Y-12850747D01*
X185599819Y-12850747D02*
X185661723Y-12603128D01*
X185661723Y-12603128D02*
X185723628Y-12479319D01*
X185723628Y-12479319D02*
X185847438Y-12355509D01*
X185847438Y-12355509D02*
X186033152Y-12293604D01*
X186033152Y-12293604D02*
X186156961Y-12293604D01*
X186156961Y-12293604D02*
X186342676Y-12355509D01*
X186342676Y-12355509D02*
X186404580Y-12417414D01*
D10*
D11*
X185661723Y-63593604D02*
X185661723Y-62293604D01*
X185661723Y-62293604D02*
X185971247Y-62293604D01*
X185971247Y-62293604D02*
X186156961Y-62355509D01*
X186156961Y-62355509D02*
X186280771Y-62479319D01*
X186280771Y-62479319D02*
X186342676Y-62603128D01*
X186342676Y-62603128D02*
X186404580Y-62850747D01*
X186404580Y-62850747D02*
X186404580Y-63036461D01*
X186404580Y-63036461D02*
X186342676Y-63284080D01*
X186342676Y-63284080D02*
X186280771Y-63407890D01*
X186280771Y-63407890D02*
X186156961Y-63531700D01*
X186156961Y-63531700D02*
X185971247Y-63593604D01*
X185971247Y-63593604D02*
X185661723Y-63593604D01*
D10*
D11*
X100458026Y-71793328D02*
X100458026Y-70293328D01*
X100458026Y-70293328D02*
X100815169Y-70293328D01*
X100815169Y-70293328D02*
X101029455Y-70364757D01*
X101029455Y-70364757D02*
X101172312Y-70507614D01*
X101172312Y-70507614D02*
X101243741Y-70650471D01*
X101243741Y-70650471D02*
X101315169Y-70936185D01*
X101315169Y-70936185D02*
X101315169Y-71150471D01*
X101315169Y-71150471D02*
X101243741Y-71436185D01*
X101243741Y-71436185D02*
X101172312Y-71579042D01*
X101172312Y-71579042D02*
X101029455Y-71721900D01*
X101029455Y-71721900D02*
X100815169Y-71793328D01*
X100815169Y-71793328D02*
X100458026Y-71793328D01*
X102600884Y-71793328D02*
X102600884Y-71007614D01*
X102600884Y-71007614D02*
X102529455Y-70864757D01*
X102529455Y-70864757D02*
X102386598Y-70793328D01*
X102386598Y-70793328D02*
X102100884Y-70793328D01*
X102100884Y-70793328D02*
X101958026Y-70864757D01*
X102600884Y-71721900D02*
X102458026Y-71793328D01*
X102458026Y-71793328D02*
X102100884Y-71793328D01*
X102100884Y-71793328D02*
X101958026Y-71721900D01*
X101958026Y-71721900D02*
X101886598Y-71579042D01*
X101886598Y-71579042D02*
X101886598Y-71436185D01*
X101886598Y-71436185D02*
X101958026Y-71293328D01*
X101958026Y-71293328D02*
X102100884Y-71221900D01*
X102100884Y-71221900D02*
X102458026Y-71221900D01*
X102458026Y-71221900D02*
X102600884Y-71150471D01*
X103100884Y-70793328D02*
X103672312Y-70793328D01*
X103315169Y-70293328D02*
X103315169Y-71579042D01*
X103315169Y-71579042D02*
X103386598Y-71721900D01*
X103386598Y-71721900D02*
X103529455Y-71793328D01*
X103529455Y-71793328D02*
X103672312Y-71793328D01*
X104743741Y-71721900D02*
X104600884Y-71793328D01*
X104600884Y-71793328D02*
X104315170Y-71793328D01*
X104315170Y-71793328D02*
X104172312Y-71721900D01*
X104172312Y-71721900D02*
X104100884Y-71579042D01*
X104100884Y-71579042D02*
X104100884Y-71007614D01*
X104100884Y-71007614D02*
X104172312Y-70864757D01*
X104172312Y-70864757D02*
X104315170Y-70793328D01*
X104315170Y-70793328D02*
X104600884Y-70793328D01*
X104600884Y-70793328D02*
X104743741Y-70864757D01*
X104743741Y-70864757D02*
X104815170Y-71007614D01*
X104815170Y-71007614D02*
X104815170Y-71150471D01*
X104815170Y-71150471D02*
X104100884Y-71293328D01*
X105458026Y-71650471D02*
X105529455Y-71721900D01*
X105529455Y-71721900D02*
X105458026Y-71793328D01*
X105458026Y-71793328D02*
X105386598Y-71721900D01*
X105386598Y-71721900D02*
X105458026Y-71650471D01*
X105458026Y-71650471D02*
X105458026Y-71793328D01*
X105458026Y-70864757D02*
X105529455Y-70936185D01*
X105529455Y-70936185D02*
X105458026Y-71007614D01*
X105458026Y-71007614D02*
X105386598Y-70936185D01*
X105386598Y-70936185D02*
X105458026Y-70864757D01*
X105458026Y-70864757D02*
X105458026Y-71007614D01*
X107243741Y-70436185D02*
X107315169Y-70364757D01*
X107315169Y-70364757D02*
X107458027Y-70293328D01*
X107458027Y-70293328D02*
X107815169Y-70293328D01*
X107815169Y-70293328D02*
X107958027Y-70364757D01*
X107958027Y-70364757D02*
X108029455Y-70436185D01*
X108029455Y-70436185D02*
X108100884Y-70579042D01*
X108100884Y-70579042D02*
X108100884Y-70721900D01*
X108100884Y-70721900D02*
X108029455Y-70936185D01*
X108029455Y-70936185D02*
X107172312Y-71793328D01*
X107172312Y-71793328D02*
X108100884Y-71793328D01*
X109029455Y-70293328D02*
X109172312Y-70293328D01*
X109172312Y-70293328D02*
X109315169Y-70364757D01*
X109315169Y-70364757D02*
X109386598Y-70436185D01*
X109386598Y-70436185D02*
X109458026Y-70579042D01*
X109458026Y-70579042D02*
X109529455Y-70864757D01*
X109529455Y-70864757D02*
X109529455Y-71221900D01*
X109529455Y-71221900D02*
X109458026Y-71507614D01*
X109458026Y-71507614D02*
X109386598Y-71650471D01*
X109386598Y-71650471D02*
X109315169Y-71721900D01*
X109315169Y-71721900D02*
X109172312Y-71793328D01*
X109172312Y-71793328D02*
X109029455Y-71793328D01*
X109029455Y-71793328D02*
X108886598Y-71721900D01*
X108886598Y-71721900D02*
X108815169Y-71650471D01*
X108815169Y-71650471D02*
X108743740Y-71507614D01*
X108743740Y-71507614D02*
X108672312Y-71221900D01*
X108672312Y-71221900D02*
X108672312Y-70864757D01*
X108672312Y-70864757D02*
X108743740Y-70579042D01*
X108743740Y-70579042D02*
X108815169Y-70436185D01*
X108815169Y-70436185D02*
X108886598Y-70364757D01*
X108886598Y-70364757D02*
X109029455Y-70293328D01*
X110100883Y-70436185D02*
X110172311Y-70364757D01*
X110172311Y-70364757D02*
X110315169Y-70293328D01*
X110315169Y-70293328D02*
X110672311Y-70293328D01*
X110672311Y-70293328D02*
X110815169Y-70364757D01*
X110815169Y-70364757D02*
X110886597Y-70436185D01*
X110886597Y-70436185D02*
X110958026Y-70579042D01*
X110958026Y-70579042D02*
X110958026Y-70721900D01*
X110958026Y-70721900D02*
X110886597Y-70936185D01*
X110886597Y-70936185D02*
X110029454Y-71793328D01*
X110029454Y-71793328D02*
X110958026Y-71793328D01*
X112243740Y-70793328D02*
X112243740Y-71793328D01*
X111886597Y-70221900D02*
X111529454Y-71293328D01*
X111529454Y-71293328D02*
X112458025Y-71293328D01*
X113029453Y-71221900D02*
X114172311Y-71221900D01*
X115172311Y-70293328D02*
X115315168Y-70293328D01*
X115315168Y-70293328D02*
X115458025Y-70364757D01*
X115458025Y-70364757D02*
X115529454Y-70436185D01*
X115529454Y-70436185D02*
X115600882Y-70579042D01*
X115600882Y-70579042D02*
X115672311Y-70864757D01*
X115672311Y-70864757D02*
X115672311Y-71221900D01*
X115672311Y-71221900D02*
X115600882Y-71507614D01*
X115600882Y-71507614D02*
X115529454Y-71650471D01*
X115529454Y-71650471D02*
X115458025Y-71721900D01*
X115458025Y-71721900D02*
X115315168Y-71793328D01*
X115315168Y-71793328D02*
X115172311Y-71793328D01*
X115172311Y-71793328D02*
X115029454Y-71721900D01*
X115029454Y-71721900D02*
X114958025Y-71650471D01*
X114958025Y-71650471D02*
X114886596Y-71507614D01*
X114886596Y-71507614D02*
X114815168Y-71221900D01*
X114815168Y-71221900D02*
X114815168Y-70864757D01*
X114815168Y-70864757D02*
X114886596Y-70579042D01*
X114886596Y-70579042D02*
X114958025Y-70436185D01*
X114958025Y-70436185D02*
X115029454Y-70364757D01*
X115029454Y-70364757D02*
X115172311Y-70293328D01*
X117100882Y-71793328D02*
X116243739Y-71793328D01*
X116672310Y-71793328D02*
X116672310Y-70293328D01*
X116672310Y-70293328D02*
X116529453Y-70507614D01*
X116529453Y-70507614D02*
X116386596Y-70650471D01*
X116386596Y-70650471D02*
X116243739Y-70721900D01*
X117743738Y-71221900D02*
X118886596Y-71221900D01*
X119529453Y-70436185D02*
X119600881Y-70364757D01*
X119600881Y-70364757D02*
X119743739Y-70293328D01*
X119743739Y-70293328D02*
X120100881Y-70293328D01*
X120100881Y-70293328D02*
X120243739Y-70364757D01*
X120243739Y-70364757D02*
X120315167Y-70436185D01*
X120315167Y-70436185D02*
X120386596Y-70579042D01*
X120386596Y-70579042D02*
X120386596Y-70721900D01*
X120386596Y-70721900D02*
X120315167Y-70936185D01*
X120315167Y-70936185D02*
X119458024Y-71793328D01*
X119458024Y-71793328D02*
X120386596Y-71793328D01*
X121315167Y-70293328D02*
X121458024Y-70293328D01*
X121458024Y-70293328D02*
X121600881Y-70364757D01*
X121600881Y-70364757D02*
X121672310Y-70436185D01*
X121672310Y-70436185D02*
X121743738Y-70579042D01*
X121743738Y-70579042D02*
X121815167Y-70864757D01*
X121815167Y-70864757D02*
X121815167Y-71221900D01*
X121815167Y-71221900D02*
X121743738Y-71507614D01*
X121743738Y-71507614D02*
X121672310Y-71650471D01*
X121672310Y-71650471D02*
X121600881Y-71721900D01*
X121600881Y-71721900D02*
X121458024Y-71793328D01*
X121458024Y-71793328D02*
X121315167Y-71793328D01*
X121315167Y-71793328D02*
X121172310Y-71721900D01*
X121172310Y-71721900D02*
X121100881Y-71650471D01*
X121100881Y-71650471D02*
X121029452Y-71507614D01*
X121029452Y-71507614D02*
X120958024Y-71221900D01*
X120958024Y-71221900D02*
X120958024Y-70864757D01*
X120958024Y-70864757D02*
X121029452Y-70579042D01*
X121029452Y-70579042D02*
X121100881Y-70436185D01*
X121100881Y-70436185D02*
X121172310Y-70364757D01*
X121172310Y-70364757D02*
X121315167Y-70293328D01*
D10*
D11*
X77002200Y-72507200D02*
X185002200Y-72507200D01*
D10*
D11*
X78458026Y-74593328D02*
X78458026Y-73093328D01*
X79315169Y-74593328D02*
X78672312Y-73736185D01*
X79315169Y-73093328D02*
X78458026Y-73950471D01*
X79958026Y-74593328D02*
X79958026Y-73593328D01*
X79958026Y-73093328D02*
X79886598Y-73164757D01*
X79886598Y-73164757D02*
X79958026Y-73236185D01*
X79958026Y-73236185D02*
X80029455Y-73164757D01*
X80029455Y-73164757D02*
X79958026Y-73093328D01*
X79958026Y-73093328D02*
X79958026Y-73236185D01*
X81529455Y-74450471D02*
X81458027Y-74521900D01*
X81458027Y-74521900D02*
X81243741Y-74593328D01*
X81243741Y-74593328D02*
X81100884Y-74593328D01*
X81100884Y-74593328D02*
X80886598Y-74521900D01*
X80886598Y-74521900D02*
X80743741Y-74379042D01*
X80743741Y-74379042D02*
X80672312Y-74236185D01*
X80672312Y-74236185D02*
X80600884Y-73950471D01*
X80600884Y-73950471D02*
X80600884Y-73736185D01*
X80600884Y-73736185D02*
X80672312Y-73450471D01*
X80672312Y-73450471D02*
X80743741Y-73307614D01*
X80743741Y-73307614D02*
X80886598Y-73164757D01*
X80886598Y-73164757D02*
X81100884Y-73093328D01*
X81100884Y-73093328D02*
X81243741Y-73093328D01*
X81243741Y-73093328D02*
X81458027Y-73164757D01*
X81458027Y-73164757D02*
X81529455Y-73236185D01*
X82815170Y-74593328D02*
X82815170Y-73807614D01*
X82815170Y-73807614D02*
X82743741Y-73664757D01*
X82743741Y-73664757D02*
X82600884Y-73593328D01*
X82600884Y-73593328D02*
X82315170Y-73593328D01*
X82315170Y-73593328D02*
X82172312Y-73664757D01*
X82815170Y-74521900D02*
X82672312Y-74593328D01*
X82672312Y-74593328D02*
X82315170Y-74593328D01*
X82315170Y-74593328D02*
X82172312Y-74521900D01*
X82172312Y-74521900D02*
X82100884Y-74379042D01*
X82100884Y-74379042D02*
X82100884Y-74236185D01*
X82100884Y-74236185D02*
X82172312Y-74093328D01*
X82172312Y-74093328D02*
X82315170Y-74021900D01*
X82315170Y-74021900D02*
X82672312Y-74021900D01*
X82672312Y-74021900D02*
X82815170Y-73950471D01*
X84172313Y-74593328D02*
X84172313Y-73093328D01*
X84172313Y-74521900D02*
X84029455Y-74593328D01*
X84029455Y-74593328D02*
X83743741Y-74593328D01*
X83743741Y-74593328D02*
X83600884Y-74521900D01*
X83600884Y-74521900D02*
X83529455Y-74450471D01*
X83529455Y-74450471D02*
X83458027Y-74307614D01*
X83458027Y-74307614D02*
X83458027Y-73879042D01*
X83458027Y-73879042D02*
X83529455Y-73736185D01*
X83529455Y-73736185D02*
X83600884Y-73664757D01*
X83600884Y-73664757D02*
X83743741Y-73593328D01*
X83743741Y-73593328D02*
X84029455Y-73593328D01*
X84029455Y-73593328D02*
X84172313Y-73664757D01*
X86029455Y-73807614D02*
X86529455Y-73807614D01*
X86743741Y-74593328D02*
X86029455Y-74593328D01*
X86029455Y-74593328D02*
X86029455Y-73093328D01*
X86029455Y-73093328D02*
X86743741Y-73093328D01*
X87386598Y-74450471D02*
X87458027Y-74521900D01*
X87458027Y-74521900D02*
X87386598Y-74593328D01*
X87386598Y-74593328D02*
X87315170Y-74521900D01*
X87315170Y-74521900D02*
X87386598Y-74450471D01*
X87386598Y-74450471D02*
X87386598Y-74593328D01*
X88100884Y-74593328D02*
X88100884Y-73093328D01*
X88100884Y-73093328D02*
X88458027Y-73093328D01*
X88458027Y-73093328D02*
X88672313Y-73164757D01*
X88672313Y-73164757D02*
X88815170Y-73307614D01*
X88815170Y-73307614D02*
X88886599Y-73450471D01*
X88886599Y-73450471D02*
X88958027Y-73736185D01*
X88958027Y-73736185D02*
X88958027Y-73950471D01*
X88958027Y-73950471D02*
X88886599Y-74236185D01*
X88886599Y-74236185D02*
X88815170Y-74379042D01*
X88815170Y-74379042D02*
X88672313Y-74521900D01*
X88672313Y-74521900D02*
X88458027Y-74593328D01*
X88458027Y-74593328D02*
X88100884Y-74593328D01*
X89600884Y-74450471D02*
X89672313Y-74521900D01*
X89672313Y-74521900D02*
X89600884Y-74593328D01*
X89600884Y-74593328D02*
X89529456Y-74521900D01*
X89529456Y-74521900D02*
X89600884Y-74450471D01*
X89600884Y-74450471D02*
X89600884Y-74593328D01*
X90243742Y-74164757D02*
X90958028Y-74164757D01*
X90100885Y-74593328D02*
X90600885Y-73093328D01*
X90600885Y-73093328D02*
X91100885Y-74593328D01*
X91600884Y-74450471D02*
X91672313Y-74521900D01*
X91672313Y-74521900D02*
X91600884Y-74593328D01*
X91600884Y-74593328D02*
X91529456Y-74521900D01*
X91529456Y-74521900D02*
X91600884Y-74450471D01*
X91600884Y-74450471D02*
X91600884Y-74593328D01*
X94600884Y-74593328D02*
X94600884Y-73093328D01*
X94743742Y-74021900D02*
X95172313Y-74593328D01*
X95172313Y-73593328D02*
X94600884Y-74164757D01*
X95815170Y-74593328D02*
X95815170Y-73593328D01*
X95815170Y-73093328D02*
X95743742Y-73164757D01*
X95743742Y-73164757D02*
X95815170Y-73236185D01*
X95815170Y-73236185D02*
X95886599Y-73164757D01*
X95886599Y-73164757D02*
X95815170Y-73093328D01*
X95815170Y-73093328D02*
X95815170Y-73236185D01*
X97172314Y-74521900D02*
X97029456Y-74593328D01*
X97029456Y-74593328D02*
X96743742Y-74593328D01*
X96743742Y-74593328D02*
X96600885Y-74521900D01*
X96600885Y-74521900D02*
X96529456Y-74450471D01*
X96529456Y-74450471D02*
X96458028Y-74307614D01*
X96458028Y-74307614D02*
X96458028Y-73879042D01*
X96458028Y-73879042D02*
X96529456Y-73736185D01*
X96529456Y-73736185D02*
X96600885Y-73664757D01*
X96600885Y-73664757D02*
X96743742Y-73593328D01*
X96743742Y-73593328D02*
X97029456Y-73593328D01*
X97029456Y-73593328D02*
X97172314Y-73664757D01*
X98458028Y-74593328D02*
X98458028Y-73807614D01*
X98458028Y-73807614D02*
X98386599Y-73664757D01*
X98386599Y-73664757D02*
X98243742Y-73593328D01*
X98243742Y-73593328D02*
X97958028Y-73593328D01*
X97958028Y-73593328D02*
X97815170Y-73664757D01*
X98458028Y-74521900D02*
X98315170Y-74593328D01*
X98315170Y-74593328D02*
X97958028Y-74593328D01*
X97958028Y-74593328D02*
X97815170Y-74521900D01*
X97815170Y-74521900D02*
X97743742Y-74379042D01*
X97743742Y-74379042D02*
X97743742Y-74236185D01*
X97743742Y-74236185D02*
X97815170Y-74093328D01*
X97815170Y-74093328D02*
X97958028Y-74021900D01*
X97958028Y-74021900D02*
X98315170Y-74021900D01*
X98315170Y-74021900D02*
X98458028Y-73950471D01*
X99815171Y-74593328D02*
X99815171Y-73093328D01*
X99815171Y-74521900D02*
X99672313Y-74593328D01*
X99672313Y-74593328D02*
X99386599Y-74593328D01*
X99386599Y-74593328D02*
X99243742Y-74521900D01*
X99243742Y-74521900D02*
X99172313Y-74450471D01*
X99172313Y-74450471D02*
X99100885Y-74307614D01*
X99100885Y-74307614D02*
X99100885Y-73879042D01*
X99100885Y-73879042D02*
X99172313Y-73736185D01*
X99172313Y-73736185D02*
X99243742Y-73664757D01*
X99243742Y-73664757D02*
X99386599Y-73593328D01*
X99386599Y-73593328D02*
X99672313Y-73593328D01*
X99672313Y-73593328D02*
X99815171Y-73664757D01*
X101529456Y-73093328D02*
X102529456Y-73093328D01*
X102529456Y-73093328D02*
X101886599Y-74593328D01*
X103100884Y-74450471D02*
X103172313Y-74521900D01*
X103172313Y-74521900D02*
X103100884Y-74593328D01*
X103100884Y-74593328D02*
X103029456Y-74521900D01*
X103029456Y-74521900D02*
X103100884Y-74450471D01*
X103100884Y-74450471D02*
X103100884Y-74593328D01*
X104100885Y-73093328D02*
X104243742Y-73093328D01*
X104243742Y-73093328D02*
X104386599Y-73164757D01*
X104386599Y-73164757D02*
X104458028Y-73236185D01*
X104458028Y-73236185D02*
X104529456Y-73379042D01*
X104529456Y-73379042D02*
X104600885Y-73664757D01*
X104600885Y-73664757D02*
X104600885Y-74021900D01*
X104600885Y-74021900D02*
X104529456Y-74307614D01*
X104529456Y-74307614D02*
X104458028Y-74450471D01*
X104458028Y-74450471D02*
X104386599Y-74521900D01*
X104386599Y-74521900D02*
X104243742Y-74593328D01*
X104243742Y-74593328D02*
X104100885Y-74593328D01*
X104100885Y-74593328D02*
X103958028Y-74521900D01*
X103958028Y-74521900D02*
X103886599Y-74450471D01*
X103886599Y-74450471D02*
X103815170Y-74307614D01*
X103815170Y-74307614D02*
X103743742Y-74021900D01*
X103743742Y-74021900D02*
X103743742Y-73664757D01*
X103743742Y-73664757D02*
X103815170Y-73379042D01*
X103815170Y-73379042D02*
X103886599Y-73236185D01*
X103886599Y-73236185D02*
X103958028Y-73164757D01*
X103958028Y-73164757D02*
X104100885Y-73093328D01*
X105243741Y-74450471D02*
X105315170Y-74521900D01*
X105315170Y-74521900D02*
X105243741Y-74593328D01*
X105243741Y-74593328D02*
X105172313Y-74521900D01*
X105172313Y-74521900D02*
X105243741Y-74450471D01*
X105243741Y-74450471D02*
X105243741Y-74593328D01*
X105815170Y-73093328D02*
X106815170Y-73093328D01*
X106815170Y-73093328D02*
X106172313Y-74593328D01*
D10*
D11*
X77002200Y-69507200D02*
X185002200Y-69507200D01*
D10*
D12*
X164413853Y-71785528D02*
X163913853Y-71071242D01*
X163556710Y-71785528D02*
X163556710Y-70285528D01*
X163556710Y-70285528D02*
X164128139Y-70285528D01*
X164128139Y-70285528D02*
X164270996Y-70356957D01*
X164270996Y-70356957D02*
X164342425Y-70428385D01*
X164342425Y-70428385D02*
X164413853Y-70571242D01*
X164413853Y-70571242D02*
X164413853Y-70785528D01*
X164413853Y-70785528D02*
X164342425Y-70928385D01*
X164342425Y-70928385D02*
X164270996Y-70999814D01*
X164270996Y-70999814D02*
X164128139Y-71071242D01*
X164128139Y-71071242D02*
X163556710Y-71071242D01*
X165628139Y-71714100D02*
X165485282Y-71785528D01*
X165485282Y-71785528D02*
X165199568Y-71785528D01*
X165199568Y-71785528D02*
X165056710Y-71714100D01*
X165056710Y-71714100D02*
X164985282Y-71571242D01*
X164985282Y-71571242D02*
X164985282Y-70999814D01*
X164985282Y-70999814D02*
X165056710Y-70856957D01*
X165056710Y-70856957D02*
X165199568Y-70785528D01*
X165199568Y-70785528D02*
X165485282Y-70785528D01*
X165485282Y-70785528D02*
X165628139Y-70856957D01*
X165628139Y-70856957D02*
X165699568Y-70999814D01*
X165699568Y-70999814D02*
X165699568Y-71142671D01*
X165699568Y-71142671D02*
X164985282Y-71285528D01*
X166199567Y-70785528D02*
X166556710Y-71785528D01*
X166556710Y-71785528D02*
X166913853Y-70785528D01*
X167485281Y-71642671D02*
X167556710Y-71714100D01*
X167556710Y-71714100D02*
X167485281Y-71785528D01*
X167485281Y-71785528D02*
X167413853Y-71714100D01*
X167413853Y-71714100D02*
X167485281Y-71642671D01*
X167485281Y-71642671D02*
X167485281Y-71785528D01*
X167485281Y-70856957D02*
X167556710Y-70928385D01*
X167556710Y-70928385D02*
X167485281Y-70999814D01*
X167485281Y-70999814D02*
X167413853Y-70928385D01*
X167413853Y-70928385D02*
X167485281Y-70856957D01*
X167485281Y-70856957D02*
X167485281Y-70999814D01*
X170128139Y-71785528D02*
X169270996Y-71785528D01*
X169699567Y-71785528D02*
X169699567Y-70285528D01*
X169699567Y-70285528D02*
X169556710Y-70499814D01*
X169556710Y-70499814D02*
X169413853Y-70642671D01*
X169413853Y-70642671D02*
X169270996Y-70714100D01*
X170770995Y-71642671D02*
X170842424Y-71714100D01*
X170842424Y-71714100D02*
X170770995Y-71785528D01*
X170770995Y-71785528D02*
X170699567Y-71714100D01*
X170699567Y-71714100D02*
X170770995Y-71642671D01*
X170770995Y-71642671D02*
X170770995Y-71785528D01*
X171770996Y-70285528D02*
X171913853Y-70285528D01*
X171913853Y-70285528D02*
X172056710Y-70356957D01*
X172056710Y-70356957D02*
X172128139Y-70428385D01*
X172128139Y-70428385D02*
X172199567Y-70571242D01*
X172199567Y-70571242D02*
X172270996Y-70856957D01*
X172270996Y-70856957D02*
X172270996Y-71214100D01*
X172270996Y-71214100D02*
X172199567Y-71499814D01*
X172199567Y-71499814D02*
X172128139Y-71642671D01*
X172128139Y-71642671D02*
X172056710Y-71714100D01*
X172056710Y-71714100D02*
X171913853Y-71785528D01*
X171913853Y-71785528D02*
X171770996Y-71785528D01*
X171770996Y-71785528D02*
X171628139Y-71714100D01*
X171628139Y-71714100D02*
X171556710Y-71642671D01*
X171556710Y-71642671D02*
X171485281Y-71499814D01*
X171485281Y-71499814D02*
X171413853Y-71214100D01*
X171413853Y-71214100D02*
X171413853Y-70856957D01*
X171413853Y-70856957D02*
X171485281Y-70571242D01*
X171485281Y-70571242D02*
X171556710Y-70428385D01*
X171556710Y-70428385D02*
X171628139Y-70356957D01*
X171628139Y-70356957D02*
X171770996Y-70285528D01*
D10*
D11*
X78386598Y-71721900D02*
X78600884Y-71793328D01*
X78600884Y-71793328D02*
X78958026Y-71793328D01*
X78958026Y-71793328D02*
X79100884Y-71721900D01*
X79100884Y-71721900D02*
X79172312Y-71650471D01*
X79172312Y-71650471D02*
X79243741Y-71507614D01*
X79243741Y-71507614D02*
X79243741Y-71364757D01*
X79243741Y-71364757D02*
X79172312Y-71221900D01*
X79172312Y-71221900D02*
X79100884Y-71150471D01*
X79100884Y-71150471D02*
X78958026Y-71079042D01*
X78958026Y-71079042D02*
X78672312Y-71007614D01*
X78672312Y-71007614D02*
X78529455Y-70936185D01*
X78529455Y-70936185D02*
X78458026Y-70864757D01*
X78458026Y-70864757D02*
X78386598Y-70721900D01*
X78386598Y-70721900D02*
X78386598Y-70579042D01*
X78386598Y-70579042D02*
X78458026Y-70436185D01*
X78458026Y-70436185D02*
X78529455Y-70364757D01*
X78529455Y-70364757D02*
X78672312Y-70293328D01*
X78672312Y-70293328D02*
X79029455Y-70293328D01*
X79029455Y-70293328D02*
X79243741Y-70364757D01*
X79886597Y-71793328D02*
X79886597Y-70793328D01*
X79886597Y-70293328D02*
X79815169Y-70364757D01*
X79815169Y-70364757D02*
X79886597Y-70436185D01*
X79886597Y-70436185D02*
X79958026Y-70364757D01*
X79958026Y-70364757D02*
X79886597Y-70293328D01*
X79886597Y-70293328D02*
X79886597Y-70436185D01*
X80458026Y-70793328D02*
X81243741Y-70793328D01*
X81243741Y-70793328D02*
X80458026Y-71793328D01*
X80458026Y-71793328D02*
X81243741Y-71793328D01*
X82386598Y-71721900D02*
X82243741Y-71793328D01*
X82243741Y-71793328D02*
X81958027Y-71793328D01*
X81958027Y-71793328D02*
X81815169Y-71721900D01*
X81815169Y-71721900D02*
X81743741Y-71579042D01*
X81743741Y-71579042D02*
X81743741Y-71007614D01*
X81743741Y-71007614D02*
X81815169Y-70864757D01*
X81815169Y-70864757D02*
X81958027Y-70793328D01*
X81958027Y-70793328D02*
X82243741Y-70793328D01*
X82243741Y-70793328D02*
X82386598Y-70864757D01*
X82386598Y-70864757D02*
X82458027Y-71007614D01*
X82458027Y-71007614D02*
X82458027Y-71150471D01*
X82458027Y-71150471D02*
X81743741Y-71293328D01*
X83100883Y-71650471D02*
X83172312Y-71721900D01*
X83172312Y-71721900D02*
X83100883Y-71793328D01*
X83100883Y-71793328D02*
X83029455Y-71721900D01*
X83029455Y-71721900D02*
X83100883Y-71650471D01*
X83100883Y-71650471D02*
X83100883Y-71793328D01*
X83100883Y-70864757D02*
X83172312Y-70936185D01*
X83172312Y-70936185D02*
X83100883Y-71007614D01*
X83100883Y-71007614D02*
X83029455Y-70936185D01*
X83029455Y-70936185D02*
X83100883Y-70864757D01*
X83100883Y-70864757D02*
X83100883Y-71007614D01*
X84886598Y-71364757D02*
X85600884Y-71364757D01*
X84743741Y-71793328D02*
X85243741Y-70293328D01*
X85243741Y-70293328D02*
X85743741Y-71793328D01*
X86886598Y-70793328D02*
X86886598Y-71793328D01*
X86529455Y-70221900D02*
X86172312Y-71293328D01*
X86172312Y-71293328D02*
X87100883Y-71293328D01*
D10*
D11*
X163458026Y-74593328D02*
X163458026Y-73093328D01*
X164815170Y-74593328D02*
X164815170Y-73093328D01*
X164815170Y-74521900D02*
X164672312Y-74593328D01*
X164672312Y-74593328D02*
X164386598Y-74593328D01*
X164386598Y-74593328D02*
X164243741Y-74521900D01*
X164243741Y-74521900D02*
X164172312Y-74450471D01*
X164172312Y-74450471D02*
X164100884Y-74307614D01*
X164100884Y-74307614D02*
X164100884Y-73879042D01*
X164100884Y-73879042D02*
X164172312Y-73736185D01*
X164172312Y-73736185D02*
X164243741Y-73664757D01*
X164243741Y-73664757D02*
X164386598Y-73593328D01*
X164386598Y-73593328D02*
X164672312Y-73593328D01*
X164672312Y-73593328D02*
X164815170Y-73664757D01*
X165529455Y-74450471D02*
X165600884Y-74521900D01*
X165600884Y-74521900D02*
X165529455Y-74593328D01*
X165529455Y-74593328D02*
X165458027Y-74521900D01*
X165458027Y-74521900D02*
X165529455Y-74450471D01*
X165529455Y-74450471D02*
X165529455Y-74593328D01*
X165529455Y-73664757D02*
X165600884Y-73736185D01*
X165600884Y-73736185D02*
X165529455Y-73807614D01*
X165529455Y-73807614D02*
X165458027Y-73736185D01*
X165458027Y-73736185D02*
X165529455Y-73664757D01*
X165529455Y-73664757D02*
X165529455Y-73807614D01*
X168172313Y-74593328D02*
X167315170Y-74593328D01*
X167743741Y-74593328D02*
X167743741Y-73093328D01*
X167743741Y-73093328D02*
X167600884Y-73307614D01*
X167600884Y-73307614D02*
X167458027Y-73450471D01*
X167458027Y-73450471D02*
X167315170Y-73521900D01*
X169886598Y-73021900D02*
X168600884Y-74950471D01*
X171172313Y-74593328D02*
X170315170Y-74593328D01*
X170743741Y-74593328D02*
X170743741Y-73093328D01*
X170743741Y-73093328D02*
X170600884Y-73307614D01*
X170600884Y-73307614D02*
X170458027Y-73450471D01*
X170458027Y-73450471D02*
X170315170Y-73521900D01*
D10*
D11*
X77002200Y-65507200D02*
X185002200Y-65507200D01*
D10*
D13*
X78693928Y-66211638D02*
X79836785Y-66211638D01*
X79015357Y-68211638D02*
X79265357Y-66211638D01*
X80253452Y-68211638D02*
X80420119Y-66878304D01*
X80503452Y-66211638D02*
X80396309Y-66306876D01*
X80396309Y-66306876D02*
X80479643Y-66402114D01*
X80479643Y-66402114D02*
X80586786Y-66306876D01*
X80586786Y-66306876D02*
X80503452Y-66211638D01*
X80503452Y-66211638D02*
X80479643Y-66402114D01*
X81086786Y-66878304D02*
X81848690Y-66878304D01*
X81455833Y-66211638D02*
X81241548Y-67925923D01*
X81241548Y-67925923D02*
X81312976Y-68116400D01*
X81312976Y-68116400D02*
X81491548Y-68211638D01*
X81491548Y-68211638D02*
X81682024Y-68211638D01*
X82634405Y-68211638D02*
X82455833Y-68116400D01*
X82455833Y-68116400D02*
X82384405Y-67925923D01*
X82384405Y-67925923D02*
X82598690Y-66211638D01*
X84170119Y-68116400D02*
X83967738Y-68211638D01*
X83967738Y-68211638D02*
X83586785Y-68211638D01*
X83586785Y-68211638D02*
X83408214Y-68116400D01*
X83408214Y-68116400D02*
X83336785Y-67925923D01*
X83336785Y-67925923D02*
X83432024Y-67164019D01*
X83432024Y-67164019D02*
X83551071Y-66973542D01*
X83551071Y-66973542D02*
X83753452Y-66878304D01*
X83753452Y-66878304D02*
X84134404Y-66878304D01*
X84134404Y-66878304D02*
X84312976Y-66973542D01*
X84312976Y-66973542D02*
X84384404Y-67164019D01*
X84384404Y-67164019D02*
X84360595Y-67354495D01*
X84360595Y-67354495D02*
X83384404Y-67544971D01*
X85134405Y-68021161D02*
X85217738Y-68116400D01*
X85217738Y-68116400D02*
X85110595Y-68211638D01*
X85110595Y-68211638D02*
X85027262Y-68116400D01*
X85027262Y-68116400D02*
X85134405Y-68021161D01*
X85134405Y-68021161D02*
X85110595Y-68211638D01*
X85265357Y-66973542D02*
X85348690Y-67068780D01*
X85348690Y-67068780D02*
X85241548Y-67164019D01*
X85241548Y-67164019D02*
X85158214Y-67068780D01*
X85158214Y-67068780D02*
X85265357Y-66973542D01*
X85265357Y-66973542D02*
X85241548Y-67164019D01*
X87586786Y-68211638D02*
X87753453Y-66878304D01*
X87729643Y-67068780D02*
X87836786Y-66973542D01*
X87836786Y-66973542D02*
X88039167Y-66878304D01*
X88039167Y-66878304D02*
X88324881Y-66878304D01*
X88324881Y-66878304D02*
X88503453Y-66973542D01*
X88503453Y-66973542D02*
X88574881Y-67164019D01*
X88574881Y-67164019D02*
X88443929Y-68211638D01*
X88574881Y-67164019D02*
X88693929Y-66973542D01*
X88693929Y-66973542D02*
X88896310Y-66878304D01*
X88896310Y-66878304D02*
X89182024Y-66878304D01*
X89182024Y-66878304D02*
X89360596Y-66973542D01*
X89360596Y-66973542D02*
X89432024Y-67164019D01*
X89432024Y-67164019D02*
X89301072Y-68211638D01*
X90253453Y-68211638D02*
X90420120Y-66878304D01*
X90503453Y-66211638D02*
X90396310Y-66306876D01*
X90396310Y-66306876D02*
X90479644Y-66402114D01*
X90479644Y-66402114D02*
X90586787Y-66306876D01*
X90586787Y-66306876D02*
X90503453Y-66211638D01*
X90503453Y-66211638D02*
X90479644Y-66402114D01*
X92062977Y-68211638D02*
X92312977Y-66211638D01*
X92074882Y-68116400D02*
X91872501Y-68211638D01*
X91872501Y-68211638D02*
X91491549Y-68211638D01*
X91491549Y-68211638D02*
X91312977Y-68116400D01*
X91312977Y-68116400D02*
X91229644Y-68021161D01*
X91229644Y-68021161D02*
X91158215Y-67830685D01*
X91158215Y-67830685D02*
X91229644Y-67259257D01*
X91229644Y-67259257D02*
X91348691Y-67068780D01*
X91348691Y-67068780D02*
X91455834Y-66973542D01*
X91455834Y-66973542D02*
X91658215Y-66878304D01*
X91658215Y-66878304D02*
X92039168Y-66878304D01*
X92039168Y-66878304D02*
X92217739Y-66973542D01*
X93015358Y-68211638D02*
X93182025Y-66878304D01*
X93265358Y-66211638D02*
X93158215Y-66306876D01*
X93158215Y-66306876D02*
X93241549Y-66402114D01*
X93241549Y-66402114D02*
X93348692Y-66306876D01*
X93348692Y-66306876D02*
X93265358Y-66211638D01*
X93265358Y-66211638D02*
X93241549Y-66402114D01*
X94062977Y-67449733D02*
X95586787Y-67449733D01*
X97301072Y-68211638D02*
X97551072Y-66211638D01*
X97312977Y-68116400D02*
X97110596Y-68211638D01*
X97110596Y-68211638D02*
X96729644Y-68211638D01*
X96729644Y-68211638D02*
X96551072Y-68116400D01*
X96551072Y-68116400D02*
X96467739Y-68021161D01*
X96467739Y-68021161D02*
X96396310Y-67830685D01*
X96396310Y-67830685D02*
X96467739Y-67259257D01*
X96467739Y-67259257D02*
X96586786Y-67068780D01*
X96586786Y-67068780D02*
X96693929Y-66973542D01*
X96693929Y-66973542D02*
X96896310Y-66878304D01*
X96896310Y-66878304D02*
X97277263Y-66878304D01*
X97277263Y-66878304D02*
X97455834Y-66973542D01*
X98253453Y-68211638D02*
X98420120Y-66878304D01*
X98396310Y-67068780D02*
X98503453Y-66973542D01*
X98503453Y-66973542D02*
X98705834Y-66878304D01*
X98705834Y-66878304D02*
X98991548Y-66878304D01*
X98991548Y-66878304D02*
X99170120Y-66973542D01*
X99170120Y-66973542D02*
X99241548Y-67164019D01*
X99241548Y-67164019D02*
X99110596Y-68211638D01*
X99241548Y-67164019D02*
X99360596Y-66973542D01*
X99360596Y-66973542D02*
X99562977Y-66878304D01*
X99562977Y-66878304D02*
X99848691Y-66878304D01*
X99848691Y-66878304D02*
X100027263Y-66973542D01*
X100027263Y-66973542D02*
X100098691Y-67164019D01*
X100098691Y-67164019D02*
X99967739Y-68211638D01*
X100729644Y-68211638D02*
X101943930Y-66878304D01*
X100896311Y-66878304D02*
X101777263Y-68211638D01*
X102039168Y-68402114D02*
X103562978Y-68402114D01*
X104062978Y-68211638D02*
X104312978Y-66211638D01*
X104217740Y-66973542D02*
X104420121Y-66878304D01*
X104420121Y-66878304D02*
X104801073Y-66878304D01*
X104801073Y-66878304D02*
X104979645Y-66973542D01*
X104979645Y-66973542D02*
X105062978Y-67068780D01*
X105062978Y-67068780D02*
X105134407Y-67259257D01*
X105134407Y-67259257D02*
X105062978Y-67830685D01*
X105062978Y-67830685D02*
X104943931Y-68021161D01*
X104943931Y-68021161D02*
X104836788Y-68116400D01*
X104836788Y-68116400D02*
X104634407Y-68211638D01*
X104634407Y-68211638D02*
X104253454Y-68211638D01*
X104253454Y-68211638D02*
X104074883Y-68116400D01*
X105872502Y-68211638D02*
X106039169Y-66878304D01*
X105991550Y-67259257D02*
X106110597Y-67068780D01*
X106110597Y-67068780D02*
X106217740Y-66973542D01*
X106217740Y-66973542D02*
X106420121Y-66878304D01*
X106420121Y-66878304D02*
X106610597Y-66878304D01*
X107110597Y-68211638D02*
X107277264Y-66878304D01*
X107360597Y-66211638D02*
X107253454Y-66306876D01*
X107253454Y-66306876D02*
X107336788Y-66402114D01*
X107336788Y-66402114D02*
X107443931Y-66306876D01*
X107443931Y-66306876D02*
X107360597Y-66211638D01*
X107360597Y-66211638D02*
X107336788Y-66402114D01*
X108920121Y-68211638D02*
X109170121Y-66211638D01*
X108932026Y-68116400D02*
X108729645Y-68211638D01*
X108729645Y-68211638D02*
X108348693Y-68211638D01*
X108348693Y-68211638D02*
X108170121Y-68116400D01*
X108170121Y-68116400D02*
X108086788Y-68021161D01*
X108086788Y-68021161D02*
X108015359Y-67830685D01*
X108015359Y-67830685D02*
X108086788Y-67259257D01*
X108086788Y-67259257D02*
X108205835Y-67068780D01*
X108205835Y-67068780D02*
X108312978Y-66973542D01*
X108312978Y-66973542D02*
X108515359Y-66878304D01*
X108515359Y-66878304D02*
X108896312Y-66878304D01*
X108896312Y-66878304D02*
X109074883Y-66973542D01*
X110896312Y-66878304D02*
X110693931Y-68497352D01*
X110693931Y-68497352D02*
X110574883Y-68687828D01*
X110574883Y-68687828D02*
X110467740Y-68783066D01*
X110467740Y-68783066D02*
X110265359Y-68878304D01*
X110265359Y-68878304D02*
X109979645Y-68878304D01*
X109979645Y-68878304D02*
X109801074Y-68783066D01*
X110741550Y-68116400D02*
X110539169Y-68211638D01*
X110539169Y-68211638D02*
X110158217Y-68211638D01*
X110158217Y-68211638D02*
X109979645Y-68116400D01*
X109979645Y-68116400D02*
X109896312Y-68021161D01*
X109896312Y-68021161D02*
X109824883Y-67830685D01*
X109824883Y-67830685D02*
X109896312Y-67259257D01*
X109896312Y-67259257D02*
X110015359Y-67068780D01*
X110015359Y-67068780D02*
X110122502Y-66973542D01*
X110122502Y-66973542D02*
X110324883Y-66878304D01*
X110324883Y-66878304D02*
X110705836Y-66878304D01*
X110705836Y-66878304D02*
X110884407Y-66973542D01*
X112455836Y-68116400D02*
X112253455Y-68211638D01*
X112253455Y-68211638D02*
X111872502Y-68211638D01*
X111872502Y-68211638D02*
X111693931Y-68116400D01*
X111693931Y-68116400D02*
X111622502Y-67925923D01*
X111622502Y-67925923D02*
X111717741Y-67164019D01*
X111717741Y-67164019D02*
X111836788Y-66973542D01*
X111836788Y-66973542D02*
X112039169Y-66878304D01*
X112039169Y-66878304D02*
X112420121Y-66878304D01*
X112420121Y-66878304D02*
X112598693Y-66973542D01*
X112598693Y-66973542D02*
X112670121Y-67164019D01*
X112670121Y-67164019D02*
X112646312Y-67354495D01*
X112646312Y-67354495D02*
X111670121Y-67544971D01*
D10*
D11*
X78958026Y-63607614D02*
X78458026Y-63607614D01*
X78458026Y-64393328D02*
X78458026Y-62893328D01*
X78458026Y-62893328D02*
X79172312Y-62893328D01*
X79743740Y-64393328D02*
X79743740Y-63393328D01*
X79743740Y-62893328D02*
X79672312Y-62964757D01*
X79672312Y-62964757D02*
X79743740Y-63036185D01*
X79743740Y-63036185D02*
X79815169Y-62964757D01*
X79815169Y-62964757D02*
X79743740Y-62893328D01*
X79743740Y-62893328D02*
X79743740Y-63036185D01*
X80672312Y-64393328D02*
X80529455Y-64321900D01*
X80529455Y-64321900D02*
X80458026Y-64179042D01*
X80458026Y-64179042D02*
X80458026Y-62893328D01*
X81815169Y-64321900D02*
X81672312Y-64393328D01*
X81672312Y-64393328D02*
X81386598Y-64393328D01*
X81386598Y-64393328D02*
X81243740Y-64321900D01*
X81243740Y-64321900D02*
X81172312Y-64179042D01*
X81172312Y-64179042D02*
X81172312Y-63607614D01*
X81172312Y-63607614D02*
X81243740Y-63464757D01*
X81243740Y-63464757D02*
X81386598Y-63393328D01*
X81386598Y-63393328D02*
X81672312Y-63393328D01*
X81672312Y-63393328D02*
X81815169Y-63464757D01*
X81815169Y-63464757D02*
X81886598Y-63607614D01*
X81886598Y-63607614D02*
X81886598Y-63750471D01*
X81886598Y-63750471D02*
X81172312Y-63893328D01*
X82529454Y-64250471D02*
X82600883Y-64321900D01*
X82600883Y-64321900D02*
X82529454Y-64393328D01*
X82529454Y-64393328D02*
X82458026Y-64321900D01*
X82458026Y-64321900D02*
X82529454Y-64250471D01*
X82529454Y-64250471D02*
X82529454Y-64393328D01*
X82529454Y-63464757D02*
X82600883Y-63536185D01*
X82600883Y-63536185D02*
X82529454Y-63607614D01*
X82529454Y-63607614D02*
X82458026Y-63536185D01*
X82458026Y-63536185D02*
X82529454Y-63464757D01*
X82529454Y-63464757D02*
X82529454Y-63607614D01*
X84386597Y-64393328D02*
X84386597Y-63393328D01*
X84386597Y-63536185D02*
X84458026Y-63464757D01*
X84458026Y-63464757D02*
X84600883Y-63393328D01*
X84600883Y-63393328D02*
X84815169Y-63393328D01*
X84815169Y-63393328D02*
X84958026Y-63464757D01*
X84958026Y-63464757D02*
X85029455Y-63607614D01*
X85029455Y-63607614D02*
X85029455Y-64393328D01*
X85029455Y-63607614D02*
X85100883Y-63464757D01*
X85100883Y-63464757D02*
X85243740Y-63393328D01*
X85243740Y-63393328D02*
X85458026Y-63393328D01*
X85458026Y-63393328D02*
X85600883Y-63464757D01*
X85600883Y-63464757D02*
X85672312Y-63607614D01*
X85672312Y-63607614D02*
X85672312Y-64393328D01*
X86386597Y-64393328D02*
X86386597Y-63393328D01*
X86386597Y-62893328D02*
X86315169Y-62964757D01*
X86315169Y-62964757D02*
X86386597Y-63036185D01*
X86386597Y-63036185D02*
X86458026Y-62964757D01*
X86458026Y-62964757D02*
X86386597Y-62893328D01*
X86386597Y-62893328D02*
X86386597Y-63036185D01*
X87743741Y-64393328D02*
X87743741Y-62893328D01*
X87743741Y-64321900D02*
X87600883Y-64393328D01*
X87600883Y-64393328D02*
X87315169Y-64393328D01*
X87315169Y-64393328D02*
X87172312Y-64321900D01*
X87172312Y-64321900D02*
X87100883Y-64250471D01*
X87100883Y-64250471D02*
X87029455Y-64107614D01*
X87029455Y-64107614D02*
X87029455Y-63679042D01*
X87029455Y-63679042D02*
X87100883Y-63536185D01*
X87100883Y-63536185D02*
X87172312Y-63464757D01*
X87172312Y-63464757D02*
X87315169Y-63393328D01*
X87315169Y-63393328D02*
X87600883Y-63393328D01*
X87600883Y-63393328D02*
X87743741Y-63464757D01*
X88458026Y-64393328D02*
X88458026Y-63393328D01*
X88458026Y-62893328D02*
X88386598Y-62964757D01*
X88386598Y-62964757D02*
X88458026Y-63036185D01*
X88458026Y-63036185D02*
X88529455Y-62964757D01*
X88529455Y-62964757D02*
X88458026Y-62893328D01*
X88458026Y-62893328D02*
X88458026Y-63036185D01*
X89172312Y-63821900D02*
X90315170Y-63821900D01*
X91672313Y-64393328D02*
X91672313Y-62893328D01*
X91672313Y-64321900D02*
X91529455Y-64393328D01*
X91529455Y-64393328D02*
X91243741Y-64393328D01*
X91243741Y-64393328D02*
X91100884Y-64321900D01*
X91100884Y-64321900D02*
X91029455Y-64250471D01*
X91029455Y-64250471D02*
X90958027Y-64107614D01*
X90958027Y-64107614D02*
X90958027Y-63679042D01*
X90958027Y-63679042D02*
X91029455Y-63536185D01*
X91029455Y-63536185D02*
X91100884Y-63464757D01*
X91100884Y-63464757D02*
X91243741Y-63393328D01*
X91243741Y-63393328D02*
X91529455Y-63393328D01*
X91529455Y-63393328D02*
X91672313Y-63464757D01*
X92386598Y-64393328D02*
X92386598Y-63393328D01*
X92386598Y-63536185D02*
X92458027Y-63464757D01*
X92458027Y-63464757D02*
X92600884Y-63393328D01*
X92600884Y-63393328D02*
X92815170Y-63393328D01*
X92815170Y-63393328D02*
X92958027Y-63464757D01*
X92958027Y-63464757D02*
X93029456Y-63607614D01*
X93029456Y-63607614D02*
X93029456Y-64393328D01*
X93029456Y-63607614D02*
X93100884Y-63464757D01*
X93100884Y-63464757D02*
X93243741Y-63393328D01*
X93243741Y-63393328D02*
X93458027Y-63393328D01*
X93458027Y-63393328D02*
X93600884Y-63464757D01*
X93600884Y-63464757D02*
X93672313Y-63607614D01*
X93672313Y-63607614D02*
X93672313Y-64393328D01*
X94243741Y-64393328D02*
X95029456Y-63393328D01*
X94243741Y-63393328D02*
X95029456Y-64393328D01*
X95243742Y-64536185D02*
X96386599Y-64536185D01*
X96743741Y-64393328D02*
X96743741Y-62893328D01*
X96743741Y-63464757D02*
X96886599Y-63393328D01*
X96886599Y-63393328D02*
X97172313Y-63393328D01*
X97172313Y-63393328D02*
X97315170Y-63464757D01*
X97315170Y-63464757D02*
X97386599Y-63536185D01*
X97386599Y-63536185D02*
X97458027Y-63679042D01*
X97458027Y-63679042D02*
X97458027Y-64107614D01*
X97458027Y-64107614D02*
X97386599Y-64250471D01*
X97386599Y-64250471D02*
X97315170Y-64321900D01*
X97315170Y-64321900D02*
X97172313Y-64393328D01*
X97172313Y-64393328D02*
X96886599Y-64393328D01*
X96886599Y-64393328D02*
X96743741Y-64321900D01*
X98100884Y-64393328D02*
X98100884Y-63393328D01*
X98100884Y-63679042D02*
X98172313Y-63536185D01*
X98172313Y-63536185D02*
X98243742Y-63464757D01*
X98243742Y-63464757D02*
X98386599Y-63393328D01*
X98386599Y-63393328D02*
X98529456Y-63393328D01*
X99029455Y-64393328D02*
X99029455Y-63393328D01*
X99029455Y-62893328D02*
X98958027Y-62964757D01*
X98958027Y-62964757D02*
X99029455Y-63036185D01*
X99029455Y-63036185D02*
X99100884Y-62964757D01*
X99100884Y-62964757D02*
X99029455Y-62893328D01*
X99029455Y-62893328D02*
X99029455Y-63036185D01*
X100386599Y-64393328D02*
X100386599Y-62893328D01*
X100386599Y-64321900D02*
X100243741Y-64393328D01*
X100243741Y-64393328D02*
X99958027Y-64393328D01*
X99958027Y-64393328D02*
X99815170Y-64321900D01*
X99815170Y-64321900D02*
X99743741Y-64250471D01*
X99743741Y-64250471D02*
X99672313Y-64107614D01*
X99672313Y-64107614D02*
X99672313Y-63679042D01*
X99672313Y-63679042D02*
X99743741Y-63536185D01*
X99743741Y-63536185D02*
X99815170Y-63464757D01*
X99815170Y-63464757D02*
X99958027Y-63393328D01*
X99958027Y-63393328D02*
X100243741Y-63393328D01*
X100243741Y-63393328D02*
X100386599Y-63464757D01*
X101743742Y-63393328D02*
X101743742Y-64607614D01*
X101743742Y-64607614D02*
X101672313Y-64750471D01*
X101672313Y-64750471D02*
X101600884Y-64821900D01*
X101600884Y-64821900D02*
X101458027Y-64893328D01*
X101458027Y-64893328D02*
X101243742Y-64893328D01*
X101243742Y-64893328D02*
X101100884Y-64821900D01*
X101743742Y-64321900D02*
X101600884Y-64393328D01*
X101600884Y-64393328D02*
X101315170Y-64393328D01*
X101315170Y-64393328D02*
X101172313Y-64321900D01*
X101172313Y-64321900D02*
X101100884Y-64250471D01*
X101100884Y-64250471D02*
X101029456Y-64107614D01*
X101029456Y-64107614D02*
X101029456Y-63679042D01*
X101029456Y-63679042D02*
X101100884Y-63536185D01*
X101100884Y-63536185D02*
X101172313Y-63464757D01*
X101172313Y-63464757D02*
X101315170Y-63393328D01*
X101315170Y-63393328D02*
X101600884Y-63393328D01*
X101600884Y-63393328D02*
X101743742Y-63464757D01*
X103029456Y-64321900D02*
X102886599Y-64393328D01*
X102886599Y-64393328D02*
X102600885Y-64393328D01*
X102600885Y-64393328D02*
X102458027Y-64321900D01*
X102458027Y-64321900D02*
X102386599Y-64179042D01*
X102386599Y-64179042D02*
X102386599Y-63607614D01*
X102386599Y-63607614D02*
X102458027Y-63464757D01*
X102458027Y-63464757D02*
X102600885Y-63393328D01*
X102600885Y-63393328D02*
X102886599Y-63393328D01*
X102886599Y-63393328D02*
X103029456Y-63464757D01*
X103029456Y-63464757D02*
X103100885Y-63607614D01*
X103100885Y-63607614D02*
X103100885Y-63750471D01*
X103100885Y-63750471D02*
X102386599Y-63893328D01*
X103743741Y-64250471D02*
X103815170Y-64321900D01*
X103815170Y-64321900D02*
X103743741Y-64393328D01*
X103743741Y-64393328D02*
X103672313Y-64321900D01*
X103672313Y-64321900D02*
X103743741Y-64250471D01*
X103743741Y-64250471D02*
X103743741Y-64393328D01*
X104458027Y-64393328D02*
X104458027Y-62893328D01*
X104600885Y-63821900D02*
X105029456Y-64393328D01*
X105029456Y-63393328D02*
X104458027Y-63964757D01*
X105672313Y-64393328D02*
X105672313Y-63393328D01*
X105672313Y-62893328D02*
X105600885Y-62964757D01*
X105600885Y-62964757D02*
X105672313Y-63036185D01*
X105672313Y-63036185D02*
X105743742Y-62964757D01*
X105743742Y-62964757D02*
X105672313Y-62893328D01*
X105672313Y-62893328D02*
X105672313Y-63036185D01*
X107029457Y-64321900D02*
X106886599Y-64393328D01*
X106886599Y-64393328D02*
X106600885Y-64393328D01*
X106600885Y-64393328D02*
X106458028Y-64321900D01*
X106458028Y-64321900D02*
X106386599Y-64250471D01*
X106386599Y-64250471D02*
X106315171Y-64107614D01*
X106315171Y-64107614D02*
X106315171Y-63679042D01*
X106315171Y-63679042D02*
X106386599Y-63536185D01*
X106386599Y-63536185D02*
X106458028Y-63464757D01*
X106458028Y-63464757D02*
X106600885Y-63393328D01*
X106600885Y-63393328D02*
X106886599Y-63393328D01*
X106886599Y-63393328D02*
X107029457Y-63464757D01*
X108315171Y-64393328D02*
X108315171Y-63607614D01*
X108315171Y-63607614D02*
X108243742Y-63464757D01*
X108243742Y-63464757D02*
X108100885Y-63393328D01*
X108100885Y-63393328D02*
X107815171Y-63393328D01*
X107815171Y-63393328D02*
X107672313Y-63464757D01*
X108315171Y-64321900D02*
X108172313Y-64393328D01*
X108172313Y-64393328D02*
X107815171Y-64393328D01*
X107815171Y-64393328D02*
X107672313Y-64321900D01*
X107672313Y-64321900D02*
X107600885Y-64179042D01*
X107600885Y-64179042D02*
X107600885Y-64036185D01*
X107600885Y-64036185D02*
X107672313Y-63893328D01*
X107672313Y-63893328D02*
X107815171Y-63821900D01*
X107815171Y-63821900D02*
X108172313Y-63821900D01*
X108172313Y-63821900D02*
X108315171Y-63750471D01*
X109672314Y-64393328D02*
X109672314Y-62893328D01*
X109672314Y-64321900D02*
X109529456Y-64393328D01*
X109529456Y-64393328D02*
X109243742Y-64393328D01*
X109243742Y-64393328D02*
X109100885Y-64321900D01*
X109100885Y-64321900D02*
X109029456Y-64250471D01*
X109029456Y-64250471D02*
X108958028Y-64107614D01*
X108958028Y-64107614D02*
X108958028Y-63679042D01*
X108958028Y-63679042D02*
X109029456Y-63536185D01*
X109029456Y-63536185D02*
X109100885Y-63464757D01*
X109100885Y-63464757D02*
X109243742Y-63393328D01*
X109243742Y-63393328D02*
X109529456Y-63393328D01*
X109529456Y-63393328D02*
X109672314Y-63464757D01*
X110029457Y-64536185D02*
X111172314Y-64536185D01*
X111529456Y-63393328D02*
X111529456Y-64893328D01*
X111529456Y-63464757D02*
X111672314Y-63393328D01*
X111672314Y-63393328D02*
X111958028Y-63393328D01*
X111958028Y-63393328D02*
X112100885Y-63464757D01*
X112100885Y-63464757D02*
X112172314Y-63536185D01*
X112172314Y-63536185D02*
X112243742Y-63679042D01*
X112243742Y-63679042D02*
X112243742Y-64107614D01*
X112243742Y-64107614D02*
X112172314Y-64250471D01*
X112172314Y-64250471D02*
X112100885Y-64321900D01*
X112100885Y-64321900D02*
X111958028Y-64393328D01*
X111958028Y-64393328D02*
X111672314Y-64393328D01*
X111672314Y-64393328D02*
X111529456Y-64321900D01*
X113529457Y-64321900D02*
X113386599Y-64393328D01*
X113386599Y-64393328D02*
X113100885Y-64393328D01*
X113100885Y-64393328D02*
X112958028Y-64321900D01*
X112958028Y-64321900D02*
X112886599Y-64250471D01*
X112886599Y-64250471D02*
X112815171Y-64107614D01*
X112815171Y-64107614D02*
X112815171Y-63679042D01*
X112815171Y-63679042D02*
X112886599Y-63536185D01*
X112886599Y-63536185D02*
X112958028Y-63464757D01*
X112958028Y-63464757D02*
X113100885Y-63393328D01*
X113100885Y-63393328D02*
X113386599Y-63393328D01*
X113386599Y-63393328D02*
X113529457Y-63464757D01*
X114172313Y-64393328D02*
X114172313Y-62893328D01*
X114172313Y-63464757D02*
X114315171Y-63393328D01*
X114315171Y-63393328D02*
X114600885Y-63393328D01*
X114600885Y-63393328D02*
X114743742Y-63464757D01*
X114743742Y-63464757D02*
X114815171Y-63536185D01*
X114815171Y-63536185D02*
X114886599Y-63679042D01*
X114886599Y-63679042D02*
X114886599Y-64107614D01*
X114886599Y-64107614D02*
X114815171Y-64250471D01*
X114815171Y-64250471D02*
X114743742Y-64321900D01*
X114743742Y-64321900D02*
X114600885Y-64393328D01*
X114600885Y-64393328D02*
X114315171Y-64393328D01*
X114315171Y-64393328D02*
X114172313Y-64321900D01*
D10*
D11*
X77002200Y-59507200D02*
X185002200Y-59507200D01*
D10*
D11*
X78386598Y-61621900D02*
X78600884Y-61693328D01*
X78600884Y-61693328D02*
X78958026Y-61693328D01*
X78958026Y-61693328D02*
X79100884Y-61621900D01*
X79100884Y-61621900D02*
X79172312Y-61550471D01*
X79172312Y-61550471D02*
X79243741Y-61407614D01*
X79243741Y-61407614D02*
X79243741Y-61264757D01*
X79243741Y-61264757D02*
X79172312Y-61121900D01*
X79172312Y-61121900D02*
X79100884Y-61050471D01*
X79100884Y-61050471D02*
X78958026Y-60979042D01*
X78958026Y-60979042D02*
X78672312Y-60907614D01*
X78672312Y-60907614D02*
X78529455Y-60836185D01*
X78529455Y-60836185D02*
X78458026Y-60764757D01*
X78458026Y-60764757D02*
X78386598Y-60621900D01*
X78386598Y-60621900D02*
X78386598Y-60479042D01*
X78386598Y-60479042D02*
X78458026Y-60336185D01*
X78458026Y-60336185D02*
X78529455Y-60264757D01*
X78529455Y-60264757D02*
X78672312Y-60193328D01*
X78672312Y-60193328D02*
X79029455Y-60193328D01*
X79029455Y-60193328D02*
X79243741Y-60264757D01*
X79886597Y-61693328D02*
X79886597Y-60193328D01*
X80529455Y-61693328D02*
X80529455Y-60907614D01*
X80529455Y-60907614D02*
X80458026Y-60764757D01*
X80458026Y-60764757D02*
X80315169Y-60693328D01*
X80315169Y-60693328D02*
X80100883Y-60693328D01*
X80100883Y-60693328D02*
X79958026Y-60764757D01*
X79958026Y-60764757D02*
X79886597Y-60836185D01*
X81815169Y-61621900D02*
X81672312Y-61693328D01*
X81672312Y-61693328D02*
X81386598Y-61693328D01*
X81386598Y-61693328D02*
X81243740Y-61621900D01*
X81243740Y-61621900D02*
X81172312Y-61479042D01*
X81172312Y-61479042D02*
X81172312Y-60907614D01*
X81172312Y-60907614D02*
X81243740Y-60764757D01*
X81243740Y-60764757D02*
X81386598Y-60693328D01*
X81386598Y-60693328D02*
X81672312Y-60693328D01*
X81672312Y-60693328D02*
X81815169Y-60764757D01*
X81815169Y-60764757D02*
X81886598Y-60907614D01*
X81886598Y-60907614D02*
X81886598Y-61050471D01*
X81886598Y-61050471D02*
X81172312Y-61193328D01*
X83100883Y-61621900D02*
X82958026Y-61693328D01*
X82958026Y-61693328D02*
X82672312Y-61693328D01*
X82672312Y-61693328D02*
X82529454Y-61621900D01*
X82529454Y-61621900D02*
X82458026Y-61479042D01*
X82458026Y-61479042D02*
X82458026Y-60907614D01*
X82458026Y-60907614D02*
X82529454Y-60764757D01*
X82529454Y-60764757D02*
X82672312Y-60693328D01*
X82672312Y-60693328D02*
X82958026Y-60693328D01*
X82958026Y-60693328D02*
X83100883Y-60764757D01*
X83100883Y-60764757D02*
X83172312Y-60907614D01*
X83172312Y-60907614D02*
X83172312Y-61050471D01*
X83172312Y-61050471D02*
X82458026Y-61193328D01*
X83600883Y-60693328D02*
X84172311Y-60693328D01*
X83815168Y-60193328D02*
X83815168Y-61479042D01*
X83815168Y-61479042D02*
X83886597Y-61621900D01*
X83886597Y-61621900D02*
X84029454Y-61693328D01*
X84029454Y-61693328D02*
X84172311Y-61693328D01*
X84672311Y-61550471D02*
X84743740Y-61621900D01*
X84743740Y-61621900D02*
X84672311Y-61693328D01*
X84672311Y-61693328D02*
X84600883Y-61621900D01*
X84600883Y-61621900D02*
X84672311Y-61550471D01*
X84672311Y-61550471D02*
X84672311Y-61693328D01*
X84672311Y-60764757D02*
X84743740Y-60836185D01*
X84743740Y-60836185D02*
X84672311Y-60907614D01*
X84672311Y-60907614D02*
X84600883Y-60836185D01*
X84600883Y-60836185D02*
X84672311Y-60764757D01*
X84672311Y-60764757D02*
X84672311Y-60907614D01*
D10*
D12*
X79413853Y-58542671D02*
X79342425Y-58614100D01*
X79342425Y-58614100D02*
X79128139Y-58685528D01*
X79128139Y-58685528D02*
X78985282Y-58685528D01*
X78985282Y-58685528D02*
X78770996Y-58614100D01*
X78770996Y-58614100D02*
X78628139Y-58471242D01*
X78628139Y-58471242D02*
X78556710Y-58328385D01*
X78556710Y-58328385D02*
X78485282Y-58042671D01*
X78485282Y-58042671D02*
X78485282Y-57828385D01*
X78485282Y-57828385D02*
X78556710Y-57542671D01*
X78556710Y-57542671D02*
X78628139Y-57399814D01*
X78628139Y-57399814D02*
X78770996Y-57256957D01*
X78770996Y-57256957D02*
X78985282Y-57185528D01*
X78985282Y-57185528D02*
X79128139Y-57185528D01*
X79128139Y-57185528D02*
X79342425Y-57256957D01*
X79342425Y-57256957D02*
X79413853Y-57328385D01*
X80056710Y-58685528D02*
X80056710Y-57185528D01*
X80699568Y-58685528D02*
X80699568Y-57899814D01*
X80699568Y-57899814D02*
X80628139Y-57756957D01*
X80628139Y-57756957D02*
X80485282Y-57685528D01*
X80485282Y-57685528D02*
X80270996Y-57685528D01*
X80270996Y-57685528D02*
X80128139Y-57756957D01*
X80128139Y-57756957D02*
X80056710Y-57828385D01*
X81413853Y-58685528D02*
X81413853Y-57685528D01*
X81413853Y-57971242D02*
X81485282Y-57828385D01*
X81485282Y-57828385D02*
X81556711Y-57756957D01*
X81556711Y-57756957D02*
X81699568Y-57685528D01*
X81699568Y-57685528D02*
X81842425Y-57685528D01*
X82342424Y-58685528D02*
X82342424Y-57685528D01*
X82342424Y-57185528D02*
X82270996Y-57256957D01*
X82270996Y-57256957D02*
X82342424Y-57328385D01*
X82342424Y-57328385D02*
X82413853Y-57256957D01*
X82413853Y-57256957D02*
X82342424Y-57185528D01*
X82342424Y-57185528D02*
X82342424Y-57328385D01*
X82985282Y-58614100D02*
X83128139Y-58685528D01*
X83128139Y-58685528D02*
X83413853Y-58685528D01*
X83413853Y-58685528D02*
X83556710Y-58614100D01*
X83556710Y-58614100D02*
X83628139Y-58471242D01*
X83628139Y-58471242D02*
X83628139Y-58399814D01*
X83628139Y-58399814D02*
X83556710Y-58256957D01*
X83556710Y-58256957D02*
X83413853Y-58185528D01*
X83413853Y-58185528D02*
X83199568Y-58185528D01*
X83199568Y-58185528D02*
X83056710Y-58114100D01*
X83056710Y-58114100D02*
X82985282Y-57971242D01*
X82985282Y-57971242D02*
X82985282Y-57899814D01*
X82985282Y-57899814D02*
X83056710Y-57756957D01*
X83056710Y-57756957D02*
X83199568Y-57685528D01*
X83199568Y-57685528D02*
X83413853Y-57685528D01*
X83413853Y-57685528D02*
X83556710Y-57756957D01*
X84056711Y-57685528D02*
X84628139Y-57685528D01*
X84270996Y-57185528D02*
X84270996Y-58471242D01*
X84270996Y-58471242D02*
X84342425Y-58614100D01*
X84342425Y-58614100D02*
X84485282Y-58685528D01*
X84485282Y-58685528D02*
X84628139Y-58685528D01*
X85128139Y-58685528D02*
X85128139Y-57685528D01*
X85128139Y-57185528D02*
X85056711Y-57256957D01*
X85056711Y-57256957D02*
X85128139Y-57328385D01*
X85128139Y-57328385D02*
X85199568Y-57256957D01*
X85199568Y-57256957D02*
X85128139Y-57185528D01*
X85128139Y-57185528D02*
X85128139Y-57328385D01*
X86485283Y-58685528D02*
X86485283Y-57899814D01*
X86485283Y-57899814D02*
X86413854Y-57756957D01*
X86413854Y-57756957D02*
X86270997Y-57685528D01*
X86270997Y-57685528D02*
X85985283Y-57685528D01*
X85985283Y-57685528D02*
X85842425Y-57756957D01*
X86485283Y-58614100D02*
X86342425Y-58685528D01*
X86342425Y-58685528D02*
X85985283Y-58685528D01*
X85985283Y-58685528D02*
X85842425Y-58614100D01*
X85842425Y-58614100D02*
X85770997Y-58471242D01*
X85770997Y-58471242D02*
X85770997Y-58328385D01*
X85770997Y-58328385D02*
X85842425Y-58185528D01*
X85842425Y-58185528D02*
X85985283Y-58114100D01*
X85985283Y-58114100D02*
X86342425Y-58114100D01*
X86342425Y-58114100D02*
X86485283Y-58042671D01*
X87199568Y-57685528D02*
X87199568Y-58685528D01*
X87199568Y-57828385D02*
X87270997Y-57756957D01*
X87270997Y-57756957D02*
X87413854Y-57685528D01*
X87413854Y-57685528D02*
X87628140Y-57685528D01*
X87628140Y-57685528D02*
X87770997Y-57756957D01*
X87770997Y-57756957D02*
X87842426Y-57899814D01*
X87842426Y-57899814D02*
X87842426Y-58685528D01*
X89699568Y-58685528D02*
X89699568Y-57185528D01*
X89699568Y-57185528D02*
X90556711Y-58685528D01*
X90556711Y-58685528D02*
X90556711Y-57185528D01*
X91842426Y-58614100D02*
X91699569Y-58685528D01*
X91699569Y-58685528D02*
X91413855Y-58685528D01*
X91413855Y-58685528D02*
X91270997Y-58614100D01*
X91270997Y-58614100D02*
X91199569Y-58471242D01*
X91199569Y-58471242D02*
X91199569Y-57899814D01*
X91199569Y-57899814D02*
X91270997Y-57756957D01*
X91270997Y-57756957D02*
X91413855Y-57685528D01*
X91413855Y-57685528D02*
X91699569Y-57685528D01*
X91699569Y-57685528D02*
X91842426Y-57756957D01*
X91842426Y-57756957D02*
X91913855Y-57899814D01*
X91913855Y-57899814D02*
X91913855Y-58042671D01*
X91913855Y-58042671D02*
X91199569Y-58185528D01*
X93199569Y-57685528D02*
X93199569Y-58685528D01*
X92556711Y-57685528D02*
X92556711Y-58471242D01*
X92556711Y-58471242D02*
X92628140Y-58614100D01*
X92628140Y-58614100D02*
X92770997Y-58685528D01*
X92770997Y-58685528D02*
X92985283Y-58685528D01*
X92985283Y-58685528D02*
X93128140Y-58614100D01*
X93128140Y-58614100D02*
X93199569Y-58542671D01*
X93913854Y-58685528D02*
X93913854Y-57185528D01*
X94056712Y-58114100D02*
X94485283Y-58685528D01*
X94485283Y-57685528D02*
X93913854Y-58256957D01*
X95770998Y-58685528D02*
X95770998Y-57899814D01*
X95770998Y-57899814D02*
X95699569Y-57756957D01*
X95699569Y-57756957D02*
X95556712Y-57685528D01*
X95556712Y-57685528D02*
X95270998Y-57685528D01*
X95270998Y-57685528D02*
X95128140Y-57756957D01*
X95770998Y-58614100D02*
X95628140Y-58685528D01*
X95628140Y-58685528D02*
X95270998Y-58685528D01*
X95270998Y-58685528D02*
X95128140Y-58614100D01*
X95128140Y-58614100D02*
X95056712Y-58471242D01*
X95056712Y-58471242D02*
X95056712Y-58328385D01*
X95056712Y-58328385D02*
X95128140Y-58185528D01*
X95128140Y-58185528D02*
X95270998Y-58114100D01*
X95270998Y-58114100D02*
X95628140Y-58114100D01*
X95628140Y-58114100D02*
X95770998Y-58042671D01*
X96485283Y-58685528D02*
X96485283Y-57685528D01*
X96485283Y-57828385D02*
X96556712Y-57756957D01*
X96556712Y-57756957D02*
X96699569Y-57685528D01*
X96699569Y-57685528D02*
X96913855Y-57685528D01*
X96913855Y-57685528D02*
X97056712Y-57756957D01*
X97056712Y-57756957D02*
X97128141Y-57899814D01*
X97128141Y-57899814D02*
X97128141Y-58685528D01*
X97128141Y-57899814D02*
X97199569Y-57756957D01*
X97199569Y-57756957D02*
X97342426Y-57685528D01*
X97342426Y-57685528D02*
X97556712Y-57685528D01*
X97556712Y-57685528D02*
X97699569Y-57756957D01*
X97699569Y-57756957D02*
X97770998Y-57899814D01*
X97770998Y-57899814D02*
X97770998Y-58685528D01*
D10*
D11*
D10*
D11*
D10*
D11*
D10*
D11*
D10*
D11*
X97002200Y-69507200D02*
X97002200Y-72507200D01*
D10*
D11*
X161002200Y-69507200D02*
X161002200Y-76007200D01*
D14*
%TO.C,R4*%
X31700000Y7460938D03*
X31700000Y4535938D03*
%TD*%
D15*
%TO.C,OC2*%
X44650000Y11145000D03*
X44650000Y8605000D03*
X44650000Y6065000D03*
X44650000Y3525000D03*
X54180000Y3525000D03*
X54180000Y6065000D03*
X54180000Y8605000D03*
X54180000Y11145000D03*
%TD*%
D16*
%TO.C,R2*%
X10617500Y23709000D03*
X13542500Y23709000D03*
%TD*%
D17*
%TO.C,C6*%
X41931000Y41552500D03*
X41931000Y44502500D03*
%TD*%
D16*
%TO.C,R3*%
X10617500Y27589000D03*
X13542500Y27589000D03*
%TD*%
D18*
%TO.C,R5*%
X31700000Y11900000D03*
X31700000Y14825000D03*
%TD*%
D19*
%TO.C,D3*%
X13750000Y35500000D03*
X10450000Y35500000D03*
%TD*%
D20*
%TO.C,C2*%
X13555000Y31499000D03*
X10605000Y31499000D03*
%TD*%
D17*
%TO.C,C4*%
X49777000Y41552500D03*
X49777000Y44502500D03*
%TD*%
D16*
%TO.C,R1*%
X10617500Y11959000D03*
X13542500Y11959000D03*
%TD*%
D21*
%TO.C,D2*%
X53700000Y41400000D03*
X53700000Y44700000D03*
%TD*%
D22*
%TO.C,IC1*%
X53515000Y19350000D03*
X54785000Y19350000D03*
X56055000Y19350000D03*
X57325000Y19350000D03*
X57325000Y24300000D03*
X56055000Y24300000D03*
X54785000Y24300000D03*
X53515000Y24300000D03*
%TD*%
D23*
%TO.C,C1*%
X10605000Y19799000D03*
X13555000Y19799000D03*
%TD*%
D17*
%TO.C,C5*%
X45854000Y41552500D03*
X45854000Y44502500D03*
%TD*%
D15*
%TO.C,OC1*%
X16545000Y11145000D03*
X16545000Y8605000D03*
X16545000Y6065000D03*
X16545000Y3525000D03*
X26075000Y3525000D03*
X26075000Y6065000D03*
X26075000Y8605000D03*
X26075000Y11145000D03*
%TD*%
D19*
%TO.C,D1*%
X13750000Y15864000D03*
X10450000Y15864000D03*
%TD*%
D18*
%TO.C,R6*%
X35562500Y11900000D03*
X35562500Y14825000D03*
%TD*%
D16*
%TO.C,R8*%
X54175000Y14675000D03*
X57100000Y14675000D03*
%TD*%
D14*
%TO.C,R7*%
X39425000Y14825000D03*
X39425000Y11900000D03*
%TD*%
D16*
%TO.C,R9*%
X54837500Y28600000D03*
X57762500Y28600000D03*
%TD*%
D24*
%TO.C,C3*%
X13230000Y44500000D03*
X13230000Y41550000D03*
%TD*%
M02*
