%TF.GenerationSoftware,KiCad,Pcbnew,7.0.7*%
%TF.CreationDate,2024-01-28T22:30:17+01:00*%
%TF.ProjectId,midi-dmx_bridge,6d696469-2d64-46d7-985f-627269646765,1.0*%
%TF.SameCoordinates,PX5f5e100PY7459280*%
%TF.FileFunction,Copper,L2,Bot*%
%TF.FilePolarity,Positive*%
%FSLAX46Y46*%
G04 Gerber Fmt 4.6, Leading zero omitted, Abs format (unit mm)*
G04 Created by KiCad (PCBNEW 7.0.7) date 2024-01-28 22:30:17*
%MOMM*%
%LPD*%
G01*
G04 APERTURE LIST*
G04 Aperture macros list*
%AMRoundRect*
0 Rectangle with rounded corners*
0 $1 Rounding radius*
0 $2 $3 $4 $5 $6 $7 $8 $9 X,Y pos of 4 corners*
0 Add a 4 corners polygon primitive as box body*
4,1,4,$2,$3,$4,$5,$6,$7,$8,$9,$2,$3,0*
0 Add four circle primitives for the rounded corners*
1,1,$1+$1,$2,$3*
1,1,$1+$1,$4,$5*
1,1,$1+$1,$6,$7*
1,1,$1+$1,$8,$9*
0 Add four rect primitives between the rounded corners*
20,1,$1+$1,$2,$3,$4,$5,0*
20,1,$1+$1,$4,$5,$6,$7,0*
20,1,$1+$1,$6,$7,$8,$9,0*
20,1,$1+$1,$8,$9,$2,$3,0*%
G04 Aperture macros list end*
%ADD10C,0.100000*%
%ADD11C,0.150000*%
%ADD12C,0.300000*%
%ADD13C,0.400000*%
%TA.AperFunction,ComponentPad*%
%ADD14RoundRect,0.250000X0.620000X0.845000X-0.620000X0.845000X-0.620000X-0.845000X0.620000X-0.845000X0*%
%TD*%
%TA.AperFunction,ComponentPad*%
%ADD15O,1.740000X2.190000*%
%TD*%
%TA.AperFunction,ComponentPad*%
%ADD16RoundRect,0.250000X0.845000X-0.620000X0.845000X0.620000X-0.845000X0.620000X-0.845000X-0.620000X0*%
%TD*%
%TA.AperFunction,ComponentPad*%
%ADD17O,2.190000X1.740000*%
%TD*%
%TA.AperFunction,ComponentPad*%
%ADD18R,1.750000X2.250000*%
%TD*%
%TA.AperFunction,ComponentPad*%
%ADD19O,1.750000X2.250000*%
%TD*%
%TA.AperFunction,ComponentPad*%
%ADD20RoundRect,0.250000X-0.845000X0.620000X-0.845000X-0.620000X0.845000X-0.620000X0.845000X0.620000X0*%
%TD*%
%TA.AperFunction,ComponentPad*%
%ADD21C,1.727200*%
%TD*%
%TA.AperFunction,ComponentPad*%
%ADD22R,1.727200X1.727200*%
%TD*%
%TA.AperFunction,ViaPad*%
%ADD23C,1.800000*%
%TD*%
G04 APERTURE END LIST*
D10*
D11*
X77002200Y-44007200D02*
X185002200Y-44007200D01*
X185002200Y-76007200D01*
X77002200Y-76007200D01*
X77002200Y-44007200D01*
D10*
D11*
X-90000000Y112000000D02*
X187002200Y112000000D01*
X187002200Y-78007200D01*
X-90000000Y-78007200D01*
X-90000000Y112000000D01*
D10*
D11*
X-88000000Y110000000D02*
X185002200Y110000000D01*
X185002200Y-76007200D01*
X-88000000Y-76007200D01*
X-88000000Y110000000D01*
D10*
D11*
X-40000000Y110000000D02*
X-40000000Y112000000D01*
D10*
D11*
X10000000Y110000000D02*
X10000000Y112000000D01*
D10*
D11*
X60000000Y110000000D02*
X60000000Y112000000D01*
D10*
D11*
X110000000Y110000000D02*
X110000000Y112000000D01*
D10*
D11*
X160000000Y110000000D02*
X160000000Y112000000D01*
D10*
D11*
X-63910840Y110406396D02*
X-64653697Y110406396D01*
X-64282269Y110406396D02*
X-64282269Y111706396D01*
X-64282269Y111706396D02*
X-64406078Y111520681D01*
X-64406078Y111520681D02*
X-64529888Y111396872D01*
X-64529888Y111396872D02*
X-64653697Y111334967D01*
D10*
D11*
X-14653697Y111582586D02*
X-14591793Y111644491D01*
X-14591793Y111644491D02*
X-14467983Y111706396D01*
X-14467983Y111706396D02*
X-14158459Y111706396D01*
X-14158459Y111706396D02*
X-14034650Y111644491D01*
X-14034650Y111644491D02*
X-13972745Y111582586D01*
X-13972745Y111582586D02*
X-13910840Y111458777D01*
X-13910840Y111458777D02*
X-13910840Y111334967D01*
X-13910840Y111334967D02*
X-13972745Y111149253D01*
X-13972745Y111149253D02*
X-14715602Y110406396D01*
X-14715602Y110406396D02*
X-13910840Y110406396D01*
D10*
D11*
X35284398Y111706396D02*
X36089160Y111706396D01*
X36089160Y111706396D02*
X35655826Y111211158D01*
X35655826Y111211158D02*
X35841541Y111211158D01*
X35841541Y111211158D02*
X35965350Y111149253D01*
X35965350Y111149253D02*
X36027255Y111087348D01*
X36027255Y111087348D02*
X36089160Y110963539D01*
X36089160Y110963539D02*
X36089160Y110654015D01*
X36089160Y110654015D02*
X36027255Y110530205D01*
X36027255Y110530205D02*
X35965350Y110468300D01*
X35965350Y110468300D02*
X35841541Y110406396D01*
X35841541Y110406396D02*
X35470112Y110406396D01*
X35470112Y110406396D02*
X35346303Y110468300D01*
X35346303Y110468300D02*
X35284398Y110530205D01*
D10*
D11*
X85965350Y111273062D02*
X85965350Y110406396D01*
X85655826Y111768300D02*
X85346303Y110839729D01*
X85346303Y110839729D02*
X86151064Y110839729D01*
D10*
D11*
X136027255Y111706396D02*
X135408207Y111706396D01*
X135408207Y111706396D02*
X135346303Y111087348D01*
X135346303Y111087348D02*
X135408207Y111149253D01*
X135408207Y111149253D02*
X135532017Y111211158D01*
X135532017Y111211158D02*
X135841541Y111211158D01*
X135841541Y111211158D02*
X135965350Y111149253D01*
X135965350Y111149253D02*
X136027255Y111087348D01*
X136027255Y111087348D02*
X136089160Y110963539D01*
X136089160Y110963539D02*
X136089160Y110654015D01*
X136089160Y110654015D02*
X136027255Y110530205D01*
X136027255Y110530205D02*
X135965350Y110468300D01*
X135965350Y110468300D02*
X135841541Y110406396D01*
X135841541Y110406396D02*
X135532017Y110406396D01*
X135532017Y110406396D02*
X135408207Y110468300D01*
X135408207Y110468300D02*
X135346303Y110530205D01*
D10*
D11*
X185965350Y111706396D02*
X185717731Y111706396D01*
X185717731Y111706396D02*
X185593922Y111644491D01*
X185593922Y111644491D02*
X185532017Y111582586D01*
X185532017Y111582586D02*
X185408207Y111396872D01*
X185408207Y111396872D02*
X185346303Y111149253D01*
X185346303Y111149253D02*
X185346303Y110654015D01*
X185346303Y110654015D02*
X185408207Y110530205D01*
X185408207Y110530205D02*
X185470112Y110468300D01*
X185470112Y110468300D02*
X185593922Y110406396D01*
X185593922Y110406396D02*
X185841541Y110406396D01*
X185841541Y110406396D02*
X185965350Y110468300D01*
X185965350Y110468300D02*
X186027255Y110530205D01*
X186027255Y110530205D02*
X186089160Y110654015D01*
X186089160Y110654015D02*
X186089160Y110963539D01*
X186089160Y110963539D02*
X186027255Y111087348D01*
X186027255Y111087348D02*
X185965350Y111149253D01*
X185965350Y111149253D02*
X185841541Y111211158D01*
X185841541Y111211158D02*
X185593922Y111211158D01*
X185593922Y111211158D02*
X185470112Y111149253D01*
X185470112Y111149253D02*
X185408207Y111087348D01*
X185408207Y111087348D02*
X185346303Y110963539D01*
D10*
D11*
X-40000000Y-76007200D02*
X-40000000Y-78007200D01*
D10*
D11*
X10000000Y-76007200D02*
X10000000Y-78007200D01*
D10*
D11*
X60000000Y-76007200D02*
X60000000Y-78007200D01*
D10*
D11*
X110000000Y-76007200D02*
X110000000Y-78007200D01*
D10*
D11*
X160000000Y-76007200D02*
X160000000Y-78007200D01*
D10*
D11*
X-63910840Y-77600804D02*
X-64653697Y-77600804D01*
X-64282269Y-77600804D02*
X-64282269Y-76300804D01*
X-64282269Y-76300804D02*
X-64406078Y-76486519D01*
X-64406078Y-76486519D02*
X-64529888Y-76610328D01*
X-64529888Y-76610328D02*
X-64653697Y-76672233D01*
D10*
D11*
X-14653697Y-76424614D02*
X-14591793Y-76362709D01*
X-14591793Y-76362709D02*
X-14467983Y-76300804D01*
X-14467983Y-76300804D02*
X-14158459Y-76300804D01*
X-14158459Y-76300804D02*
X-14034650Y-76362709D01*
X-14034650Y-76362709D02*
X-13972745Y-76424614D01*
X-13972745Y-76424614D02*
X-13910840Y-76548423D01*
X-13910840Y-76548423D02*
X-13910840Y-76672233D01*
X-13910840Y-76672233D02*
X-13972745Y-76857947D01*
X-13972745Y-76857947D02*
X-14715602Y-77600804D01*
X-14715602Y-77600804D02*
X-13910840Y-77600804D01*
D10*
D11*
X35284398Y-76300804D02*
X36089160Y-76300804D01*
X36089160Y-76300804D02*
X35655826Y-76796042D01*
X35655826Y-76796042D02*
X35841541Y-76796042D01*
X35841541Y-76796042D02*
X35965350Y-76857947D01*
X35965350Y-76857947D02*
X36027255Y-76919852D01*
X36027255Y-76919852D02*
X36089160Y-77043661D01*
X36089160Y-77043661D02*
X36089160Y-77353185D01*
X36089160Y-77353185D02*
X36027255Y-77476995D01*
X36027255Y-77476995D02*
X35965350Y-77538900D01*
X35965350Y-77538900D02*
X35841541Y-77600804D01*
X35841541Y-77600804D02*
X35470112Y-77600804D01*
X35470112Y-77600804D02*
X35346303Y-77538900D01*
X35346303Y-77538900D02*
X35284398Y-77476995D01*
D10*
D11*
X85965350Y-76734138D02*
X85965350Y-77600804D01*
X85655826Y-76238900D02*
X85346303Y-77167471D01*
X85346303Y-77167471D02*
X86151064Y-77167471D01*
D10*
D11*
X136027255Y-76300804D02*
X135408207Y-76300804D01*
X135408207Y-76300804D02*
X135346303Y-76919852D01*
X135346303Y-76919852D02*
X135408207Y-76857947D01*
X135408207Y-76857947D02*
X135532017Y-76796042D01*
X135532017Y-76796042D02*
X135841541Y-76796042D01*
X135841541Y-76796042D02*
X135965350Y-76857947D01*
X135965350Y-76857947D02*
X136027255Y-76919852D01*
X136027255Y-76919852D02*
X136089160Y-77043661D01*
X136089160Y-77043661D02*
X136089160Y-77353185D01*
X136089160Y-77353185D02*
X136027255Y-77476995D01*
X136027255Y-77476995D02*
X135965350Y-77538900D01*
X135965350Y-77538900D02*
X135841541Y-77600804D01*
X135841541Y-77600804D02*
X135532017Y-77600804D01*
X135532017Y-77600804D02*
X135408207Y-77538900D01*
X135408207Y-77538900D02*
X135346303Y-77476995D01*
D10*
D11*
X185965350Y-76300804D02*
X185717731Y-76300804D01*
X185717731Y-76300804D02*
X185593922Y-76362709D01*
X185593922Y-76362709D02*
X185532017Y-76424614D01*
X185532017Y-76424614D02*
X185408207Y-76610328D01*
X185408207Y-76610328D02*
X185346303Y-76857947D01*
X185346303Y-76857947D02*
X185346303Y-77353185D01*
X185346303Y-77353185D02*
X185408207Y-77476995D01*
X185408207Y-77476995D02*
X185470112Y-77538900D01*
X185470112Y-77538900D02*
X185593922Y-77600804D01*
X185593922Y-77600804D02*
X185841541Y-77600804D01*
X185841541Y-77600804D02*
X185965350Y-77538900D01*
X185965350Y-77538900D02*
X186027255Y-77476995D01*
X186027255Y-77476995D02*
X186089160Y-77353185D01*
X186089160Y-77353185D02*
X186089160Y-77043661D01*
X186089160Y-77043661D02*
X186027255Y-76919852D01*
X186027255Y-76919852D02*
X185965350Y-76857947D01*
X185965350Y-76857947D02*
X185841541Y-76796042D01*
X185841541Y-76796042D02*
X185593922Y-76796042D01*
X185593922Y-76796042D02*
X185470112Y-76857947D01*
X185470112Y-76857947D02*
X185408207Y-76919852D01*
X185408207Y-76919852D02*
X185346303Y-77043661D01*
D10*
D11*
X-90000000Y62000000D02*
X-88000000Y62000000D01*
D10*
D11*
X-90000000Y12000000D02*
X-88000000Y12000000D01*
D10*
D11*
X-90000000Y-38000000D02*
X-88000000Y-38000000D01*
D10*
D11*
X-89309524Y86777824D02*
X-88690477Y86777824D01*
X-89433334Y86406396D02*
X-89000001Y87706396D01*
X-89000001Y87706396D02*
X-88566667Y86406396D01*
D10*
D11*
X-88907143Y37087348D02*
X-88721429Y37025443D01*
X-88721429Y37025443D02*
X-88659524Y36963539D01*
X-88659524Y36963539D02*
X-88597620Y36839729D01*
X-88597620Y36839729D02*
X-88597620Y36654015D01*
X-88597620Y36654015D02*
X-88659524Y36530205D01*
X-88659524Y36530205D02*
X-88721429Y36468300D01*
X-88721429Y36468300D02*
X-88845239Y36406396D01*
X-88845239Y36406396D02*
X-89340477Y36406396D01*
X-89340477Y36406396D02*
X-89340477Y37706396D01*
X-89340477Y37706396D02*
X-88907143Y37706396D01*
X-88907143Y37706396D02*
X-88783334Y37644491D01*
X-88783334Y37644491D02*
X-88721429Y37582586D01*
X-88721429Y37582586D02*
X-88659524Y37458777D01*
X-88659524Y37458777D02*
X-88659524Y37334967D01*
X-88659524Y37334967D02*
X-88721429Y37211158D01*
X-88721429Y37211158D02*
X-88783334Y37149253D01*
X-88783334Y37149253D02*
X-88907143Y37087348D01*
X-88907143Y37087348D02*
X-89340477Y37087348D01*
D10*
D11*
X-88597620Y-13469795D02*
X-88659524Y-13531700D01*
X-88659524Y-13531700D02*
X-88845239Y-13593604D01*
X-88845239Y-13593604D02*
X-88969048Y-13593604D01*
X-88969048Y-13593604D02*
X-89154762Y-13531700D01*
X-89154762Y-13531700D02*
X-89278572Y-13407890D01*
X-89278572Y-13407890D02*
X-89340477Y-13284080D01*
X-89340477Y-13284080D02*
X-89402381Y-13036461D01*
X-89402381Y-13036461D02*
X-89402381Y-12850747D01*
X-89402381Y-12850747D02*
X-89340477Y-12603128D01*
X-89340477Y-12603128D02*
X-89278572Y-12479319D01*
X-89278572Y-12479319D02*
X-89154762Y-12355509D01*
X-89154762Y-12355509D02*
X-88969048Y-12293604D01*
X-88969048Y-12293604D02*
X-88845239Y-12293604D01*
X-88845239Y-12293604D02*
X-88659524Y-12355509D01*
X-88659524Y-12355509D02*
X-88597620Y-12417414D01*
D10*
D11*
X-89340477Y-63593604D02*
X-89340477Y-62293604D01*
X-89340477Y-62293604D02*
X-89030953Y-62293604D01*
X-89030953Y-62293604D02*
X-88845239Y-62355509D01*
X-88845239Y-62355509D02*
X-88721429Y-62479319D01*
X-88721429Y-62479319D02*
X-88659524Y-62603128D01*
X-88659524Y-62603128D02*
X-88597620Y-62850747D01*
X-88597620Y-62850747D02*
X-88597620Y-63036461D01*
X-88597620Y-63036461D02*
X-88659524Y-63284080D01*
X-88659524Y-63284080D02*
X-88721429Y-63407890D01*
X-88721429Y-63407890D02*
X-88845239Y-63531700D01*
X-88845239Y-63531700D02*
X-89030953Y-63593604D01*
X-89030953Y-63593604D02*
X-89340477Y-63593604D01*
D10*
D11*
X187002200Y62000000D02*
X185002200Y62000000D01*
D10*
D11*
X187002200Y12000000D02*
X185002200Y12000000D01*
D10*
D11*
X187002200Y-38000000D02*
X185002200Y-38000000D01*
D10*
D11*
X185692676Y86777824D02*
X186311723Y86777824D01*
X185568866Y86406396D02*
X186002199Y87706396D01*
X186002199Y87706396D02*
X186435533Y86406396D01*
D10*
D11*
X186095057Y37087348D02*
X186280771Y37025443D01*
X186280771Y37025443D02*
X186342676Y36963539D01*
X186342676Y36963539D02*
X186404580Y36839729D01*
X186404580Y36839729D02*
X186404580Y36654015D01*
X186404580Y36654015D02*
X186342676Y36530205D01*
X186342676Y36530205D02*
X186280771Y36468300D01*
X186280771Y36468300D02*
X186156961Y36406396D01*
X186156961Y36406396D02*
X185661723Y36406396D01*
X185661723Y36406396D02*
X185661723Y37706396D01*
X185661723Y37706396D02*
X186095057Y37706396D01*
X186095057Y37706396D02*
X186218866Y37644491D01*
X186218866Y37644491D02*
X186280771Y37582586D01*
X186280771Y37582586D02*
X186342676Y37458777D01*
X186342676Y37458777D02*
X186342676Y37334967D01*
X186342676Y37334967D02*
X186280771Y37211158D01*
X186280771Y37211158D02*
X186218866Y37149253D01*
X186218866Y37149253D02*
X186095057Y37087348D01*
X186095057Y37087348D02*
X185661723Y37087348D01*
D10*
D11*
X186404580Y-13469795D02*
X186342676Y-13531700D01*
X186342676Y-13531700D02*
X186156961Y-13593604D01*
X186156961Y-13593604D02*
X186033152Y-13593604D01*
X186033152Y-13593604D02*
X185847438Y-13531700D01*
X185847438Y-13531700D02*
X185723628Y-13407890D01*
X185723628Y-13407890D02*
X185661723Y-13284080D01*
X185661723Y-13284080D02*
X185599819Y-13036461D01*
X185599819Y-13036461D02*
X185599819Y-12850747D01*
X185599819Y-12850747D02*
X185661723Y-12603128D01*
X185661723Y-12603128D02*
X185723628Y-12479319D01*
X185723628Y-12479319D02*
X185847438Y-12355509D01*
X185847438Y-12355509D02*
X186033152Y-12293604D01*
X186033152Y-12293604D02*
X186156961Y-12293604D01*
X186156961Y-12293604D02*
X186342676Y-12355509D01*
X186342676Y-12355509D02*
X186404580Y-12417414D01*
D10*
D11*
X185661723Y-63593604D02*
X185661723Y-62293604D01*
X185661723Y-62293604D02*
X185971247Y-62293604D01*
X185971247Y-62293604D02*
X186156961Y-62355509D01*
X186156961Y-62355509D02*
X186280771Y-62479319D01*
X186280771Y-62479319D02*
X186342676Y-62603128D01*
X186342676Y-62603128D02*
X186404580Y-62850747D01*
X186404580Y-62850747D02*
X186404580Y-63036461D01*
X186404580Y-63036461D02*
X186342676Y-63284080D01*
X186342676Y-63284080D02*
X186280771Y-63407890D01*
X186280771Y-63407890D02*
X186156961Y-63531700D01*
X186156961Y-63531700D02*
X185971247Y-63593604D01*
X185971247Y-63593604D02*
X185661723Y-63593604D01*
D10*
D11*
X100458026Y-71793328D02*
X100458026Y-70293328D01*
X100458026Y-70293328D02*
X100815169Y-70293328D01*
X100815169Y-70293328D02*
X101029455Y-70364757D01*
X101029455Y-70364757D02*
X101172312Y-70507614D01*
X101172312Y-70507614D02*
X101243741Y-70650471D01*
X101243741Y-70650471D02*
X101315169Y-70936185D01*
X101315169Y-70936185D02*
X101315169Y-71150471D01*
X101315169Y-71150471D02*
X101243741Y-71436185D01*
X101243741Y-71436185D02*
X101172312Y-71579042D01*
X101172312Y-71579042D02*
X101029455Y-71721900D01*
X101029455Y-71721900D02*
X100815169Y-71793328D01*
X100815169Y-71793328D02*
X100458026Y-71793328D01*
X102600884Y-71793328D02*
X102600884Y-71007614D01*
X102600884Y-71007614D02*
X102529455Y-70864757D01*
X102529455Y-70864757D02*
X102386598Y-70793328D01*
X102386598Y-70793328D02*
X102100884Y-70793328D01*
X102100884Y-70793328D02*
X101958026Y-70864757D01*
X102600884Y-71721900D02*
X102458026Y-71793328D01*
X102458026Y-71793328D02*
X102100884Y-71793328D01*
X102100884Y-71793328D02*
X101958026Y-71721900D01*
X101958026Y-71721900D02*
X101886598Y-71579042D01*
X101886598Y-71579042D02*
X101886598Y-71436185D01*
X101886598Y-71436185D02*
X101958026Y-71293328D01*
X101958026Y-71293328D02*
X102100884Y-71221900D01*
X102100884Y-71221900D02*
X102458026Y-71221900D01*
X102458026Y-71221900D02*
X102600884Y-71150471D01*
X103100884Y-70793328D02*
X103672312Y-70793328D01*
X103315169Y-70293328D02*
X103315169Y-71579042D01*
X103315169Y-71579042D02*
X103386598Y-71721900D01*
X103386598Y-71721900D02*
X103529455Y-71793328D01*
X103529455Y-71793328D02*
X103672312Y-71793328D01*
X104743741Y-71721900D02*
X104600884Y-71793328D01*
X104600884Y-71793328D02*
X104315170Y-71793328D01*
X104315170Y-71793328D02*
X104172312Y-71721900D01*
X104172312Y-71721900D02*
X104100884Y-71579042D01*
X104100884Y-71579042D02*
X104100884Y-71007614D01*
X104100884Y-71007614D02*
X104172312Y-70864757D01*
X104172312Y-70864757D02*
X104315170Y-70793328D01*
X104315170Y-70793328D02*
X104600884Y-70793328D01*
X104600884Y-70793328D02*
X104743741Y-70864757D01*
X104743741Y-70864757D02*
X104815170Y-71007614D01*
X104815170Y-71007614D02*
X104815170Y-71150471D01*
X104815170Y-71150471D02*
X104100884Y-71293328D01*
X105458026Y-71650471D02*
X105529455Y-71721900D01*
X105529455Y-71721900D02*
X105458026Y-71793328D01*
X105458026Y-71793328D02*
X105386598Y-71721900D01*
X105386598Y-71721900D02*
X105458026Y-71650471D01*
X105458026Y-71650471D02*
X105458026Y-71793328D01*
X105458026Y-70864757D02*
X105529455Y-70936185D01*
X105529455Y-70936185D02*
X105458026Y-71007614D01*
X105458026Y-71007614D02*
X105386598Y-70936185D01*
X105386598Y-70936185D02*
X105458026Y-70864757D01*
X105458026Y-70864757D02*
X105458026Y-71007614D01*
X107243741Y-70436185D02*
X107315169Y-70364757D01*
X107315169Y-70364757D02*
X107458027Y-70293328D01*
X107458027Y-70293328D02*
X107815169Y-70293328D01*
X107815169Y-70293328D02*
X107958027Y-70364757D01*
X107958027Y-70364757D02*
X108029455Y-70436185D01*
X108029455Y-70436185D02*
X108100884Y-70579042D01*
X108100884Y-70579042D02*
X108100884Y-70721900D01*
X108100884Y-70721900D02*
X108029455Y-70936185D01*
X108029455Y-70936185D02*
X107172312Y-71793328D01*
X107172312Y-71793328D02*
X108100884Y-71793328D01*
X109029455Y-70293328D02*
X109172312Y-70293328D01*
X109172312Y-70293328D02*
X109315169Y-70364757D01*
X109315169Y-70364757D02*
X109386598Y-70436185D01*
X109386598Y-70436185D02*
X109458026Y-70579042D01*
X109458026Y-70579042D02*
X109529455Y-70864757D01*
X109529455Y-70864757D02*
X109529455Y-71221900D01*
X109529455Y-71221900D02*
X109458026Y-71507614D01*
X109458026Y-71507614D02*
X109386598Y-71650471D01*
X109386598Y-71650471D02*
X109315169Y-71721900D01*
X109315169Y-71721900D02*
X109172312Y-71793328D01*
X109172312Y-71793328D02*
X109029455Y-71793328D01*
X109029455Y-71793328D02*
X108886598Y-71721900D01*
X108886598Y-71721900D02*
X108815169Y-71650471D01*
X108815169Y-71650471D02*
X108743740Y-71507614D01*
X108743740Y-71507614D02*
X108672312Y-71221900D01*
X108672312Y-71221900D02*
X108672312Y-70864757D01*
X108672312Y-70864757D02*
X108743740Y-70579042D01*
X108743740Y-70579042D02*
X108815169Y-70436185D01*
X108815169Y-70436185D02*
X108886598Y-70364757D01*
X108886598Y-70364757D02*
X109029455Y-70293328D01*
X110100883Y-70436185D02*
X110172311Y-70364757D01*
X110172311Y-70364757D02*
X110315169Y-70293328D01*
X110315169Y-70293328D02*
X110672311Y-70293328D01*
X110672311Y-70293328D02*
X110815169Y-70364757D01*
X110815169Y-70364757D02*
X110886597Y-70436185D01*
X110886597Y-70436185D02*
X110958026Y-70579042D01*
X110958026Y-70579042D02*
X110958026Y-70721900D01*
X110958026Y-70721900D02*
X110886597Y-70936185D01*
X110886597Y-70936185D02*
X110029454Y-71793328D01*
X110029454Y-71793328D02*
X110958026Y-71793328D01*
X112243740Y-70793328D02*
X112243740Y-71793328D01*
X111886597Y-70221900D02*
X111529454Y-71293328D01*
X111529454Y-71293328D02*
X112458025Y-71293328D01*
X113029453Y-71221900D02*
X114172311Y-71221900D01*
X115172311Y-70293328D02*
X115315168Y-70293328D01*
X115315168Y-70293328D02*
X115458025Y-70364757D01*
X115458025Y-70364757D02*
X115529454Y-70436185D01*
X115529454Y-70436185D02*
X115600882Y-70579042D01*
X115600882Y-70579042D02*
X115672311Y-70864757D01*
X115672311Y-70864757D02*
X115672311Y-71221900D01*
X115672311Y-71221900D02*
X115600882Y-71507614D01*
X115600882Y-71507614D02*
X115529454Y-71650471D01*
X115529454Y-71650471D02*
X115458025Y-71721900D01*
X115458025Y-71721900D02*
X115315168Y-71793328D01*
X115315168Y-71793328D02*
X115172311Y-71793328D01*
X115172311Y-71793328D02*
X115029454Y-71721900D01*
X115029454Y-71721900D02*
X114958025Y-71650471D01*
X114958025Y-71650471D02*
X114886596Y-71507614D01*
X114886596Y-71507614D02*
X114815168Y-71221900D01*
X114815168Y-71221900D02*
X114815168Y-70864757D01*
X114815168Y-70864757D02*
X114886596Y-70579042D01*
X114886596Y-70579042D02*
X114958025Y-70436185D01*
X114958025Y-70436185D02*
X115029454Y-70364757D01*
X115029454Y-70364757D02*
X115172311Y-70293328D01*
X117100882Y-71793328D02*
X116243739Y-71793328D01*
X116672310Y-71793328D02*
X116672310Y-70293328D01*
X116672310Y-70293328D02*
X116529453Y-70507614D01*
X116529453Y-70507614D02*
X116386596Y-70650471D01*
X116386596Y-70650471D02*
X116243739Y-70721900D01*
X117743738Y-71221900D02*
X118886596Y-71221900D01*
X119529453Y-70436185D02*
X119600881Y-70364757D01*
X119600881Y-70364757D02*
X119743739Y-70293328D01*
X119743739Y-70293328D02*
X120100881Y-70293328D01*
X120100881Y-70293328D02*
X120243739Y-70364757D01*
X120243739Y-70364757D02*
X120315167Y-70436185D01*
X120315167Y-70436185D02*
X120386596Y-70579042D01*
X120386596Y-70579042D02*
X120386596Y-70721900D01*
X120386596Y-70721900D02*
X120315167Y-70936185D01*
X120315167Y-70936185D02*
X119458024Y-71793328D01*
X119458024Y-71793328D02*
X120386596Y-71793328D01*
X121315167Y-70293328D02*
X121458024Y-70293328D01*
X121458024Y-70293328D02*
X121600881Y-70364757D01*
X121600881Y-70364757D02*
X121672310Y-70436185D01*
X121672310Y-70436185D02*
X121743738Y-70579042D01*
X121743738Y-70579042D02*
X121815167Y-70864757D01*
X121815167Y-70864757D02*
X121815167Y-71221900D01*
X121815167Y-71221900D02*
X121743738Y-71507614D01*
X121743738Y-71507614D02*
X121672310Y-71650471D01*
X121672310Y-71650471D02*
X121600881Y-71721900D01*
X121600881Y-71721900D02*
X121458024Y-71793328D01*
X121458024Y-71793328D02*
X121315167Y-71793328D01*
X121315167Y-71793328D02*
X121172310Y-71721900D01*
X121172310Y-71721900D02*
X121100881Y-71650471D01*
X121100881Y-71650471D02*
X121029452Y-71507614D01*
X121029452Y-71507614D02*
X120958024Y-71221900D01*
X120958024Y-71221900D02*
X120958024Y-70864757D01*
X120958024Y-70864757D02*
X121029452Y-70579042D01*
X121029452Y-70579042D02*
X121100881Y-70436185D01*
X121100881Y-70436185D02*
X121172310Y-70364757D01*
X121172310Y-70364757D02*
X121315167Y-70293328D01*
D10*
D11*
X77002200Y-72507200D02*
X185002200Y-72507200D01*
D10*
D11*
X78458026Y-74593328D02*
X78458026Y-73093328D01*
X79315169Y-74593328D02*
X78672312Y-73736185D01*
X79315169Y-73093328D02*
X78458026Y-73950471D01*
X79958026Y-74593328D02*
X79958026Y-73593328D01*
X79958026Y-73093328D02*
X79886598Y-73164757D01*
X79886598Y-73164757D02*
X79958026Y-73236185D01*
X79958026Y-73236185D02*
X80029455Y-73164757D01*
X80029455Y-73164757D02*
X79958026Y-73093328D01*
X79958026Y-73093328D02*
X79958026Y-73236185D01*
X81529455Y-74450471D02*
X81458027Y-74521900D01*
X81458027Y-74521900D02*
X81243741Y-74593328D01*
X81243741Y-74593328D02*
X81100884Y-74593328D01*
X81100884Y-74593328D02*
X80886598Y-74521900D01*
X80886598Y-74521900D02*
X80743741Y-74379042D01*
X80743741Y-74379042D02*
X80672312Y-74236185D01*
X80672312Y-74236185D02*
X80600884Y-73950471D01*
X80600884Y-73950471D02*
X80600884Y-73736185D01*
X80600884Y-73736185D02*
X80672312Y-73450471D01*
X80672312Y-73450471D02*
X80743741Y-73307614D01*
X80743741Y-73307614D02*
X80886598Y-73164757D01*
X80886598Y-73164757D02*
X81100884Y-73093328D01*
X81100884Y-73093328D02*
X81243741Y-73093328D01*
X81243741Y-73093328D02*
X81458027Y-73164757D01*
X81458027Y-73164757D02*
X81529455Y-73236185D01*
X82815170Y-74593328D02*
X82815170Y-73807614D01*
X82815170Y-73807614D02*
X82743741Y-73664757D01*
X82743741Y-73664757D02*
X82600884Y-73593328D01*
X82600884Y-73593328D02*
X82315170Y-73593328D01*
X82315170Y-73593328D02*
X82172312Y-73664757D01*
X82815170Y-74521900D02*
X82672312Y-74593328D01*
X82672312Y-74593328D02*
X82315170Y-74593328D01*
X82315170Y-74593328D02*
X82172312Y-74521900D01*
X82172312Y-74521900D02*
X82100884Y-74379042D01*
X82100884Y-74379042D02*
X82100884Y-74236185D01*
X82100884Y-74236185D02*
X82172312Y-74093328D01*
X82172312Y-74093328D02*
X82315170Y-74021900D01*
X82315170Y-74021900D02*
X82672312Y-74021900D01*
X82672312Y-74021900D02*
X82815170Y-73950471D01*
X84172313Y-74593328D02*
X84172313Y-73093328D01*
X84172313Y-74521900D02*
X84029455Y-74593328D01*
X84029455Y-74593328D02*
X83743741Y-74593328D01*
X83743741Y-74593328D02*
X83600884Y-74521900D01*
X83600884Y-74521900D02*
X83529455Y-74450471D01*
X83529455Y-74450471D02*
X83458027Y-74307614D01*
X83458027Y-74307614D02*
X83458027Y-73879042D01*
X83458027Y-73879042D02*
X83529455Y-73736185D01*
X83529455Y-73736185D02*
X83600884Y-73664757D01*
X83600884Y-73664757D02*
X83743741Y-73593328D01*
X83743741Y-73593328D02*
X84029455Y-73593328D01*
X84029455Y-73593328D02*
X84172313Y-73664757D01*
X86029455Y-73807614D02*
X86529455Y-73807614D01*
X86743741Y-74593328D02*
X86029455Y-74593328D01*
X86029455Y-74593328D02*
X86029455Y-73093328D01*
X86029455Y-73093328D02*
X86743741Y-73093328D01*
X87386598Y-74450471D02*
X87458027Y-74521900D01*
X87458027Y-74521900D02*
X87386598Y-74593328D01*
X87386598Y-74593328D02*
X87315170Y-74521900D01*
X87315170Y-74521900D02*
X87386598Y-74450471D01*
X87386598Y-74450471D02*
X87386598Y-74593328D01*
X88100884Y-74593328D02*
X88100884Y-73093328D01*
X88100884Y-73093328D02*
X88458027Y-73093328D01*
X88458027Y-73093328D02*
X88672313Y-73164757D01*
X88672313Y-73164757D02*
X88815170Y-73307614D01*
X88815170Y-73307614D02*
X88886599Y-73450471D01*
X88886599Y-73450471D02*
X88958027Y-73736185D01*
X88958027Y-73736185D02*
X88958027Y-73950471D01*
X88958027Y-73950471D02*
X88886599Y-74236185D01*
X88886599Y-74236185D02*
X88815170Y-74379042D01*
X88815170Y-74379042D02*
X88672313Y-74521900D01*
X88672313Y-74521900D02*
X88458027Y-74593328D01*
X88458027Y-74593328D02*
X88100884Y-74593328D01*
X89600884Y-74450471D02*
X89672313Y-74521900D01*
X89672313Y-74521900D02*
X89600884Y-74593328D01*
X89600884Y-74593328D02*
X89529456Y-74521900D01*
X89529456Y-74521900D02*
X89600884Y-74450471D01*
X89600884Y-74450471D02*
X89600884Y-74593328D01*
X90243742Y-74164757D02*
X90958028Y-74164757D01*
X90100885Y-74593328D02*
X90600885Y-73093328D01*
X90600885Y-73093328D02*
X91100885Y-74593328D01*
X91600884Y-74450471D02*
X91672313Y-74521900D01*
X91672313Y-74521900D02*
X91600884Y-74593328D01*
X91600884Y-74593328D02*
X91529456Y-74521900D01*
X91529456Y-74521900D02*
X91600884Y-74450471D01*
X91600884Y-74450471D02*
X91600884Y-74593328D01*
X94600884Y-74593328D02*
X94600884Y-73093328D01*
X94743742Y-74021900D02*
X95172313Y-74593328D01*
X95172313Y-73593328D02*
X94600884Y-74164757D01*
X95815170Y-74593328D02*
X95815170Y-73593328D01*
X95815170Y-73093328D02*
X95743742Y-73164757D01*
X95743742Y-73164757D02*
X95815170Y-73236185D01*
X95815170Y-73236185D02*
X95886599Y-73164757D01*
X95886599Y-73164757D02*
X95815170Y-73093328D01*
X95815170Y-73093328D02*
X95815170Y-73236185D01*
X97172314Y-74521900D02*
X97029456Y-74593328D01*
X97029456Y-74593328D02*
X96743742Y-74593328D01*
X96743742Y-74593328D02*
X96600885Y-74521900D01*
X96600885Y-74521900D02*
X96529456Y-74450471D01*
X96529456Y-74450471D02*
X96458028Y-74307614D01*
X96458028Y-74307614D02*
X96458028Y-73879042D01*
X96458028Y-73879042D02*
X96529456Y-73736185D01*
X96529456Y-73736185D02*
X96600885Y-73664757D01*
X96600885Y-73664757D02*
X96743742Y-73593328D01*
X96743742Y-73593328D02*
X97029456Y-73593328D01*
X97029456Y-73593328D02*
X97172314Y-73664757D01*
X98458028Y-74593328D02*
X98458028Y-73807614D01*
X98458028Y-73807614D02*
X98386599Y-73664757D01*
X98386599Y-73664757D02*
X98243742Y-73593328D01*
X98243742Y-73593328D02*
X97958028Y-73593328D01*
X97958028Y-73593328D02*
X97815170Y-73664757D01*
X98458028Y-74521900D02*
X98315170Y-74593328D01*
X98315170Y-74593328D02*
X97958028Y-74593328D01*
X97958028Y-74593328D02*
X97815170Y-74521900D01*
X97815170Y-74521900D02*
X97743742Y-74379042D01*
X97743742Y-74379042D02*
X97743742Y-74236185D01*
X97743742Y-74236185D02*
X97815170Y-74093328D01*
X97815170Y-74093328D02*
X97958028Y-74021900D01*
X97958028Y-74021900D02*
X98315170Y-74021900D01*
X98315170Y-74021900D02*
X98458028Y-73950471D01*
X99815171Y-74593328D02*
X99815171Y-73093328D01*
X99815171Y-74521900D02*
X99672313Y-74593328D01*
X99672313Y-74593328D02*
X99386599Y-74593328D01*
X99386599Y-74593328D02*
X99243742Y-74521900D01*
X99243742Y-74521900D02*
X99172313Y-74450471D01*
X99172313Y-74450471D02*
X99100885Y-74307614D01*
X99100885Y-74307614D02*
X99100885Y-73879042D01*
X99100885Y-73879042D02*
X99172313Y-73736185D01*
X99172313Y-73736185D02*
X99243742Y-73664757D01*
X99243742Y-73664757D02*
X99386599Y-73593328D01*
X99386599Y-73593328D02*
X99672313Y-73593328D01*
X99672313Y-73593328D02*
X99815171Y-73664757D01*
X101529456Y-73093328D02*
X102529456Y-73093328D01*
X102529456Y-73093328D02*
X101886599Y-74593328D01*
X103100884Y-74450471D02*
X103172313Y-74521900D01*
X103172313Y-74521900D02*
X103100884Y-74593328D01*
X103100884Y-74593328D02*
X103029456Y-74521900D01*
X103029456Y-74521900D02*
X103100884Y-74450471D01*
X103100884Y-74450471D02*
X103100884Y-74593328D01*
X104100885Y-73093328D02*
X104243742Y-73093328D01*
X104243742Y-73093328D02*
X104386599Y-73164757D01*
X104386599Y-73164757D02*
X104458028Y-73236185D01*
X104458028Y-73236185D02*
X104529456Y-73379042D01*
X104529456Y-73379042D02*
X104600885Y-73664757D01*
X104600885Y-73664757D02*
X104600885Y-74021900D01*
X104600885Y-74021900D02*
X104529456Y-74307614D01*
X104529456Y-74307614D02*
X104458028Y-74450471D01*
X104458028Y-74450471D02*
X104386599Y-74521900D01*
X104386599Y-74521900D02*
X104243742Y-74593328D01*
X104243742Y-74593328D02*
X104100885Y-74593328D01*
X104100885Y-74593328D02*
X103958028Y-74521900D01*
X103958028Y-74521900D02*
X103886599Y-74450471D01*
X103886599Y-74450471D02*
X103815170Y-74307614D01*
X103815170Y-74307614D02*
X103743742Y-74021900D01*
X103743742Y-74021900D02*
X103743742Y-73664757D01*
X103743742Y-73664757D02*
X103815170Y-73379042D01*
X103815170Y-73379042D02*
X103886599Y-73236185D01*
X103886599Y-73236185D02*
X103958028Y-73164757D01*
X103958028Y-73164757D02*
X104100885Y-73093328D01*
X105243741Y-74450471D02*
X105315170Y-74521900D01*
X105315170Y-74521900D02*
X105243741Y-74593328D01*
X105243741Y-74593328D02*
X105172313Y-74521900D01*
X105172313Y-74521900D02*
X105243741Y-74450471D01*
X105243741Y-74450471D02*
X105243741Y-74593328D01*
X105815170Y-73093328D02*
X106815170Y-73093328D01*
X106815170Y-73093328D02*
X106172313Y-74593328D01*
D10*
D11*
X77002200Y-69507200D02*
X185002200Y-69507200D01*
D10*
D12*
X164413853Y-71785528D02*
X163913853Y-71071242D01*
X163556710Y-71785528D02*
X163556710Y-70285528D01*
X163556710Y-70285528D02*
X164128139Y-70285528D01*
X164128139Y-70285528D02*
X164270996Y-70356957D01*
X164270996Y-70356957D02*
X164342425Y-70428385D01*
X164342425Y-70428385D02*
X164413853Y-70571242D01*
X164413853Y-70571242D02*
X164413853Y-70785528D01*
X164413853Y-70785528D02*
X164342425Y-70928385D01*
X164342425Y-70928385D02*
X164270996Y-70999814D01*
X164270996Y-70999814D02*
X164128139Y-71071242D01*
X164128139Y-71071242D02*
X163556710Y-71071242D01*
X165628139Y-71714100D02*
X165485282Y-71785528D01*
X165485282Y-71785528D02*
X165199568Y-71785528D01*
X165199568Y-71785528D02*
X165056710Y-71714100D01*
X165056710Y-71714100D02*
X164985282Y-71571242D01*
X164985282Y-71571242D02*
X164985282Y-70999814D01*
X164985282Y-70999814D02*
X165056710Y-70856957D01*
X165056710Y-70856957D02*
X165199568Y-70785528D01*
X165199568Y-70785528D02*
X165485282Y-70785528D01*
X165485282Y-70785528D02*
X165628139Y-70856957D01*
X165628139Y-70856957D02*
X165699568Y-70999814D01*
X165699568Y-70999814D02*
X165699568Y-71142671D01*
X165699568Y-71142671D02*
X164985282Y-71285528D01*
X166199567Y-70785528D02*
X166556710Y-71785528D01*
X166556710Y-71785528D02*
X166913853Y-70785528D01*
X167485281Y-71642671D02*
X167556710Y-71714100D01*
X167556710Y-71714100D02*
X167485281Y-71785528D01*
X167485281Y-71785528D02*
X167413853Y-71714100D01*
X167413853Y-71714100D02*
X167485281Y-71642671D01*
X167485281Y-71642671D02*
X167485281Y-71785528D01*
X167485281Y-70856957D02*
X167556710Y-70928385D01*
X167556710Y-70928385D02*
X167485281Y-70999814D01*
X167485281Y-70999814D02*
X167413853Y-70928385D01*
X167413853Y-70928385D02*
X167485281Y-70856957D01*
X167485281Y-70856957D02*
X167485281Y-70999814D01*
X170128139Y-71785528D02*
X169270996Y-71785528D01*
X169699567Y-71785528D02*
X169699567Y-70285528D01*
X169699567Y-70285528D02*
X169556710Y-70499814D01*
X169556710Y-70499814D02*
X169413853Y-70642671D01*
X169413853Y-70642671D02*
X169270996Y-70714100D01*
X170770995Y-71642671D02*
X170842424Y-71714100D01*
X170842424Y-71714100D02*
X170770995Y-71785528D01*
X170770995Y-71785528D02*
X170699567Y-71714100D01*
X170699567Y-71714100D02*
X170770995Y-71642671D01*
X170770995Y-71642671D02*
X170770995Y-71785528D01*
X171770996Y-70285528D02*
X171913853Y-70285528D01*
X171913853Y-70285528D02*
X172056710Y-70356957D01*
X172056710Y-70356957D02*
X172128139Y-70428385D01*
X172128139Y-70428385D02*
X172199567Y-70571242D01*
X172199567Y-70571242D02*
X172270996Y-70856957D01*
X172270996Y-70856957D02*
X172270996Y-71214100D01*
X172270996Y-71214100D02*
X172199567Y-71499814D01*
X172199567Y-71499814D02*
X172128139Y-71642671D01*
X172128139Y-71642671D02*
X172056710Y-71714100D01*
X172056710Y-71714100D02*
X171913853Y-71785528D01*
X171913853Y-71785528D02*
X171770996Y-71785528D01*
X171770996Y-71785528D02*
X171628139Y-71714100D01*
X171628139Y-71714100D02*
X171556710Y-71642671D01*
X171556710Y-71642671D02*
X171485281Y-71499814D01*
X171485281Y-71499814D02*
X171413853Y-71214100D01*
X171413853Y-71214100D02*
X171413853Y-70856957D01*
X171413853Y-70856957D02*
X171485281Y-70571242D01*
X171485281Y-70571242D02*
X171556710Y-70428385D01*
X171556710Y-70428385D02*
X171628139Y-70356957D01*
X171628139Y-70356957D02*
X171770996Y-70285528D01*
D10*
D11*
X78386598Y-71721900D02*
X78600884Y-71793328D01*
X78600884Y-71793328D02*
X78958026Y-71793328D01*
X78958026Y-71793328D02*
X79100884Y-71721900D01*
X79100884Y-71721900D02*
X79172312Y-71650471D01*
X79172312Y-71650471D02*
X79243741Y-71507614D01*
X79243741Y-71507614D02*
X79243741Y-71364757D01*
X79243741Y-71364757D02*
X79172312Y-71221900D01*
X79172312Y-71221900D02*
X79100884Y-71150471D01*
X79100884Y-71150471D02*
X78958026Y-71079042D01*
X78958026Y-71079042D02*
X78672312Y-71007614D01*
X78672312Y-71007614D02*
X78529455Y-70936185D01*
X78529455Y-70936185D02*
X78458026Y-70864757D01*
X78458026Y-70864757D02*
X78386598Y-70721900D01*
X78386598Y-70721900D02*
X78386598Y-70579042D01*
X78386598Y-70579042D02*
X78458026Y-70436185D01*
X78458026Y-70436185D02*
X78529455Y-70364757D01*
X78529455Y-70364757D02*
X78672312Y-70293328D01*
X78672312Y-70293328D02*
X79029455Y-70293328D01*
X79029455Y-70293328D02*
X79243741Y-70364757D01*
X79886597Y-71793328D02*
X79886597Y-70793328D01*
X79886597Y-70293328D02*
X79815169Y-70364757D01*
X79815169Y-70364757D02*
X79886597Y-70436185D01*
X79886597Y-70436185D02*
X79958026Y-70364757D01*
X79958026Y-70364757D02*
X79886597Y-70293328D01*
X79886597Y-70293328D02*
X79886597Y-70436185D01*
X80458026Y-70793328D02*
X81243741Y-70793328D01*
X81243741Y-70793328D02*
X80458026Y-71793328D01*
X80458026Y-71793328D02*
X81243741Y-71793328D01*
X82386598Y-71721900D02*
X82243741Y-71793328D01*
X82243741Y-71793328D02*
X81958027Y-71793328D01*
X81958027Y-71793328D02*
X81815169Y-71721900D01*
X81815169Y-71721900D02*
X81743741Y-71579042D01*
X81743741Y-71579042D02*
X81743741Y-71007614D01*
X81743741Y-71007614D02*
X81815169Y-70864757D01*
X81815169Y-70864757D02*
X81958027Y-70793328D01*
X81958027Y-70793328D02*
X82243741Y-70793328D01*
X82243741Y-70793328D02*
X82386598Y-70864757D01*
X82386598Y-70864757D02*
X82458027Y-71007614D01*
X82458027Y-71007614D02*
X82458027Y-71150471D01*
X82458027Y-71150471D02*
X81743741Y-71293328D01*
X83100883Y-71650471D02*
X83172312Y-71721900D01*
X83172312Y-71721900D02*
X83100883Y-71793328D01*
X83100883Y-71793328D02*
X83029455Y-71721900D01*
X83029455Y-71721900D02*
X83100883Y-71650471D01*
X83100883Y-71650471D02*
X83100883Y-71793328D01*
X83100883Y-70864757D02*
X83172312Y-70936185D01*
X83172312Y-70936185D02*
X83100883Y-71007614D01*
X83100883Y-71007614D02*
X83029455Y-70936185D01*
X83029455Y-70936185D02*
X83100883Y-70864757D01*
X83100883Y-70864757D02*
X83100883Y-71007614D01*
X84886598Y-71364757D02*
X85600884Y-71364757D01*
X84743741Y-71793328D02*
X85243741Y-70293328D01*
X85243741Y-70293328D02*
X85743741Y-71793328D01*
X86886598Y-70793328D02*
X86886598Y-71793328D01*
X86529455Y-70221900D02*
X86172312Y-71293328D01*
X86172312Y-71293328D02*
X87100883Y-71293328D01*
D10*
D11*
X163458026Y-74593328D02*
X163458026Y-73093328D01*
X164815170Y-74593328D02*
X164815170Y-73093328D01*
X164815170Y-74521900D02*
X164672312Y-74593328D01*
X164672312Y-74593328D02*
X164386598Y-74593328D01*
X164386598Y-74593328D02*
X164243741Y-74521900D01*
X164243741Y-74521900D02*
X164172312Y-74450471D01*
X164172312Y-74450471D02*
X164100884Y-74307614D01*
X164100884Y-74307614D02*
X164100884Y-73879042D01*
X164100884Y-73879042D02*
X164172312Y-73736185D01*
X164172312Y-73736185D02*
X164243741Y-73664757D01*
X164243741Y-73664757D02*
X164386598Y-73593328D01*
X164386598Y-73593328D02*
X164672312Y-73593328D01*
X164672312Y-73593328D02*
X164815170Y-73664757D01*
X165529455Y-74450471D02*
X165600884Y-74521900D01*
X165600884Y-74521900D02*
X165529455Y-74593328D01*
X165529455Y-74593328D02*
X165458027Y-74521900D01*
X165458027Y-74521900D02*
X165529455Y-74450471D01*
X165529455Y-74450471D02*
X165529455Y-74593328D01*
X165529455Y-73664757D02*
X165600884Y-73736185D01*
X165600884Y-73736185D02*
X165529455Y-73807614D01*
X165529455Y-73807614D02*
X165458027Y-73736185D01*
X165458027Y-73736185D02*
X165529455Y-73664757D01*
X165529455Y-73664757D02*
X165529455Y-73807614D01*
X168172313Y-74593328D02*
X167315170Y-74593328D01*
X167743741Y-74593328D02*
X167743741Y-73093328D01*
X167743741Y-73093328D02*
X167600884Y-73307614D01*
X167600884Y-73307614D02*
X167458027Y-73450471D01*
X167458027Y-73450471D02*
X167315170Y-73521900D01*
X169886598Y-73021900D02*
X168600884Y-74950471D01*
X171172313Y-74593328D02*
X170315170Y-74593328D01*
X170743741Y-74593328D02*
X170743741Y-73093328D01*
X170743741Y-73093328D02*
X170600884Y-73307614D01*
X170600884Y-73307614D02*
X170458027Y-73450471D01*
X170458027Y-73450471D02*
X170315170Y-73521900D01*
D10*
D11*
X77002200Y-65507200D02*
X185002200Y-65507200D01*
D10*
D13*
X78693928Y-66211638D02*
X79836785Y-66211638D01*
X79015357Y-68211638D02*
X79265357Y-66211638D01*
X80253452Y-68211638D02*
X80420119Y-66878304D01*
X80503452Y-66211638D02*
X80396309Y-66306876D01*
X80396309Y-66306876D02*
X80479643Y-66402114D01*
X80479643Y-66402114D02*
X80586786Y-66306876D01*
X80586786Y-66306876D02*
X80503452Y-66211638D01*
X80503452Y-66211638D02*
X80479643Y-66402114D01*
X81086786Y-66878304D02*
X81848690Y-66878304D01*
X81455833Y-66211638D02*
X81241548Y-67925923D01*
X81241548Y-67925923D02*
X81312976Y-68116400D01*
X81312976Y-68116400D02*
X81491548Y-68211638D01*
X81491548Y-68211638D02*
X81682024Y-68211638D01*
X82634405Y-68211638D02*
X82455833Y-68116400D01*
X82455833Y-68116400D02*
X82384405Y-67925923D01*
X82384405Y-67925923D02*
X82598690Y-66211638D01*
X84170119Y-68116400D02*
X83967738Y-68211638D01*
X83967738Y-68211638D02*
X83586785Y-68211638D01*
X83586785Y-68211638D02*
X83408214Y-68116400D01*
X83408214Y-68116400D02*
X83336785Y-67925923D01*
X83336785Y-67925923D02*
X83432024Y-67164019D01*
X83432024Y-67164019D02*
X83551071Y-66973542D01*
X83551071Y-66973542D02*
X83753452Y-66878304D01*
X83753452Y-66878304D02*
X84134404Y-66878304D01*
X84134404Y-66878304D02*
X84312976Y-66973542D01*
X84312976Y-66973542D02*
X84384404Y-67164019D01*
X84384404Y-67164019D02*
X84360595Y-67354495D01*
X84360595Y-67354495D02*
X83384404Y-67544971D01*
X85134405Y-68021161D02*
X85217738Y-68116400D01*
X85217738Y-68116400D02*
X85110595Y-68211638D01*
X85110595Y-68211638D02*
X85027262Y-68116400D01*
X85027262Y-68116400D02*
X85134405Y-68021161D01*
X85134405Y-68021161D02*
X85110595Y-68211638D01*
X85265357Y-66973542D02*
X85348690Y-67068780D01*
X85348690Y-67068780D02*
X85241548Y-67164019D01*
X85241548Y-67164019D02*
X85158214Y-67068780D01*
X85158214Y-67068780D02*
X85265357Y-66973542D01*
X85265357Y-66973542D02*
X85241548Y-67164019D01*
X87586786Y-68211638D02*
X87753453Y-66878304D01*
X87729643Y-67068780D02*
X87836786Y-66973542D01*
X87836786Y-66973542D02*
X88039167Y-66878304D01*
X88039167Y-66878304D02*
X88324881Y-66878304D01*
X88324881Y-66878304D02*
X88503453Y-66973542D01*
X88503453Y-66973542D02*
X88574881Y-67164019D01*
X88574881Y-67164019D02*
X88443929Y-68211638D01*
X88574881Y-67164019D02*
X88693929Y-66973542D01*
X88693929Y-66973542D02*
X88896310Y-66878304D01*
X88896310Y-66878304D02*
X89182024Y-66878304D01*
X89182024Y-66878304D02*
X89360596Y-66973542D01*
X89360596Y-66973542D02*
X89432024Y-67164019D01*
X89432024Y-67164019D02*
X89301072Y-68211638D01*
X90253453Y-68211638D02*
X90420120Y-66878304D01*
X90503453Y-66211638D02*
X90396310Y-66306876D01*
X90396310Y-66306876D02*
X90479644Y-66402114D01*
X90479644Y-66402114D02*
X90586787Y-66306876D01*
X90586787Y-66306876D02*
X90503453Y-66211638D01*
X90503453Y-66211638D02*
X90479644Y-66402114D01*
X92062977Y-68211638D02*
X92312977Y-66211638D01*
X92074882Y-68116400D02*
X91872501Y-68211638D01*
X91872501Y-68211638D02*
X91491549Y-68211638D01*
X91491549Y-68211638D02*
X91312977Y-68116400D01*
X91312977Y-68116400D02*
X91229644Y-68021161D01*
X91229644Y-68021161D02*
X91158215Y-67830685D01*
X91158215Y-67830685D02*
X91229644Y-67259257D01*
X91229644Y-67259257D02*
X91348691Y-67068780D01*
X91348691Y-67068780D02*
X91455834Y-66973542D01*
X91455834Y-66973542D02*
X91658215Y-66878304D01*
X91658215Y-66878304D02*
X92039168Y-66878304D01*
X92039168Y-66878304D02*
X92217739Y-66973542D01*
X93015358Y-68211638D02*
X93182025Y-66878304D01*
X93265358Y-66211638D02*
X93158215Y-66306876D01*
X93158215Y-66306876D02*
X93241549Y-66402114D01*
X93241549Y-66402114D02*
X93348692Y-66306876D01*
X93348692Y-66306876D02*
X93265358Y-66211638D01*
X93265358Y-66211638D02*
X93241549Y-66402114D01*
X94062977Y-67449733D02*
X95586787Y-67449733D01*
X97301072Y-68211638D02*
X97551072Y-66211638D01*
X97312977Y-68116400D02*
X97110596Y-68211638D01*
X97110596Y-68211638D02*
X96729644Y-68211638D01*
X96729644Y-68211638D02*
X96551072Y-68116400D01*
X96551072Y-68116400D02*
X96467739Y-68021161D01*
X96467739Y-68021161D02*
X96396310Y-67830685D01*
X96396310Y-67830685D02*
X96467739Y-67259257D01*
X96467739Y-67259257D02*
X96586786Y-67068780D01*
X96586786Y-67068780D02*
X96693929Y-66973542D01*
X96693929Y-66973542D02*
X96896310Y-66878304D01*
X96896310Y-66878304D02*
X97277263Y-66878304D01*
X97277263Y-66878304D02*
X97455834Y-66973542D01*
X98253453Y-68211638D02*
X98420120Y-66878304D01*
X98396310Y-67068780D02*
X98503453Y-66973542D01*
X98503453Y-66973542D02*
X98705834Y-66878304D01*
X98705834Y-66878304D02*
X98991548Y-66878304D01*
X98991548Y-66878304D02*
X99170120Y-66973542D01*
X99170120Y-66973542D02*
X99241548Y-67164019D01*
X99241548Y-67164019D02*
X99110596Y-68211638D01*
X99241548Y-67164019D02*
X99360596Y-66973542D01*
X99360596Y-66973542D02*
X99562977Y-66878304D01*
X99562977Y-66878304D02*
X99848691Y-66878304D01*
X99848691Y-66878304D02*
X100027263Y-66973542D01*
X100027263Y-66973542D02*
X100098691Y-67164019D01*
X100098691Y-67164019D02*
X99967739Y-68211638D01*
X100729644Y-68211638D02*
X101943930Y-66878304D01*
X100896311Y-66878304D02*
X101777263Y-68211638D01*
X102039168Y-68402114D02*
X103562978Y-68402114D01*
X104062978Y-68211638D02*
X104312978Y-66211638D01*
X104217740Y-66973542D02*
X104420121Y-66878304D01*
X104420121Y-66878304D02*
X104801073Y-66878304D01*
X104801073Y-66878304D02*
X104979645Y-66973542D01*
X104979645Y-66973542D02*
X105062978Y-67068780D01*
X105062978Y-67068780D02*
X105134407Y-67259257D01*
X105134407Y-67259257D02*
X105062978Y-67830685D01*
X105062978Y-67830685D02*
X104943931Y-68021161D01*
X104943931Y-68021161D02*
X104836788Y-68116400D01*
X104836788Y-68116400D02*
X104634407Y-68211638D01*
X104634407Y-68211638D02*
X104253454Y-68211638D01*
X104253454Y-68211638D02*
X104074883Y-68116400D01*
X105872502Y-68211638D02*
X106039169Y-66878304D01*
X105991550Y-67259257D02*
X106110597Y-67068780D01*
X106110597Y-67068780D02*
X106217740Y-66973542D01*
X106217740Y-66973542D02*
X106420121Y-66878304D01*
X106420121Y-66878304D02*
X106610597Y-66878304D01*
X107110597Y-68211638D02*
X107277264Y-66878304D01*
X107360597Y-66211638D02*
X107253454Y-66306876D01*
X107253454Y-66306876D02*
X107336788Y-66402114D01*
X107336788Y-66402114D02*
X107443931Y-66306876D01*
X107443931Y-66306876D02*
X107360597Y-66211638D01*
X107360597Y-66211638D02*
X107336788Y-66402114D01*
X108920121Y-68211638D02*
X109170121Y-66211638D01*
X108932026Y-68116400D02*
X108729645Y-68211638D01*
X108729645Y-68211638D02*
X108348693Y-68211638D01*
X108348693Y-68211638D02*
X108170121Y-68116400D01*
X108170121Y-68116400D02*
X108086788Y-68021161D01*
X108086788Y-68021161D02*
X108015359Y-67830685D01*
X108015359Y-67830685D02*
X108086788Y-67259257D01*
X108086788Y-67259257D02*
X108205835Y-67068780D01*
X108205835Y-67068780D02*
X108312978Y-66973542D01*
X108312978Y-66973542D02*
X108515359Y-66878304D01*
X108515359Y-66878304D02*
X108896312Y-66878304D01*
X108896312Y-66878304D02*
X109074883Y-66973542D01*
X110896312Y-66878304D02*
X110693931Y-68497352D01*
X110693931Y-68497352D02*
X110574883Y-68687828D01*
X110574883Y-68687828D02*
X110467740Y-68783066D01*
X110467740Y-68783066D02*
X110265359Y-68878304D01*
X110265359Y-68878304D02*
X109979645Y-68878304D01*
X109979645Y-68878304D02*
X109801074Y-68783066D01*
X110741550Y-68116400D02*
X110539169Y-68211638D01*
X110539169Y-68211638D02*
X110158217Y-68211638D01*
X110158217Y-68211638D02*
X109979645Y-68116400D01*
X109979645Y-68116400D02*
X109896312Y-68021161D01*
X109896312Y-68021161D02*
X109824883Y-67830685D01*
X109824883Y-67830685D02*
X109896312Y-67259257D01*
X109896312Y-67259257D02*
X110015359Y-67068780D01*
X110015359Y-67068780D02*
X110122502Y-66973542D01*
X110122502Y-66973542D02*
X110324883Y-66878304D01*
X110324883Y-66878304D02*
X110705836Y-66878304D01*
X110705836Y-66878304D02*
X110884407Y-66973542D01*
X112455836Y-68116400D02*
X112253455Y-68211638D01*
X112253455Y-68211638D02*
X111872502Y-68211638D01*
X111872502Y-68211638D02*
X111693931Y-68116400D01*
X111693931Y-68116400D02*
X111622502Y-67925923D01*
X111622502Y-67925923D02*
X111717741Y-67164019D01*
X111717741Y-67164019D02*
X111836788Y-66973542D01*
X111836788Y-66973542D02*
X112039169Y-66878304D01*
X112039169Y-66878304D02*
X112420121Y-66878304D01*
X112420121Y-66878304D02*
X112598693Y-66973542D01*
X112598693Y-66973542D02*
X112670121Y-67164019D01*
X112670121Y-67164019D02*
X112646312Y-67354495D01*
X112646312Y-67354495D02*
X111670121Y-67544971D01*
D10*
D11*
X78958026Y-63607614D02*
X78458026Y-63607614D01*
X78458026Y-64393328D02*
X78458026Y-62893328D01*
X78458026Y-62893328D02*
X79172312Y-62893328D01*
X79743740Y-64393328D02*
X79743740Y-63393328D01*
X79743740Y-62893328D02*
X79672312Y-62964757D01*
X79672312Y-62964757D02*
X79743740Y-63036185D01*
X79743740Y-63036185D02*
X79815169Y-62964757D01*
X79815169Y-62964757D02*
X79743740Y-62893328D01*
X79743740Y-62893328D02*
X79743740Y-63036185D01*
X80672312Y-64393328D02*
X80529455Y-64321900D01*
X80529455Y-64321900D02*
X80458026Y-64179042D01*
X80458026Y-64179042D02*
X80458026Y-62893328D01*
X81815169Y-64321900D02*
X81672312Y-64393328D01*
X81672312Y-64393328D02*
X81386598Y-64393328D01*
X81386598Y-64393328D02*
X81243740Y-64321900D01*
X81243740Y-64321900D02*
X81172312Y-64179042D01*
X81172312Y-64179042D02*
X81172312Y-63607614D01*
X81172312Y-63607614D02*
X81243740Y-63464757D01*
X81243740Y-63464757D02*
X81386598Y-63393328D01*
X81386598Y-63393328D02*
X81672312Y-63393328D01*
X81672312Y-63393328D02*
X81815169Y-63464757D01*
X81815169Y-63464757D02*
X81886598Y-63607614D01*
X81886598Y-63607614D02*
X81886598Y-63750471D01*
X81886598Y-63750471D02*
X81172312Y-63893328D01*
X82529454Y-64250471D02*
X82600883Y-64321900D01*
X82600883Y-64321900D02*
X82529454Y-64393328D01*
X82529454Y-64393328D02*
X82458026Y-64321900D01*
X82458026Y-64321900D02*
X82529454Y-64250471D01*
X82529454Y-64250471D02*
X82529454Y-64393328D01*
X82529454Y-63464757D02*
X82600883Y-63536185D01*
X82600883Y-63536185D02*
X82529454Y-63607614D01*
X82529454Y-63607614D02*
X82458026Y-63536185D01*
X82458026Y-63536185D02*
X82529454Y-63464757D01*
X82529454Y-63464757D02*
X82529454Y-63607614D01*
X84386597Y-64393328D02*
X84386597Y-63393328D01*
X84386597Y-63536185D02*
X84458026Y-63464757D01*
X84458026Y-63464757D02*
X84600883Y-63393328D01*
X84600883Y-63393328D02*
X84815169Y-63393328D01*
X84815169Y-63393328D02*
X84958026Y-63464757D01*
X84958026Y-63464757D02*
X85029455Y-63607614D01*
X85029455Y-63607614D02*
X85029455Y-64393328D01*
X85029455Y-63607614D02*
X85100883Y-63464757D01*
X85100883Y-63464757D02*
X85243740Y-63393328D01*
X85243740Y-63393328D02*
X85458026Y-63393328D01*
X85458026Y-63393328D02*
X85600883Y-63464757D01*
X85600883Y-63464757D02*
X85672312Y-63607614D01*
X85672312Y-63607614D02*
X85672312Y-64393328D01*
X86386597Y-64393328D02*
X86386597Y-63393328D01*
X86386597Y-62893328D02*
X86315169Y-62964757D01*
X86315169Y-62964757D02*
X86386597Y-63036185D01*
X86386597Y-63036185D02*
X86458026Y-62964757D01*
X86458026Y-62964757D02*
X86386597Y-62893328D01*
X86386597Y-62893328D02*
X86386597Y-63036185D01*
X87743741Y-64393328D02*
X87743741Y-62893328D01*
X87743741Y-64321900D02*
X87600883Y-64393328D01*
X87600883Y-64393328D02*
X87315169Y-64393328D01*
X87315169Y-64393328D02*
X87172312Y-64321900D01*
X87172312Y-64321900D02*
X87100883Y-64250471D01*
X87100883Y-64250471D02*
X87029455Y-64107614D01*
X87029455Y-64107614D02*
X87029455Y-63679042D01*
X87029455Y-63679042D02*
X87100883Y-63536185D01*
X87100883Y-63536185D02*
X87172312Y-63464757D01*
X87172312Y-63464757D02*
X87315169Y-63393328D01*
X87315169Y-63393328D02*
X87600883Y-63393328D01*
X87600883Y-63393328D02*
X87743741Y-63464757D01*
X88458026Y-64393328D02*
X88458026Y-63393328D01*
X88458026Y-62893328D02*
X88386598Y-62964757D01*
X88386598Y-62964757D02*
X88458026Y-63036185D01*
X88458026Y-63036185D02*
X88529455Y-62964757D01*
X88529455Y-62964757D02*
X88458026Y-62893328D01*
X88458026Y-62893328D02*
X88458026Y-63036185D01*
X89172312Y-63821900D02*
X90315170Y-63821900D01*
X91672313Y-64393328D02*
X91672313Y-62893328D01*
X91672313Y-64321900D02*
X91529455Y-64393328D01*
X91529455Y-64393328D02*
X91243741Y-64393328D01*
X91243741Y-64393328D02*
X91100884Y-64321900D01*
X91100884Y-64321900D02*
X91029455Y-64250471D01*
X91029455Y-64250471D02*
X90958027Y-64107614D01*
X90958027Y-64107614D02*
X90958027Y-63679042D01*
X90958027Y-63679042D02*
X91029455Y-63536185D01*
X91029455Y-63536185D02*
X91100884Y-63464757D01*
X91100884Y-63464757D02*
X91243741Y-63393328D01*
X91243741Y-63393328D02*
X91529455Y-63393328D01*
X91529455Y-63393328D02*
X91672313Y-63464757D01*
X92386598Y-64393328D02*
X92386598Y-63393328D01*
X92386598Y-63536185D02*
X92458027Y-63464757D01*
X92458027Y-63464757D02*
X92600884Y-63393328D01*
X92600884Y-63393328D02*
X92815170Y-63393328D01*
X92815170Y-63393328D02*
X92958027Y-63464757D01*
X92958027Y-63464757D02*
X93029456Y-63607614D01*
X93029456Y-63607614D02*
X93029456Y-64393328D01*
X93029456Y-63607614D02*
X93100884Y-63464757D01*
X93100884Y-63464757D02*
X93243741Y-63393328D01*
X93243741Y-63393328D02*
X93458027Y-63393328D01*
X93458027Y-63393328D02*
X93600884Y-63464757D01*
X93600884Y-63464757D02*
X93672313Y-63607614D01*
X93672313Y-63607614D02*
X93672313Y-64393328D01*
X94243741Y-64393328D02*
X95029456Y-63393328D01*
X94243741Y-63393328D02*
X95029456Y-64393328D01*
X95243742Y-64536185D02*
X96386599Y-64536185D01*
X96743741Y-64393328D02*
X96743741Y-62893328D01*
X96743741Y-63464757D02*
X96886599Y-63393328D01*
X96886599Y-63393328D02*
X97172313Y-63393328D01*
X97172313Y-63393328D02*
X97315170Y-63464757D01*
X97315170Y-63464757D02*
X97386599Y-63536185D01*
X97386599Y-63536185D02*
X97458027Y-63679042D01*
X97458027Y-63679042D02*
X97458027Y-64107614D01*
X97458027Y-64107614D02*
X97386599Y-64250471D01*
X97386599Y-64250471D02*
X97315170Y-64321900D01*
X97315170Y-64321900D02*
X97172313Y-64393328D01*
X97172313Y-64393328D02*
X96886599Y-64393328D01*
X96886599Y-64393328D02*
X96743741Y-64321900D01*
X98100884Y-64393328D02*
X98100884Y-63393328D01*
X98100884Y-63679042D02*
X98172313Y-63536185D01*
X98172313Y-63536185D02*
X98243742Y-63464757D01*
X98243742Y-63464757D02*
X98386599Y-63393328D01*
X98386599Y-63393328D02*
X98529456Y-63393328D01*
X99029455Y-64393328D02*
X99029455Y-63393328D01*
X99029455Y-62893328D02*
X98958027Y-62964757D01*
X98958027Y-62964757D02*
X99029455Y-63036185D01*
X99029455Y-63036185D02*
X99100884Y-62964757D01*
X99100884Y-62964757D02*
X99029455Y-62893328D01*
X99029455Y-62893328D02*
X99029455Y-63036185D01*
X100386599Y-64393328D02*
X100386599Y-62893328D01*
X100386599Y-64321900D02*
X100243741Y-64393328D01*
X100243741Y-64393328D02*
X99958027Y-64393328D01*
X99958027Y-64393328D02*
X99815170Y-64321900D01*
X99815170Y-64321900D02*
X99743741Y-64250471D01*
X99743741Y-64250471D02*
X99672313Y-64107614D01*
X99672313Y-64107614D02*
X99672313Y-63679042D01*
X99672313Y-63679042D02*
X99743741Y-63536185D01*
X99743741Y-63536185D02*
X99815170Y-63464757D01*
X99815170Y-63464757D02*
X99958027Y-63393328D01*
X99958027Y-63393328D02*
X100243741Y-63393328D01*
X100243741Y-63393328D02*
X100386599Y-63464757D01*
X101743742Y-63393328D02*
X101743742Y-64607614D01*
X101743742Y-64607614D02*
X101672313Y-64750471D01*
X101672313Y-64750471D02*
X101600884Y-64821900D01*
X101600884Y-64821900D02*
X101458027Y-64893328D01*
X101458027Y-64893328D02*
X101243742Y-64893328D01*
X101243742Y-64893328D02*
X101100884Y-64821900D01*
X101743742Y-64321900D02*
X101600884Y-64393328D01*
X101600884Y-64393328D02*
X101315170Y-64393328D01*
X101315170Y-64393328D02*
X101172313Y-64321900D01*
X101172313Y-64321900D02*
X101100884Y-64250471D01*
X101100884Y-64250471D02*
X101029456Y-64107614D01*
X101029456Y-64107614D02*
X101029456Y-63679042D01*
X101029456Y-63679042D02*
X101100884Y-63536185D01*
X101100884Y-63536185D02*
X101172313Y-63464757D01*
X101172313Y-63464757D02*
X101315170Y-63393328D01*
X101315170Y-63393328D02*
X101600884Y-63393328D01*
X101600884Y-63393328D02*
X101743742Y-63464757D01*
X103029456Y-64321900D02*
X102886599Y-64393328D01*
X102886599Y-64393328D02*
X102600885Y-64393328D01*
X102600885Y-64393328D02*
X102458027Y-64321900D01*
X102458027Y-64321900D02*
X102386599Y-64179042D01*
X102386599Y-64179042D02*
X102386599Y-63607614D01*
X102386599Y-63607614D02*
X102458027Y-63464757D01*
X102458027Y-63464757D02*
X102600885Y-63393328D01*
X102600885Y-63393328D02*
X102886599Y-63393328D01*
X102886599Y-63393328D02*
X103029456Y-63464757D01*
X103029456Y-63464757D02*
X103100885Y-63607614D01*
X103100885Y-63607614D02*
X103100885Y-63750471D01*
X103100885Y-63750471D02*
X102386599Y-63893328D01*
X103743741Y-64250471D02*
X103815170Y-64321900D01*
X103815170Y-64321900D02*
X103743741Y-64393328D01*
X103743741Y-64393328D02*
X103672313Y-64321900D01*
X103672313Y-64321900D02*
X103743741Y-64250471D01*
X103743741Y-64250471D02*
X103743741Y-64393328D01*
X104458027Y-64393328D02*
X104458027Y-62893328D01*
X104600885Y-63821900D02*
X105029456Y-64393328D01*
X105029456Y-63393328D02*
X104458027Y-63964757D01*
X105672313Y-64393328D02*
X105672313Y-63393328D01*
X105672313Y-62893328D02*
X105600885Y-62964757D01*
X105600885Y-62964757D02*
X105672313Y-63036185D01*
X105672313Y-63036185D02*
X105743742Y-62964757D01*
X105743742Y-62964757D02*
X105672313Y-62893328D01*
X105672313Y-62893328D02*
X105672313Y-63036185D01*
X107029457Y-64321900D02*
X106886599Y-64393328D01*
X106886599Y-64393328D02*
X106600885Y-64393328D01*
X106600885Y-64393328D02*
X106458028Y-64321900D01*
X106458028Y-64321900D02*
X106386599Y-64250471D01*
X106386599Y-64250471D02*
X106315171Y-64107614D01*
X106315171Y-64107614D02*
X106315171Y-63679042D01*
X106315171Y-63679042D02*
X106386599Y-63536185D01*
X106386599Y-63536185D02*
X106458028Y-63464757D01*
X106458028Y-63464757D02*
X106600885Y-63393328D01*
X106600885Y-63393328D02*
X106886599Y-63393328D01*
X106886599Y-63393328D02*
X107029457Y-63464757D01*
X108315171Y-64393328D02*
X108315171Y-63607614D01*
X108315171Y-63607614D02*
X108243742Y-63464757D01*
X108243742Y-63464757D02*
X108100885Y-63393328D01*
X108100885Y-63393328D02*
X107815171Y-63393328D01*
X107815171Y-63393328D02*
X107672313Y-63464757D01*
X108315171Y-64321900D02*
X108172313Y-64393328D01*
X108172313Y-64393328D02*
X107815171Y-64393328D01*
X107815171Y-64393328D02*
X107672313Y-64321900D01*
X107672313Y-64321900D02*
X107600885Y-64179042D01*
X107600885Y-64179042D02*
X107600885Y-64036185D01*
X107600885Y-64036185D02*
X107672313Y-63893328D01*
X107672313Y-63893328D02*
X107815171Y-63821900D01*
X107815171Y-63821900D02*
X108172313Y-63821900D01*
X108172313Y-63821900D02*
X108315171Y-63750471D01*
X109672314Y-64393328D02*
X109672314Y-62893328D01*
X109672314Y-64321900D02*
X109529456Y-64393328D01*
X109529456Y-64393328D02*
X109243742Y-64393328D01*
X109243742Y-64393328D02*
X109100885Y-64321900D01*
X109100885Y-64321900D02*
X109029456Y-64250471D01*
X109029456Y-64250471D02*
X108958028Y-64107614D01*
X108958028Y-64107614D02*
X108958028Y-63679042D01*
X108958028Y-63679042D02*
X109029456Y-63536185D01*
X109029456Y-63536185D02*
X109100885Y-63464757D01*
X109100885Y-63464757D02*
X109243742Y-63393328D01*
X109243742Y-63393328D02*
X109529456Y-63393328D01*
X109529456Y-63393328D02*
X109672314Y-63464757D01*
X110029457Y-64536185D02*
X111172314Y-64536185D01*
X111529456Y-63393328D02*
X111529456Y-64893328D01*
X111529456Y-63464757D02*
X111672314Y-63393328D01*
X111672314Y-63393328D02*
X111958028Y-63393328D01*
X111958028Y-63393328D02*
X112100885Y-63464757D01*
X112100885Y-63464757D02*
X112172314Y-63536185D01*
X112172314Y-63536185D02*
X112243742Y-63679042D01*
X112243742Y-63679042D02*
X112243742Y-64107614D01*
X112243742Y-64107614D02*
X112172314Y-64250471D01*
X112172314Y-64250471D02*
X112100885Y-64321900D01*
X112100885Y-64321900D02*
X111958028Y-64393328D01*
X111958028Y-64393328D02*
X111672314Y-64393328D01*
X111672314Y-64393328D02*
X111529456Y-64321900D01*
X113529457Y-64321900D02*
X113386599Y-64393328D01*
X113386599Y-64393328D02*
X113100885Y-64393328D01*
X113100885Y-64393328D02*
X112958028Y-64321900D01*
X112958028Y-64321900D02*
X112886599Y-64250471D01*
X112886599Y-64250471D02*
X112815171Y-64107614D01*
X112815171Y-64107614D02*
X112815171Y-63679042D01*
X112815171Y-63679042D02*
X112886599Y-63536185D01*
X112886599Y-63536185D02*
X112958028Y-63464757D01*
X112958028Y-63464757D02*
X113100885Y-63393328D01*
X113100885Y-63393328D02*
X113386599Y-63393328D01*
X113386599Y-63393328D02*
X113529457Y-63464757D01*
X114172313Y-64393328D02*
X114172313Y-62893328D01*
X114172313Y-63464757D02*
X114315171Y-63393328D01*
X114315171Y-63393328D02*
X114600885Y-63393328D01*
X114600885Y-63393328D02*
X114743742Y-63464757D01*
X114743742Y-63464757D02*
X114815171Y-63536185D01*
X114815171Y-63536185D02*
X114886599Y-63679042D01*
X114886599Y-63679042D02*
X114886599Y-64107614D01*
X114886599Y-64107614D02*
X114815171Y-64250471D01*
X114815171Y-64250471D02*
X114743742Y-64321900D01*
X114743742Y-64321900D02*
X114600885Y-64393328D01*
X114600885Y-64393328D02*
X114315171Y-64393328D01*
X114315171Y-64393328D02*
X114172313Y-64321900D01*
D10*
D11*
X77002200Y-59507200D02*
X185002200Y-59507200D01*
D10*
D11*
X78386598Y-61621900D02*
X78600884Y-61693328D01*
X78600884Y-61693328D02*
X78958026Y-61693328D01*
X78958026Y-61693328D02*
X79100884Y-61621900D01*
X79100884Y-61621900D02*
X79172312Y-61550471D01*
X79172312Y-61550471D02*
X79243741Y-61407614D01*
X79243741Y-61407614D02*
X79243741Y-61264757D01*
X79243741Y-61264757D02*
X79172312Y-61121900D01*
X79172312Y-61121900D02*
X79100884Y-61050471D01*
X79100884Y-61050471D02*
X78958026Y-60979042D01*
X78958026Y-60979042D02*
X78672312Y-60907614D01*
X78672312Y-60907614D02*
X78529455Y-60836185D01*
X78529455Y-60836185D02*
X78458026Y-60764757D01*
X78458026Y-60764757D02*
X78386598Y-60621900D01*
X78386598Y-60621900D02*
X78386598Y-60479042D01*
X78386598Y-60479042D02*
X78458026Y-60336185D01*
X78458026Y-60336185D02*
X78529455Y-60264757D01*
X78529455Y-60264757D02*
X78672312Y-60193328D01*
X78672312Y-60193328D02*
X79029455Y-60193328D01*
X79029455Y-60193328D02*
X79243741Y-60264757D01*
X79886597Y-61693328D02*
X79886597Y-60193328D01*
X80529455Y-61693328D02*
X80529455Y-60907614D01*
X80529455Y-60907614D02*
X80458026Y-60764757D01*
X80458026Y-60764757D02*
X80315169Y-60693328D01*
X80315169Y-60693328D02*
X80100883Y-60693328D01*
X80100883Y-60693328D02*
X79958026Y-60764757D01*
X79958026Y-60764757D02*
X79886597Y-60836185D01*
X81815169Y-61621900D02*
X81672312Y-61693328D01*
X81672312Y-61693328D02*
X81386598Y-61693328D01*
X81386598Y-61693328D02*
X81243740Y-61621900D01*
X81243740Y-61621900D02*
X81172312Y-61479042D01*
X81172312Y-61479042D02*
X81172312Y-60907614D01*
X81172312Y-60907614D02*
X81243740Y-60764757D01*
X81243740Y-60764757D02*
X81386598Y-60693328D01*
X81386598Y-60693328D02*
X81672312Y-60693328D01*
X81672312Y-60693328D02*
X81815169Y-60764757D01*
X81815169Y-60764757D02*
X81886598Y-60907614D01*
X81886598Y-60907614D02*
X81886598Y-61050471D01*
X81886598Y-61050471D02*
X81172312Y-61193328D01*
X83100883Y-61621900D02*
X82958026Y-61693328D01*
X82958026Y-61693328D02*
X82672312Y-61693328D01*
X82672312Y-61693328D02*
X82529454Y-61621900D01*
X82529454Y-61621900D02*
X82458026Y-61479042D01*
X82458026Y-61479042D02*
X82458026Y-60907614D01*
X82458026Y-60907614D02*
X82529454Y-60764757D01*
X82529454Y-60764757D02*
X82672312Y-60693328D01*
X82672312Y-60693328D02*
X82958026Y-60693328D01*
X82958026Y-60693328D02*
X83100883Y-60764757D01*
X83100883Y-60764757D02*
X83172312Y-60907614D01*
X83172312Y-60907614D02*
X83172312Y-61050471D01*
X83172312Y-61050471D02*
X82458026Y-61193328D01*
X83600883Y-60693328D02*
X84172311Y-60693328D01*
X83815168Y-60193328D02*
X83815168Y-61479042D01*
X83815168Y-61479042D02*
X83886597Y-61621900D01*
X83886597Y-61621900D02*
X84029454Y-61693328D01*
X84029454Y-61693328D02*
X84172311Y-61693328D01*
X84672311Y-61550471D02*
X84743740Y-61621900D01*
X84743740Y-61621900D02*
X84672311Y-61693328D01*
X84672311Y-61693328D02*
X84600883Y-61621900D01*
X84600883Y-61621900D02*
X84672311Y-61550471D01*
X84672311Y-61550471D02*
X84672311Y-61693328D01*
X84672311Y-60764757D02*
X84743740Y-60836185D01*
X84743740Y-60836185D02*
X84672311Y-60907614D01*
X84672311Y-60907614D02*
X84600883Y-60836185D01*
X84600883Y-60836185D02*
X84672311Y-60764757D01*
X84672311Y-60764757D02*
X84672311Y-60907614D01*
D10*
D12*
X79413853Y-58542671D02*
X79342425Y-58614100D01*
X79342425Y-58614100D02*
X79128139Y-58685528D01*
X79128139Y-58685528D02*
X78985282Y-58685528D01*
X78985282Y-58685528D02*
X78770996Y-58614100D01*
X78770996Y-58614100D02*
X78628139Y-58471242D01*
X78628139Y-58471242D02*
X78556710Y-58328385D01*
X78556710Y-58328385D02*
X78485282Y-58042671D01*
X78485282Y-58042671D02*
X78485282Y-57828385D01*
X78485282Y-57828385D02*
X78556710Y-57542671D01*
X78556710Y-57542671D02*
X78628139Y-57399814D01*
X78628139Y-57399814D02*
X78770996Y-57256957D01*
X78770996Y-57256957D02*
X78985282Y-57185528D01*
X78985282Y-57185528D02*
X79128139Y-57185528D01*
X79128139Y-57185528D02*
X79342425Y-57256957D01*
X79342425Y-57256957D02*
X79413853Y-57328385D01*
X80056710Y-58685528D02*
X80056710Y-57185528D01*
X80699568Y-58685528D02*
X80699568Y-57899814D01*
X80699568Y-57899814D02*
X80628139Y-57756957D01*
X80628139Y-57756957D02*
X80485282Y-57685528D01*
X80485282Y-57685528D02*
X80270996Y-57685528D01*
X80270996Y-57685528D02*
X80128139Y-57756957D01*
X80128139Y-57756957D02*
X80056710Y-57828385D01*
X81413853Y-58685528D02*
X81413853Y-57685528D01*
X81413853Y-57971242D02*
X81485282Y-57828385D01*
X81485282Y-57828385D02*
X81556711Y-57756957D01*
X81556711Y-57756957D02*
X81699568Y-57685528D01*
X81699568Y-57685528D02*
X81842425Y-57685528D01*
X82342424Y-58685528D02*
X82342424Y-57685528D01*
X82342424Y-57185528D02*
X82270996Y-57256957D01*
X82270996Y-57256957D02*
X82342424Y-57328385D01*
X82342424Y-57328385D02*
X82413853Y-57256957D01*
X82413853Y-57256957D02*
X82342424Y-57185528D01*
X82342424Y-57185528D02*
X82342424Y-57328385D01*
X82985282Y-58614100D02*
X83128139Y-58685528D01*
X83128139Y-58685528D02*
X83413853Y-58685528D01*
X83413853Y-58685528D02*
X83556710Y-58614100D01*
X83556710Y-58614100D02*
X83628139Y-58471242D01*
X83628139Y-58471242D02*
X83628139Y-58399814D01*
X83628139Y-58399814D02*
X83556710Y-58256957D01*
X83556710Y-58256957D02*
X83413853Y-58185528D01*
X83413853Y-58185528D02*
X83199568Y-58185528D01*
X83199568Y-58185528D02*
X83056710Y-58114100D01*
X83056710Y-58114100D02*
X82985282Y-57971242D01*
X82985282Y-57971242D02*
X82985282Y-57899814D01*
X82985282Y-57899814D02*
X83056710Y-57756957D01*
X83056710Y-57756957D02*
X83199568Y-57685528D01*
X83199568Y-57685528D02*
X83413853Y-57685528D01*
X83413853Y-57685528D02*
X83556710Y-57756957D01*
X84056711Y-57685528D02*
X84628139Y-57685528D01*
X84270996Y-57185528D02*
X84270996Y-58471242D01*
X84270996Y-58471242D02*
X84342425Y-58614100D01*
X84342425Y-58614100D02*
X84485282Y-58685528D01*
X84485282Y-58685528D02*
X84628139Y-58685528D01*
X85128139Y-58685528D02*
X85128139Y-57685528D01*
X85128139Y-57185528D02*
X85056711Y-57256957D01*
X85056711Y-57256957D02*
X85128139Y-57328385D01*
X85128139Y-57328385D02*
X85199568Y-57256957D01*
X85199568Y-57256957D02*
X85128139Y-57185528D01*
X85128139Y-57185528D02*
X85128139Y-57328385D01*
X86485283Y-58685528D02*
X86485283Y-57899814D01*
X86485283Y-57899814D02*
X86413854Y-57756957D01*
X86413854Y-57756957D02*
X86270997Y-57685528D01*
X86270997Y-57685528D02*
X85985283Y-57685528D01*
X85985283Y-57685528D02*
X85842425Y-57756957D01*
X86485283Y-58614100D02*
X86342425Y-58685528D01*
X86342425Y-58685528D02*
X85985283Y-58685528D01*
X85985283Y-58685528D02*
X85842425Y-58614100D01*
X85842425Y-58614100D02*
X85770997Y-58471242D01*
X85770997Y-58471242D02*
X85770997Y-58328385D01*
X85770997Y-58328385D02*
X85842425Y-58185528D01*
X85842425Y-58185528D02*
X85985283Y-58114100D01*
X85985283Y-58114100D02*
X86342425Y-58114100D01*
X86342425Y-58114100D02*
X86485283Y-58042671D01*
X87199568Y-57685528D02*
X87199568Y-58685528D01*
X87199568Y-57828385D02*
X87270997Y-57756957D01*
X87270997Y-57756957D02*
X87413854Y-57685528D01*
X87413854Y-57685528D02*
X87628140Y-57685528D01*
X87628140Y-57685528D02*
X87770997Y-57756957D01*
X87770997Y-57756957D02*
X87842426Y-57899814D01*
X87842426Y-57899814D02*
X87842426Y-58685528D01*
X89699568Y-58685528D02*
X89699568Y-57185528D01*
X89699568Y-57185528D02*
X90556711Y-58685528D01*
X90556711Y-58685528D02*
X90556711Y-57185528D01*
X91842426Y-58614100D02*
X91699569Y-58685528D01*
X91699569Y-58685528D02*
X91413855Y-58685528D01*
X91413855Y-58685528D02*
X91270997Y-58614100D01*
X91270997Y-58614100D02*
X91199569Y-58471242D01*
X91199569Y-58471242D02*
X91199569Y-57899814D01*
X91199569Y-57899814D02*
X91270997Y-57756957D01*
X91270997Y-57756957D02*
X91413855Y-57685528D01*
X91413855Y-57685528D02*
X91699569Y-57685528D01*
X91699569Y-57685528D02*
X91842426Y-57756957D01*
X91842426Y-57756957D02*
X91913855Y-57899814D01*
X91913855Y-57899814D02*
X91913855Y-58042671D01*
X91913855Y-58042671D02*
X91199569Y-58185528D01*
X93199569Y-57685528D02*
X93199569Y-58685528D01*
X92556711Y-57685528D02*
X92556711Y-58471242D01*
X92556711Y-58471242D02*
X92628140Y-58614100D01*
X92628140Y-58614100D02*
X92770997Y-58685528D01*
X92770997Y-58685528D02*
X92985283Y-58685528D01*
X92985283Y-58685528D02*
X93128140Y-58614100D01*
X93128140Y-58614100D02*
X93199569Y-58542671D01*
X93913854Y-58685528D02*
X93913854Y-57185528D01*
X94056712Y-58114100D02*
X94485283Y-58685528D01*
X94485283Y-57685528D02*
X93913854Y-58256957D01*
X95770998Y-58685528D02*
X95770998Y-57899814D01*
X95770998Y-57899814D02*
X95699569Y-57756957D01*
X95699569Y-57756957D02*
X95556712Y-57685528D01*
X95556712Y-57685528D02*
X95270998Y-57685528D01*
X95270998Y-57685528D02*
X95128140Y-57756957D01*
X95770998Y-58614100D02*
X95628140Y-58685528D01*
X95628140Y-58685528D02*
X95270998Y-58685528D01*
X95270998Y-58685528D02*
X95128140Y-58614100D01*
X95128140Y-58614100D02*
X95056712Y-58471242D01*
X95056712Y-58471242D02*
X95056712Y-58328385D01*
X95056712Y-58328385D02*
X95128140Y-58185528D01*
X95128140Y-58185528D02*
X95270998Y-58114100D01*
X95270998Y-58114100D02*
X95628140Y-58114100D01*
X95628140Y-58114100D02*
X95770998Y-58042671D01*
X96485283Y-58685528D02*
X96485283Y-57685528D01*
X96485283Y-57828385D02*
X96556712Y-57756957D01*
X96556712Y-57756957D02*
X96699569Y-57685528D01*
X96699569Y-57685528D02*
X96913855Y-57685528D01*
X96913855Y-57685528D02*
X97056712Y-57756957D01*
X97056712Y-57756957D02*
X97128141Y-57899814D01*
X97128141Y-57899814D02*
X97128141Y-58685528D01*
X97128141Y-57899814D02*
X97199569Y-57756957D01*
X97199569Y-57756957D02*
X97342426Y-57685528D01*
X97342426Y-57685528D02*
X97556712Y-57685528D01*
X97556712Y-57685528D02*
X97699569Y-57756957D01*
X97699569Y-57756957D02*
X97770998Y-57899814D01*
X97770998Y-57899814D02*
X97770998Y-58685528D01*
D10*
D11*
D10*
D11*
D10*
D11*
D10*
D11*
D10*
D11*
X97002200Y-69507200D02*
X97002200Y-72507200D01*
D10*
D11*
X161002200Y-69507200D02*
X161002200Y-76007200D01*
D14*
%TO.P,J4,1,Pin_1*%
%TO.N,GND*%
X23060000Y41945000D03*
D15*
%TO.P,J4,2,Pin_2*%
%TO.N,/POTI Pin2*%
X20520000Y41945000D03*
%TO.P,J4,3,Pin_3*%
%TO.N,VCC*%
X17980000Y41945000D03*
%TD*%
D16*
%TO.P,J5,1,Pin_1*%
%TO.N,GND*%
X5040000Y32959000D03*
D17*
%TO.P,J5,2,Pin_2*%
%TO.N,/PWR 9V+*%
X5040000Y35499000D03*
%TD*%
D14*
%TO.P,J6,1,Pin_1*%
%TO.N,/SW 5V+*%
X38681012Y6018438D03*
D15*
%TO.P,J6,2,Pin_2*%
%TO.N,VCC*%
X36141012Y6018438D03*
%TD*%
D18*
%TO.P,DC1,1,-Vin*%
%TO.N,GND*%
X29198000Y40105000D03*
D19*
%TO.P,DC1,2,+Vin*%
%TO.N,VCC*%
X31738000Y40105000D03*
%TO.P,DC1,3,-Vout*%
%TO.N,GND2*%
X34278000Y40105000D03*
%TO.P,DC1,4,+Vout*%
%TO.N,+5V*%
X36818000Y40105000D03*
%TD*%
D14*
%TO.P,J3,1,Pin_1*%
%TO.N,GND2*%
X60870000Y33900000D03*
D15*
%TO.P,J3,2,Pin_2*%
%TO.N,/DMX OUT Pin2 -*%
X58330000Y33900000D03*
%TO.P,J3,3,Pin_3*%
%TO.N,/DMX OUT Pin3 +*%
X55790000Y33900000D03*
%TD*%
D20*
%TO.P,J1,1,Pin_1*%
%TO.N,/MIDI IN Pin2 GND*%
X5000000Y16959000D03*
D17*
%TO.P,J1,2,Pin_2*%
%TO.N,/MIDI IN Pin5 SIG*%
X5000000Y14419000D03*
%TO.P,J1,3,Pin_3*%
%TO.N,/MIDI IN Pin4 5V+*%
X5000000Y11879000D03*
%TD*%
D16*
%TO.P,J2,1,Pin_1*%
%TO.N,GND*%
X5040000Y22419000D03*
D17*
%TO.P,J2,2,Pin_2*%
%TO.N,/MIDI THROUGH Pin5 SIG*%
X5040000Y24959000D03*
%TO.P,J2,3,Pin_3*%
%TO.N,/MIDI THROUGH Pin4 5V+*%
X5040000Y27499000D03*
%TD*%
D21*
%TO.P,A1,A0,A0*%
%TO.N,unconnected-(A1-PadA0)*%
X38089000Y32959000D03*
%TO.P,A1,A1,A1*%
%TO.N,unconnected-(A1-PadA1)*%
X35549000Y32959000D03*
%TO.P,A1,A2,A2*%
%TO.N,/POTI Pin2*%
X33009000Y32959000D03*
%TO.P,A1,A3,A3*%
%TO.N,unconnected-(A1-PadA3)*%
X30469000Y32959000D03*
%TO.P,A1,A4,A4/SDA*%
%TO.N,unconnected-(A1-A4{slash}SDA-PadA4)*%
X31619600Y30033100D03*
%TO.P,A1,A5,A5/SCL*%
%TO.N,unconnected-(A1-A5{slash}SCL-PadA5)*%
X29079600Y30033100D03*
%TO.P,A1,A6,A6*%
%TO.N,unconnected-(A1-PadA6)*%
X42033600Y30033100D03*
%TO.P,A1,A7,A7*%
%TO.N,unconnected-(A1-PadA7)*%
X39493000Y30033100D03*
%TO.P,A1,D0,D0/RX*%
%TO.N,unconnected-(A1-D0{slash}RX-PadD0)*%
X22849000Y17719000D03*
%TO.P,A1,D1,D1/TX*%
%TO.N,D1{slash}TX*%
X20309000Y17719000D03*
%TO.P,A1,D2,D2_INT0*%
%TO.N,D2{slash}RX*%
X30469000Y17719000D03*
%TO.P,A1,D3,D3_INT1*%
%TO.N,unconnected-(A1-D3_INT1-PadD3)*%
X33009000Y17719000D03*
%TO.P,A1,D4,D4*%
%TO.N,D4*%
X35549000Y17719000D03*
%TO.P,A1,D5,D5*%
%TO.N,unconnected-(A1-PadD5)*%
X38089000Y17719000D03*
%TO.P,A1,D6,D6*%
%TO.N,unconnected-(A1-PadD6)*%
X40629000Y17719000D03*
%TO.P,A1,D7,D7*%
%TO.N,unconnected-(A1-PadD7)*%
X43169000Y17719000D03*
%TO.P,A1,D8,D8*%
%TO.N,unconnected-(A1-PadD8)*%
X45709000Y17719000D03*
%TO.P,A1,D9,D9*%
%TO.N,unconnected-(A1-PadD9)*%
X48249000Y17719000D03*
%TO.P,A1,D10,D10_CS*%
%TO.N,unconnected-(A1-D10_CS-PadD10)*%
X48249000Y32959000D03*
%TO.P,A1,D11,D11_MOSI*%
%TO.N,unconnected-(A1-D11_MOSI-PadD11)*%
X45709000Y32959000D03*
%TO.P,A1,D12,D12_MISO*%
%TO.N,unconnected-(A1-D12_MISO-PadD12)*%
X43169000Y32959000D03*
%TO.P,A1,D13,D13_SCK*%
%TO.N,unconnected-(A1-D13_SCK-PadD13)*%
X40629000Y32959000D03*
D22*
%TO.P,A1,GND1,GND*%
%TO.N,GND*%
X27929000Y17719000D03*
%TO.P,A1,GND2,GND*%
X22849000Y32959000D03*
D21*
%TO.P,A1,RAW,RAW*%
%TO.N,+9V*%
X20309000Y32959000D03*
%TO.P,A1,RST1,RESET*%
%TO.N,unconnected-(A1-RESET-PadRST1)*%
X25389000Y17719000D03*
%TO.P,A1,RST2,RESET*%
%TO.N,unconnected-(A1-RESET-PadRST2)*%
X25389000Y32959000D03*
%TO.P,A1,Vcc1,Vcc*%
%TO.N,VCC*%
X27929000Y32959000D03*
%TD*%
D23*
%TO.N,GND*%
X33600000Y9900000D03*
X29500000Y25200000D03*
X29500000Y20600000D03*
%TO.N,GND2*%
X57300000Y21900000D03*
%TD*%
%TA.AperFunction,Conductor*%
%TO.N,GND2*%
G36*
X64875977Y46900469D02*
G01*
X64875974Y46900469D01*
X38632500Y46999500D01*
X64875977Y46900469D01*
G37*
%TD.AperFunction*%
%TD*%
%TA.AperFunction,Conductor*%
%TO.N,GND2*%
G36*
X64875974Y46900469D02*
G01*
X64942933Y46880533D01*
X64988488Y46827556D01*
X64999500Y46776471D01*
X64999500Y124500D01*
X64979815Y57461D01*
X64927011Y11706D01*
X64875500Y500D01*
X52124000Y500D01*
X52056961Y20185D01*
X52011206Y72989D01*
X52000000Y124500D01*
X52000000Y4577097D01*
X57995793Y4577097D01*
X58005672Y4269030D01*
X58005672Y4269025D01*
X58005673Y4269022D01*
X58054867Y3964739D01*
X58099137Y3815581D01*
X58142571Y3669237D01*
X58267333Y3387399D01*
X58267337Y3387391D01*
X58427123Y3123807D01*
X58427127Y3123802D01*
X58427133Y3123793D01*
X58619297Y2882826D01*
X58619299Y2882824D01*
X58619303Y2882820D01*
X58619304Y2882819D01*
X58840724Y2668386D01*
X59007862Y2543648D01*
X59087741Y2484032D01*
X59087743Y2484031D01*
X59087747Y2484028D01*
X59356318Y2332772D01*
X59497057Y2275793D01*
X59642018Y2217103D01*
X59642023Y2217102D01*
X59642025Y2217101D01*
X59940179Y2138916D01*
X60245883Y2099500D01*
X60245890Y2099500D01*
X60476980Y2099500D01*
X60575814Y2105846D01*
X60707601Y2114307D01*
X61010151Y2173228D01*
X61302683Y2270356D01*
X61302689Y2270360D01*
X61302693Y2270360D01*
X61493571Y2362283D01*
X61580393Y2404093D01*
X61838720Y2572246D01*
X62073424Y2772052D01*
X62280650Y3000231D01*
X62456996Y3253037D01*
X62599567Y3526317D01*
X62706020Y3815585D01*
X62774609Y4116092D01*
X62804206Y4422902D01*
X62794327Y4730978D01*
X62745133Y5035261D01*
X62657431Y5330756D01*
X62657429Y5330761D01*
X62657428Y5330764D01*
X62532666Y5612602D01*
X62532663Y5612609D01*
X62372877Y5876193D01*
X62372870Y5876201D01*
X62372866Y5876208D01*
X62180702Y6117175D01*
X62180700Y6117177D01*
X61959279Y6331611D01*
X61959276Y6331614D01*
X61830450Y6427759D01*
X61712258Y6515969D01*
X61712253Y6515972D01*
X61443682Y6667228D01*
X61406383Y6682329D01*
X61157981Y6782898D01*
X60990660Y6826774D01*
X60859821Y6861084D01*
X60554117Y6900500D01*
X60323026Y6900500D01*
X60323020Y6900500D01*
X60092406Y6885694D01*
X60092389Y6885692D01*
X59789854Y6826774D01*
X59789849Y6826772D01*
X59497310Y6729642D01*
X59497306Y6729641D01*
X59219613Y6595911D01*
X59219605Y6595906D01*
X58961286Y6427759D01*
X58961276Y6427752D01*
X58726581Y6227954D01*
X58726571Y6227944D01*
X58519354Y5999775D01*
X58519350Y5999771D01*
X58343005Y5746967D01*
X58343003Y5746963D01*
X58200432Y5473681D01*
X58200429Y5473674D01*
X58093981Y5184420D01*
X58093979Y5184410D01*
X58025391Y4883911D01*
X57995794Y4577098D01*
X57995793Y4577097D01*
X52000000Y4577097D01*
X52000000Y33616779D01*
X54419500Y33616779D01*
X54434328Y33442554D01*
X54434329Y33442552D01*
X54434329Y33442549D01*
X54434330Y33442547D01*
X54450546Y33380269D01*
X54493114Y33216782D01*
X54589208Y33004198D01*
X54719847Y32810912D01*
X54719849Y32810910D01*
X54881272Y32642484D01*
X54881273Y32642483D01*
X55068834Y32503763D01*
X55068836Y32503762D01*
X55068839Y32503760D01*
X55277153Y32398730D01*
X55500220Y32330417D01*
X55731624Y32300784D01*
X55964707Y32310686D01*
X56192765Y32359836D01*
X56409235Y32446821D01*
X56607891Y32569138D01*
X56783018Y32723269D01*
X56929578Y32904780D01*
X56952102Y32945101D01*
X57001982Y32994028D01*
X57070395Y33008221D01*
X57135621Y32983174D01*
X57163092Y32954065D01*
X57259847Y32810912D01*
X57259849Y32810910D01*
X57421272Y32642484D01*
X57421273Y32642483D01*
X57608834Y32503763D01*
X57608836Y32503762D01*
X57608839Y32503760D01*
X57817153Y32398730D01*
X58040220Y32330417D01*
X58271624Y32300784D01*
X58504707Y32310686D01*
X58732765Y32359836D01*
X58949235Y32446821D01*
X59147891Y32569138D01*
X59323018Y32723269D01*
X59355686Y32763728D01*
X59413116Y32803520D01*
X59482943Y32805947D01*
X59542998Y32770237D01*
X59564545Y32738231D01*
X59565641Y32735881D01*
X59657684Y32586655D01*
X59781654Y32462685D01*
X59930875Y32370644D01*
X59930880Y32370642D01*
X60097302Y32315495D01*
X60097309Y32315494D01*
X60200019Y32305001D01*
X60619999Y32305001D01*
X60620000Y32305002D01*
X60620000Y33191385D01*
X60639685Y33258424D01*
X60692489Y33304179D01*
X60760183Y33314324D01*
X60831003Y33305000D01*
X60831010Y33305000D01*
X60908990Y33305000D01*
X60908997Y33305000D01*
X60979816Y33314324D01*
X61048849Y33303559D01*
X61101105Y33257180D01*
X61120000Y33191385D01*
X61119999Y32305002D01*
X61120000Y32305001D01*
X61539972Y32305001D01*
X61539986Y32305002D01*
X61642697Y32315495D01*
X61809119Y32370642D01*
X61809124Y32370644D01*
X61958345Y32462685D01*
X62082315Y32586655D01*
X62174356Y32735876D01*
X62174358Y32735881D01*
X62229505Y32902303D01*
X62229506Y32902310D01*
X62239999Y33005014D01*
X62240000Y33005027D01*
X62240000Y33650000D01*
X61578616Y33650000D01*
X61511577Y33669685D01*
X61465822Y33722489D01*
X61455677Y33790185D01*
X61470134Y33899999D01*
X61470134Y33900002D01*
X61455677Y34009815D01*
X61466443Y34078850D01*
X61512823Y34131106D01*
X61578616Y34150000D01*
X62239999Y34150000D01*
X62239999Y34794972D01*
X62239998Y34794987D01*
X62229505Y34897698D01*
X62174358Y35064120D01*
X62174356Y35064125D01*
X62082315Y35213346D01*
X61958345Y35337316D01*
X61809124Y35429357D01*
X61809119Y35429359D01*
X61642697Y35484506D01*
X61642690Y35484507D01*
X61539986Y35495000D01*
X61120000Y35495000D01*
X61120000Y34608616D01*
X61100315Y34541577D01*
X61047511Y34495822D01*
X60979815Y34485677D01*
X60909007Y34494999D01*
X60909002Y34495000D01*
X60908997Y34495000D01*
X60831003Y34495000D01*
X60830997Y34495000D01*
X60830992Y34494999D01*
X60760185Y34485677D01*
X60691150Y34496443D01*
X60638894Y34542823D01*
X60620000Y34608616D01*
X60620000Y35495000D01*
X60200028Y35495000D01*
X60200012Y35494999D01*
X60097302Y35484506D01*
X59930880Y35429359D01*
X59930875Y35429357D01*
X59781654Y35337316D01*
X59657684Y35213346D01*
X59565636Y35064112D01*
X59564496Y35061667D01*
X59563268Y35060273D01*
X59561851Y35057975D01*
X59561458Y35058218D01*
X59518321Y35009230D01*
X59451127Y34990081D01*
X59384247Y35010300D01*
X59362595Y35028276D01*
X59238727Y35157517D01*
X59238726Y35157518D01*
X59051165Y35296238D01*
X59044122Y35299789D01*
X58842847Y35401270D01*
X58619780Y35469583D01*
X58619778Y35469584D01*
X58619776Y35469584D01*
X58388370Y35499217D01*
X58155299Y35489315D01*
X58155290Y35489314D01*
X57927233Y35440164D01*
X57927230Y35440163D01*
X57710768Y35353181D01*
X57512110Y35230863D01*
X57336980Y35076730D01*
X57336977Y35076727D01*
X57190426Y34895227D01*
X57190421Y34895221D01*
X57167895Y34854897D01*
X57118014Y34805971D01*
X57049601Y34791780D01*
X56984375Y34816829D01*
X56956907Y34845936D01*
X56860153Y34989088D01*
X56698728Y35157516D01*
X56698727Y35157517D01*
X56698726Y35157518D01*
X56511165Y35296238D01*
X56504122Y35299789D01*
X56302847Y35401270D01*
X56079780Y35469583D01*
X56079778Y35469584D01*
X56079776Y35469584D01*
X55848370Y35499217D01*
X55615299Y35489315D01*
X55615290Y35489314D01*
X55387233Y35440164D01*
X55387230Y35440163D01*
X55170768Y35353181D01*
X54972110Y35230863D01*
X54796980Y35076730D01*
X54796977Y35076727D01*
X54650426Y34895227D01*
X54650421Y34895221D01*
X54536646Y34691555D01*
X54458929Y34471592D01*
X54458926Y34471580D01*
X54419500Y34241656D01*
X54419500Y33616779D01*
X52000000Y33616779D01*
X52000000Y38500000D01*
X38624000Y38500000D01*
X38556961Y38519685D01*
X38511206Y38572489D01*
X38500000Y38624000D01*
X38500000Y42577097D01*
X57995793Y42577097D01*
X58005672Y42269030D01*
X58005672Y42269025D01*
X58005673Y42269022D01*
X58054867Y41964739D01*
X58099137Y41815581D01*
X58142571Y41669237D01*
X58267333Y41387399D01*
X58267337Y41387391D01*
X58427123Y41123807D01*
X58427127Y41123802D01*
X58427133Y41123793D01*
X58619297Y40882826D01*
X58619299Y40882824D01*
X58619303Y40882820D01*
X58619304Y40882819D01*
X58840724Y40668386D01*
X59007862Y40543648D01*
X59087741Y40484032D01*
X59087743Y40484031D01*
X59087747Y40484028D01*
X59356318Y40332772D01*
X59497057Y40275793D01*
X59642018Y40217103D01*
X59642023Y40217102D01*
X59642025Y40217101D01*
X59940179Y40138916D01*
X60245883Y40099500D01*
X60245890Y40099500D01*
X60476980Y40099500D01*
X60575814Y40105846D01*
X60707601Y40114307D01*
X61010151Y40173228D01*
X61302683Y40270356D01*
X61302689Y40270360D01*
X61302693Y40270360D01*
X61493571Y40362283D01*
X61580393Y40404093D01*
X61838720Y40572246D01*
X62073424Y40772052D01*
X62280650Y41000231D01*
X62456996Y41253037D01*
X62599567Y41526317D01*
X62706020Y41815585D01*
X62774609Y42116092D01*
X62804206Y42422902D01*
X62794327Y42730978D01*
X62745133Y43035261D01*
X62657431Y43330756D01*
X62657429Y43330761D01*
X62657428Y43330764D01*
X62532666Y43612602D01*
X62532663Y43612609D01*
X62372877Y43876193D01*
X62372870Y43876201D01*
X62372866Y43876208D01*
X62180702Y44117175D01*
X62180700Y44117177D01*
X61959279Y44331611D01*
X61959276Y44331614D01*
X61830450Y44427759D01*
X61712258Y44515969D01*
X61712253Y44515972D01*
X61443682Y44667228D01*
X61406383Y44682329D01*
X61157981Y44782898D01*
X60990660Y44826774D01*
X60859821Y44861084D01*
X60554117Y44900500D01*
X60323026Y44900500D01*
X60323020Y44900500D01*
X60092406Y44885694D01*
X60092389Y44885692D01*
X59789854Y44826774D01*
X59789849Y44826772D01*
X59497310Y44729642D01*
X59497306Y44729641D01*
X59219613Y44595911D01*
X59219605Y44595906D01*
X58961286Y44427759D01*
X58961276Y44427752D01*
X58726581Y44227954D01*
X58726571Y44227944D01*
X58519354Y43999775D01*
X58519350Y43999771D01*
X58343005Y43746967D01*
X58343003Y43746963D01*
X58200432Y43473681D01*
X58200429Y43473674D01*
X58093981Y43184420D01*
X58093979Y43184410D01*
X58025391Y42883911D01*
X57995794Y42577098D01*
X57995793Y42577097D01*
X38500000Y42577097D01*
X38500000Y46875500D01*
X38519685Y46942539D01*
X38572489Y46988294D01*
X38624000Y46999500D01*
X38632500Y46999500D01*
X64875974Y46900469D01*
G37*
%TD.AperFunction*%
%TD*%
%TA.AperFunction,Conductor*%
%TO.N,GND*%
G36*
X35443039Y46979815D02*
G01*
X35488794Y46927011D01*
X35500000Y46875500D01*
X35500000Y41376466D01*
X35480315Y41309427D01*
X35427511Y41263672D01*
X35358353Y41253728D01*
X35294797Y41282753D01*
X35286477Y41290666D01*
X35267752Y41310203D01*
X35214932Y41365315D01*
X35190048Y41391279D01*
X35190047Y41391280D01*
X35190044Y41391283D01*
X35001792Y41530513D01*
X35001791Y41530514D01*
X35001789Y41530515D01*
X34792719Y41635926D01*
X34663653Y41675452D01*
X34568837Y41704489D01*
X34568835Y41704490D01*
X34568833Y41704490D01*
X34336583Y41734230D01*
X34102658Y41724293D01*
X34102657Y41724293D01*
X33873763Y41674962D01*
X33656509Y41587662D01*
X33457124Y41464897D01*
X33281362Y41310207D01*
X33281360Y41310205D01*
X33281359Y41310203D01*
X33265584Y41290666D01*
X33134265Y41128031D01*
X33134262Y41128026D01*
X33115491Y41094425D01*
X33065611Y41045499D01*
X32997198Y41031307D01*
X32931972Y41056355D01*
X32904503Y41085463D01*
X32812064Y41222232D01*
X32812060Y41222237D01*
X32812057Y41222241D01*
X32653774Y41387391D01*
X32650048Y41391279D01*
X32650047Y41391280D01*
X32650044Y41391283D01*
X32461792Y41530513D01*
X32461791Y41530514D01*
X32461789Y41530515D01*
X32252719Y41635926D01*
X32123653Y41675452D01*
X32028837Y41704489D01*
X32028835Y41704490D01*
X32028833Y41704490D01*
X31796583Y41734230D01*
X31562658Y41724293D01*
X31562657Y41724293D01*
X31333763Y41674962D01*
X31116509Y41587662D01*
X30917124Y41464897D01*
X30752595Y41320092D01*
X30689265Y41290577D01*
X30620032Y41299986D01*
X30566876Y41345332D01*
X30554489Y41369842D01*
X30516354Y41472087D01*
X30516350Y41472094D01*
X30430190Y41587188D01*
X30430187Y41587191D01*
X30315093Y41673351D01*
X30315086Y41673355D01*
X30180379Y41723597D01*
X30180372Y41723599D01*
X30120844Y41730000D01*
X29448000Y41730000D01*
X29448000Y40756672D01*
X29428315Y40689633D01*
X29375511Y40643878D01*
X29306353Y40633934D01*
X29290547Y40637270D01*
X29271881Y40642500D01*
X29271878Y40642500D01*
X29161236Y40642500D01*
X29161234Y40642500D01*
X29088884Y40632556D01*
X29019789Y40642929D01*
X28967270Y40689011D01*
X28948000Y40755401D01*
X28948000Y41730000D01*
X28275155Y41730000D01*
X28215627Y41723599D01*
X28215620Y41723597D01*
X28080913Y41673355D01*
X28080906Y41673351D01*
X27965812Y41587191D01*
X27965809Y41587188D01*
X27879649Y41472094D01*
X27879645Y41472087D01*
X27829403Y41337380D01*
X27829401Y41337373D01*
X27823000Y41277845D01*
X27823000Y40355000D01*
X28543573Y40355000D01*
X28610612Y40335315D01*
X28656367Y40282511D01*
X28667284Y40222538D01*
X28661565Y40138918D01*
X28656712Y40067975D01*
X28669959Y40004228D01*
X28664325Y39934586D01*
X28621934Y39879045D01*
X28556245Y39855239D01*
X28548552Y39855000D01*
X27823000Y39855000D01*
X27823000Y38932156D01*
X27829401Y38872628D01*
X27829403Y38872621D01*
X27879645Y38737914D01*
X27879649Y38737907D01*
X27965809Y38622813D01*
X27965812Y38622810D01*
X28080906Y38536650D01*
X28080913Y38536646D01*
X28215620Y38486404D01*
X28215627Y38486402D01*
X28275155Y38480001D01*
X28275172Y38480000D01*
X28948000Y38480000D01*
X28948000Y39453329D01*
X28967685Y39520368D01*
X29020489Y39566123D01*
X29089647Y39576067D01*
X29105452Y39572731D01*
X29124122Y39567500D01*
X29234764Y39567500D01*
X29307117Y39577445D01*
X29376210Y39567073D01*
X29428729Y39520991D01*
X29448000Y39454600D01*
X29447999Y38480001D01*
X29448000Y38480000D01*
X30120828Y38480000D01*
X30120844Y38480001D01*
X30180372Y38486402D01*
X30180379Y38486404D01*
X30315086Y38536646D01*
X30315093Y38536650D01*
X30430187Y38622810D01*
X30430190Y38622813D01*
X30516350Y38737907D01*
X30516354Y38737914D01*
X30555753Y38843547D01*
X30597624Y38899481D01*
X30663088Y38923898D01*
X30731361Y38909046D01*
X30761455Y38886017D01*
X30825956Y38818717D01*
X31014208Y38679487D01*
X31223282Y38574074D01*
X31447163Y38505511D01*
X31679411Y38475771D01*
X31913345Y38485708D01*
X32142234Y38535038D01*
X32359494Y38622340D01*
X32558875Y38745104D01*
X32734641Y38899797D01*
X32881735Y39081970D01*
X32900507Y39115575D01*
X32950385Y39164500D01*
X33018797Y39178694D01*
X33084024Y39153648D01*
X33111496Y39124538D01*
X33203935Y38987769D01*
X33203940Y38987764D01*
X33203943Y38987759D01*
X33365956Y38818717D01*
X33554208Y38679487D01*
X33763282Y38574074D01*
X33987163Y38505511D01*
X34219411Y38475771D01*
X34453345Y38485708D01*
X34682234Y38535038D01*
X34899494Y38622340D01*
X35098875Y38745104D01*
X35274641Y38899797D01*
X35279523Y38905845D01*
X35336952Y38945637D01*
X35406780Y38948065D01*
X35466835Y38912356D01*
X35498051Y38849847D01*
X35500000Y38827947D01*
X35500000Y37000000D01*
X50376000Y37000000D01*
X50443039Y36980315D01*
X50488794Y36927511D01*
X50500000Y36876000D01*
X50500000Y124500D01*
X50480315Y57461D01*
X50427511Y11706D01*
X50376000Y500D01*
X124500Y500D01*
X57461Y20185D01*
X11706Y72989D01*
X500Y124500D01*
X500Y4577097D01*
X2095793Y4577097D01*
X2105672Y4269030D01*
X2105672Y4269025D01*
X2105673Y4269022D01*
X2154867Y3964739D01*
X2199137Y3815581D01*
X2242571Y3669237D01*
X2367333Y3387399D01*
X2367337Y3387391D01*
X2527123Y3123807D01*
X2527127Y3123802D01*
X2527133Y3123793D01*
X2719297Y2882826D01*
X2719299Y2882824D01*
X2719303Y2882820D01*
X2719304Y2882819D01*
X2940724Y2668386D01*
X3107862Y2543648D01*
X3187741Y2484032D01*
X3187743Y2484031D01*
X3187747Y2484028D01*
X3456318Y2332772D01*
X3597057Y2275793D01*
X3742018Y2217103D01*
X3742023Y2217102D01*
X3742025Y2217101D01*
X4040179Y2138916D01*
X4345883Y2099500D01*
X4345890Y2099500D01*
X4576980Y2099500D01*
X4675814Y2105846D01*
X4807601Y2114307D01*
X5110151Y2173228D01*
X5402683Y2270356D01*
X5402689Y2270360D01*
X5402693Y2270360D01*
X5593571Y2362283D01*
X5680393Y2404093D01*
X5938720Y2572246D01*
X6173424Y2772052D01*
X6380650Y3000231D01*
X6556996Y3253037D01*
X6699567Y3526317D01*
X6806020Y3815585D01*
X6874609Y4116092D01*
X6904206Y4422902D01*
X6904006Y4429124D01*
X6894327Y4730971D01*
X6894327Y4730978D01*
X6845133Y5035261D01*
X6757431Y5330756D01*
X6757429Y5330761D01*
X6757428Y5330764D01*
X6632666Y5612602D01*
X6632663Y5612609D01*
X6558337Y5735217D01*
X34770512Y5735217D01*
X34785340Y5560992D01*
X34785341Y5560990D01*
X34844126Y5335220D01*
X34939862Y5123429D01*
X34940220Y5122636D01*
X35070859Y4929350D01*
X35142976Y4854104D01*
X35232284Y4760922D01*
X35232285Y4760921D01*
X35419846Y4622201D01*
X35419848Y4622200D01*
X35419851Y4622198D01*
X35628165Y4517168D01*
X35851232Y4448855D01*
X36082636Y4419222D01*
X36315719Y4429124D01*
X36543777Y4478274D01*
X36760247Y4565259D01*
X36958903Y4687576D01*
X37134030Y4841707D01*
X37166347Y4881732D01*
X37223775Y4921523D01*
X37293602Y4923950D01*
X37353657Y4888240D01*
X37375205Y4856234D01*
X37376197Y4854107D01*
X37376198Y4854104D01*
X37468300Y4704782D01*
X37592356Y4580726D01*
X37741678Y4488624D01*
X37908215Y4433439D01*
X38011003Y4422938D01*
X39351020Y4422939D01*
X39453809Y4433439D01*
X39620346Y4488624D01*
X39769668Y4580726D01*
X39893724Y4704782D01*
X39985826Y4854104D01*
X40041011Y5020641D01*
X40051512Y5123429D01*
X40051511Y6913446D01*
X40041011Y7016235D01*
X39985826Y7182772D01*
X39893724Y7332094D01*
X39769668Y7456150D01*
X39666628Y7519705D01*
X39620348Y7548251D01*
X39620343Y7548253D01*
X39618874Y7548740D01*
X39453809Y7603437D01*
X39453807Y7603438D01*
X39351022Y7613938D01*
X38011010Y7613938D01*
X38010993Y7613937D01*
X37908215Y7603438D01*
X37908212Y7603437D01*
X37741680Y7548253D01*
X37741675Y7548251D01*
X37592354Y7456149D01*
X37468301Y7332096D01*
X37376198Y7182772D01*
X37375138Y7180498D01*
X37373995Y7179201D01*
X37372407Y7176625D01*
X37371966Y7176897D01*
X37328965Y7128059D01*
X37261771Y7108908D01*
X37194890Y7129124D01*
X37173234Y7147103D01*
X37049739Y7275955D01*
X37049738Y7275956D01*
X36862177Y7414676D01*
X36779918Y7456150D01*
X36653859Y7519708D01*
X36430792Y7588021D01*
X36430790Y7588022D01*
X36430788Y7588022D01*
X36199382Y7617655D01*
X35966311Y7607753D01*
X35966302Y7607752D01*
X35738245Y7558602D01*
X35738242Y7558601D01*
X35521780Y7471619D01*
X35323122Y7349301D01*
X35147992Y7195168D01*
X35147989Y7195165D01*
X35001438Y7013665D01*
X35001433Y7013659D01*
X34887658Y6809993D01*
X34809941Y6590030D01*
X34809938Y6590018D01*
X34770512Y6360094D01*
X34770512Y5735217D01*
X6558337Y5735217D01*
X6472877Y5876193D01*
X6472870Y5876201D01*
X6472866Y5876208D01*
X6280702Y6117175D01*
X6280700Y6117177D01*
X6059279Y6331611D01*
X6059276Y6331614D01*
X5930450Y6427759D01*
X5812258Y6515969D01*
X5812253Y6515972D01*
X5543682Y6667228D01*
X5506383Y6682329D01*
X5257981Y6782898D01*
X5090660Y6826774D01*
X4959821Y6861084D01*
X4654117Y6900500D01*
X4423026Y6900500D01*
X4423020Y6900500D01*
X4192406Y6885694D01*
X4192389Y6885692D01*
X3889854Y6826774D01*
X3889849Y6826772D01*
X3597310Y6729642D01*
X3597306Y6729641D01*
X3319613Y6595911D01*
X3319605Y6595906D01*
X3061286Y6427759D01*
X3061276Y6427752D01*
X2826581Y6227954D01*
X2826571Y6227944D01*
X2619354Y5999775D01*
X2619350Y5999771D01*
X2443005Y5746967D01*
X2443003Y5746963D01*
X2300432Y5473681D01*
X2300429Y5473674D01*
X2193981Y5184420D01*
X2193979Y5184410D01*
X2125391Y4883911D01*
X2095794Y4577098D01*
X2095793Y4577097D01*
X500Y4577097D01*
X500Y11937376D01*
X3400784Y11937376D01*
X3410685Y11704300D01*
X3410686Y11704291D01*
X3459836Y11476234D01*
X3459837Y11476231D01*
X3546819Y11259769D01*
X3546821Y11259765D01*
X3669138Y11061109D01*
X3749083Y10970274D01*
X3823270Y10885981D01*
X3823273Y10885978D01*
X4004773Y10739427D01*
X4004779Y10739422D01*
X4208445Y10625647D01*
X4208448Y10625646D01*
X4428416Y10547927D01*
X4556725Y10525926D01*
X4658344Y10508501D01*
X4658353Y10508500D01*
X5283221Y10508500D01*
X5457446Y10523329D01*
X5457446Y10523330D01*
X5457453Y10523330D01*
X5683219Y10582115D01*
X5895802Y10678208D01*
X6089088Y10808847D01*
X6257516Y10970272D01*
X6396240Y11157839D01*
X6501270Y11366153D01*
X6569583Y11589220D01*
X6599216Y11820624D01*
X6589314Y12053707D01*
X6540164Y12281765D01*
X6453179Y12498235D01*
X6330862Y12696891D01*
X6176731Y12872018D01*
X6176729Y12872020D01*
X6176726Y12872023D01*
X5995226Y13018574D01*
X5995215Y13018581D01*
X5954897Y13041105D01*
X5905971Y13090985D01*
X5891779Y13159398D01*
X5916827Y13224624D01*
X5945931Y13252090D01*
X6089088Y13348847D01*
X6257516Y13510272D01*
X6396240Y13697839D01*
X6501270Y13906153D01*
X6569583Y14129220D01*
X6599216Y14360624D01*
X6589314Y14593707D01*
X6540164Y14821765D01*
X6453179Y15038235D01*
X6330862Y15236891D01*
X6176731Y15412018D01*
X6176729Y15412020D01*
X6176726Y15412023D01*
X6136708Y15444335D01*
X6096915Y15501765D01*
X6094488Y15571593D01*
X6130199Y15631647D01*
X6162215Y15653199D01*
X6164326Y15654184D01*
X6164334Y15654186D01*
X6313656Y15746288D01*
X6437712Y15870344D01*
X6529814Y16019666D01*
X6584999Y16186203D01*
X6595500Y16288991D01*
X6595499Y17629008D01*
X6586307Y17718994D01*
X18940225Y17718994D01*
X18958892Y17493711D01*
X19014388Y17274561D01*
X19105198Y17067534D01*
X19228842Y16878284D01*
X19228850Y16878273D01*
X19381950Y16711964D01*
X19381954Y16711960D01*
X19560351Y16573107D01*
X19759169Y16465512D01*
X19759172Y16465511D01*
X19972982Y16392110D01*
X19972984Y16392110D01*
X19972986Y16392109D01*
X20195967Y16354900D01*
X20195968Y16354900D01*
X20422032Y16354900D01*
X20422033Y16354900D01*
X20645014Y16392109D01*
X20858831Y16465512D01*
X21057649Y16573107D01*
X21236046Y16711960D01*
X21389156Y16878281D01*
X21475193Y17009972D01*
X21528338Y17055325D01*
X21597569Y17064749D01*
X21660905Y17035247D01*
X21682804Y17009975D01*
X21768844Y16878281D01*
X21768849Y16878276D01*
X21768850Y16878273D01*
X21921950Y16711964D01*
X21921954Y16711960D01*
X22100351Y16573107D01*
X22299169Y16465512D01*
X22299172Y16465511D01*
X22512982Y16392110D01*
X22512984Y16392110D01*
X22512986Y16392109D01*
X22735967Y16354900D01*
X22735968Y16354900D01*
X22962032Y16354900D01*
X22962033Y16354900D01*
X23185014Y16392109D01*
X23398831Y16465512D01*
X23597649Y16573107D01*
X23776046Y16711960D01*
X23929156Y16878281D01*
X24015193Y17009972D01*
X24068338Y17055325D01*
X24137569Y17064749D01*
X24200905Y17035247D01*
X24222804Y17009975D01*
X24308844Y16878281D01*
X24308849Y16878276D01*
X24308850Y16878273D01*
X24461950Y16711964D01*
X24461954Y16711960D01*
X24640351Y16573107D01*
X24839169Y16465512D01*
X24839172Y16465511D01*
X25052982Y16392110D01*
X25052984Y16392110D01*
X25052986Y16392109D01*
X25275967Y16354900D01*
X25275968Y16354900D01*
X25502032Y16354900D01*
X25502033Y16354900D01*
X25725014Y16392109D01*
X25938831Y16465512D01*
X26137649Y16573107D01*
X26316046Y16711960D01*
X26370815Y16771455D01*
X26430699Y16807443D01*
X26500537Y16805343D01*
X26558153Y16765820D01*
X26578224Y16730804D01*
X26622046Y16613312D01*
X26622049Y16613307D01*
X26708209Y16498213D01*
X26708212Y16498210D01*
X26823306Y16412050D01*
X26823313Y16412046D01*
X26958020Y16361804D01*
X26958027Y16361802D01*
X27017555Y16355401D01*
X27017572Y16355400D01*
X27679000Y16355400D01*
X27679000Y17098617D01*
X27698685Y17165656D01*
X27751489Y17211411D01*
X27820645Y17221355D01*
X27892666Y17211000D01*
X27892669Y17211000D01*
X27965331Y17211000D01*
X27965334Y17211000D01*
X28037354Y17221355D01*
X28106512Y17211411D01*
X28159316Y17165656D01*
X28179000Y17098617D01*
X28179000Y16355400D01*
X28840428Y16355400D01*
X28840444Y16355401D01*
X28899972Y16361802D01*
X28899979Y16361804D01*
X29034686Y16412046D01*
X29034693Y16412050D01*
X29149787Y16498210D01*
X29149790Y16498213D01*
X29235950Y16613307D01*
X29235954Y16613314D01*
X29279775Y16730803D01*
X29321646Y16786737D01*
X29387110Y16811154D01*
X29455383Y16796302D01*
X29487186Y16771453D01*
X29541950Y16711964D01*
X29541954Y16711960D01*
X29720351Y16573107D01*
X29919169Y16465512D01*
X29919172Y16465511D01*
X30132982Y16392110D01*
X30132984Y16392110D01*
X30132986Y16392109D01*
X30355967Y16354900D01*
X30355968Y16354900D01*
X30582032Y16354900D01*
X30582033Y16354900D01*
X30805014Y16392109D01*
X31018831Y16465512D01*
X31217649Y16573107D01*
X31396046Y16711960D01*
X31549156Y16878281D01*
X31635193Y17009972D01*
X31688338Y17055325D01*
X31757569Y17064749D01*
X31820905Y17035247D01*
X31842804Y17009975D01*
X31928844Y16878281D01*
X31928849Y16878276D01*
X31928850Y16878273D01*
X32081950Y16711964D01*
X32081954Y16711960D01*
X32260351Y16573107D01*
X32459169Y16465512D01*
X32459172Y16465511D01*
X32672982Y16392110D01*
X32672984Y16392110D01*
X32672986Y16392109D01*
X32895967Y16354900D01*
X32895968Y16354900D01*
X33122032Y16354900D01*
X33122033Y16354900D01*
X33345014Y16392109D01*
X33558831Y16465512D01*
X33757649Y16573107D01*
X33936046Y16711960D01*
X34089156Y16878281D01*
X34175193Y17009972D01*
X34228338Y17055325D01*
X34297569Y17064749D01*
X34360905Y17035247D01*
X34382804Y17009975D01*
X34468844Y16878281D01*
X34468849Y16878276D01*
X34468850Y16878273D01*
X34621950Y16711964D01*
X34621954Y16711960D01*
X34800351Y16573107D01*
X34999169Y16465512D01*
X34999172Y16465511D01*
X35212982Y16392110D01*
X35212984Y16392110D01*
X35212986Y16392109D01*
X35435967Y16354900D01*
X35435968Y16354900D01*
X35662032Y16354900D01*
X35662033Y16354900D01*
X35885014Y16392109D01*
X36098831Y16465512D01*
X36297649Y16573107D01*
X36476046Y16711960D01*
X36629156Y16878281D01*
X36715193Y17009972D01*
X36768338Y17055325D01*
X36837569Y17064749D01*
X36900905Y17035247D01*
X36922804Y17009975D01*
X37008844Y16878281D01*
X37008849Y16878276D01*
X37008850Y16878273D01*
X37161950Y16711964D01*
X37161954Y16711960D01*
X37340351Y16573107D01*
X37539169Y16465512D01*
X37539172Y16465511D01*
X37752982Y16392110D01*
X37752984Y16392110D01*
X37752986Y16392109D01*
X37975967Y16354900D01*
X37975968Y16354900D01*
X38202032Y16354900D01*
X38202033Y16354900D01*
X38425014Y16392109D01*
X38638831Y16465512D01*
X38837649Y16573107D01*
X39016046Y16711960D01*
X39169156Y16878281D01*
X39255193Y17009972D01*
X39308338Y17055325D01*
X39377569Y17064749D01*
X39440905Y17035247D01*
X39462804Y17009975D01*
X39548844Y16878281D01*
X39548849Y16878276D01*
X39548850Y16878273D01*
X39701950Y16711964D01*
X39701954Y16711960D01*
X39880351Y16573107D01*
X40079169Y16465512D01*
X40079172Y16465511D01*
X40292982Y16392110D01*
X40292984Y16392110D01*
X40292986Y16392109D01*
X40515967Y16354900D01*
X40515968Y16354900D01*
X40742032Y16354900D01*
X40742033Y16354900D01*
X40965014Y16392109D01*
X41178831Y16465512D01*
X41377649Y16573107D01*
X41556046Y16711960D01*
X41709156Y16878281D01*
X41795193Y17009972D01*
X41848338Y17055325D01*
X41917569Y17064749D01*
X41980905Y17035247D01*
X42002804Y17009975D01*
X42088844Y16878281D01*
X42088849Y16878276D01*
X42088850Y16878273D01*
X42241950Y16711964D01*
X42241954Y16711960D01*
X42420351Y16573107D01*
X42619169Y16465512D01*
X42619172Y16465511D01*
X42832982Y16392110D01*
X42832984Y16392110D01*
X42832986Y16392109D01*
X43055967Y16354900D01*
X43055968Y16354900D01*
X43282032Y16354900D01*
X43282033Y16354900D01*
X43505014Y16392109D01*
X43718831Y16465512D01*
X43917649Y16573107D01*
X44096046Y16711960D01*
X44249156Y16878281D01*
X44335193Y17009972D01*
X44388338Y17055325D01*
X44457569Y17064749D01*
X44520905Y17035247D01*
X44542804Y17009975D01*
X44628844Y16878281D01*
X44628849Y16878276D01*
X44628850Y16878273D01*
X44781950Y16711964D01*
X44781954Y16711960D01*
X44960351Y16573107D01*
X45159169Y16465512D01*
X45159172Y16465511D01*
X45372982Y16392110D01*
X45372984Y16392110D01*
X45372986Y16392109D01*
X45595967Y16354900D01*
X45595968Y16354900D01*
X45822032Y16354900D01*
X45822033Y16354900D01*
X46045014Y16392109D01*
X46258831Y16465512D01*
X46457649Y16573107D01*
X46636046Y16711960D01*
X46789156Y16878281D01*
X46875193Y17009972D01*
X46928338Y17055325D01*
X46997569Y17064749D01*
X47060905Y17035247D01*
X47082804Y17009975D01*
X47168844Y16878281D01*
X47168849Y16878276D01*
X47168850Y16878273D01*
X47321950Y16711964D01*
X47321954Y16711960D01*
X47500351Y16573107D01*
X47699169Y16465512D01*
X47699172Y16465511D01*
X47912982Y16392110D01*
X47912984Y16392110D01*
X47912986Y16392109D01*
X48135967Y16354900D01*
X48135968Y16354900D01*
X48362032Y16354900D01*
X48362033Y16354900D01*
X48585014Y16392109D01*
X48798831Y16465512D01*
X48997649Y16573107D01*
X49176046Y16711960D01*
X49329156Y16878281D01*
X49452802Y17067535D01*
X49543611Y17274559D01*
X49599107Y17493707D01*
X49617775Y17719000D01*
X49617775Y17719007D01*
X49599107Y17944290D01*
X49599107Y17944293D01*
X49543611Y18163441D01*
X49452802Y18370465D01*
X49329156Y18559719D01*
X49329153Y18559722D01*
X49329149Y18559728D01*
X49176049Y18726037D01*
X49176048Y18726038D01*
X49176046Y18726040D01*
X48997649Y18864893D01*
X48971390Y18879104D01*
X48798832Y18972488D01*
X48798827Y18972490D01*
X48585017Y19045891D01*
X48403388Y19076199D01*
X48362033Y19083100D01*
X48135967Y19083100D01*
X48094612Y19076199D01*
X47912982Y19045891D01*
X47699172Y18972490D01*
X47699167Y18972488D01*
X47500352Y18864894D01*
X47321955Y18726041D01*
X47321950Y18726037D01*
X47168850Y18559728D01*
X47168842Y18559717D01*
X47082808Y18428032D01*
X47029662Y18382675D01*
X46960430Y18373252D01*
X46897095Y18402754D01*
X46875192Y18428032D01*
X46789157Y18559717D01*
X46789149Y18559728D01*
X46636049Y18726037D01*
X46636048Y18726038D01*
X46636046Y18726040D01*
X46457649Y18864893D01*
X46431390Y18879104D01*
X46258832Y18972488D01*
X46258827Y18972490D01*
X46045017Y19045891D01*
X45863388Y19076199D01*
X45822033Y19083100D01*
X45595967Y19083100D01*
X45554612Y19076199D01*
X45372982Y19045891D01*
X45159172Y18972490D01*
X45159167Y18972488D01*
X44960352Y18864894D01*
X44781955Y18726041D01*
X44781950Y18726037D01*
X44628850Y18559728D01*
X44628842Y18559717D01*
X44542808Y18428032D01*
X44489662Y18382675D01*
X44420430Y18373252D01*
X44357095Y18402754D01*
X44335192Y18428032D01*
X44249157Y18559717D01*
X44249149Y18559728D01*
X44096049Y18726037D01*
X44096048Y18726038D01*
X44096046Y18726040D01*
X43917649Y18864893D01*
X43891390Y18879104D01*
X43718832Y18972488D01*
X43718827Y18972490D01*
X43505017Y19045891D01*
X43323388Y19076199D01*
X43282033Y19083100D01*
X43055967Y19083100D01*
X43014612Y19076199D01*
X42832982Y19045891D01*
X42619172Y18972490D01*
X42619167Y18972488D01*
X42420352Y18864894D01*
X42241955Y18726041D01*
X42241950Y18726037D01*
X42088850Y18559728D01*
X42088842Y18559717D01*
X42002808Y18428032D01*
X41949662Y18382675D01*
X41880430Y18373252D01*
X41817095Y18402754D01*
X41795192Y18428032D01*
X41709157Y18559717D01*
X41709149Y18559728D01*
X41556049Y18726037D01*
X41556048Y18726038D01*
X41556046Y18726040D01*
X41377649Y18864893D01*
X41351390Y18879104D01*
X41178832Y18972488D01*
X41178827Y18972490D01*
X40965017Y19045891D01*
X40783388Y19076199D01*
X40742033Y19083100D01*
X40515967Y19083100D01*
X40474612Y19076199D01*
X40292982Y19045891D01*
X40079172Y18972490D01*
X40079167Y18972488D01*
X39880352Y18864894D01*
X39701955Y18726041D01*
X39701950Y18726037D01*
X39548850Y18559728D01*
X39548842Y18559717D01*
X39462808Y18428032D01*
X39409662Y18382675D01*
X39340430Y18373252D01*
X39277095Y18402754D01*
X39255192Y18428032D01*
X39169157Y18559717D01*
X39169149Y18559728D01*
X39016049Y18726037D01*
X39016048Y18726038D01*
X39016046Y18726040D01*
X38837649Y18864893D01*
X38811390Y18879104D01*
X38638832Y18972488D01*
X38638827Y18972490D01*
X38425017Y19045891D01*
X38243388Y19076199D01*
X38202033Y19083100D01*
X37975967Y19083100D01*
X37934612Y19076199D01*
X37752982Y19045891D01*
X37539172Y18972490D01*
X37539167Y18972488D01*
X37340352Y18864894D01*
X37161955Y18726041D01*
X37161950Y18726037D01*
X37008850Y18559728D01*
X37008842Y18559717D01*
X36922808Y18428032D01*
X36869662Y18382675D01*
X36800430Y18373252D01*
X36737095Y18402754D01*
X36715192Y18428032D01*
X36629157Y18559717D01*
X36629149Y18559728D01*
X36476049Y18726037D01*
X36476048Y18726038D01*
X36476046Y18726040D01*
X36297649Y18864893D01*
X36271390Y18879104D01*
X36098832Y18972488D01*
X36098827Y18972490D01*
X35885017Y19045891D01*
X35703388Y19076199D01*
X35662033Y19083100D01*
X35435967Y19083100D01*
X35394612Y19076199D01*
X35212982Y19045891D01*
X34999172Y18972490D01*
X34999167Y18972488D01*
X34800352Y18864894D01*
X34621955Y18726041D01*
X34621950Y18726037D01*
X34468850Y18559728D01*
X34468842Y18559717D01*
X34382808Y18428032D01*
X34329662Y18382675D01*
X34260430Y18373252D01*
X34197095Y18402754D01*
X34175192Y18428032D01*
X34089157Y18559717D01*
X34089149Y18559728D01*
X33936049Y18726037D01*
X33936048Y18726038D01*
X33936046Y18726040D01*
X33757649Y18864893D01*
X33731390Y18879104D01*
X33558832Y18972488D01*
X33558827Y18972490D01*
X33345017Y19045891D01*
X33163388Y19076199D01*
X33122033Y19083100D01*
X32895967Y19083100D01*
X32854612Y19076199D01*
X32672982Y19045891D01*
X32459172Y18972490D01*
X32459167Y18972488D01*
X32260352Y18864894D01*
X32081955Y18726041D01*
X32081950Y18726037D01*
X31928850Y18559728D01*
X31928842Y18559717D01*
X31842808Y18428032D01*
X31789662Y18382675D01*
X31720430Y18373252D01*
X31657095Y18402754D01*
X31635192Y18428032D01*
X31549157Y18559717D01*
X31549149Y18559728D01*
X31396049Y18726037D01*
X31396048Y18726038D01*
X31396046Y18726040D01*
X31217649Y18864893D01*
X31191390Y18879104D01*
X31018832Y18972488D01*
X31018827Y18972490D01*
X30805017Y19045891D01*
X30623388Y19076199D01*
X30582033Y19083100D01*
X30355967Y19083100D01*
X30314612Y19076199D01*
X30132982Y19045891D01*
X29919172Y18972490D01*
X29919167Y18972488D01*
X29720352Y18864894D01*
X29541955Y18726042D01*
X29487186Y18666547D01*
X29427298Y18630557D01*
X29357460Y18632658D01*
X29299845Y18672183D01*
X29279775Y18707198D01*
X29235954Y18824687D01*
X29235950Y18824694D01*
X29149790Y18939788D01*
X29149787Y18939791D01*
X29034693Y19025951D01*
X29034686Y19025955D01*
X28899979Y19076197D01*
X28899972Y19076199D01*
X28840444Y19082600D01*
X28179000Y19082600D01*
X28179000Y18339384D01*
X28159315Y18272345D01*
X28106511Y18226590D01*
X28037355Y18216646D01*
X27965337Y18227000D01*
X27965334Y18227000D01*
X27892666Y18227000D01*
X27892662Y18227000D01*
X27820645Y18216646D01*
X27751487Y18226590D01*
X27698684Y18272346D01*
X27679000Y18339384D01*
X27679000Y19082600D01*
X27017555Y19082600D01*
X26958027Y19076199D01*
X26958020Y19076197D01*
X26823313Y19025955D01*
X26823306Y19025951D01*
X26708212Y18939791D01*
X26708209Y18939788D01*
X26622049Y18824694D01*
X26622046Y18824688D01*
X26578224Y18707197D01*
X26536352Y18651264D01*
X26470887Y18626847D01*
X26402615Y18641699D01*
X26370813Y18666548D01*
X26316049Y18726037D01*
X26316048Y18726038D01*
X26316046Y18726040D01*
X26137649Y18864893D01*
X26111390Y18879104D01*
X25938832Y18972488D01*
X25938827Y18972490D01*
X25725017Y19045891D01*
X25543388Y19076199D01*
X25502033Y19083100D01*
X25275967Y19083100D01*
X25234612Y19076199D01*
X25052982Y19045891D01*
X24839172Y18972490D01*
X24839167Y18972488D01*
X24640352Y18864894D01*
X24461955Y18726041D01*
X24461950Y18726037D01*
X24308850Y18559728D01*
X24308842Y18559717D01*
X24222808Y18428032D01*
X24169662Y18382675D01*
X24100430Y18373252D01*
X24037095Y18402754D01*
X24015192Y18428032D01*
X23929157Y18559717D01*
X23929149Y18559728D01*
X23776049Y18726037D01*
X23776048Y18726038D01*
X23776046Y18726040D01*
X23597649Y18864893D01*
X23571390Y18879104D01*
X23398832Y18972488D01*
X23398827Y18972490D01*
X23185017Y19045891D01*
X23003388Y19076199D01*
X22962033Y19083100D01*
X22735967Y19083100D01*
X22694612Y19076199D01*
X22512982Y19045891D01*
X22299172Y18972490D01*
X22299167Y18972488D01*
X22100352Y18864894D01*
X21921955Y18726041D01*
X21921950Y18726037D01*
X21768850Y18559728D01*
X21768842Y18559717D01*
X21682808Y18428032D01*
X21629662Y18382675D01*
X21560430Y18373252D01*
X21497095Y18402754D01*
X21475192Y18428032D01*
X21389157Y18559717D01*
X21389149Y18559728D01*
X21236049Y18726037D01*
X21236048Y18726038D01*
X21236046Y18726040D01*
X21057649Y18864893D01*
X21031390Y18879104D01*
X20858832Y18972488D01*
X20858827Y18972490D01*
X20645017Y19045891D01*
X20463388Y19076199D01*
X20422033Y19083100D01*
X20195967Y19083100D01*
X20154612Y19076199D01*
X19972982Y19045891D01*
X19759172Y18972490D01*
X19759167Y18972488D01*
X19560352Y18864894D01*
X19381955Y18726041D01*
X19381950Y18726037D01*
X19228850Y18559728D01*
X19228842Y18559717D01*
X19105198Y18370467D01*
X19014388Y18163440D01*
X18958892Y17944290D01*
X18940225Y17719007D01*
X18940225Y17718994D01*
X6586307Y17718994D01*
X6584999Y17731797D01*
X6529814Y17898334D01*
X6437712Y18047656D01*
X6313656Y18171712D01*
X6164334Y18263814D01*
X5997797Y18318999D01*
X5997795Y18319000D01*
X5895010Y18329500D01*
X4104998Y18329500D01*
X4104981Y18329499D01*
X4002203Y18319000D01*
X4002200Y18318999D01*
X3835668Y18263815D01*
X3835663Y18263813D01*
X3686342Y18171711D01*
X3562289Y18047658D01*
X3470187Y17898337D01*
X3470185Y17898334D01*
X3470186Y17898334D01*
X3415001Y17731797D01*
X3415001Y17731796D01*
X3415000Y17731796D01*
X3404500Y17629017D01*
X3404500Y16288999D01*
X3404501Y16288982D01*
X3415000Y16186204D01*
X3415001Y16186201D01*
X3470185Y16019669D01*
X3470186Y16019666D01*
X3562288Y15870344D01*
X3686344Y15746288D01*
X3835666Y15654186D01*
X3835674Y15654184D01*
X3837929Y15653132D01*
X3839224Y15651992D01*
X3841813Y15650395D01*
X3841540Y15649953D01*
X3890372Y15606964D01*
X3909530Y15539772D01*
X3889320Y15472889D01*
X3871335Y15451223D01*
X3742483Y15327728D01*
X3742482Y15327727D01*
X3603762Y15140166D01*
X3498733Y14931853D01*
X3498730Y14931847D01*
X3430416Y14708777D01*
X3400784Y14477376D01*
X3410685Y14244300D01*
X3410686Y14244291D01*
X3459836Y14016234D01*
X3459837Y14016231D01*
X3546819Y13799769D01*
X3546821Y13799765D01*
X3669138Y13601109D01*
X3749083Y13510274D01*
X3823270Y13425981D01*
X3823273Y13425978D01*
X4004773Y13279427D01*
X4004775Y13279426D01*
X4004780Y13279422D01*
X4045102Y13256897D01*
X4094028Y13207017D01*
X4108220Y13138604D01*
X4083172Y13073378D01*
X4054065Y13045908D01*
X3910907Y12949150D01*
X3742483Y12787728D01*
X3742482Y12787727D01*
X3603762Y12600166D01*
X3498733Y12391853D01*
X3498730Y12391847D01*
X3430416Y12168777D01*
X3400784Y11937376D01*
X500Y11937376D01*
X500Y25017376D01*
X3440784Y25017376D01*
X3450685Y24784300D01*
X3450686Y24784291D01*
X3499836Y24556234D01*
X3499837Y24556231D01*
X3586819Y24339769D01*
X3586821Y24339765D01*
X3709138Y24141109D01*
X3789083Y24050274D01*
X3863269Y23965982D01*
X3903727Y23933314D01*
X3943519Y23875883D01*
X3945945Y23806055D01*
X3910235Y23746001D01*
X3878235Y23724457D01*
X3875880Y23723359D01*
X3726654Y23631316D01*
X3602684Y23507346D01*
X3510643Y23358125D01*
X3510641Y23358120D01*
X3455494Y23191698D01*
X3455493Y23191691D01*
X3445000Y23088987D01*
X3445000Y22669000D01*
X4331384Y22669000D01*
X4398423Y22649315D01*
X4444178Y22596511D01*
X4454323Y22528815D01*
X4439866Y22419002D01*
X4439866Y22418999D01*
X4454323Y22309185D01*
X4443557Y22240150D01*
X4397177Y22187894D01*
X4331384Y22169000D01*
X3445001Y22169000D01*
X3445001Y21749014D01*
X3455494Y21646303D01*
X3510641Y21479881D01*
X3510643Y21479876D01*
X3602684Y21330655D01*
X3726654Y21206685D01*
X3875875Y21114644D01*
X3875880Y21114642D01*
X4042302Y21059495D01*
X4042309Y21059494D01*
X4145019Y21049001D01*
X4789999Y21049001D01*
X4790000Y21049002D01*
X4790000Y21710385D01*
X4809685Y21777424D01*
X4862489Y21823179D01*
X4930183Y21833324D01*
X5001003Y21824000D01*
X5001010Y21824000D01*
X5078990Y21824000D01*
X5078997Y21824000D01*
X5149816Y21833324D01*
X5218849Y21822559D01*
X5271105Y21776180D01*
X5290000Y21710385D01*
X5290000Y21049001D01*
X5934972Y21049001D01*
X5934986Y21049002D01*
X6037697Y21059495D01*
X6204119Y21114642D01*
X6204124Y21114644D01*
X6353345Y21206685D01*
X6477315Y21330655D01*
X6569356Y21479876D01*
X6569358Y21479881D01*
X6624505Y21646303D01*
X6624506Y21646310D01*
X6634999Y21749014D01*
X6635000Y21749027D01*
X6635000Y22169000D01*
X5748616Y22169000D01*
X5681577Y22188685D01*
X5635822Y22241489D01*
X5625677Y22309185D01*
X5640134Y22418999D01*
X5640134Y22419002D01*
X5625677Y22528815D01*
X5636443Y22597850D01*
X5682823Y22650106D01*
X5748616Y22669000D01*
X6634999Y22669000D01*
X6634999Y23088972D01*
X6634998Y23088987D01*
X6624505Y23191698D01*
X6569358Y23358120D01*
X6569356Y23358125D01*
X6477315Y23507346D01*
X6353345Y23631316D01*
X6204121Y23723358D01*
X6201674Y23724499D01*
X6200276Y23725730D01*
X6197975Y23727149D01*
X6198217Y23727543D01*
X6149233Y23770670D01*
X6130079Y23837863D01*
X6150292Y23904744D01*
X6168269Y23926400D01*
X6297516Y24050272D01*
X6436240Y24237839D01*
X6541270Y24446153D01*
X6609583Y24669220D01*
X6639216Y24900624D01*
X6629314Y25133707D01*
X6580164Y25361765D01*
X6493179Y25578235D01*
X6370862Y25776891D01*
X6216731Y25952018D01*
X6216729Y25952020D01*
X6216726Y25952023D01*
X6035226Y26098574D01*
X6035215Y26098581D01*
X5994897Y26121105D01*
X5945971Y26170985D01*
X5931779Y26239398D01*
X5956827Y26304624D01*
X5985931Y26332090D01*
X6129088Y26428847D01*
X6297516Y26590272D01*
X6436240Y26777839D01*
X6541270Y26986153D01*
X6609583Y27209220D01*
X6639216Y27440624D01*
X6629314Y27673707D01*
X6580164Y27901765D01*
X6493179Y28118235D01*
X6370862Y28316891D01*
X6216731Y28492018D01*
X6216729Y28492020D01*
X6216726Y28492023D01*
X6035226Y28638574D01*
X6035220Y28638579D01*
X5831554Y28752354D01*
X5611591Y28830071D01*
X5611586Y28830073D01*
X5611584Y28830073D01*
X5611580Y28830074D01*
X5611579Y28830074D01*
X5381655Y28869500D01*
X5381647Y28869500D01*
X4756784Y28869500D01*
X4756779Y28869500D01*
X4582553Y28854672D01*
X4582551Y28854671D01*
X4356781Y28795886D01*
X4144197Y28699792D01*
X3950911Y28569153D01*
X3950909Y28569151D01*
X3782483Y28407728D01*
X3782482Y28407727D01*
X3643762Y28220166D01*
X3538733Y28011853D01*
X3538730Y28011847D01*
X3470416Y27788777D01*
X3440784Y27557376D01*
X3450685Y27324300D01*
X3450686Y27324291D01*
X3499836Y27096234D01*
X3499837Y27096231D01*
X3586819Y26879769D01*
X3586821Y26879765D01*
X3709138Y26681109D01*
X3789083Y26590274D01*
X3863270Y26505981D01*
X3863273Y26505978D01*
X4044773Y26359427D01*
X4044775Y26359426D01*
X4044780Y26359422D01*
X4085102Y26336897D01*
X4134028Y26287017D01*
X4148220Y26218604D01*
X4123172Y26153378D01*
X4094065Y26125908D01*
X3950907Y26029150D01*
X3782483Y25867728D01*
X3782482Y25867727D01*
X3643762Y25680166D01*
X3538733Y25471853D01*
X3538730Y25471847D01*
X3470416Y25248777D01*
X3440784Y25017376D01*
X500Y25017376D01*
X500Y30033094D01*
X27710825Y30033094D01*
X27729492Y29807811D01*
X27784988Y29588661D01*
X27875798Y29381634D01*
X27999442Y29192384D01*
X27999450Y29192373D01*
X28152550Y29026064D01*
X28152554Y29026060D01*
X28330951Y28887207D01*
X28529769Y28779612D01*
X28529772Y28779611D01*
X28743582Y28706210D01*
X28743584Y28706210D01*
X28743586Y28706209D01*
X28966567Y28669000D01*
X28966568Y28669000D01*
X29192632Y28669000D01*
X29192633Y28669000D01*
X29415614Y28706209D01*
X29629431Y28779612D01*
X29828249Y28887207D01*
X30006646Y29026060D01*
X30159756Y29192381D01*
X30245793Y29324071D01*
X30298936Y29369425D01*
X30368167Y29378849D01*
X30431503Y29349347D01*
X30453407Y29324069D01*
X30539442Y29192384D01*
X30539450Y29192373D01*
X30692550Y29026064D01*
X30692554Y29026060D01*
X30870951Y28887207D01*
X31069769Y28779612D01*
X31069772Y28779611D01*
X31283582Y28706210D01*
X31283584Y28706210D01*
X31283586Y28706209D01*
X31506567Y28669000D01*
X31506568Y28669000D01*
X31732632Y28669000D01*
X31732633Y28669000D01*
X31955614Y28706209D01*
X32169431Y28779612D01*
X32368249Y28887207D01*
X32546646Y29026060D01*
X32699756Y29192381D01*
X32823402Y29381635D01*
X32914211Y29588659D01*
X32969707Y29807807D01*
X32988375Y30033094D01*
X38124225Y30033094D01*
X38142892Y29807811D01*
X38198388Y29588661D01*
X38289198Y29381634D01*
X38412842Y29192384D01*
X38412850Y29192373D01*
X38565950Y29026064D01*
X38565954Y29026060D01*
X38744351Y28887207D01*
X38943169Y28779612D01*
X38943172Y28779611D01*
X39156982Y28706210D01*
X39156984Y28706210D01*
X39156986Y28706209D01*
X39379967Y28669000D01*
X39379968Y28669000D01*
X39606032Y28669000D01*
X39606033Y28669000D01*
X39829014Y28706209D01*
X40042831Y28779612D01*
X40241649Y28887207D01*
X40420046Y29026060D01*
X40573156Y29192381D01*
X40659493Y29324531D01*
X40712638Y29369884D01*
X40781869Y29379308D01*
X40845205Y29349806D01*
X40867104Y29324534D01*
X40953444Y29192381D01*
X40953449Y29192376D01*
X40953450Y29192373D01*
X41106550Y29026064D01*
X41106554Y29026060D01*
X41284951Y28887207D01*
X41483769Y28779612D01*
X41483772Y28779611D01*
X41697582Y28706210D01*
X41697584Y28706210D01*
X41697586Y28706209D01*
X41920567Y28669000D01*
X41920568Y28669000D01*
X42146632Y28669000D01*
X42146633Y28669000D01*
X42369614Y28706209D01*
X42583431Y28779612D01*
X42782249Y28887207D01*
X42960646Y29026060D01*
X43113756Y29192381D01*
X43237402Y29381635D01*
X43328211Y29588659D01*
X43383707Y29807807D01*
X43402375Y30033100D01*
X43402375Y30033107D01*
X43383707Y30258390D01*
X43383707Y30258393D01*
X43328211Y30477541D01*
X43237402Y30684565D01*
X43216606Y30716395D01*
X43113757Y30873817D01*
X43113749Y30873828D01*
X42960649Y31040137D01*
X42960648Y31040138D01*
X42960646Y31040140D01*
X42782249Y31178993D01*
X42755990Y31193204D01*
X42583432Y31286588D01*
X42583427Y31286590D01*
X42369617Y31359991D01*
X42202378Y31387898D01*
X42146633Y31397200D01*
X41920567Y31397200D01*
X41875970Y31389759D01*
X41697582Y31359991D01*
X41483772Y31286590D01*
X41483767Y31286588D01*
X41284952Y31178994D01*
X41106555Y31040141D01*
X41106550Y31040137D01*
X40953450Y30873828D01*
X40953442Y30873817D01*
X40867108Y30741673D01*
X40813962Y30696316D01*
X40744730Y30686893D01*
X40681395Y30716395D01*
X40659492Y30741673D01*
X40573157Y30873817D01*
X40573149Y30873828D01*
X40420049Y31040137D01*
X40420048Y31040138D01*
X40420046Y31040140D01*
X40241649Y31178993D01*
X40215390Y31193204D01*
X40042832Y31286588D01*
X40042827Y31286590D01*
X39829017Y31359991D01*
X39661778Y31387898D01*
X39606033Y31397200D01*
X39379967Y31397200D01*
X39335370Y31389759D01*
X39156982Y31359991D01*
X38943172Y31286590D01*
X38943167Y31286588D01*
X38744352Y31178994D01*
X38565955Y31040141D01*
X38565950Y31040137D01*
X38412850Y30873828D01*
X38412842Y30873817D01*
X38289198Y30684567D01*
X38198388Y30477540D01*
X38142892Y30258390D01*
X38124225Y30033107D01*
X38124225Y30033094D01*
X32988375Y30033094D01*
X32988375Y30033100D01*
X32969707Y30258393D01*
X32914211Y30477541D01*
X32823402Y30684565D01*
X32802606Y30716395D01*
X32699757Y30873817D01*
X32699749Y30873828D01*
X32546649Y31040137D01*
X32546648Y31040138D01*
X32546646Y31040140D01*
X32368249Y31178993D01*
X32341990Y31193204D01*
X32169432Y31286588D01*
X32169427Y31286590D01*
X31955617Y31359991D01*
X31788378Y31387898D01*
X31732633Y31397200D01*
X31506567Y31397200D01*
X31461970Y31389759D01*
X31283582Y31359991D01*
X31069772Y31286590D01*
X31069767Y31286588D01*
X30870952Y31178994D01*
X30692555Y31040141D01*
X30692550Y31040137D01*
X30539450Y30873828D01*
X30539442Y30873817D01*
X30453408Y30742132D01*
X30400262Y30696775D01*
X30331030Y30687352D01*
X30267695Y30716854D01*
X30245792Y30742132D01*
X30159757Y30873817D01*
X30159749Y30873828D01*
X30006649Y31040137D01*
X30006648Y31040138D01*
X30006646Y31040140D01*
X29828249Y31178993D01*
X29801990Y31193204D01*
X29629432Y31286588D01*
X29629427Y31286590D01*
X29415617Y31359991D01*
X29248378Y31387898D01*
X29192633Y31397200D01*
X28966567Y31397200D01*
X28921970Y31389759D01*
X28743582Y31359991D01*
X28529772Y31286590D01*
X28529767Y31286588D01*
X28330952Y31178994D01*
X28152555Y31040141D01*
X28152550Y31040137D01*
X27999450Y30873828D01*
X27999442Y30873817D01*
X27875798Y30684567D01*
X27784988Y30477540D01*
X27729492Y30258390D01*
X27710825Y30033107D01*
X27710825Y30033094D01*
X500Y30033094D01*
X500Y35557376D01*
X3440784Y35557376D01*
X3450685Y35324300D01*
X3450686Y35324291D01*
X3499836Y35096234D01*
X3499837Y35096231D01*
X3586819Y34879769D01*
X3586821Y34879765D01*
X3709138Y34681109D01*
X3789083Y34590274D01*
X3863269Y34505982D01*
X3903727Y34473314D01*
X3943519Y34415883D01*
X3945945Y34346055D01*
X3910235Y34286001D01*
X3878235Y34264457D01*
X3875880Y34263359D01*
X3726654Y34171316D01*
X3602684Y34047346D01*
X3510643Y33898125D01*
X3510641Y33898120D01*
X3455494Y33731698D01*
X3455493Y33731691D01*
X3445000Y33628987D01*
X3445000Y33209000D01*
X4331384Y33209000D01*
X4398423Y33189315D01*
X4444178Y33136511D01*
X4454323Y33068815D01*
X4439866Y32959002D01*
X4439866Y32958999D01*
X4454323Y32849185D01*
X4443557Y32780150D01*
X4397177Y32727894D01*
X4331384Y32709000D01*
X3445001Y32709000D01*
X3445001Y32289014D01*
X3455494Y32186303D01*
X3510641Y32019881D01*
X3510643Y32019876D01*
X3602684Y31870655D01*
X3726654Y31746685D01*
X3875875Y31654644D01*
X3875880Y31654642D01*
X4042302Y31599495D01*
X4042309Y31599494D01*
X4145019Y31589001D01*
X4789999Y31589001D01*
X4790000Y31589002D01*
X4790000Y32250385D01*
X4809685Y32317424D01*
X4862489Y32363179D01*
X4930183Y32373324D01*
X5001003Y32364000D01*
X5001010Y32364000D01*
X5078990Y32364000D01*
X5078997Y32364000D01*
X5149816Y32373324D01*
X5218849Y32362559D01*
X5271105Y32316180D01*
X5290000Y32250385D01*
X5290000Y31589001D01*
X5934972Y31589001D01*
X5934986Y31589002D01*
X6037697Y31599495D01*
X6204119Y31654642D01*
X6204124Y31654644D01*
X6353345Y31746685D01*
X6477315Y31870655D01*
X6569356Y32019876D01*
X6569358Y32019881D01*
X6624505Y32186303D01*
X6624506Y32186310D01*
X6634999Y32289014D01*
X6635000Y32289027D01*
X6635000Y32709000D01*
X5748616Y32709000D01*
X5681577Y32728685D01*
X5635822Y32781489D01*
X5625677Y32849185D01*
X5640133Y32958994D01*
X18940225Y32958994D01*
X18958892Y32733711D01*
X19014388Y32514561D01*
X19105198Y32307534D01*
X19228842Y32118284D01*
X19228850Y32118273D01*
X19381950Y31951964D01*
X19381954Y31951960D01*
X19560351Y31813107D01*
X19759169Y31705512D01*
X19759172Y31705511D01*
X19972982Y31632110D01*
X19972984Y31632110D01*
X19972986Y31632109D01*
X20195967Y31594900D01*
X20195968Y31594900D01*
X20422032Y31594900D01*
X20422033Y31594900D01*
X20645014Y31632109D01*
X20858831Y31705512D01*
X21057649Y31813107D01*
X21236046Y31951960D01*
X21290815Y32011455D01*
X21350699Y32047443D01*
X21420537Y32045343D01*
X21478153Y32005820D01*
X21498224Y31970804D01*
X21542046Y31853312D01*
X21542049Y31853307D01*
X21628209Y31738213D01*
X21628212Y31738210D01*
X21743306Y31652050D01*
X21743313Y31652046D01*
X21878020Y31601804D01*
X21878027Y31601802D01*
X21937555Y31595401D01*
X21937572Y31595400D01*
X22599000Y31595400D01*
X22599000Y32338617D01*
X22618685Y32405656D01*
X22671489Y32451411D01*
X22740645Y32461355D01*
X22812666Y32451000D01*
X22812669Y32451000D01*
X22885331Y32451000D01*
X22885334Y32451000D01*
X22957354Y32461355D01*
X23026512Y32451411D01*
X23079316Y32405656D01*
X23099000Y32338617D01*
X23099000Y31595400D01*
X23760428Y31595400D01*
X23760444Y31595401D01*
X23819972Y31601802D01*
X23819979Y31601804D01*
X23954686Y31652046D01*
X23954693Y31652050D01*
X24069787Y31738210D01*
X24069790Y31738213D01*
X24155950Y31853307D01*
X24155954Y31853314D01*
X24199775Y31970803D01*
X24241646Y32026737D01*
X24307110Y32051154D01*
X24375383Y32036302D01*
X24407186Y32011453D01*
X24461950Y31951964D01*
X24461954Y31951960D01*
X24640351Y31813107D01*
X24839169Y31705512D01*
X24839172Y31705511D01*
X25052982Y31632110D01*
X25052984Y31632110D01*
X25052986Y31632109D01*
X25275967Y31594900D01*
X25275968Y31594900D01*
X25502032Y31594900D01*
X25502033Y31594900D01*
X25725014Y31632109D01*
X25938831Y31705512D01*
X26137649Y31813107D01*
X26316046Y31951960D01*
X26469156Y32118281D01*
X26555193Y32249972D01*
X26608338Y32295325D01*
X26677569Y32304749D01*
X26740905Y32275247D01*
X26762804Y32249975D01*
X26848844Y32118281D01*
X26848849Y32118276D01*
X26848850Y32118273D01*
X27001950Y31951964D01*
X27001954Y31951960D01*
X27180351Y31813107D01*
X27379169Y31705512D01*
X27379172Y31705511D01*
X27592982Y31632110D01*
X27592984Y31632110D01*
X27592986Y31632109D01*
X27815967Y31594900D01*
X27815968Y31594900D01*
X28042032Y31594900D01*
X28042033Y31594900D01*
X28265014Y31632109D01*
X28478831Y31705512D01*
X28677649Y31813107D01*
X28856046Y31951960D01*
X29009156Y32118281D01*
X29095193Y32249972D01*
X29148338Y32295325D01*
X29217569Y32304749D01*
X29280905Y32275247D01*
X29302804Y32249975D01*
X29388844Y32118281D01*
X29388849Y32118276D01*
X29388850Y32118273D01*
X29541950Y31951964D01*
X29541954Y31951960D01*
X29720351Y31813107D01*
X29919169Y31705512D01*
X29919172Y31705511D01*
X30132982Y31632110D01*
X30132984Y31632110D01*
X30132986Y31632109D01*
X30355967Y31594900D01*
X30355968Y31594900D01*
X30582032Y31594900D01*
X30582033Y31594900D01*
X30805014Y31632109D01*
X31018831Y31705512D01*
X31217649Y31813107D01*
X31396046Y31951960D01*
X31549156Y32118281D01*
X31635193Y32249972D01*
X31688338Y32295325D01*
X31757569Y32304749D01*
X31820905Y32275247D01*
X31842804Y32249975D01*
X31928844Y32118281D01*
X31928849Y32118276D01*
X31928850Y32118273D01*
X32081950Y31951964D01*
X32081954Y31951960D01*
X32260351Y31813107D01*
X32459169Y31705512D01*
X32459172Y31705511D01*
X32672982Y31632110D01*
X32672984Y31632110D01*
X32672986Y31632109D01*
X32895967Y31594900D01*
X32895968Y31594900D01*
X33122032Y31594900D01*
X33122033Y31594900D01*
X33345014Y31632109D01*
X33558831Y31705512D01*
X33757649Y31813107D01*
X33936046Y31951960D01*
X34089156Y32118281D01*
X34175193Y32249972D01*
X34228338Y32295325D01*
X34297569Y32304749D01*
X34360905Y32275247D01*
X34382804Y32249975D01*
X34468844Y32118281D01*
X34468849Y32118276D01*
X34468850Y32118273D01*
X34621950Y31951964D01*
X34621954Y31951960D01*
X34800351Y31813107D01*
X34999169Y31705512D01*
X34999172Y31705511D01*
X35212982Y31632110D01*
X35212984Y31632110D01*
X35212986Y31632109D01*
X35435967Y31594900D01*
X35435968Y31594900D01*
X35662032Y31594900D01*
X35662033Y31594900D01*
X35885014Y31632109D01*
X36098831Y31705512D01*
X36297649Y31813107D01*
X36476046Y31951960D01*
X36629156Y32118281D01*
X36715193Y32249972D01*
X36768338Y32295325D01*
X36837569Y32304749D01*
X36900905Y32275247D01*
X36922804Y32249975D01*
X37008844Y32118281D01*
X37008849Y32118276D01*
X37008850Y32118273D01*
X37161950Y31951964D01*
X37161954Y31951960D01*
X37340351Y31813107D01*
X37539169Y31705512D01*
X37539172Y31705511D01*
X37752982Y31632110D01*
X37752984Y31632110D01*
X37752986Y31632109D01*
X37975967Y31594900D01*
X37975968Y31594900D01*
X38202032Y31594900D01*
X38202033Y31594900D01*
X38425014Y31632109D01*
X38638831Y31705512D01*
X38837649Y31813107D01*
X39016046Y31951960D01*
X39169156Y32118281D01*
X39255193Y32249972D01*
X39308338Y32295325D01*
X39377569Y32304749D01*
X39440905Y32275247D01*
X39462804Y32249975D01*
X39548844Y32118281D01*
X39548849Y32118276D01*
X39548850Y32118273D01*
X39701950Y31951964D01*
X39701954Y31951960D01*
X39880351Y31813107D01*
X40079169Y31705512D01*
X40079172Y31705511D01*
X40292982Y31632110D01*
X40292984Y31632110D01*
X40292986Y31632109D01*
X40515967Y31594900D01*
X40515968Y31594900D01*
X40742032Y31594900D01*
X40742033Y31594900D01*
X40965014Y31632109D01*
X41178831Y31705512D01*
X41377649Y31813107D01*
X41556046Y31951960D01*
X41709156Y32118281D01*
X41795193Y32249972D01*
X41848338Y32295325D01*
X41917569Y32304749D01*
X41980905Y32275247D01*
X42002804Y32249975D01*
X42088844Y32118281D01*
X42088849Y32118276D01*
X42088850Y32118273D01*
X42241950Y31951964D01*
X42241954Y31951960D01*
X42420351Y31813107D01*
X42619169Y31705512D01*
X42619172Y31705511D01*
X42832982Y31632110D01*
X42832984Y31632110D01*
X42832986Y31632109D01*
X43055967Y31594900D01*
X43055968Y31594900D01*
X43282032Y31594900D01*
X43282033Y31594900D01*
X43505014Y31632109D01*
X43718831Y31705512D01*
X43917649Y31813107D01*
X44096046Y31951960D01*
X44249156Y32118281D01*
X44335193Y32249972D01*
X44388338Y32295325D01*
X44457569Y32304749D01*
X44520905Y32275247D01*
X44542804Y32249975D01*
X44628844Y32118281D01*
X44628849Y32118276D01*
X44628850Y32118273D01*
X44781950Y31951964D01*
X44781954Y31951960D01*
X44960351Y31813107D01*
X45159169Y31705512D01*
X45159172Y31705511D01*
X45372982Y31632110D01*
X45372984Y31632110D01*
X45372986Y31632109D01*
X45595967Y31594900D01*
X45595968Y31594900D01*
X45822032Y31594900D01*
X45822033Y31594900D01*
X46045014Y31632109D01*
X46258831Y31705512D01*
X46457649Y31813107D01*
X46636046Y31951960D01*
X46789156Y32118281D01*
X46875193Y32249972D01*
X46928338Y32295325D01*
X46997569Y32304749D01*
X47060905Y32275247D01*
X47082804Y32249975D01*
X47168844Y32118281D01*
X47168849Y32118276D01*
X47168850Y32118273D01*
X47321950Y31951964D01*
X47321954Y31951960D01*
X47500351Y31813107D01*
X47699169Y31705512D01*
X47699172Y31705511D01*
X47912982Y31632110D01*
X47912984Y31632110D01*
X47912986Y31632109D01*
X48135967Y31594900D01*
X48135968Y31594900D01*
X48362032Y31594900D01*
X48362033Y31594900D01*
X48585014Y31632109D01*
X48798831Y31705512D01*
X48997649Y31813107D01*
X49176046Y31951960D01*
X49329156Y32118281D01*
X49452802Y32307535D01*
X49543611Y32514559D01*
X49599107Y32733707D01*
X49617775Y32959000D01*
X49617775Y32959002D01*
X49617775Y32959007D01*
X49599107Y33184290D01*
X49599107Y33184293D01*
X49543611Y33403441D01*
X49452802Y33610465D01*
X49329156Y33799719D01*
X49329153Y33799722D01*
X49329149Y33799728D01*
X49176049Y33966037D01*
X49176048Y33966038D01*
X49176046Y33966040D01*
X48997649Y34104893D01*
X48926624Y34143330D01*
X48798832Y34212488D01*
X48798827Y34212490D01*
X48585017Y34285891D01*
X48403388Y34316199D01*
X48362033Y34323100D01*
X48135967Y34323100D01*
X48094612Y34316199D01*
X47912982Y34285891D01*
X47699172Y34212490D01*
X47699167Y34212488D01*
X47500352Y34104894D01*
X47321955Y33966041D01*
X47321950Y33966037D01*
X47168850Y33799728D01*
X47168842Y33799717D01*
X47082808Y33668032D01*
X47029662Y33622675D01*
X46960430Y33613252D01*
X46897095Y33642754D01*
X46875192Y33668032D01*
X46789157Y33799717D01*
X46789149Y33799728D01*
X46636049Y33966037D01*
X46636048Y33966038D01*
X46636046Y33966040D01*
X46457649Y34104893D01*
X46386624Y34143330D01*
X46258832Y34212488D01*
X46258827Y34212490D01*
X46045017Y34285891D01*
X45863388Y34316199D01*
X45822033Y34323100D01*
X45595967Y34323100D01*
X45554612Y34316199D01*
X45372982Y34285891D01*
X45159172Y34212490D01*
X45159167Y34212488D01*
X44960352Y34104894D01*
X44781955Y33966041D01*
X44781950Y33966037D01*
X44628850Y33799728D01*
X44628842Y33799717D01*
X44542808Y33668032D01*
X44489662Y33622675D01*
X44420430Y33613252D01*
X44357095Y33642754D01*
X44335192Y33668032D01*
X44249157Y33799717D01*
X44249149Y33799728D01*
X44096049Y33966037D01*
X44096048Y33966038D01*
X44096046Y33966040D01*
X43917649Y34104893D01*
X43846624Y34143330D01*
X43718832Y34212488D01*
X43718827Y34212490D01*
X43505017Y34285891D01*
X43323388Y34316199D01*
X43282033Y34323100D01*
X43055967Y34323100D01*
X43014612Y34316199D01*
X42832982Y34285891D01*
X42619172Y34212490D01*
X42619167Y34212488D01*
X42420352Y34104894D01*
X42241955Y33966041D01*
X42241950Y33966037D01*
X42088850Y33799728D01*
X42088842Y33799717D01*
X42002808Y33668032D01*
X41949662Y33622675D01*
X41880430Y33613252D01*
X41817095Y33642754D01*
X41795192Y33668032D01*
X41709157Y33799717D01*
X41709149Y33799728D01*
X41556049Y33966037D01*
X41556048Y33966038D01*
X41556046Y33966040D01*
X41377649Y34104893D01*
X41306624Y34143330D01*
X41178832Y34212488D01*
X41178827Y34212490D01*
X40965017Y34285891D01*
X40783388Y34316199D01*
X40742033Y34323100D01*
X40515967Y34323100D01*
X40474612Y34316199D01*
X40292982Y34285891D01*
X40079172Y34212490D01*
X40079167Y34212488D01*
X39880352Y34104894D01*
X39701955Y33966041D01*
X39701950Y33966037D01*
X39548850Y33799728D01*
X39548842Y33799717D01*
X39462808Y33668032D01*
X39409662Y33622675D01*
X39340430Y33613252D01*
X39277095Y33642754D01*
X39255192Y33668032D01*
X39169157Y33799717D01*
X39169149Y33799728D01*
X39016049Y33966037D01*
X39016048Y33966038D01*
X39016046Y33966040D01*
X38837649Y34104893D01*
X38766624Y34143330D01*
X38638832Y34212488D01*
X38638827Y34212490D01*
X38425017Y34285891D01*
X38243388Y34316199D01*
X38202033Y34323100D01*
X37975967Y34323100D01*
X37934612Y34316199D01*
X37752982Y34285891D01*
X37539172Y34212490D01*
X37539167Y34212488D01*
X37340352Y34104894D01*
X37161955Y33966041D01*
X37161950Y33966037D01*
X37008850Y33799728D01*
X37008842Y33799717D01*
X36922808Y33668032D01*
X36869662Y33622675D01*
X36800430Y33613252D01*
X36737095Y33642754D01*
X36715192Y33668032D01*
X36629157Y33799717D01*
X36629149Y33799728D01*
X36476049Y33966037D01*
X36476048Y33966038D01*
X36476046Y33966040D01*
X36297649Y34104893D01*
X36226624Y34143330D01*
X36098832Y34212488D01*
X36098827Y34212490D01*
X35885017Y34285891D01*
X35703388Y34316199D01*
X35662033Y34323100D01*
X35435967Y34323100D01*
X35394612Y34316199D01*
X35212982Y34285891D01*
X34999172Y34212490D01*
X34999167Y34212488D01*
X34800352Y34104894D01*
X34621955Y33966041D01*
X34621950Y33966037D01*
X34468850Y33799728D01*
X34468842Y33799717D01*
X34382808Y33668032D01*
X34329662Y33622675D01*
X34260430Y33613252D01*
X34197095Y33642754D01*
X34175192Y33668032D01*
X34089157Y33799717D01*
X34089149Y33799728D01*
X33936049Y33966037D01*
X33936048Y33966038D01*
X33936046Y33966040D01*
X33757649Y34104893D01*
X33686624Y34143330D01*
X33558832Y34212488D01*
X33558827Y34212490D01*
X33345017Y34285891D01*
X33163388Y34316199D01*
X33122033Y34323100D01*
X32895967Y34323100D01*
X32854612Y34316199D01*
X32672982Y34285891D01*
X32459172Y34212490D01*
X32459167Y34212488D01*
X32260352Y34104894D01*
X32081955Y33966041D01*
X32081950Y33966037D01*
X31928850Y33799728D01*
X31928842Y33799717D01*
X31842808Y33668032D01*
X31789662Y33622675D01*
X31720430Y33613252D01*
X31657095Y33642754D01*
X31635192Y33668032D01*
X31549157Y33799717D01*
X31549149Y33799728D01*
X31396049Y33966037D01*
X31396048Y33966038D01*
X31396046Y33966040D01*
X31217649Y34104893D01*
X31146624Y34143330D01*
X31018832Y34212488D01*
X31018827Y34212490D01*
X30805017Y34285891D01*
X30623388Y34316199D01*
X30582033Y34323100D01*
X30355967Y34323100D01*
X30314612Y34316199D01*
X30132982Y34285891D01*
X29919172Y34212490D01*
X29919167Y34212488D01*
X29720352Y34104894D01*
X29541955Y33966041D01*
X29541950Y33966037D01*
X29388850Y33799728D01*
X29388846Y33799722D01*
X29302807Y33668031D01*
X29249660Y33622675D01*
X29180429Y33613252D01*
X29117093Y33642755D01*
X29095192Y33668031D01*
X29009156Y33799719D01*
X29009151Y33799724D01*
X29009149Y33799728D01*
X28856049Y33966037D01*
X28856048Y33966038D01*
X28856046Y33966040D01*
X28677649Y34104893D01*
X28606624Y34143330D01*
X28478832Y34212488D01*
X28478827Y34212490D01*
X28265017Y34285891D01*
X28083388Y34316199D01*
X28042033Y34323100D01*
X27815967Y34323100D01*
X27774612Y34316199D01*
X27592982Y34285891D01*
X27379172Y34212490D01*
X27379167Y34212488D01*
X27180352Y34104894D01*
X27001955Y33966041D01*
X27001950Y33966037D01*
X26848850Y33799728D01*
X26848846Y33799722D01*
X26762807Y33668031D01*
X26709660Y33622675D01*
X26640429Y33613252D01*
X26577093Y33642755D01*
X26555192Y33668031D01*
X26469156Y33799719D01*
X26469151Y33799724D01*
X26469149Y33799728D01*
X26316049Y33966037D01*
X26316048Y33966038D01*
X26316046Y33966040D01*
X26137649Y34104893D01*
X26066624Y34143330D01*
X25938832Y34212488D01*
X25938827Y34212490D01*
X25725017Y34285891D01*
X25543388Y34316199D01*
X25502033Y34323100D01*
X25275967Y34323100D01*
X25234612Y34316199D01*
X25052982Y34285891D01*
X24839172Y34212490D01*
X24839167Y34212488D01*
X24640352Y34104894D01*
X24461955Y33966042D01*
X24407186Y33906547D01*
X24347298Y33870557D01*
X24277460Y33872658D01*
X24219845Y33912183D01*
X24199775Y33947198D01*
X24155954Y34064687D01*
X24155950Y34064694D01*
X24069790Y34179788D01*
X24069787Y34179791D01*
X23954693Y34265951D01*
X23954686Y34265955D01*
X23819979Y34316197D01*
X23819972Y34316199D01*
X23760444Y34322600D01*
X23099000Y34322600D01*
X23099000Y33579384D01*
X23079315Y33512345D01*
X23026511Y33466590D01*
X22957355Y33456646D01*
X22885337Y33467000D01*
X22885334Y33467000D01*
X22812666Y33467000D01*
X22812662Y33467000D01*
X22740645Y33456646D01*
X22671487Y33466590D01*
X22618684Y33512346D01*
X22599000Y33579384D01*
X22599000Y34322600D01*
X21937555Y34322600D01*
X21878027Y34316199D01*
X21878020Y34316197D01*
X21743313Y34265955D01*
X21743306Y34265951D01*
X21628212Y34179791D01*
X21628209Y34179788D01*
X21542049Y34064694D01*
X21542046Y34064688D01*
X21498224Y33947197D01*
X21456352Y33891264D01*
X21390887Y33866847D01*
X21322615Y33881699D01*
X21290813Y33906548D01*
X21236049Y33966037D01*
X21236048Y33966038D01*
X21236046Y33966040D01*
X21057649Y34104893D01*
X20986624Y34143330D01*
X20858832Y34212488D01*
X20858827Y34212490D01*
X20645017Y34285891D01*
X20463388Y34316199D01*
X20422033Y34323100D01*
X20195967Y34323100D01*
X20154612Y34316199D01*
X19972982Y34285891D01*
X19759172Y34212490D01*
X19759167Y34212488D01*
X19560352Y34104894D01*
X19381955Y33966041D01*
X19381950Y33966037D01*
X19228850Y33799728D01*
X19228842Y33799717D01*
X19105198Y33610467D01*
X19014388Y33403440D01*
X18958892Y33184290D01*
X18940225Y32959007D01*
X18940225Y32958994D01*
X5640133Y32958994D01*
X5640134Y32958999D01*
X5640134Y32959002D01*
X5625677Y33068815D01*
X5636443Y33137850D01*
X5682823Y33190106D01*
X5748616Y33209000D01*
X6634999Y33209000D01*
X6634999Y33628972D01*
X6634998Y33628987D01*
X6624505Y33731698D01*
X6569358Y33898120D01*
X6569356Y33898125D01*
X6477315Y34047346D01*
X6353345Y34171316D01*
X6204121Y34263358D01*
X6201674Y34264499D01*
X6200276Y34265730D01*
X6197975Y34267149D01*
X6198217Y34267543D01*
X6149233Y34310670D01*
X6130079Y34377863D01*
X6150292Y34444744D01*
X6168269Y34466400D01*
X6297516Y34590272D01*
X6436240Y34777839D01*
X6541270Y34986153D01*
X6609583Y35209220D01*
X6639216Y35440624D01*
X6629314Y35673707D01*
X6580164Y35901765D01*
X6493179Y36118235D01*
X6370862Y36316891D01*
X6216731Y36492018D01*
X6216729Y36492020D01*
X6216726Y36492023D01*
X6035226Y36638574D01*
X6035220Y36638579D01*
X5831554Y36752354D01*
X5611591Y36830071D01*
X5611586Y36830073D01*
X5611584Y36830073D01*
X5611580Y36830074D01*
X5611579Y36830074D01*
X5381655Y36869500D01*
X5381647Y36869500D01*
X4756784Y36869500D01*
X4756779Y36869500D01*
X4582553Y36854672D01*
X4582551Y36854671D01*
X4356781Y36795886D01*
X4144197Y36699792D01*
X3950911Y36569153D01*
X3950909Y36569151D01*
X3782483Y36407728D01*
X3782482Y36407727D01*
X3643762Y36220166D01*
X3538733Y36011853D01*
X3538730Y36011847D01*
X3470416Y35788777D01*
X3440784Y35557376D01*
X500Y35557376D01*
X500Y42577097D01*
X2095793Y42577097D01*
X2105672Y42269030D01*
X2105672Y42269025D01*
X2105673Y42269022D01*
X2154867Y41964739D01*
X2199137Y41815581D01*
X2242571Y41669237D01*
X2367333Y41387399D01*
X2367337Y41387391D01*
X2527123Y41123807D01*
X2527127Y41123802D01*
X2527133Y41123793D01*
X2719297Y40882826D01*
X2719299Y40882824D01*
X2719303Y40882820D01*
X2719304Y40882819D01*
X2940724Y40668386D01*
X3074471Y40568568D01*
X3187741Y40484032D01*
X3187743Y40484031D01*
X3187747Y40484028D01*
X3456318Y40332772D01*
X3580463Y40282511D01*
X3742018Y40217103D01*
X3742023Y40217102D01*
X3742025Y40217101D01*
X4040179Y40138916D01*
X4345883Y40099500D01*
X4345890Y40099500D01*
X4576980Y40099500D01*
X4675814Y40105846D01*
X4807601Y40114307D01*
X5110151Y40173228D01*
X5402683Y40270356D01*
X5402689Y40270360D01*
X5402693Y40270360D01*
X5620846Y40375417D01*
X5680393Y40404093D01*
X5938720Y40572246D01*
X6173424Y40772052D01*
X6380650Y41000231D01*
X6556996Y41253037D01*
X6699567Y41526317D01*
X6749418Y41661779D01*
X16609500Y41661779D01*
X16624328Y41487554D01*
X16624329Y41487552D01*
X16624329Y41487549D01*
X16624330Y41487547D01*
X16630228Y41464897D01*
X16683114Y41261782D01*
X16779208Y41049198D01*
X16909847Y40855912D01*
X16909849Y40855910D01*
X17071272Y40687484D01*
X17071273Y40687483D01*
X17258834Y40548763D01*
X17258836Y40548762D01*
X17258839Y40548760D01*
X17467153Y40443730D01*
X17690220Y40375417D01*
X17921624Y40345784D01*
X18154707Y40355686D01*
X18382765Y40404836D01*
X18599235Y40491821D01*
X18797891Y40614138D01*
X18973018Y40768269D01*
X19119578Y40949780D01*
X19142102Y40990101D01*
X19191982Y41039028D01*
X19260395Y41053221D01*
X19325621Y41028174D01*
X19353092Y40999065D01*
X19449847Y40855912D01*
X19449849Y40855910D01*
X19611272Y40687484D01*
X19611273Y40687483D01*
X19798834Y40548763D01*
X19798836Y40548762D01*
X19798839Y40548760D01*
X20007153Y40443730D01*
X20230220Y40375417D01*
X20461624Y40345784D01*
X20694707Y40355686D01*
X20922765Y40404836D01*
X21139235Y40491821D01*
X21337891Y40614138D01*
X21513018Y40768269D01*
X21545686Y40808728D01*
X21603116Y40848520D01*
X21672943Y40850947D01*
X21732998Y40815237D01*
X21754545Y40783231D01*
X21755641Y40780881D01*
X21847684Y40631655D01*
X21971654Y40507685D01*
X22120875Y40415644D01*
X22120880Y40415642D01*
X22287302Y40360495D01*
X22287309Y40360494D01*
X22390019Y40350001D01*
X22809999Y40350001D01*
X22810000Y40350002D01*
X22810000Y41236385D01*
X22829685Y41303424D01*
X22882489Y41349179D01*
X22950183Y41359324D01*
X23021003Y41350000D01*
X23021010Y41350000D01*
X23098990Y41350000D01*
X23098997Y41350000D01*
X23169816Y41359324D01*
X23238849Y41348559D01*
X23291105Y41302180D01*
X23310000Y41236385D01*
X23310000Y40350001D01*
X23729972Y40350001D01*
X23729986Y40350002D01*
X23832697Y40360495D01*
X23999119Y40415642D01*
X23999124Y40415644D01*
X24148345Y40507685D01*
X24272315Y40631655D01*
X24364356Y40780876D01*
X24364358Y40780881D01*
X24419505Y40947303D01*
X24419506Y40947310D01*
X24429999Y41050014D01*
X24430000Y41050027D01*
X24430000Y41695000D01*
X23768616Y41695000D01*
X23701577Y41714685D01*
X23655822Y41767489D01*
X23645677Y41835185D01*
X23660134Y41944999D01*
X23660134Y41945002D01*
X23645677Y42054815D01*
X23656443Y42123850D01*
X23702823Y42176106D01*
X23768616Y42195000D01*
X24429999Y42195000D01*
X24429999Y42839972D01*
X24429998Y42839987D01*
X24419505Y42942698D01*
X24364358Y43109120D01*
X24364356Y43109125D01*
X24272315Y43258346D01*
X24148345Y43382316D01*
X23999124Y43474357D01*
X23999119Y43474359D01*
X23832697Y43529506D01*
X23832690Y43529507D01*
X23729986Y43540000D01*
X23310000Y43540000D01*
X23310000Y42653616D01*
X23290315Y42586577D01*
X23237511Y42540822D01*
X23169815Y42530677D01*
X23099007Y42539999D01*
X23099002Y42540000D01*
X23098997Y42540000D01*
X23021003Y42540000D01*
X23020997Y42540000D01*
X23020992Y42539999D01*
X22950185Y42530677D01*
X22881150Y42541443D01*
X22828894Y42587823D01*
X22810000Y42653616D01*
X22810000Y43540000D01*
X22390028Y43540000D01*
X22390012Y43539999D01*
X22287302Y43529506D01*
X22120880Y43474359D01*
X22120875Y43474357D01*
X21971654Y43382316D01*
X21847684Y43258346D01*
X21755636Y43109112D01*
X21754496Y43106667D01*
X21753268Y43105273D01*
X21751851Y43102975D01*
X21751458Y43103218D01*
X21708321Y43054230D01*
X21641127Y43035081D01*
X21574247Y43055300D01*
X21552595Y43073276D01*
X21428727Y43202517D01*
X21428726Y43202518D01*
X21241165Y43341238D01*
X21234122Y43344789D01*
X21032847Y43446270D01*
X20809780Y43514583D01*
X20809778Y43514584D01*
X20809776Y43514584D01*
X20578370Y43544217D01*
X20345299Y43534315D01*
X20345290Y43534314D01*
X20117233Y43485164D01*
X20117230Y43485163D01*
X19900768Y43398181D01*
X19702110Y43275863D01*
X19526980Y43121730D01*
X19526977Y43121727D01*
X19380426Y42940227D01*
X19380421Y42940221D01*
X19357895Y42899897D01*
X19308014Y42850971D01*
X19239601Y42836780D01*
X19174375Y42861829D01*
X19146907Y42890936D01*
X19050153Y43034088D01*
X18888728Y43202516D01*
X18888727Y43202517D01*
X18888726Y43202518D01*
X18701165Y43341238D01*
X18694122Y43344789D01*
X18492847Y43446270D01*
X18269780Y43514583D01*
X18269778Y43514584D01*
X18269776Y43514584D01*
X18038370Y43544217D01*
X17805299Y43534315D01*
X17805290Y43534314D01*
X17577233Y43485164D01*
X17577230Y43485163D01*
X17360768Y43398181D01*
X17162110Y43275863D01*
X16986980Y43121730D01*
X16986977Y43121727D01*
X16840426Y42940227D01*
X16840421Y42940221D01*
X16726646Y42736555D01*
X16648929Y42516592D01*
X16648926Y42516580D01*
X16609500Y42286656D01*
X16609500Y41661779D01*
X6749418Y41661779D01*
X6806020Y41815585D01*
X6874609Y42116092D01*
X6904206Y42422902D01*
X6894327Y42730978D01*
X6845133Y43035261D01*
X6757431Y43330756D01*
X6757429Y43330761D01*
X6757428Y43330764D01*
X6632666Y43612602D01*
X6632663Y43612609D01*
X6472877Y43876193D01*
X6472870Y43876201D01*
X6472866Y43876208D01*
X6280702Y44117175D01*
X6280700Y44117177D01*
X6059279Y44331611D01*
X6059276Y44331614D01*
X5930450Y44427759D01*
X5812258Y44515969D01*
X5812253Y44515972D01*
X5543682Y44667228D01*
X5506383Y44682329D01*
X5257981Y44782898D01*
X5090660Y44826774D01*
X4959821Y44861084D01*
X4654117Y44900500D01*
X4423026Y44900500D01*
X4423020Y44900500D01*
X4192406Y44885694D01*
X4192389Y44885692D01*
X3889854Y44826774D01*
X3889849Y44826772D01*
X3597310Y44729642D01*
X3597306Y44729641D01*
X3319613Y44595911D01*
X3319605Y44595906D01*
X3061286Y44427759D01*
X3061276Y44427752D01*
X2826581Y44227954D01*
X2826571Y44227944D01*
X2619354Y43999775D01*
X2619350Y43999771D01*
X2443005Y43746967D01*
X2443003Y43746963D01*
X2300432Y43473681D01*
X2300429Y43473674D01*
X2193981Y43184420D01*
X2193979Y43184410D01*
X2125391Y42883911D01*
X2095794Y42577098D01*
X2095793Y42577097D01*
X500Y42577097D01*
X500Y46875500D01*
X20185Y46942539D01*
X72989Y46988294D01*
X124500Y46999500D01*
X35376000Y46999500D01*
X35443039Y46979815D01*
G37*
%TD.AperFunction*%
%TD*%
M02*
