%TF.GenerationSoftware,KiCad,Pcbnew,7.0.7*%
%TF.CreationDate,2024-01-28T22:30:17+01:00*%
%TF.ProjectId,midi-dmx_bridge,6d696469-2d64-46d7-985f-627269646765,1.0*%
%TF.SameCoordinates,PX5f5e100PY7459280*%
%TF.FileFunction,Legend,Top*%
%TF.FilePolarity,Positive*%
%FSLAX46Y46*%
G04 Gerber Fmt 4.6, Leading zero omitted, Abs format (unit mm)*
G04 Created by KiCad (PCBNEW 7.0.7) date 2024-01-28 22:30:17*
%MOMM*%
%LPD*%
G01*
G04 APERTURE LIST*
%ADD10C,0.100000*%
%ADD11C,0.150000*%
%ADD12C,0.300000*%
%ADD13C,0.400000*%
%ADD14C,0.600000*%
%ADD15C,0.200000*%
%ADD16C,0.187500*%
%ADD17C,0.120000*%
G04 APERTURE END LIST*
D10*
D11*
X77002200Y-44007200D02*
X185002200Y-44007200D01*
X185002200Y-76007200D01*
X77002200Y-76007200D01*
X77002200Y-44007200D01*
D10*
D11*
X-90000000Y112000000D02*
X187002200Y112000000D01*
X187002200Y-78007200D01*
X-90000000Y-78007200D01*
X-90000000Y112000000D01*
D10*
D11*
X-88000000Y110000000D02*
X185002200Y110000000D01*
X185002200Y-76007200D01*
X-88000000Y-76007200D01*
X-88000000Y110000000D01*
D10*
D11*
X-40000000Y110000000D02*
X-40000000Y112000000D01*
D10*
D11*
X10000000Y110000000D02*
X10000000Y112000000D01*
D10*
D11*
X60000000Y110000000D02*
X60000000Y112000000D01*
D10*
D11*
X110000000Y110000000D02*
X110000000Y112000000D01*
D10*
D11*
X160000000Y110000000D02*
X160000000Y112000000D01*
D10*
D11*
X-63910840Y110406396D02*
X-64653697Y110406396D01*
X-64282269Y110406396D02*
X-64282269Y111706396D01*
X-64282269Y111706396D02*
X-64406078Y111520681D01*
X-64406078Y111520681D02*
X-64529888Y111396872D01*
X-64529888Y111396872D02*
X-64653697Y111334967D01*
D10*
D11*
X-14653697Y111582586D02*
X-14591793Y111644491D01*
X-14591793Y111644491D02*
X-14467983Y111706396D01*
X-14467983Y111706396D02*
X-14158459Y111706396D01*
X-14158459Y111706396D02*
X-14034650Y111644491D01*
X-14034650Y111644491D02*
X-13972745Y111582586D01*
X-13972745Y111582586D02*
X-13910840Y111458777D01*
X-13910840Y111458777D02*
X-13910840Y111334967D01*
X-13910840Y111334967D02*
X-13972745Y111149253D01*
X-13972745Y111149253D02*
X-14715602Y110406396D01*
X-14715602Y110406396D02*
X-13910840Y110406396D01*
D10*
D11*
X35284398Y111706396D02*
X36089160Y111706396D01*
X36089160Y111706396D02*
X35655826Y111211158D01*
X35655826Y111211158D02*
X35841541Y111211158D01*
X35841541Y111211158D02*
X35965350Y111149253D01*
X35965350Y111149253D02*
X36027255Y111087348D01*
X36027255Y111087348D02*
X36089160Y110963539D01*
X36089160Y110963539D02*
X36089160Y110654015D01*
X36089160Y110654015D02*
X36027255Y110530205D01*
X36027255Y110530205D02*
X35965350Y110468300D01*
X35965350Y110468300D02*
X35841541Y110406396D01*
X35841541Y110406396D02*
X35470112Y110406396D01*
X35470112Y110406396D02*
X35346303Y110468300D01*
X35346303Y110468300D02*
X35284398Y110530205D01*
D10*
D11*
X85965350Y111273062D02*
X85965350Y110406396D01*
X85655826Y111768300D02*
X85346303Y110839729D01*
X85346303Y110839729D02*
X86151064Y110839729D01*
D10*
D11*
X136027255Y111706396D02*
X135408207Y111706396D01*
X135408207Y111706396D02*
X135346303Y111087348D01*
X135346303Y111087348D02*
X135408207Y111149253D01*
X135408207Y111149253D02*
X135532017Y111211158D01*
X135532017Y111211158D02*
X135841541Y111211158D01*
X135841541Y111211158D02*
X135965350Y111149253D01*
X135965350Y111149253D02*
X136027255Y111087348D01*
X136027255Y111087348D02*
X136089160Y110963539D01*
X136089160Y110963539D02*
X136089160Y110654015D01*
X136089160Y110654015D02*
X136027255Y110530205D01*
X136027255Y110530205D02*
X135965350Y110468300D01*
X135965350Y110468300D02*
X135841541Y110406396D01*
X135841541Y110406396D02*
X135532017Y110406396D01*
X135532017Y110406396D02*
X135408207Y110468300D01*
X135408207Y110468300D02*
X135346303Y110530205D01*
D10*
D11*
X185965350Y111706396D02*
X185717731Y111706396D01*
X185717731Y111706396D02*
X185593922Y111644491D01*
X185593922Y111644491D02*
X185532017Y111582586D01*
X185532017Y111582586D02*
X185408207Y111396872D01*
X185408207Y111396872D02*
X185346303Y111149253D01*
X185346303Y111149253D02*
X185346303Y110654015D01*
X185346303Y110654015D02*
X185408207Y110530205D01*
X185408207Y110530205D02*
X185470112Y110468300D01*
X185470112Y110468300D02*
X185593922Y110406396D01*
X185593922Y110406396D02*
X185841541Y110406396D01*
X185841541Y110406396D02*
X185965350Y110468300D01*
X185965350Y110468300D02*
X186027255Y110530205D01*
X186027255Y110530205D02*
X186089160Y110654015D01*
X186089160Y110654015D02*
X186089160Y110963539D01*
X186089160Y110963539D02*
X186027255Y111087348D01*
X186027255Y111087348D02*
X185965350Y111149253D01*
X185965350Y111149253D02*
X185841541Y111211158D01*
X185841541Y111211158D02*
X185593922Y111211158D01*
X185593922Y111211158D02*
X185470112Y111149253D01*
X185470112Y111149253D02*
X185408207Y111087348D01*
X185408207Y111087348D02*
X185346303Y110963539D01*
D10*
D11*
X-40000000Y-76007200D02*
X-40000000Y-78007200D01*
D10*
D11*
X10000000Y-76007200D02*
X10000000Y-78007200D01*
D10*
D11*
X60000000Y-76007200D02*
X60000000Y-78007200D01*
D10*
D11*
X110000000Y-76007200D02*
X110000000Y-78007200D01*
D10*
D11*
X160000000Y-76007200D02*
X160000000Y-78007200D01*
D10*
D11*
X-63910840Y-77600804D02*
X-64653697Y-77600804D01*
X-64282269Y-77600804D02*
X-64282269Y-76300804D01*
X-64282269Y-76300804D02*
X-64406078Y-76486519D01*
X-64406078Y-76486519D02*
X-64529888Y-76610328D01*
X-64529888Y-76610328D02*
X-64653697Y-76672233D01*
D10*
D11*
X-14653697Y-76424614D02*
X-14591793Y-76362709D01*
X-14591793Y-76362709D02*
X-14467983Y-76300804D01*
X-14467983Y-76300804D02*
X-14158459Y-76300804D01*
X-14158459Y-76300804D02*
X-14034650Y-76362709D01*
X-14034650Y-76362709D02*
X-13972745Y-76424614D01*
X-13972745Y-76424614D02*
X-13910840Y-76548423D01*
X-13910840Y-76548423D02*
X-13910840Y-76672233D01*
X-13910840Y-76672233D02*
X-13972745Y-76857947D01*
X-13972745Y-76857947D02*
X-14715602Y-77600804D01*
X-14715602Y-77600804D02*
X-13910840Y-77600804D01*
D10*
D11*
X35284398Y-76300804D02*
X36089160Y-76300804D01*
X36089160Y-76300804D02*
X35655826Y-76796042D01*
X35655826Y-76796042D02*
X35841541Y-76796042D01*
X35841541Y-76796042D02*
X35965350Y-76857947D01*
X35965350Y-76857947D02*
X36027255Y-76919852D01*
X36027255Y-76919852D02*
X36089160Y-77043661D01*
X36089160Y-77043661D02*
X36089160Y-77353185D01*
X36089160Y-77353185D02*
X36027255Y-77476995D01*
X36027255Y-77476995D02*
X35965350Y-77538900D01*
X35965350Y-77538900D02*
X35841541Y-77600804D01*
X35841541Y-77600804D02*
X35470112Y-77600804D01*
X35470112Y-77600804D02*
X35346303Y-77538900D01*
X35346303Y-77538900D02*
X35284398Y-77476995D01*
D10*
D11*
X85965350Y-76734138D02*
X85965350Y-77600804D01*
X85655826Y-76238900D02*
X85346303Y-77167471D01*
X85346303Y-77167471D02*
X86151064Y-77167471D01*
D10*
D11*
X136027255Y-76300804D02*
X135408207Y-76300804D01*
X135408207Y-76300804D02*
X135346303Y-76919852D01*
X135346303Y-76919852D02*
X135408207Y-76857947D01*
X135408207Y-76857947D02*
X135532017Y-76796042D01*
X135532017Y-76796042D02*
X135841541Y-76796042D01*
X135841541Y-76796042D02*
X135965350Y-76857947D01*
X135965350Y-76857947D02*
X136027255Y-76919852D01*
X136027255Y-76919852D02*
X136089160Y-77043661D01*
X136089160Y-77043661D02*
X136089160Y-77353185D01*
X136089160Y-77353185D02*
X136027255Y-77476995D01*
X136027255Y-77476995D02*
X135965350Y-77538900D01*
X135965350Y-77538900D02*
X135841541Y-77600804D01*
X135841541Y-77600804D02*
X135532017Y-77600804D01*
X135532017Y-77600804D02*
X135408207Y-77538900D01*
X135408207Y-77538900D02*
X135346303Y-77476995D01*
D10*
D11*
X185965350Y-76300804D02*
X185717731Y-76300804D01*
X185717731Y-76300804D02*
X185593922Y-76362709D01*
X185593922Y-76362709D02*
X185532017Y-76424614D01*
X185532017Y-76424614D02*
X185408207Y-76610328D01*
X185408207Y-76610328D02*
X185346303Y-76857947D01*
X185346303Y-76857947D02*
X185346303Y-77353185D01*
X185346303Y-77353185D02*
X185408207Y-77476995D01*
X185408207Y-77476995D02*
X185470112Y-77538900D01*
X185470112Y-77538900D02*
X185593922Y-77600804D01*
X185593922Y-77600804D02*
X185841541Y-77600804D01*
X185841541Y-77600804D02*
X185965350Y-77538900D01*
X185965350Y-77538900D02*
X186027255Y-77476995D01*
X186027255Y-77476995D02*
X186089160Y-77353185D01*
X186089160Y-77353185D02*
X186089160Y-77043661D01*
X186089160Y-77043661D02*
X186027255Y-76919852D01*
X186027255Y-76919852D02*
X185965350Y-76857947D01*
X185965350Y-76857947D02*
X185841541Y-76796042D01*
X185841541Y-76796042D02*
X185593922Y-76796042D01*
X185593922Y-76796042D02*
X185470112Y-76857947D01*
X185470112Y-76857947D02*
X185408207Y-76919852D01*
X185408207Y-76919852D02*
X185346303Y-77043661D01*
D10*
D11*
X-90000000Y62000000D02*
X-88000000Y62000000D01*
D10*
D11*
X-90000000Y12000000D02*
X-88000000Y12000000D01*
D10*
D11*
X-90000000Y-38000000D02*
X-88000000Y-38000000D01*
D10*
D11*
X-89309524Y86777824D02*
X-88690477Y86777824D01*
X-89433334Y86406396D02*
X-89000001Y87706396D01*
X-89000001Y87706396D02*
X-88566667Y86406396D01*
D10*
D11*
X-88907143Y37087348D02*
X-88721429Y37025443D01*
X-88721429Y37025443D02*
X-88659524Y36963539D01*
X-88659524Y36963539D02*
X-88597620Y36839729D01*
X-88597620Y36839729D02*
X-88597620Y36654015D01*
X-88597620Y36654015D02*
X-88659524Y36530205D01*
X-88659524Y36530205D02*
X-88721429Y36468300D01*
X-88721429Y36468300D02*
X-88845239Y36406396D01*
X-88845239Y36406396D02*
X-89340477Y36406396D01*
X-89340477Y36406396D02*
X-89340477Y37706396D01*
X-89340477Y37706396D02*
X-88907143Y37706396D01*
X-88907143Y37706396D02*
X-88783334Y37644491D01*
X-88783334Y37644491D02*
X-88721429Y37582586D01*
X-88721429Y37582586D02*
X-88659524Y37458777D01*
X-88659524Y37458777D02*
X-88659524Y37334967D01*
X-88659524Y37334967D02*
X-88721429Y37211158D01*
X-88721429Y37211158D02*
X-88783334Y37149253D01*
X-88783334Y37149253D02*
X-88907143Y37087348D01*
X-88907143Y37087348D02*
X-89340477Y37087348D01*
D10*
D11*
X-88597620Y-13469795D02*
X-88659524Y-13531700D01*
X-88659524Y-13531700D02*
X-88845239Y-13593604D01*
X-88845239Y-13593604D02*
X-88969048Y-13593604D01*
X-88969048Y-13593604D02*
X-89154762Y-13531700D01*
X-89154762Y-13531700D02*
X-89278572Y-13407890D01*
X-89278572Y-13407890D02*
X-89340477Y-13284080D01*
X-89340477Y-13284080D02*
X-89402381Y-13036461D01*
X-89402381Y-13036461D02*
X-89402381Y-12850747D01*
X-89402381Y-12850747D02*
X-89340477Y-12603128D01*
X-89340477Y-12603128D02*
X-89278572Y-12479319D01*
X-89278572Y-12479319D02*
X-89154762Y-12355509D01*
X-89154762Y-12355509D02*
X-88969048Y-12293604D01*
X-88969048Y-12293604D02*
X-88845239Y-12293604D01*
X-88845239Y-12293604D02*
X-88659524Y-12355509D01*
X-88659524Y-12355509D02*
X-88597620Y-12417414D01*
D10*
D11*
X-89340477Y-63593604D02*
X-89340477Y-62293604D01*
X-89340477Y-62293604D02*
X-89030953Y-62293604D01*
X-89030953Y-62293604D02*
X-88845239Y-62355509D01*
X-88845239Y-62355509D02*
X-88721429Y-62479319D01*
X-88721429Y-62479319D02*
X-88659524Y-62603128D01*
X-88659524Y-62603128D02*
X-88597620Y-62850747D01*
X-88597620Y-62850747D02*
X-88597620Y-63036461D01*
X-88597620Y-63036461D02*
X-88659524Y-63284080D01*
X-88659524Y-63284080D02*
X-88721429Y-63407890D01*
X-88721429Y-63407890D02*
X-88845239Y-63531700D01*
X-88845239Y-63531700D02*
X-89030953Y-63593604D01*
X-89030953Y-63593604D02*
X-89340477Y-63593604D01*
D10*
D11*
X187002200Y62000000D02*
X185002200Y62000000D01*
D10*
D11*
X187002200Y12000000D02*
X185002200Y12000000D01*
D10*
D11*
X187002200Y-38000000D02*
X185002200Y-38000000D01*
D10*
D11*
X185692676Y86777824D02*
X186311723Y86777824D01*
X185568866Y86406396D02*
X186002199Y87706396D01*
X186002199Y87706396D02*
X186435533Y86406396D01*
D10*
D11*
X186095057Y37087348D02*
X186280771Y37025443D01*
X186280771Y37025443D02*
X186342676Y36963539D01*
X186342676Y36963539D02*
X186404580Y36839729D01*
X186404580Y36839729D02*
X186404580Y36654015D01*
X186404580Y36654015D02*
X186342676Y36530205D01*
X186342676Y36530205D02*
X186280771Y36468300D01*
X186280771Y36468300D02*
X186156961Y36406396D01*
X186156961Y36406396D02*
X185661723Y36406396D01*
X185661723Y36406396D02*
X185661723Y37706396D01*
X185661723Y37706396D02*
X186095057Y37706396D01*
X186095057Y37706396D02*
X186218866Y37644491D01*
X186218866Y37644491D02*
X186280771Y37582586D01*
X186280771Y37582586D02*
X186342676Y37458777D01*
X186342676Y37458777D02*
X186342676Y37334967D01*
X186342676Y37334967D02*
X186280771Y37211158D01*
X186280771Y37211158D02*
X186218866Y37149253D01*
X186218866Y37149253D02*
X186095057Y37087348D01*
X186095057Y37087348D02*
X185661723Y37087348D01*
D10*
D11*
X186404580Y-13469795D02*
X186342676Y-13531700D01*
X186342676Y-13531700D02*
X186156961Y-13593604D01*
X186156961Y-13593604D02*
X186033152Y-13593604D01*
X186033152Y-13593604D02*
X185847438Y-13531700D01*
X185847438Y-13531700D02*
X185723628Y-13407890D01*
X185723628Y-13407890D02*
X185661723Y-13284080D01*
X185661723Y-13284080D02*
X185599819Y-13036461D01*
X185599819Y-13036461D02*
X185599819Y-12850747D01*
X185599819Y-12850747D02*
X185661723Y-12603128D01*
X185661723Y-12603128D02*
X185723628Y-12479319D01*
X185723628Y-12479319D02*
X185847438Y-12355509D01*
X185847438Y-12355509D02*
X186033152Y-12293604D01*
X186033152Y-12293604D02*
X186156961Y-12293604D01*
X186156961Y-12293604D02*
X186342676Y-12355509D01*
X186342676Y-12355509D02*
X186404580Y-12417414D01*
D10*
D11*
X185661723Y-63593604D02*
X185661723Y-62293604D01*
X185661723Y-62293604D02*
X185971247Y-62293604D01*
X185971247Y-62293604D02*
X186156961Y-62355509D01*
X186156961Y-62355509D02*
X186280771Y-62479319D01*
X186280771Y-62479319D02*
X186342676Y-62603128D01*
X186342676Y-62603128D02*
X186404580Y-62850747D01*
X186404580Y-62850747D02*
X186404580Y-63036461D01*
X186404580Y-63036461D02*
X186342676Y-63284080D01*
X186342676Y-63284080D02*
X186280771Y-63407890D01*
X186280771Y-63407890D02*
X186156961Y-63531700D01*
X186156961Y-63531700D02*
X185971247Y-63593604D01*
X185971247Y-63593604D02*
X185661723Y-63593604D01*
D10*
D11*
X100458026Y-71793328D02*
X100458026Y-70293328D01*
X100458026Y-70293328D02*
X100815169Y-70293328D01*
X100815169Y-70293328D02*
X101029455Y-70364757D01*
X101029455Y-70364757D02*
X101172312Y-70507614D01*
X101172312Y-70507614D02*
X101243741Y-70650471D01*
X101243741Y-70650471D02*
X101315169Y-70936185D01*
X101315169Y-70936185D02*
X101315169Y-71150471D01*
X101315169Y-71150471D02*
X101243741Y-71436185D01*
X101243741Y-71436185D02*
X101172312Y-71579042D01*
X101172312Y-71579042D02*
X101029455Y-71721900D01*
X101029455Y-71721900D02*
X100815169Y-71793328D01*
X100815169Y-71793328D02*
X100458026Y-71793328D01*
X102600884Y-71793328D02*
X102600884Y-71007614D01*
X102600884Y-71007614D02*
X102529455Y-70864757D01*
X102529455Y-70864757D02*
X102386598Y-70793328D01*
X102386598Y-70793328D02*
X102100884Y-70793328D01*
X102100884Y-70793328D02*
X101958026Y-70864757D01*
X102600884Y-71721900D02*
X102458026Y-71793328D01*
X102458026Y-71793328D02*
X102100884Y-71793328D01*
X102100884Y-71793328D02*
X101958026Y-71721900D01*
X101958026Y-71721900D02*
X101886598Y-71579042D01*
X101886598Y-71579042D02*
X101886598Y-71436185D01*
X101886598Y-71436185D02*
X101958026Y-71293328D01*
X101958026Y-71293328D02*
X102100884Y-71221900D01*
X102100884Y-71221900D02*
X102458026Y-71221900D01*
X102458026Y-71221900D02*
X102600884Y-71150471D01*
X103100884Y-70793328D02*
X103672312Y-70793328D01*
X103315169Y-70293328D02*
X103315169Y-71579042D01*
X103315169Y-71579042D02*
X103386598Y-71721900D01*
X103386598Y-71721900D02*
X103529455Y-71793328D01*
X103529455Y-71793328D02*
X103672312Y-71793328D01*
X104743741Y-71721900D02*
X104600884Y-71793328D01*
X104600884Y-71793328D02*
X104315170Y-71793328D01*
X104315170Y-71793328D02*
X104172312Y-71721900D01*
X104172312Y-71721900D02*
X104100884Y-71579042D01*
X104100884Y-71579042D02*
X104100884Y-71007614D01*
X104100884Y-71007614D02*
X104172312Y-70864757D01*
X104172312Y-70864757D02*
X104315170Y-70793328D01*
X104315170Y-70793328D02*
X104600884Y-70793328D01*
X104600884Y-70793328D02*
X104743741Y-70864757D01*
X104743741Y-70864757D02*
X104815170Y-71007614D01*
X104815170Y-71007614D02*
X104815170Y-71150471D01*
X104815170Y-71150471D02*
X104100884Y-71293328D01*
X105458026Y-71650471D02*
X105529455Y-71721900D01*
X105529455Y-71721900D02*
X105458026Y-71793328D01*
X105458026Y-71793328D02*
X105386598Y-71721900D01*
X105386598Y-71721900D02*
X105458026Y-71650471D01*
X105458026Y-71650471D02*
X105458026Y-71793328D01*
X105458026Y-70864757D02*
X105529455Y-70936185D01*
X105529455Y-70936185D02*
X105458026Y-71007614D01*
X105458026Y-71007614D02*
X105386598Y-70936185D01*
X105386598Y-70936185D02*
X105458026Y-70864757D01*
X105458026Y-70864757D02*
X105458026Y-71007614D01*
X107243741Y-70436185D02*
X107315169Y-70364757D01*
X107315169Y-70364757D02*
X107458027Y-70293328D01*
X107458027Y-70293328D02*
X107815169Y-70293328D01*
X107815169Y-70293328D02*
X107958027Y-70364757D01*
X107958027Y-70364757D02*
X108029455Y-70436185D01*
X108029455Y-70436185D02*
X108100884Y-70579042D01*
X108100884Y-70579042D02*
X108100884Y-70721900D01*
X108100884Y-70721900D02*
X108029455Y-70936185D01*
X108029455Y-70936185D02*
X107172312Y-71793328D01*
X107172312Y-71793328D02*
X108100884Y-71793328D01*
X109029455Y-70293328D02*
X109172312Y-70293328D01*
X109172312Y-70293328D02*
X109315169Y-70364757D01*
X109315169Y-70364757D02*
X109386598Y-70436185D01*
X109386598Y-70436185D02*
X109458026Y-70579042D01*
X109458026Y-70579042D02*
X109529455Y-70864757D01*
X109529455Y-70864757D02*
X109529455Y-71221900D01*
X109529455Y-71221900D02*
X109458026Y-71507614D01*
X109458026Y-71507614D02*
X109386598Y-71650471D01*
X109386598Y-71650471D02*
X109315169Y-71721900D01*
X109315169Y-71721900D02*
X109172312Y-71793328D01*
X109172312Y-71793328D02*
X109029455Y-71793328D01*
X109029455Y-71793328D02*
X108886598Y-71721900D01*
X108886598Y-71721900D02*
X108815169Y-71650471D01*
X108815169Y-71650471D02*
X108743740Y-71507614D01*
X108743740Y-71507614D02*
X108672312Y-71221900D01*
X108672312Y-71221900D02*
X108672312Y-70864757D01*
X108672312Y-70864757D02*
X108743740Y-70579042D01*
X108743740Y-70579042D02*
X108815169Y-70436185D01*
X108815169Y-70436185D02*
X108886598Y-70364757D01*
X108886598Y-70364757D02*
X109029455Y-70293328D01*
X110100883Y-70436185D02*
X110172311Y-70364757D01*
X110172311Y-70364757D02*
X110315169Y-70293328D01*
X110315169Y-70293328D02*
X110672311Y-70293328D01*
X110672311Y-70293328D02*
X110815169Y-70364757D01*
X110815169Y-70364757D02*
X110886597Y-70436185D01*
X110886597Y-70436185D02*
X110958026Y-70579042D01*
X110958026Y-70579042D02*
X110958026Y-70721900D01*
X110958026Y-70721900D02*
X110886597Y-70936185D01*
X110886597Y-70936185D02*
X110029454Y-71793328D01*
X110029454Y-71793328D02*
X110958026Y-71793328D01*
X112243740Y-70793328D02*
X112243740Y-71793328D01*
X111886597Y-70221900D02*
X111529454Y-71293328D01*
X111529454Y-71293328D02*
X112458025Y-71293328D01*
X113029453Y-71221900D02*
X114172311Y-71221900D01*
X115172311Y-70293328D02*
X115315168Y-70293328D01*
X115315168Y-70293328D02*
X115458025Y-70364757D01*
X115458025Y-70364757D02*
X115529454Y-70436185D01*
X115529454Y-70436185D02*
X115600882Y-70579042D01*
X115600882Y-70579042D02*
X115672311Y-70864757D01*
X115672311Y-70864757D02*
X115672311Y-71221900D01*
X115672311Y-71221900D02*
X115600882Y-71507614D01*
X115600882Y-71507614D02*
X115529454Y-71650471D01*
X115529454Y-71650471D02*
X115458025Y-71721900D01*
X115458025Y-71721900D02*
X115315168Y-71793328D01*
X115315168Y-71793328D02*
X115172311Y-71793328D01*
X115172311Y-71793328D02*
X115029454Y-71721900D01*
X115029454Y-71721900D02*
X114958025Y-71650471D01*
X114958025Y-71650471D02*
X114886596Y-71507614D01*
X114886596Y-71507614D02*
X114815168Y-71221900D01*
X114815168Y-71221900D02*
X114815168Y-70864757D01*
X114815168Y-70864757D02*
X114886596Y-70579042D01*
X114886596Y-70579042D02*
X114958025Y-70436185D01*
X114958025Y-70436185D02*
X115029454Y-70364757D01*
X115029454Y-70364757D02*
X115172311Y-70293328D01*
X117100882Y-71793328D02*
X116243739Y-71793328D01*
X116672310Y-71793328D02*
X116672310Y-70293328D01*
X116672310Y-70293328D02*
X116529453Y-70507614D01*
X116529453Y-70507614D02*
X116386596Y-70650471D01*
X116386596Y-70650471D02*
X116243739Y-70721900D01*
X117743738Y-71221900D02*
X118886596Y-71221900D01*
X119529453Y-70436185D02*
X119600881Y-70364757D01*
X119600881Y-70364757D02*
X119743739Y-70293328D01*
X119743739Y-70293328D02*
X120100881Y-70293328D01*
X120100881Y-70293328D02*
X120243739Y-70364757D01*
X120243739Y-70364757D02*
X120315167Y-70436185D01*
X120315167Y-70436185D02*
X120386596Y-70579042D01*
X120386596Y-70579042D02*
X120386596Y-70721900D01*
X120386596Y-70721900D02*
X120315167Y-70936185D01*
X120315167Y-70936185D02*
X119458024Y-71793328D01*
X119458024Y-71793328D02*
X120386596Y-71793328D01*
X121315167Y-70293328D02*
X121458024Y-70293328D01*
X121458024Y-70293328D02*
X121600881Y-70364757D01*
X121600881Y-70364757D02*
X121672310Y-70436185D01*
X121672310Y-70436185D02*
X121743738Y-70579042D01*
X121743738Y-70579042D02*
X121815167Y-70864757D01*
X121815167Y-70864757D02*
X121815167Y-71221900D01*
X121815167Y-71221900D02*
X121743738Y-71507614D01*
X121743738Y-71507614D02*
X121672310Y-71650471D01*
X121672310Y-71650471D02*
X121600881Y-71721900D01*
X121600881Y-71721900D02*
X121458024Y-71793328D01*
X121458024Y-71793328D02*
X121315167Y-71793328D01*
X121315167Y-71793328D02*
X121172310Y-71721900D01*
X121172310Y-71721900D02*
X121100881Y-71650471D01*
X121100881Y-71650471D02*
X121029452Y-71507614D01*
X121029452Y-71507614D02*
X120958024Y-71221900D01*
X120958024Y-71221900D02*
X120958024Y-70864757D01*
X120958024Y-70864757D02*
X121029452Y-70579042D01*
X121029452Y-70579042D02*
X121100881Y-70436185D01*
X121100881Y-70436185D02*
X121172310Y-70364757D01*
X121172310Y-70364757D02*
X121315167Y-70293328D01*
D10*
D11*
X77002200Y-72507200D02*
X185002200Y-72507200D01*
D10*
D11*
X78458026Y-74593328D02*
X78458026Y-73093328D01*
X79315169Y-74593328D02*
X78672312Y-73736185D01*
X79315169Y-73093328D02*
X78458026Y-73950471D01*
X79958026Y-74593328D02*
X79958026Y-73593328D01*
X79958026Y-73093328D02*
X79886598Y-73164757D01*
X79886598Y-73164757D02*
X79958026Y-73236185D01*
X79958026Y-73236185D02*
X80029455Y-73164757D01*
X80029455Y-73164757D02*
X79958026Y-73093328D01*
X79958026Y-73093328D02*
X79958026Y-73236185D01*
X81529455Y-74450471D02*
X81458027Y-74521900D01*
X81458027Y-74521900D02*
X81243741Y-74593328D01*
X81243741Y-74593328D02*
X81100884Y-74593328D01*
X81100884Y-74593328D02*
X80886598Y-74521900D01*
X80886598Y-74521900D02*
X80743741Y-74379042D01*
X80743741Y-74379042D02*
X80672312Y-74236185D01*
X80672312Y-74236185D02*
X80600884Y-73950471D01*
X80600884Y-73950471D02*
X80600884Y-73736185D01*
X80600884Y-73736185D02*
X80672312Y-73450471D01*
X80672312Y-73450471D02*
X80743741Y-73307614D01*
X80743741Y-73307614D02*
X80886598Y-73164757D01*
X80886598Y-73164757D02*
X81100884Y-73093328D01*
X81100884Y-73093328D02*
X81243741Y-73093328D01*
X81243741Y-73093328D02*
X81458027Y-73164757D01*
X81458027Y-73164757D02*
X81529455Y-73236185D01*
X82815170Y-74593328D02*
X82815170Y-73807614D01*
X82815170Y-73807614D02*
X82743741Y-73664757D01*
X82743741Y-73664757D02*
X82600884Y-73593328D01*
X82600884Y-73593328D02*
X82315170Y-73593328D01*
X82315170Y-73593328D02*
X82172312Y-73664757D01*
X82815170Y-74521900D02*
X82672312Y-74593328D01*
X82672312Y-74593328D02*
X82315170Y-74593328D01*
X82315170Y-74593328D02*
X82172312Y-74521900D01*
X82172312Y-74521900D02*
X82100884Y-74379042D01*
X82100884Y-74379042D02*
X82100884Y-74236185D01*
X82100884Y-74236185D02*
X82172312Y-74093328D01*
X82172312Y-74093328D02*
X82315170Y-74021900D01*
X82315170Y-74021900D02*
X82672312Y-74021900D01*
X82672312Y-74021900D02*
X82815170Y-73950471D01*
X84172313Y-74593328D02*
X84172313Y-73093328D01*
X84172313Y-74521900D02*
X84029455Y-74593328D01*
X84029455Y-74593328D02*
X83743741Y-74593328D01*
X83743741Y-74593328D02*
X83600884Y-74521900D01*
X83600884Y-74521900D02*
X83529455Y-74450471D01*
X83529455Y-74450471D02*
X83458027Y-74307614D01*
X83458027Y-74307614D02*
X83458027Y-73879042D01*
X83458027Y-73879042D02*
X83529455Y-73736185D01*
X83529455Y-73736185D02*
X83600884Y-73664757D01*
X83600884Y-73664757D02*
X83743741Y-73593328D01*
X83743741Y-73593328D02*
X84029455Y-73593328D01*
X84029455Y-73593328D02*
X84172313Y-73664757D01*
X86029455Y-73807614D02*
X86529455Y-73807614D01*
X86743741Y-74593328D02*
X86029455Y-74593328D01*
X86029455Y-74593328D02*
X86029455Y-73093328D01*
X86029455Y-73093328D02*
X86743741Y-73093328D01*
X87386598Y-74450471D02*
X87458027Y-74521900D01*
X87458027Y-74521900D02*
X87386598Y-74593328D01*
X87386598Y-74593328D02*
X87315170Y-74521900D01*
X87315170Y-74521900D02*
X87386598Y-74450471D01*
X87386598Y-74450471D02*
X87386598Y-74593328D01*
X88100884Y-74593328D02*
X88100884Y-73093328D01*
X88100884Y-73093328D02*
X88458027Y-73093328D01*
X88458027Y-73093328D02*
X88672313Y-73164757D01*
X88672313Y-73164757D02*
X88815170Y-73307614D01*
X88815170Y-73307614D02*
X88886599Y-73450471D01*
X88886599Y-73450471D02*
X88958027Y-73736185D01*
X88958027Y-73736185D02*
X88958027Y-73950471D01*
X88958027Y-73950471D02*
X88886599Y-74236185D01*
X88886599Y-74236185D02*
X88815170Y-74379042D01*
X88815170Y-74379042D02*
X88672313Y-74521900D01*
X88672313Y-74521900D02*
X88458027Y-74593328D01*
X88458027Y-74593328D02*
X88100884Y-74593328D01*
X89600884Y-74450471D02*
X89672313Y-74521900D01*
X89672313Y-74521900D02*
X89600884Y-74593328D01*
X89600884Y-74593328D02*
X89529456Y-74521900D01*
X89529456Y-74521900D02*
X89600884Y-74450471D01*
X89600884Y-74450471D02*
X89600884Y-74593328D01*
X90243742Y-74164757D02*
X90958028Y-74164757D01*
X90100885Y-74593328D02*
X90600885Y-73093328D01*
X90600885Y-73093328D02*
X91100885Y-74593328D01*
X91600884Y-74450471D02*
X91672313Y-74521900D01*
X91672313Y-74521900D02*
X91600884Y-74593328D01*
X91600884Y-74593328D02*
X91529456Y-74521900D01*
X91529456Y-74521900D02*
X91600884Y-74450471D01*
X91600884Y-74450471D02*
X91600884Y-74593328D01*
X94600884Y-74593328D02*
X94600884Y-73093328D01*
X94743742Y-74021900D02*
X95172313Y-74593328D01*
X95172313Y-73593328D02*
X94600884Y-74164757D01*
X95815170Y-74593328D02*
X95815170Y-73593328D01*
X95815170Y-73093328D02*
X95743742Y-73164757D01*
X95743742Y-73164757D02*
X95815170Y-73236185D01*
X95815170Y-73236185D02*
X95886599Y-73164757D01*
X95886599Y-73164757D02*
X95815170Y-73093328D01*
X95815170Y-73093328D02*
X95815170Y-73236185D01*
X97172314Y-74521900D02*
X97029456Y-74593328D01*
X97029456Y-74593328D02*
X96743742Y-74593328D01*
X96743742Y-74593328D02*
X96600885Y-74521900D01*
X96600885Y-74521900D02*
X96529456Y-74450471D01*
X96529456Y-74450471D02*
X96458028Y-74307614D01*
X96458028Y-74307614D02*
X96458028Y-73879042D01*
X96458028Y-73879042D02*
X96529456Y-73736185D01*
X96529456Y-73736185D02*
X96600885Y-73664757D01*
X96600885Y-73664757D02*
X96743742Y-73593328D01*
X96743742Y-73593328D02*
X97029456Y-73593328D01*
X97029456Y-73593328D02*
X97172314Y-73664757D01*
X98458028Y-74593328D02*
X98458028Y-73807614D01*
X98458028Y-73807614D02*
X98386599Y-73664757D01*
X98386599Y-73664757D02*
X98243742Y-73593328D01*
X98243742Y-73593328D02*
X97958028Y-73593328D01*
X97958028Y-73593328D02*
X97815170Y-73664757D01*
X98458028Y-74521900D02*
X98315170Y-74593328D01*
X98315170Y-74593328D02*
X97958028Y-74593328D01*
X97958028Y-74593328D02*
X97815170Y-74521900D01*
X97815170Y-74521900D02*
X97743742Y-74379042D01*
X97743742Y-74379042D02*
X97743742Y-74236185D01*
X97743742Y-74236185D02*
X97815170Y-74093328D01*
X97815170Y-74093328D02*
X97958028Y-74021900D01*
X97958028Y-74021900D02*
X98315170Y-74021900D01*
X98315170Y-74021900D02*
X98458028Y-73950471D01*
X99815171Y-74593328D02*
X99815171Y-73093328D01*
X99815171Y-74521900D02*
X99672313Y-74593328D01*
X99672313Y-74593328D02*
X99386599Y-74593328D01*
X99386599Y-74593328D02*
X99243742Y-74521900D01*
X99243742Y-74521900D02*
X99172313Y-74450471D01*
X99172313Y-74450471D02*
X99100885Y-74307614D01*
X99100885Y-74307614D02*
X99100885Y-73879042D01*
X99100885Y-73879042D02*
X99172313Y-73736185D01*
X99172313Y-73736185D02*
X99243742Y-73664757D01*
X99243742Y-73664757D02*
X99386599Y-73593328D01*
X99386599Y-73593328D02*
X99672313Y-73593328D01*
X99672313Y-73593328D02*
X99815171Y-73664757D01*
X101529456Y-73093328D02*
X102529456Y-73093328D01*
X102529456Y-73093328D02*
X101886599Y-74593328D01*
X103100884Y-74450471D02*
X103172313Y-74521900D01*
X103172313Y-74521900D02*
X103100884Y-74593328D01*
X103100884Y-74593328D02*
X103029456Y-74521900D01*
X103029456Y-74521900D02*
X103100884Y-74450471D01*
X103100884Y-74450471D02*
X103100884Y-74593328D01*
X104100885Y-73093328D02*
X104243742Y-73093328D01*
X104243742Y-73093328D02*
X104386599Y-73164757D01*
X104386599Y-73164757D02*
X104458028Y-73236185D01*
X104458028Y-73236185D02*
X104529456Y-73379042D01*
X104529456Y-73379042D02*
X104600885Y-73664757D01*
X104600885Y-73664757D02*
X104600885Y-74021900D01*
X104600885Y-74021900D02*
X104529456Y-74307614D01*
X104529456Y-74307614D02*
X104458028Y-74450471D01*
X104458028Y-74450471D02*
X104386599Y-74521900D01*
X104386599Y-74521900D02*
X104243742Y-74593328D01*
X104243742Y-74593328D02*
X104100885Y-74593328D01*
X104100885Y-74593328D02*
X103958028Y-74521900D01*
X103958028Y-74521900D02*
X103886599Y-74450471D01*
X103886599Y-74450471D02*
X103815170Y-74307614D01*
X103815170Y-74307614D02*
X103743742Y-74021900D01*
X103743742Y-74021900D02*
X103743742Y-73664757D01*
X103743742Y-73664757D02*
X103815170Y-73379042D01*
X103815170Y-73379042D02*
X103886599Y-73236185D01*
X103886599Y-73236185D02*
X103958028Y-73164757D01*
X103958028Y-73164757D02*
X104100885Y-73093328D01*
X105243741Y-74450471D02*
X105315170Y-74521900D01*
X105315170Y-74521900D02*
X105243741Y-74593328D01*
X105243741Y-74593328D02*
X105172313Y-74521900D01*
X105172313Y-74521900D02*
X105243741Y-74450471D01*
X105243741Y-74450471D02*
X105243741Y-74593328D01*
X105815170Y-73093328D02*
X106815170Y-73093328D01*
X106815170Y-73093328D02*
X106172313Y-74593328D01*
D10*
D11*
X77002200Y-69507200D02*
X185002200Y-69507200D01*
D10*
D12*
X164413853Y-71785528D02*
X163913853Y-71071242D01*
X163556710Y-71785528D02*
X163556710Y-70285528D01*
X163556710Y-70285528D02*
X164128139Y-70285528D01*
X164128139Y-70285528D02*
X164270996Y-70356957D01*
X164270996Y-70356957D02*
X164342425Y-70428385D01*
X164342425Y-70428385D02*
X164413853Y-70571242D01*
X164413853Y-70571242D02*
X164413853Y-70785528D01*
X164413853Y-70785528D02*
X164342425Y-70928385D01*
X164342425Y-70928385D02*
X164270996Y-70999814D01*
X164270996Y-70999814D02*
X164128139Y-71071242D01*
X164128139Y-71071242D02*
X163556710Y-71071242D01*
X165628139Y-71714100D02*
X165485282Y-71785528D01*
X165485282Y-71785528D02*
X165199568Y-71785528D01*
X165199568Y-71785528D02*
X165056710Y-71714100D01*
X165056710Y-71714100D02*
X164985282Y-71571242D01*
X164985282Y-71571242D02*
X164985282Y-70999814D01*
X164985282Y-70999814D02*
X165056710Y-70856957D01*
X165056710Y-70856957D02*
X165199568Y-70785528D01*
X165199568Y-70785528D02*
X165485282Y-70785528D01*
X165485282Y-70785528D02*
X165628139Y-70856957D01*
X165628139Y-70856957D02*
X165699568Y-70999814D01*
X165699568Y-70999814D02*
X165699568Y-71142671D01*
X165699568Y-71142671D02*
X164985282Y-71285528D01*
X166199567Y-70785528D02*
X166556710Y-71785528D01*
X166556710Y-71785528D02*
X166913853Y-70785528D01*
X167485281Y-71642671D02*
X167556710Y-71714100D01*
X167556710Y-71714100D02*
X167485281Y-71785528D01*
X167485281Y-71785528D02*
X167413853Y-71714100D01*
X167413853Y-71714100D02*
X167485281Y-71642671D01*
X167485281Y-71642671D02*
X167485281Y-71785528D01*
X167485281Y-70856957D02*
X167556710Y-70928385D01*
X167556710Y-70928385D02*
X167485281Y-70999814D01*
X167485281Y-70999814D02*
X167413853Y-70928385D01*
X167413853Y-70928385D02*
X167485281Y-70856957D01*
X167485281Y-70856957D02*
X167485281Y-70999814D01*
X170128139Y-71785528D02*
X169270996Y-71785528D01*
X169699567Y-71785528D02*
X169699567Y-70285528D01*
X169699567Y-70285528D02*
X169556710Y-70499814D01*
X169556710Y-70499814D02*
X169413853Y-70642671D01*
X169413853Y-70642671D02*
X169270996Y-70714100D01*
X170770995Y-71642671D02*
X170842424Y-71714100D01*
X170842424Y-71714100D02*
X170770995Y-71785528D01*
X170770995Y-71785528D02*
X170699567Y-71714100D01*
X170699567Y-71714100D02*
X170770995Y-71642671D01*
X170770995Y-71642671D02*
X170770995Y-71785528D01*
X171770996Y-70285528D02*
X171913853Y-70285528D01*
X171913853Y-70285528D02*
X172056710Y-70356957D01*
X172056710Y-70356957D02*
X172128139Y-70428385D01*
X172128139Y-70428385D02*
X172199567Y-70571242D01*
X172199567Y-70571242D02*
X172270996Y-70856957D01*
X172270996Y-70856957D02*
X172270996Y-71214100D01*
X172270996Y-71214100D02*
X172199567Y-71499814D01*
X172199567Y-71499814D02*
X172128139Y-71642671D01*
X172128139Y-71642671D02*
X172056710Y-71714100D01*
X172056710Y-71714100D02*
X171913853Y-71785528D01*
X171913853Y-71785528D02*
X171770996Y-71785528D01*
X171770996Y-71785528D02*
X171628139Y-71714100D01*
X171628139Y-71714100D02*
X171556710Y-71642671D01*
X171556710Y-71642671D02*
X171485281Y-71499814D01*
X171485281Y-71499814D02*
X171413853Y-71214100D01*
X171413853Y-71214100D02*
X171413853Y-70856957D01*
X171413853Y-70856957D02*
X171485281Y-70571242D01*
X171485281Y-70571242D02*
X171556710Y-70428385D01*
X171556710Y-70428385D02*
X171628139Y-70356957D01*
X171628139Y-70356957D02*
X171770996Y-70285528D01*
D10*
D11*
X78386598Y-71721900D02*
X78600884Y-71793328D01*
X78600884Y-71793328D02*
X78958026Y-71793328D01*
X78958026Y-71793328D02*
X79100884Y-71721900D01*
X79100884Y-71721900D02*
X79172312Y-71650471D01*
X79172312Y-71650471D02*
X79243741Y-71507614D01*
X79243741Y-71507614D02*
X79243741Y-71364757D01*
X79243741Y-71364757D02*
X79172312Y-71221900D01*
X79172312Y-71221900D02*
X79100884Y-71150471D01*
X79100884Y-71150471D02*
X78958026Y-71079042D01*
X78958026Y-71079042D02*
X78672312Y-71007614D01*
X78672312Y-71007614D02*
X78529455Y-70936185D01*
X78529455Y-70936185D02*
X78458026Y-70864757D01*
X78458026Y-70864757D02*
X78386598Y-70721900D01*
X78386598Y-70721900D02*
X78386598Y-70579042D01*
X78386598Y-70579042D02*
X78458026Y-70436185D01*
X78458026Y-70436185D02*
X78529455Y-70364757D01*
X78529455Y-70364757D02*
X78672312Y-70293328D01*
X78672312Y-70293328D02*
X79029455Y-70293328D01*
X79029455Y-70293328D02*
X79243741Y-70364757D01*
X79886597Y-71793328D02*
X79886597Y-70793328D01*
X79886597Y-70293328D02*
X79815169Y-70364757D01*
X79815169Y-70364757D02*
X79886597Y-70436185D01*
X79886597Y-70436185D02*
X79958026Y-70364757D01*
X79958026Y-70364757D02*
X79886597Y-70293328D01*
X79886597Y-70293328D02*
X79886597Y-70436185D01*
X80458026Y-70793328D02*
X81243741Y-70793328D01*
X81243741Y-70793328D02*
X80458026Y-71793328D01*
X80458026Y-71793328D02*
X81243741Y-71793328D01*
X82386598Y-71721900D02*
X82243741Y-71793328D01*
X82243741Y-71793328D02*
X81958027Y-71793328D01*
X81958027Y-71793328D02*
X81815169Y-71721900D01*
X81815169Y-71721900D02*
X81743741Y-71579042D01*
X81743741Y-71579042D02*
X81743741Y-71007614D01*
X81743741Y-71007614D02*
X81815169Y-70864757D01*
X81815169Y-70864757D02*
X81958027Y-70793328D01*
X81958027Y-70793328D02*
X82243741Y-70793328D01*
X82243741Y-70793328D02*
X82386598Y-70864757D01*
X82386598Y-70864757D02*
X82458027Y-71007614D01*
X82458027Y-71007614D02*
X82458027Y-71150471D01*
X82458027Y-71150471D02*
X81743741Y-71293328D01*
X83100883Y-71650471D02*
X83172312Y-71721900D01*
X83172312Y-71721900D02*
X83100883Y-71793328D01*
X83100883Y-71793328D02*
X83029455Y-71721900D01*
X83029455Y-71721900D02*
X83100883Y-71650471D01*
X83100883Y-71650471D02*
X83100883Y-71793328D01*
X83100883Y-70864757D02*
X83172312Y-70936185D01*
X83172312Y-70936185D02*
X83100883Y-71007614D01*
X83100883Y-71007614D02*
X83029455Y-70936185D01*
X83029455Y-70936185D02*
X83100883Y-70864757D01*
X83100883Y-70864757D02*
X83100883Y-71007614D01*
X84886598Y-71364757D02*
X85600884Y-71364757D01*
X84743741Y-71793328D02*
X85243741Y-70293328D01*
X85243741Y-70293328D02*
X85743741Y-71793328D01*
X86886598Y-70793328D02*
X86886598Y-71793328D01*
X86529455Y-70221900D02*
X86172312Y-71293328D01*
X86172312Y-71293328D02*
X87100883Y-71293328D01*
D10*
D11*
X163458026Y-74593328D02*
X163458026Y-73093328D01*
X164815170Y-74593328D02*
X164815170Y-73093328D01*
X164815170Y-74521900D02*
X164672312Y-74593328D01*
X164672312Y-74593328D02*
X164386598Y-74593328D01*
X164386598Y-74593328D02*
X164243741Y-74521900D01*
X164243741Y-74521900D02*
X164172312Y-74450471D01*
X164172312Y-74450471D02*
X164100884Y-74307614D01*
X164100884Y-74307614D02*
X164100884Y-73879042D01*
X164100884Y-73879042D02*
X164172312Y-73736185D01*
X164172312Y-73736185D02*
X164243741Y-73664757D01*
X164243741Y-73664757D02*
X164386598Y-73593328D01*
X164386598Y-73593328D02*
X164672312Y-73593328D01*
X164672312Y-73593328D02*
X164815170Y-73664757D01*
X165529455Y-74450471D02*
X165600884Y-74521900D01*
X165600884Y-74521900D02*
X165529455Y-74593328D01*
X165529455Y-74593328D02*
X165458027Y-74521900D01*
X165458027Y-74521900D02*
X165529455Y-74450471D01*
X165529455Y-74450471D02*
X165529455Y-74593328D01*
X165529455Y-73664757D02*
X165600884Y-73736185D01*
X165600884Y-73736185D02*
X165529455Y-73807614D01*
X165529455Y-73807614D02*
X165458027Y-73736185D01*
X165458027Y-73736185D02*
X165529455Y-73664757D01*
X165529455Y-73664757D02*
X165529455Y-73807614D01*
X168172313Y-74593328D02*
X167315170Y-74593328D01*
X167743741Y-74593328D02*
X167743741Y-73093328D01*
X167743741Y-73093328D02*
X167600884Y-73307614D01*
X167600884Y-73307614D02*
X167458027Y-73450471D01*
X167458027Y-73450471D02*
X167315170Y-73521900D01*
X169886598Y-73021900D02*
X168600884Y-74950471D01*
X171172313Y-74593328D02*
X170315170Y-74593328D01*
X170743741Y-74593328D02*
X170743741Y-73093328D01*
X170743741Y-73093328D02*
X170600884Y-73307614D01*
X170600884Y-73307614D02*
X170458027Y-73450471D01*
X170458027Y-73450471D02*
X170315170Y-73521900D01*
D10*
D11*
X77002200Y-65507200D02*
X185002200Y-65507200D01*
D10*
D13*
X78693928Y-66211638D02*
X79836785Y-66211638D01*
X79015357Y-68211638D02*
X79265357Y-66211638D01*
X80253452Y-68211638D02*
X80420119Y-66878304D01*
X80503452Y-66211638D02*
X80396309Y-66306876D01*
X80396309Y-66306876D02*
X80479643Y-66402114D01*
X80479643Y-66402114D02*
X80586786Y-66306876D01*
X80586786Y-66306876D02*
X80503452Y-66211638D01*
X80503452Y-66211638D02*
X80479643Y-66402114D01*
X81086786Y-66878304D02*
X81848690Y-66878304D01*
X81455833Y-66211638D02*
X81241548Y-67925923D01*
X81241548Y-67925923D02*
X81312976Y-68116400D01*
X81312976Y-68116400D02*
X81491548Y-68211638D01*
X81491548Y-68211638D02*
X81682024Y-68211638D01*
X82634405Y-68211638D02*
X82455833Y-68116400D01*
X82455833Y-68116400D02*
X82384405Y-67925923D01*
X82384405Y-67925923D02*
X82598690Y-66211638D01*
X84170119Y-68116400D02*
X83967738Y-68211638D01*
X83967738Y-68211638D02*
X83586785Y-68211638D01*
X83586785Y-68211638D02*
X83408214Y-68116400D01*
X83408214Y-68116400D02*
X83336785Y-67925923D01*
X83336785Y-67925923D02*
X83432024Y-67164019D01*
X83432024Y-67164019D02*
X83551071Y-66973542D01*
X83551071Y-66973542D02*
X83753452Y-66878304D01*
X83753452Y-66878304D02*
X84134404Y-66878304D01*
X84134404Y-66878304D02*
X84312976Y-66973542D01*
X84312976Y-66973542D02*
X84384404Y-67164019D01*
X84384404Y-67164019D02*
X84360595Y-67354495D01*
X84360595Y-67354495D02*
X83384404Y-67544971D01*
X85134405Y-68021161D02*
X85217738Y-68116400D01*
X85217738Y-68116400D02*
X85110595Y-68211638D01*
X85110595Y-68211638D02*
X85027262Y-68116400D01*
X85027262Y-68116400D02*
X85134405Y-68021161D01*
X85134405Y-68021161D02*
X85110595Y-68211638D01*
X85265357Y-66973542D02*
X85348690Y-67068780D01*
X85348690Y-67068780D02*
X85241548Y-67164019D01*
X85241548Y-67164019D02*
X85158214Y-67068780D01*
X85158214Y-67068780D02*
X85265357Y-66973542D01*
X85265357Y-66973542D02*
X85241548Y-67164019D01*
X87586786Y-68211638D02*
X87753453Y-66878304D01*
X87729643Y-67068780D02*
X87836786Y-66973542D01*
X87836786Y-66973542D02*
X88039167Y-66878304D01*
X88039167Y-66878304D02*
X88324881Y-66878304D01*
X88324881Y-66878304D02*
X88503453Y-66973542D01*
X88503453Y-66973542D02*
X88574881Y-67164019D01*
X88574881Y-67164019D02*
X88443929Y-68211638D01*
X88574881Y-67164019D02*
X88693929Y-66973542D01*
X88693929Y-66973542D02*
X88896310Y-66878304D01*
X88896310Y-66878304D02*
X89182024Y-66878304D01*
X89182024Y-66878304D02*
X89360596Y-66973542D01*
X89360596Y-66973542D02*
X89432024Y-67164019D01*
X89432024Y-67164019D02*
X89301072Y-68211638D01*
X90253453Y-68211638D02*
X90420120Y-66878304D01*
X90503453Y-66211638D02*
X90396310Y-66306876D01*
X90396310Y-66306876D02*
X90479644Y-66402114D01*
X90479644Y-66402114D02*
X90586787Y-66306876D01*
X90586787Y-66306876D02*
X90503453Y-66211638D01*
X90503453Y-66211638D02*
X90479644Y-66402114D01*
X92062977Y-68211638D02*
X92312977Y-66211638D01*
X92074882Y-68116400D02*
X91872501Y-68211638D01*
X91872501Y-68211638D02*
X91491549Y-68211638D01*
X91491549Y-68211638D02*
X91312977Y-68116400D01*
X91312977Y-68116400D02*
X91229644Y-68021161D01*
X91229644Y-68021161D02*
X91158215Y-67830685D01*
X91158215Y-67830685D02*
X91229644Y-67259257D01*
X91229644Y-67259257D02*
X91348691Y-67068780D01*
X91348691Y-67068780D02*
X91455834Y-66973542D01*
X91455834Y-66973542D02*
X91658215Y-66878304D01*
X91658215Y-66878304D02*
X92039168Y-66878304D01*
X92039168Y-66878304D02*
X92217739Y-66973542D01*
X93015358Y-68211638D02*
X93182025Y-66878304D01*
X93265358Y-66211638D02*
X93158215Y-66306876D01*
X93158215Y-66306876D02*
X93241549Y-66402114D01*
X93241549Y-66402114D02*
X93348692Y-66306876D01*
X93348692Y-66306876D02*
X93265358Y-66211638D01*
X93265358Y-66211638D02*
X93241549Y-66402114D01*
X94062977Y-67449733D02*
X95586787Y-67449733D01*
X97301072Y-68211638D02*
X97551072Y-66211638D01*
X97312977Y-68116400D02*
X97110596Y-68211638D01*
X97110596Y-68211638D02*
X96729644Y-68211638D01*
X96729644Y-68211638D02*
X96551072Y-68116400D01*
X96551072Y-68116400D02*
X96467739Y-68021161D01*
X96467739Y-68021161D02*
X96396310Y-67830685D01*
X96396310Y-67830685D02*
X96467739Y-67259257D01*
X96467739Y-67259257D02*
X96586786Y-67068780D01*
X96586786Y-67068780D02*
X96693929Y-66973542D01*
X96693929Y-66973542D02*
X96896310Y-66878304D01*
X96896310Y-66878304D02*
X97277263Y-66878304D01*
X97277263Y-66878304D02*
X97455834Y-66973542D01*
X98253453Y-68211638D02*
X98420120Y-66878304D01*
X98396310Y-67068780D02*
X98503453Y-66973542D01*
X98503453Y-66973542D02*
X98705834Y-66878304D01*
X98705834Y-66878304D02*
X98991548Y-66878304D01*
X98991548Y-66878304D02*
X99170120Y-66973542D01*
X99170120Y-66973542D02*
X99241548Y-67164019D01*
X99241548Y-67164019D02*
X99110596Y-68211638D01*
X99241548Y-67164019D02*
X99360596Y-66973542D01*
X99360596Y-66973542D02*
X99562977Y-66878304D01*
X99562977Y-66878304D02*
X99848691Y-66878304D01*
X99848691Y-66878304D02*
X100027263Y-66973542D01*
X100027263Y-66973542D02*
X100098691Y-67164019D01*
X100098691Y-67164019D02*
X99967739Y-68211638D01*
X100729644Y-68211638D02*
X101943930Y-66878304D01*
X100896311Y-66878304D02*
X101777263Y-68211638D01*
X102039168Y-68402114D02*
X103562978Y-68402114D01*
X104062978Y-68211638D02*
X104312978Y-66211638D01*
X104217740Y-66973542D02*
X104420121Y-66878304D01*
X104420121Y-66878304D02*
X104801073Y-66878304D01*
X104801073Y-66878304D02*
X104979645Y-66973542D01*
X104979645Y-66973542D02*
X105062978Y-67068780D01*
X105062978Y-67068780D02*
X105134407Y-67259257D01*
X105134407Y-67259257D02*
X105062978Y-67830685D01*
X105062978Y-67830685D02*
X104943931Y-68021161D01*
X104943931Y-68021161D02*
X104836788Y-68116400D01*
X104836788Y-68116400D02*
X104634407Y-68211638D01*
X104634407Y-68211638D02*
X104253454Y-68211638D01*
X104253454Y-68211638D02*
X104074883Y-68116400D01*
X105872502Y-68211638D02*
X106039169Y-66878304D01*
X105991550Y-67259257D02*
X106110597Y-67068780D01*
X106110597Y-67068780D02*
X106217740Y-66973542D01*
X106217740Y-66973542D02*
X106420121Y-66878304D01*
X106420121Y-66878304D02*
X106610597Y-66878304D01*
X107110597Y-68211638D02*
X107277264Y-66878304D01*
X107360597Y-66211638D02*
X107253454Y-66306876D01*
X107253454Y-66306876D02*
X107336788Y-66402114D01*
X107336788Y-66402114D02*
X107443931Y-66306876D01*
X107443931Y-66306876D02*
X107360597Y-66211638D01*
X107360597Y-66211638D02*
X107336788Y-66402114D01*
X108920121Y-68211638D02*
X109170121Y-66211638D01*
X108932026Y-68116400D02*
X108729645Y-68211638D01*
X108729645Y-68211638D02*
X108348693Y-68211638D01*
X108348693Y-68211638D02*
X108170121Y-68116400D01*
X108170121Y-68116400D02*
X108086788Y-68021161D01*
X108086788Y-68021161D02*
X108015359Y-67830685D01*
X108015359Y-67830685D02*
X108086788Y-67259257D01*
X108086788Y-67259257D02*
X108205835Y-67068780D01*
X108205835Y-67068780D02*
X108312978Y-66973542D01*
X108312978Y-66973542D02*
X108515359Y-66878304D01*
X108515359Y-66878304D02*
X108896312Y-66878304D01*
X108896312Y-66878304D02*
X109074883Y-66973542D01*
X110896312Y-66878304D02*
X110693931Y-68497352D01*
X110693931Y-68497352D02*
X110574883Y-68687828D01*
X110574883Y-68687828D02*
X110467740Y-68783066D01*
X110467740Y-68783066D02*
X110265359Y-68878304D01*
X110265359Y-68878304D02*
X109979645Y-68878304D01*
X109979645Y-68878304D02*
X109801074Y-68783066D01*
X110741550Y-68116400D02*
X110539169Y-68211638D01*
X110539169Y-68211638D02*
X110158217Y-68211638D01*
X110158217Y-68211638D02*
X109979645Y-68116400D01*
X109979645Y-68116400D02*
X109896312Y-68021161D01*
X109896312Y-68021161D02*
X109824883Y-67830685D01*
X109824883Y-67830685D02*
X109896312Y-67259257D01*
X109896312Y-67259257D02*
X110015359Y-67068780D01*
X110015359Y-67068780D02*
X110122502Y-66973542D01*
X110122502Y-66973542D02*
X110324883Y-66878304D01*
X110324883Y-66878304D02*
X110705836Y-66878304D01*
X110705836Y-66878304D02*
X110884407Y-66973542D01*
X112455836Y-68116400D02*
X112253455Y-68211638D01*
X112253455Y-68211638D02*
X111872502Y-68211638D01*
X111872502Y-68211638D02*
X111693931Y-68116400D01*
X111693931Y-68116400D02*
X111622502Y-67925923D01*
X111622502Y-67925923D02*
X111717741Y-67164019D01*
X111717741Y-67164019D02*
X111836788Y-66973542D01*
X111836788Y-66973542D02*
X112039169Y-66878304D01*
X112039169Y-66878304D02*
X112420121Y-66878304D01*
X112420121Y-66878304D02*
X112598693Y-66973542D01*
X112598693Y-66973542D02*
X112670121Y-67164019D01*
X112670121Y-67164019D02*
X112646312Y-67354495D01*
X112646312Y-67354495D02*
X111670121Y-67544971D01*
D10*
D11*
X78958026Y-63607614D02*
X78458026Y-63607614D01*
X78458026Y-64393328D02*
X78458026Y-62893328D01*
X78458026Y-62893328D02*
X79172312Y-62893328D01*
X79743740Y-64393328D02*
X79743740Y-63393328D01*
X79743740Y-62893328D02*
X79672312Y-62964757D01*
X79672312Y-62964757D02*
X79743740Y-63036185D01*
X79743740Y-63036185D02*
X79815169Y-62964757D01*
X79815169Y-62964757D02*
X79743740Y-62893328D01*
X79743740Y-62893328D02*
X79743740Y-63036185D01*
X80672312Y-64393328D02*
X80529455Y-64321900D01*
X80529455Y-64321900D02*
X80458026Y-64179042D01*
X80458026Y-64179042D02*
X80458026Y-62893328D01*
X81815169Y-64321900D02*
X81672312Y-64393328D01*
X81672312Y-64393328D02*
X81386598Y-64393328D01*
X81386598Y-64393328D02*
X81243740Y-64321900D01*
X81243740Y-64321900D02*
X81172312Y-64179042D01*
X81172312Y-64179042D02*
X81172312Y-63607614D01*
X81172312Y-63607614D02*
X81243740Y-63464757D01*
X81243740Y-63464757D02*
X81386598Y-63393328D01*
X81386598Y-63393328D02*
X81672312Y-63393328D01*
X81672312Y-63393328D02*
X81815169Y-63464757D01*
X81815169Y-63464757D02*
X81886598Y-63607614D01*
X81886598Y-63607614D02*
X81886598Y-63750471D01*
X81886598Y-63750471D02*
X81172312Y-63893328D01*
X82529454Y-64250471D02*
X82600883Y-64321900D01*
X82600883Y-64321900D02*
X82529454Y-64393328D01*
X82529454Y-64393328D02*
X82458026Y-64321900D01*
X82458026Y-64321900D02*
X82529454Y-64250471D01*
X82529454Y-64250471D02*
X82529454Y-64393328D01*
X82529454Y-63464757D02*
X82600883Y-63536185D01*
X82600883Y-63536185D02*
X82529454Y-63607614D01*
X82529454Y-63607614D02*
X82458026Y-63536185D01*
X82458026Y-63536185D02*
X82529454Y-63464757D01*
X82529454Y-63464757D02*
X82529454Y-63607614D01*
X84386597Y-64393328D02*
X84386597Y-63393328D01*
X84386597Y-63536185D02*
X84458026Y-63464757D01*
X84458026Y-63464757D02*
X84600883Y-63393328D01*
X84600883Y-63393328D02*
X84815169Y-63393328D01*
X84815169Y-63393328D02*
X84958026Y-63464757D01*
X84958026Y-63464757D02*
X85029455Y-63607614D01*
X85029455Y-63607614D02*
X85029455Y-64393328D01*
X85029455Y-63607614D02*
X85100883Y-63464757D01*
X85100883Y-63464757D02*
X85243740Y-63393328D01*
X85243740Y-63393328D02*
X85458026Y-63393328D01*
X85458026Y-63393328D02*
X85600883Y-63464757D01*
X85600883Y-63464757D02*
X85672312Y-63607614D01*
X85672312Y-63607614D02*
X85672312Y-64393328D01*
X86386597Y-64393328D02*
X86386597Y-63393328D01*
X86386597Y-62893328D02*
X86315169Y-62964757D01*
X86315169Y-62964757D02*
X86386597Y-63036185D01*
X86386597Y-63036185D02*
X86458026Y-62964757D01*
X86458026Y-62964757D02*
X86386597Y-62893328D01*
X86386597Y-62893328D02*
X86386597Y-63036185D01*
X87743741Y-64393328D02*
X87743741Y-62893328D01*
X87743741Y-64321900D02*
X87600883Y-64393328D01*
X87600883Y-64393328D02*
X87315169Y-64393328D01*
X87315169Y-64393328D02*
X87172312Y-64321900D01*
X87172312Y-64321900D02*
X87100883Y-64250471D01*
X87100883Y-64250471D02*
X87029455Y-64107614D01*
X87029455Y-64107614D02*
X87029455Y-63679042D01*
X87029455Y-63679042D02*
X87100883Y-63536185D01*
X87100883Y-63536185D02*
X87172312Y-63464757D01*
X87172312Y-63464757D02*
X87315169Y-63393328D01*
X87315169Y-63393328D02*
X87600883Y-63393328D01*
X87600883Y-63393328D02*
X87743741Y-63464757D01*
X88458026Y-64393328D02*
X88458026Y-63393328D01*
X88458026Y-62893328D02*
X88386598Y-62964757D01*
X88386598Y-62964757D02*
X88458026Y-63036185D01*
X88458026Y-63036185D02*
X88529455Y-62964757D01*
X88529455Y-62964757D02*
X88458026Y-62893328D01*
X88458026Y-62893328D02*
X88458026Y-63036185D01*
X89172312Y-63821900D02*
X90315170Y-63821900D01*
X91672313Y-64393328D02*
X91672313Y-62893328D01*
X91672313Y-64321900D02*
X91529455Y-64393328D01*
X91529455Y-64393328D02*
X91243741Y-64393328D01*
X91243741Y-64393328D02*
X91100884Y-64321900D01*
X91100884Y-64321900D02*
X91029455Y-64250471D01*
X91029455Y-64250471D02*
X90958027Y-64107614D01*
X90958027Y-64107614D02*
X90958027Y-63679042D01*
X90958027Y-63679042D02*
X91029455Y-63536185D01*
X91029455Y-63536185D02*
X91100884Y-63464757D01*
X91100884Y-63464757D02*
X91243741Y-63393328D01*
X91243741Y-63393328D02*
X91529455Y-63393328D01*
X91529455Y-63393328D02*
X91672313Y-63464757D01*
X92386598Y-64393328D02*
X92386598Y-63393328D01*
X92386598Y-63536185D02*
X92458027Y-63464757D01*
X92458027Y-63464757D02*
X92600884Y-63393328D01*
X92600884Y-63393328D02*
X92815170Y-63393328D01*
X92815170Y-63393328D02*
X92958027Y-63464757D01*
X92958027Y-63464757D02*
X93029456Y-63607614D01*
X93029456Y-63607614D02*
X93029456Y-64393328D01*
X93029456Y-63607614D02*
X93100884Y-63464757D01*
X93100884Y-63464757D02*
X93243741Y-63393328D01*
X93243741Y-63393328D02*
X93458027Y-63393328D01*
X93458027Y-63393328D02*
X93600884Y-63464757D01*
X93600884Y-63464757D02*
X93672313Y-63607614D01*
X93672313Y-63607614D02*
X93672313Y-64393328D01*
X94243741Y-64393328D02*
X95029456Y-63393328D01*
X94243741Y-63393328D02*
X95029456Y-64393328D01*
X95243742Y-64536185D02*
X96386599Y-64536185D01*
X96743741Y-64393328D02*
X96743741Y-62893328D01*
X96743741Y-63464757D02*
X96886599Y-63393328D01*
X96886599Y-63393328D02*
X97172313Y-63393328D01*
X97172313Y-63393328D02*
X97315170Y-63464757D01*
X97315170Y-63464757D02*
X97386599Y-63536185D01*
X97386599Y-63536185D02*
X97458027Y-63679042D01*
X97458027Y-63679042D02*
X97458027Y-64107614D01*
X97458027Y-64107614D02*
X97386599Y-64250471D01*
X97386599Y-64250471D02*
X97315170Y-64321900D01*
X97315170Y-64321900D02*
X97172313Y-64393328D01*
X97172313Y-64393328D02*
X96886599Y-64393328D01*
X96886599Y-64393328D02*
X96743741Y-64321900D01*
X98100884Y-64393328D02*
X98100884Y-63393328D01*
X98100884Y-63679042D02*
X98172313Y-63536185D01*
X98172313Y-63536185D02*
X98243742Y-63464757D01*
X98243742Y-63464757D02*
X98386599Y-63393328D01*
X98386599Y-63393328D02*
X98529456Y-63393328D01*
X99029455Y-64393328D02*
X99029455Y-63393328D01*
X99029455Y-62893328D02*
X98958027Y-62964757D01*
X98958027Y-62964757D02*
X99029455Y-63036185D01*
X99029455Y-63036185D02*
X99100884Y-62964757D01*
X99100884Y-62964757D02*
X99029455Y-62893328D01*
X99029455Y-62893328D02*
X99029455Y-63036185D01*
X100386599Y-64393328D02*
X100386599Y-62893328D01*
X100386599Y-64321900D02*
X100243741Y-64393328D01*
X100243741Y-64393328D02*
X99958027Y-64393328D01*
X99958027Y-64393328D02*
X99815170Y-64321900D01*
X99815170Y-64321900D02*
X99743741Y-64250471D01*
X99743741Y-64250471D02*
X99672313Y-64107614D01*
X99672313Y-64107614D02*
X99672313Y-63679042D01*
X99672313Y-63679042D02*
X99743741Y-63536185D01*
X99743741Y-63536185D02*
X99815170Y-63464757D01*
X99815170Y-63464757D02*
X99958027Y-63393328D01*
X99958027Y-63393328D02*
X100243741Y-63393328D01*
X100243741Y-63393328D02*
X100386599Y-63464757D01*
X101743742Y-63393328D02*
X101743742Y-64607614D01*
X101743742Y-64607614D02*
X101672313Y-64750471D01*
X101672313Y-64750471D02*
X101600884Y-64821900D01*
X101600884Y-64821900D02*
X101458027Y-64893328D01*
X101458027Y-64893328D02*
X101243742Y-64893328D01*
X101243742Y-64893328D02*
X101100884Y-64821900D01*
X101743742Y-64321900D02*
X101600884Y-64393328D01*
X101600884Y-64393328D02*
X101315170Y-64393328D01*
X101315170Y-64393328D02*
X101172313Y-64321900D01*
X101172313Y-64321900D02*
X101100884Y-64250471D01*
X101100884Y-64250471D02*
X101029456Y-64107614D01*
X101029456Y-64107614D02*
X101029456Y-63679042D01*
X101029456Y-63679042D02*
X101100884Y-63536185D01*
X101100884Y-63536185D02*
X101172313Y-63464757D01*
X101172313Y-63464757D02*
X101315170Y-63393328D01*
X101315170Y-63393328D02*
X101600884Y-63393328D01*
X101600884Y-63393328D02*
X101743742Y-63464757D01*
X103029456Y-64321900D02*
X102886599Y-64393328D01*
X102886599Y-64393328D02*
X102600885Y-64393328D01*
X102600885Y-64393328D02*
X102458027Y-64321900D01*
X102458027Y-64321900D02*
X102386599Y-64179042D01*
X102386599Y-64179042D02*
X102386599Y-63607614D01*
X102386599Y-63607614D02*
X102458027Y-63464757D01*
X102458027Y-63464757D02*
X102600885Y-63393328D01*
X102600885Y-63393328D02*
X102886599Y-63393328D01*
X102886599Y-63393328D02*
X103029456Y-63464757D01*
X103029456Y-63464757D02*
X103100885Y-63607614D01*
X103100885Y-63607614D02*
X103100885Y-63750471D01*
X103100885Y-63750471D02*
X102386599Y-63893328D01*
X103743741Y-64250471D02*
X103815170Y-64321900D01*
X103815170Y-64321900D02*
X103743741Y-64393328D01*
X103743741Y-64393328D02*
X103672313Y-64321900D01*
X103672313Y-64321900D02*
X103743741Y-64250471D01*
X103743741Y-64250471D02*
X103743741Y-64393328D01*
X104458027Y-64393328D02*
X104458027Y-62893328D01*
X104600885Y-63821900D02*
X105029456Y-64393328D01*
X105029456Y-63393328D02*
X104458027Y-63964757D01*
X105672313Y-64393328D02*
X105672313Y-63393328D01*
X105672313Y-62893328D02*
X105600885Y-62964757D01*
X105600885Y-62964757D02*
X105672313Y-63036185D01*
X105672313Y-63036185D02*
X105743742Y-62964757D01*
X105743742Y-62964757D02*
X105672313Y-62893328D01*
X105672313Y-62893328D02*
X105672313Y-63036185D01*
X107029457Y-64321900D02*
X106886599Y-64393328D01*
X106886599Y-64393328D02*
X106600885Y-64393328D01*
X106600885Y-64393328D02*
X106458028Y-64321900D01*
X106458028Y-64321900D02*
X106386599Y-64250471D01*
X106386599Y-64250471D02*
X106315171Y-64107614D01*
X106315171Y-64107614D02*
X106315171Y-63679042D01*
X106315171Y-63679042D02*
X106386599Y-63536185D01*
X106386599Y-63536185D02*
X106458028Y-63464757D01*
X106458028Y-63464757D02*
X106600885Y-63393328D01*
X106600885Y-63393328D02*
X106886599Y-63393328D01*
X106886599Y-63393328D02*
X107029457Y-63464757D01*
X108315171Y-64393328D02*
X108315171Y-63607614D01*
X108315171Y-63607614D02*
X108243742Y-63464757D01*
X108243742Y-63464757D02*
X108100885Y-63393328D01*
X108100885Y-63393328D02*
X107815171Y-63393328D01*
X107815171Y-63393328D02*
X107672313Y-63464757D01*
X108315171Y-64321900D02*
X108172313Y-64393328D01*
X108172313Y-64393328D02*
X107815171Y-64393328D01*
X107815171Y-64393328D02*
X107672313Y-64321900D01*
X107672313Y-64321900D02*
X107600885Y-64179042D01*
X107600885Y-64179042D02*
X107600885Y-64036185D01*
X107600885Y-64036185D02*
X107672313Y-63893328D01*
X107672313Y-63893328D02*
X107815171Y-63821900D01*
X107815171Y-63821900D02*
X108172313Y-63821900D01*
X108172313Y-63821900D02*
X108315171Y-63750471D01*
X109672314Y-64393328D02*
X109672314Y-62893328D01*
X109672314Y-64321900D02*
X109529456Y-64393328D01*
X109529456Y-64393328D02*
X109243742Y-64393328D01*
X109243742Y-64393328D02*
X109100885Y-64321900D01*
X109100885Y-64321900D02*
X109029456Y-64250471D01*
X109029456Y-64250471D02*
X108958028Y-64107614D01*
X108958028Y-64107614D02*
X108958028Y-63679042D01*
X108958028Y-63679042D02*
X109029456Y-63536185D01*
X109029456Y-63536185D02*
X109100885Y-63464757D01*
X109100885Y-63464757D02*
X109243742Y-63393328D01*
X109243742Y-63393328D02*
X109529456Y-63393328D01*
X109529456Y-63393328D02*
X109672314Y-63464757D01*
X110029457Y-64536185D02*
X111172314Y-64536185D01*
X111529456Y-63393328D02*
X111529456Y-64893328D01*
X111529456Y-63464757D02*
X111672314Y-63393328D01*
X111672314Y-63393328D02*
X111958028Y-63393328D01*
X111958028Y-63393328D02*
X112100885Y-63464757D01*
X112100885Y-63464757D02*
X112172314Y-63536185D01*
X112172314Y-63536185D02*
X112243742Y-63679042D01*
X112243742Y-63679042D02*
X112243742Y-64107614D01*
X112243742Y-64107614D02*
X112172314Y-64250471D01*
X112172314Y-64250471D02*
X112100885Y-64321900D01*
X112100885Y-64321900D02*
X111958028Y-64393328D01*
X111958028Y-64393328D02*
X111672314Y-64393328D01*
X111672314Y-64393328D02*
X111529456Y-64321900D01*
X113529457Y-64321900D02*
X113386599Y-64393328D01*
X113386599Y-64393328D02*
X113100885Y-64393328D01*
X113100885Y-64393328D02*
X112958028Y-64321900D01*
X112958028Y-64321900D02*
X112886599Y-64250471D01*
X112886599Y-64250471D02*
X112815171Y-64107614D01*
X112815171Y-64107614D02*
X112815171Y-63679042D01*
X112815171Y-63679042D02*
X112886599Y-63536185D01*
X112886599Y-63536185D02*
X112958028Y-63464757D01*
X112958028Y-63464757D02*
X113100885Y-63393328D01*
X113100885Y-63393328D02*
X113386599Y-63393328D01*
X113386599Y-63393328D02*
X113529457Y-63464757D01*
X114172313Y-64393328D02*
X114172313Y-62893328D01*
X114172313Y-63464757D02*
X114315171Y-63393328D01*
X114315171Y-63393328D02*
X114600885Y-63393328D01*
X114600885Y-63393328D02*
X114743742Y-63464757D01*
X114743742Y-63464757D02*
X114815171Y-63536185D01*
X114815171Y-63536185D02*
X114886599Y-63679042D01*
X114886599Y-63679042D02*
X114886599Y-64107614D01*
X114886599Y-64107614D02*
X114815171Y-64250471D01*
X114815171Y-64250471D02*
X114743742Y-64321900D01*
X114743742Y-64321900D02*
X114600885Y-64393328D01*
X114600885Y-64393328D02*
X114315171Y-64393328D01*
X114315171Y-64393328D02*
X114172313Y-64321900D01*
D10*
D11*
X77002200Y-59507200D02*
X185002200Y-59507200D01*
D10*
D11*
X78386598Y-61621900D02*
X78600884Y-61693328D01*
X78600884Y-61693328D02*
X78958026Y-61693328D01*
X78958026Y-61693328D02*
X79100884Y-61621900D01*
X79100884Y-61621900D02*
X79172312Y-61550471D01*
X79172312Y-61550471D02*
X79243741Y-61407614D01*
X79243741Y-61407614D02*
X79243741Y-61264757D01*
X79243741Y-61264757D02*
X79172312Y-61121900D01*
X79172312Y-61121900D02*
X79100884Y-61050471D01*
X79100884Y-61050471D02*
X78958026Y-60979042D01*
X78958026Y-60979042D02*
X78672312Y-60907614D01*
X78672312Y-60907614D02*
X78529455Y-60836185D01*
X78529455Y-60836185D02*
X78458026Y-60764757D01*
X78458026Y-60764757D02*
X78386598Y-60621900D01*
X78386598Y-60621900D02*
X78386598Y-60479042D01*
X78386598Y-60479042D02*
X78458026Y-60336185D01*
X78458026Y-60336185D02*
X78529455Y-60264757D01*
X78529455Y-60264757D02*
X78672312Y-60193328D01*
X78672312Y-60193328D02*
X79029455Y-60193328D01*
X79029455Y-60193328D02*
X79243741Y-60264757D01*
X79886597Y-61693328D02*
X79886597Y-60193328D01*
X80529455Y-61693328D02*
X80529455Y-60907614D01*
X80529455Y-60907614D02*
X80458026Y-60764757D01*
X80458026Y-60764757D02*
X80315169Y-60693328D01*
X80315169Y-60693328D02*
X80100883Y-60693328D01*
X80100883Y-60693328D02*
X79958026Y-60764757D01*
X79958026Y-60764757D02*
X79886597Y-60836185D01*
X81815169Y-61621900D02*
X81672312Y-61693328D01*
X81672312Y-61693328D02*
X81386598Y-61693328D01*
X81386598Y-61693328D02*
X81243740Y-61621900D01*
X81243740Y-61621900D02*
X81172312Y-61479042D01*
X81172312Y-61479042D02*
X81172312Y-60907614D01*
X81172312Y-60907614D02*
X81243740Y-60764757D01*
X81243740Y-60764757D02*
X81386598Y-60693328D01*
X81386598Y-60693328D02*
X81672312Y-60693328D01*
X81672312Y-60693328D02*
X81815169Y-60764757D01*
X81815169Y-60764757D02*
X81886598Y-60907614D01*
X81886598Y-60907614D02*
X81886598Y-61050471D01*
X81886598Y-61050471D02*
X81172312Y-61193328D01*
X83100883Y-61621900D02*
X82958026Y-61693328D01*
X82958026Y-61693328D02*
X82672312Y-61693328D01*
X82672312Y-61693328D02*
X82529454Y-61621900D01*
X82529454Y-61621900D02*
X82458026Y-61479042D01*
X82458026Y-61479042D02*
X82458026Y-60907614D01*
X82458026Y-60907614D02*
X82529454Y-60764757D01*
X82529454Y-60764757D02*
X82672312Y-60693328D01*
X82672312Y-60693328D02*
X82958026Y-60693328D01*
X82958026Y-60693328D02*
X83100883Y-60764757D01*
X83100883Y-60764757D02*
X83172312Y-60907614D01*
X83172312Y-60907614D02*
X83172312Y-61050471D01*
X83172312Y-61050471D02*
X82458026Y-61193328D01*
X83600883Y-60693328D02*
X84172311Y-60693328D01*
X83815168Y-60193328D02*
X83815168Y-61479042D01*
X83815168Y-61479042D02*
X83886597Y-61621900D01*
X83886597Y-61621900D02*
X84029454Y-61693328D01*
X84029454Y-61693328D02*
X84172311Y-61693328D01*
X84672311Y-61550471D02*
X84743740Y-61621900D01*
X84743740Y-61621900D02*
X84672311Y-61693328D01*
X84672311Y-61693328D02*
X84600883Y-61621900D01*
X84600883Y-61621900D02*
X84672311Y-61550471D01*
X84672311Y-61550471D02*
X84672311Y-61693328D01*
X84672311Y-60764757D02*
X84743740Y-60836185D01*
X84743740Y-60836185D02*
X84672311Y-60907614D01*
X84672311Y-60907614D02*
X84600883Y-60836185D01*
X84600883Y-60836185D02*
X84672311Y-60764757D01*
X84672311Y-60764757D02*
X84672311Y-60907614D01*
D10*
D12*
X79413853Y-58542671D02*
X79342425Y-58614100D01*
X79342425Y-58614100D02*
X79128139Y-58685528D01*
X79128139Y-58685528D02*
X78985282Y-58685528D01*
X78985282Y-58685528D02*
X78770996Y-58614100D01*
X78770996Y-58614100D02*
X78628139Y-58471242D01*
X78628139Y-58471242D02*
X78556710Y-58328385D01*
X78556710Y-58328385D02*
X78485282Y-58042671D01*
X78485282Y-58042671D02*
X78485282Y-57828385D01*
X78485282Y-57828385D02*
X78556710Y-57542671D01*
X78556710Y-57542671D02*
X78628139Y-57399814D01*
X78628139Y-57399814D02*
X78770996Y-57256957D01*
X78770996Y-57256957D02*
X78985282Y-57185528D01*
X78985282Y-57185528D02*
X79128139Y-57185528D01*
X79128139Y-57185528D02*
X79342425Y-57256957D01*
X79342425Y-57256957D02*
X79413853Y-57328385D01*
X80056710Y-58685528D02*
X80056710Y-57185528D01*
X80699568Y-58685528D02*
X80699568Y-57899814D01*
X80699568Y-57899814D02*
X80628139Y-57756957D01*
X80628139Y-57756957D02*
X80485282Y-57685528D01*
X80485282Y-57685528D02*
X80270996Y-57685528D01*
X80270996Y-57685528D02*
X80128139Y-57756957D01*
X80128139Y-57756957D02*
X80056710Y-57828385D01*
X81413853Y-58685528D02*
X81413853Y-57685528D01*
X81413853Y-57971242D02*
X81485282Y-57828385D01*
X81485282Y-57828385D02*
X81556711Y-57756957D01*
X81556711Y-57756957D02*
X81699568Y-57685528D01*
X81699568Y-57685528D02*
X81842425Y-57685528D01*
X82342424Y-58685528D02*
X82342424Y-57685528D01*
X82342424Y-57185528D02*
X82270996Y-57256957D01*
X82270996Y-57256957D02*
X82342424Y-57328385D01*
X82342424Y-57328385D02*
X82413853Y-57256957D01*
X82413853Y-57256957D02*
X82342424Y-57185528D01*
X82342424Y-57185528D02*
X82342424Y-57328385D01*
X82985282Y-58614100D02*
X83128139Y-58685528D01*
X83128139Y-58685528D02*
X83413853Y-58685528D01*
X83413853Y-58685528D02*
X83556710Y-58614100D01*
X83556710Y-58614100D02*
X83628139Y-58471242D01*
X83628139Y-58471242D02*
X83628139Y-58399814D01*
X83628139Y-58399814D02*
X83556710Y-58256957D01*
X83556710Y-58256957D02*
X83413853Y-58185528D01*
X83413853Y-58185528D02*
X83199568Y-58185528D01*
X83199568Y-58185528D02*
X83056710Y-58114100D01*
X83056710Y-58114100D02*
X82985282Y-57971242D01*
X82985282Y-57971242D02*
X82985282Y-57899814D01*
X82985282Y-57899814D02*
X83056710Y-57756957D01*
X83056710Y-57756957D02*
X83199568Y-57685528D01*
X83199568Y-57685528D02*
X83413853Y-57685528D01*
X83413853Y-57685528D02*
X83556710Y-57756957D01*
X84056711Y-57685528D02*
X84628139Y-57685528D01*
X84270996Y-57185528D02*
X84270996Y-58471242D01*
X84270996Y-58471242D02*
X84342425Y-58614100D01*
X84342425Y-58614100D02*
X84485282Y-58685528D01*
X84485282Y-58685528D02*
X84628139Y-58685528D01*
X85128139Y-58685528D02*
X85128139Y-57685528D01*
X85128139Y-57185528D02*
X85056711Y-57256957D01*
X85056711Y-57256957D02*
X85128139Y-57328385D01*
X85128139Y-57328385D02*
X85199568Y-57256957D01*
X85199568Y-57256957D02*
X85128139Y-57185528D01*
X85128139Y-57185528D02*
X85128139Y-57328385D01*
X86485283Y-58685528D02*
X86485283Y-57899814D01*
X86485283Y-57899814D02*
X86413854Y-57756957D01*
X86413854Y-57756957D02*
X86270997Y-57685528D01*
X86270997Y-57685528D02*
X85985283Y-57685528D01*
X85985283Y-57685528D02*
X85842425Y-57756957D01*
X86485283Y-58614100D02*
X86342425Y-58685528D01*
X86342425Y-58685528D02*
X85985283Y-58685528D01*
X85985283Y-58685528D02*
X85842425Y-58614100D01*
X85842425Y-58614100D02*
X85770997Y-58471242D01*
X85770997Y-58471242D02*
X85770997Y-58328385D01*
X85770997Y-58328385D02*
X85842425Y-58185528D01*
X85842425Y-58185528D02*
X85985283Y-58114100D01*
X85985283Y-58114100D02*
X86342425Y-58114100D01*
X86342425Y-58114100D02*
X86485283Y-58042671D01*
X87199568Y-57685528D02*
X87199568Y-58685528D01*
X87199568Y-57828385D02*
X87270997Y-57756957D01*
X87270997Y-57756957D02*
X87413854Y-57685528D01*
X87413854Y-57685528D02*
X87628140Y-57685528D01*
X87628140Y-57685528D02*
X87770997Y-57756957D01*
X87770997Y-57756957D02*
X87842426Y-57899814D01*
X87842426Y-57899814D02*
X87842426Y-58685528D01*
X89699568Y-58685528D02*
X89699568Y-57185528D01*
X89699568Y-57185528D02*
X90556711Y-58685528D01*
X90556711Y-58685528D02*
X90556711Y-57185528D01*
X91842426Y-58614100D02*
X91699569Y-58685528D01*
X91699569Y-58685528D02*
X91413855Y-58685528D01*
X91413855Y-58685528D02*
X91270997Y-58614100D01*
X91270997Y-58614100D02*
X91199569Y-58471242D01*
X91199569Y-58471242D02*
X91199569Y-57899814D01*
X91199569Y-57899814D02*
X91270997Y-57756957D01*
X91270997Y-57756957D02*
X91413855Y-57685528D01*
X91413855Y-57685528D02*
X91699569Y-57685528D01*
X91699569Y-57685528D02*
X91842426Y-57756957D01*
X91842426Y-57756957D02*
X91913855Y-57899814D01*
X91913855Y-57899814D02*
X91913855Y-58042671D01*
X91913855Y-58042671D02*
X91199569Y-58185528D01*
X93199569Y-57685528D02*
X93199569Y-58685528D01*
X92556711Y-57685528D02*
X92556711Y-58471242D01*
X92556711Y-58471242D02*
X92628140Y-58614100D01*
X92628140Y-58614100D02*
X92770997Y-58685528D01*
X92770997Y-58685528D02*
X92985283Y-58685528D01*
X92985283Y-58685528D02*
X93128140Y-58614100D01*
X93128140Y-58614100D02*
X93199569Y-58542671D01*
X93913854Y-58685528D02*
X93913854Y-57185528D01*
X94056712Y-58114100D02*
X94485283Y-58685528D01*
X94485283Y-57685528D02*
X93913854Y-58256957D01*
X95770998Y-58685528D02*
X95770998Y-57899814D01*
X95770998Y-57899814D02*
X95699569Y-57756957D01*
X95699569Y-57756957D02*
X95556712Y-57685528D01*
X95556712Y-57685528D02*
X95270998Y-57685528D01*
X95270998Y-57685528D02*
X95128140Y-57756957D01*
X95770998Y-58614100D02*
X95628140Y-58685528D01*
X95628140Y-58685528D02*
X95270998Y-58685528D01*
X95270998Y-58685528D02*
X95128140Y-58614100D01*
X95128140Y-58614100D02*
X95056712Y-58471242D01*
X95056712Y-58471242D02*
X95056712Y-58328385D01*
X95056712Y-58328385D02*
X95128140Y-58185528D01*
X95128140Y-58185528D02*
X95270998Y-58114100D01*
X95270998Y-58114100D02*
X95628140Y-58114100D01*
X95628140Y-58114100D02*
X95770998Y-58042671D01*
X96485283Y-58685528D02*
X96485283Y-57685528D01*
X96485283Y-57828385D02*
X96556712Y-57756957D01*
X96556712Y-57756957D02*
X96699569Y-57685528D01*
X96699569Y-57685528D02*
X96913855Y-57685528D01*
X96913855Y-57685528D02*
X97056712Y-57756957D01*
X97056712Y-57756957D02*
X97128141Y-57899814D01*
X97128141Y-57899814D02*
X97128141Y-58685528D01*
X97128141Y-57899814D02*
X97199569Y-57756957D01*
X97199569Y-57756957D02*
X97342426Y-57685528D01*
X97342426Y-57685528D02*
X97556712Y-57685528D01*
X97556712Y-57685528D02*
X97699569Y-57756957D01*
X97699569Y-57756957D02*
X97770998Y-57899814D01*
X97770998Y-57899814D02*
X97770998Y-58685528D01*
D10*
D11*
D10*
D11*
D10*
D11*
D10*
D11*
D10*
D11*
X97002200Y-69507200D02*
X97002200Y-72507200D01*
D10*
D11*
X161002200Y-69507200D02*
X161002200Y-76007200D01*
D14*
X47300000Y11600000D02*
G75*
G03*
X47300000Y11600000I-300000J0D01*
G01*
D15*
X12572500Y35514000D02*
X11672500Y34914000D01*
X11672500Y36214000D01*
X12572500Y35514000D01*
G36*
X12572500Y35514000D02*
G01*
X11672500Y34914000D01*
X11672500Y36214000D01*
X12572500Y35514000D01*
G37*
X53600000Y42600000D02*
X53000000Y43500000D01*
X54300000Y43500000D01*
X53600000Y42600000D01*
G36*
X53600000Y42600000D02*
G01*
X53000000Y43500000D01*
X54300000Y43500000D01*
X53600000Y42600000D01*
G37*
D13*
X53700000Y17600000D02*
G75*
G03*
X53700000Y17600000I-200000J0D01*
G01*
D14*
X19100000Y11600000D02*
G75*
G03*
X19100000Y11600000I-300000J0D01*
G01*
D15*
X12572500Y15814000D02*
X11672500Y15214000D01*
X11672500Y16514000D01*
X12572500Y15814000D01*
G36*
X12572500Y15814000D02*
G01*
X11672500Y15214000D01*
X11672500Y16514000D01*
X12572500Y15814000D01*
G37*
D12*
X24501796Y36199172D02*
X24501796Y37699172D01*
X24501796Y37699172D02*
X25001796Y36627743D01*
X25001796Y36627743D02*
X25501796Y37699172D01*
X25501796Y37699172D02*
X25501796Y36199172D01*
X26216082Y36199172D02*
X26216082Y37699172D01*
X26930368Y36199172D02*
X26930368Y37699172D01*
X26930368Y37699172D02*
X27287511Y37699172D01*
X27287511Y37699172D02*
X27501797Y37627743D01*
X27501797Y37627743D02*
X27644654Y37484886D01*
X27644654Y37484886D02*
X27716083Y37342029D01*
X27716083Y37342029D02*
X27787511Y37056315D01*
X27787511Y37056315D02*
X27787511Y36842029D01*
X27787511Y36842029D02*
X27716083Y36556315D01*
X27716083Y36556315D02*
X27644654Y36413458D01*
X27644654Y36413458D02*
X27501797Y36270600D01*
X27501797Y36270600D02*
X27287511Y36199172D01*
X27287511Y36199172D02*
X26930368Y36199172D01*
X28430368Y36199172D02*
X28430368Y37699172D01*
X29144654Y36770600D02*
X30287512Y36770600D01*
X31001797Y36199172D02*
X31001797Y37699172D01*
X31001797Y37699172D02*
X31358940Y37699172D01*
X31358940Y37699172D02*
X31573226Y37627743D01*
X31573226Y37627743D02*
X31716083Y37484886D01*
X31716083Y37484886D02*
X31787512Y37342029D01*
X31787512Y37342029D02*
X31858940Y37056315D01*
X31858940Y37056315D02*
X31858940Y36842029D01*
X31858940Y36842029D02*
X31787512Y36556315D01*
X31787512Y36556315D02*
X31716083Y36413458D01*
X31716083Y36413458D02*
X31573226Y36270600D01*
X31573226Y36270600D02*
X31358940Y36199172D01*
X31358940Y36199172D02*
X31001797Y36199172D01*
X32501797Y36199172D02*
X32501797Y37699172D01*
X32501797Y37699172D02*
X33001797Y36627743D01*
X33001797Y36627743D02*
X33501797Y37699172D01*
X33501797Y37699172D02*
X33501797Y36199172D01*
X34073226Y37699172D02*
X35073226Y36199172D01*
X35073226Y37699172D02*
X34073226Y36199172D01*
X37287511Y36984886D02*
X37501797Y36913458D01*
X37501797Y36913458D02*
X37573226Y36842029D01*
X37573226Y36842029D02*
X37644654Y36699172D01*
X37644654Y36699172D02*
X37644654Y36484886D01*
X37644654Y36484886D02*
X37573226Y36342029D01*
X37573226Y36342029D02*
X37501797Y36270600D01*
X37501797Y36270600D02*
X37358940Y36199172D01*
X37358940Y36199172D02*
X36787511Y36199172D01*
X36787511Y36199172D02*
X36787511Y37699172D01*
X36787511Y37699172D02*
X37287511Y37699172D01*
X37287511Y37699172D02*
X37430369Y37627743D01*
X37430369Y37627743D02*
X37501797Y37556315D01*
X37501797Y37556315D02*
X37573226Y37413458D01*
X37573226Y37413458D02*
X37573226Y37270600D01*
X37573226Y37270600D02*
X37501797Y37127743D01*
X37501797Y37127743D02*
X37430369Y37056315D01*
X37430369Y37056315D02*
X37287511Y36984886D01*
X37287511Y36984886D02*
X36787511Y36984886D01*
X38287511Y36199172D02*
X38287511Y37199172D01*
X38287511Y36913458D02*
X38358940Y37056315D01*
X38358940Y37056315D02*
X38430369Y37127743D01*
X38430369Y37127743D02*
X38573226Y37199172D01*
X38573226Y37199172D02*
X38716083Y37199172D01*
X39216082Y36199172D02*
X39216082Y37199172D01*
X39216082Y37699172D02*
X39144654Y37627743D01*
X39144654Y37627743D02*
X39216082Y37556315D01*
X39216082Y37556315D02*
X39287511Y37627743D01*
X39287511Y37627743D02*
X39216082Y37699172D01*
X39216082Y37699172D02*
X39216082Y37556315D01*
X40573226Y36199172D02*
X40573226Y37699172D01*
X40573226Y36270600D02*
X40430368Y36199172D01*
X40430368Y36199172D02*
X40144654Y36199172D01*
X40144654Y36199172D02*
X40001797Y36270600D01*
X40001797Y36270600D02*
X39930368Y36342029D01*
X39930368Y36342029D02*
X39858940Y36484886D01*
X39858940Y36484886D02*
X39858940Y36913458D01*
X39858940Y36913458D02*
X39930368Y37056315D01*
X39930368Y37056315D02*
X40001797Y37127743D01*
X40001797Y37127743D02*
X40144654Y37199172D01*
X40144654Y37199172D02*
X40430368Y37199172D01*
X40430368Y37199172D02*
X40573226Y37127743D01*
X41930369Y37199172D02*
X41930369Y35984886D01*
X41930369Y35984886D02*
X41858940Y35842029D01*
X41858940Y35842029D02*
X41787511Y35770600D01*
X41787511Y35770600D02*
X41644654Y35699172D01*
X41644654Y35699172D02*
X41430369Y35699172D01*
X41430369Y35699172D02*
X41287511Y35770600D01*
X41930369Y36270600D02*
X41787511Y36199172D01*
X41787511Y36199172D02*
X41501797Y36199172D01*
X41501797Y36199172D02*
X41358940Y36270600D01*
X41358940Y36270600D02*
X41287511Y36342029D01*
X41287511Y36342029D02*
X41216083Y36484886D01*
X41216083Y36484886D02*
X41216083Y36913458D01*
X41216083Y36913458D02*
X41287511Y37056315D01*
X41287511Y37056315D02*
X41358940Y37127743D01*
X41358940Y37127743D02*
X41501797Y37199172D01*
X41501797Y37199172D02*
X41787511Y37199172D01*
X41787511Y37199172D02*
X41930369Y37127743D01*
X43216083Y36270600D02*
X43073226Y36199172D01*
X43073226Y36199172D02*
X42787512Y36199172D01*
X42787512Y36199172D02*
X42644654Y36270600D01*
X42644654Y36270600D02*
X42573226Y36413458D01*
X42573226Y36413458D02*
X42573226Y36984886D01*
X42573226Y36984886D02*
X42644654Y37127743D01*
X42644654Y37127743D02*
X42787512Y37199172D01*
X42787512Y37199172D02*
X43073226Y37199172D01*
X43073226Y37199172D02*
X43216083Y37127743D01*
X43216083Y37127743D02*
X43287512Y36984886D01*
X43287512Y36984886D02*
X43287512Y36842029D01*
X43287512Y36842029D02*
X42573226Y36699172D01*
X44930368Y37199172D02*
X45287511Y36199172D01*
X45287511Y36199172D02*
X45644654Y37199172D01*
X47001797Y36199172D02*
X46144654Y36199172D01*
X46573225Y36199172D02*
X46573225Y37699172D01*
X46573225Y37699172D02*
X46430368Y37484886D01*
X46430368Y37484886D02*
X46287511Y37342029D01*
X46287511Y37342029D02*
X46144654Y37270600D01*
X47644653Y36342029D02*
X47716082Y36270600D01*
X47716082Y36270600D02*
X47644653Y36199172D01*
X47644653Y36199172D02*
X47573225Y36270600D01*
X47573225Y36270600D02*
X47644653Y36342029D01*
X47644653Y36342029D02*
X47644653Y36199172D01*
X48644654Y37699172D02*
X48787511Y37699172D01*
X48787511Y37699172D02*
X48930368Y37627743D01*
X48930368Y37627743D02*
X49001797Y37556315D01*
X49001797Y37556315D02*
X49073225Y37413458D01*
X49073225Y37413458D02*
X49144654Y37127743D01*
X49144654Y37127743D02*
X49144654Y36770600D01*
X49144654Y36770600D02*
X49073225Y36484886D01*
X49073225Y36484886D02*
X49001797Y36342029D01*
X49001797Y36342029D02*
X48930368Y36270600D01*
X48930368Y36270600D02*
X48787511Y36199172D01*
X48787511Y36199172D02*
X48644654Y36199172D01*
X48644654Y36199172D02*
X48501797Y36270600D01*
X48501797Y36270600D02*
X48430368Y36342029D01*
X48430368Y36342029D02*
X48358939Y36484886D01*
X48358939Y36484886D02*
X48287511Y36770600D01*
X48287511Y36770600D02*
X48287511Y37127743D01*
X48287511Y37127743D02*
X48358939Y37413458D01*
X48358939Y37413458D02*
X48430368Y37556315D01*
X48430368Y37556315D02*
X48501797Y37627743D01*
X48501797Y37627743D02*
X48644654Y37699172D01*
D16*
X1367869Y11980154D02*
X367869Y11980154D01*
X367869Y11980154D02*
X1082154Y12313487D01*
X1082154Y12313487D02*
X367869Y12646820D01*
X367869Y12646820D02*
X1367869Y12646820D01*
X1367869Y13123011D02*
X367869Y13123011D01*
X1367869Y13599201D02*
X367869Y13599201D01*
X367869Y13599201D02*
X367869Y13837296D01*
X367869Y13837296D02*
X415488Y13980153D01*
X415488Y13980153D02*
X510726Y14075391D01*
X510726Y14075391D02*
X605964Y14123010D01*
X605964Y14123010D02*
X796440Y14170629D01*
X796440Y14170629D02*
X939297Y14170629D01*
X939297Y14170629D02*
X1129773Y14123010D01*
X1129773Y14123010D02*
X1225011Y14075391D01*
X1225011Y14075391D02*
X1320250Y13980153D01*
X1320250Y13980153D02*
X1367869Y13837296D01*
X1367869Y13837296D02*
X1367869Y13599201D01*
X1367869Y14599201D02*
X367869Y14599201D01*
X1367869Y15837296D02*
X367869Y15837296D01*
X701202Y16313486D02*
X1367869Y16313486D01*
X796440Y16313486D02*
X748821Y16361105D01*
X748821Y16361105D02*
X701202Y16456343D01*
X701202Y16456343D02*
X701202Y16599200D01*
X701202Y16599200D02*
X748821Y16694438D01*
X748821Y16694438D02*
X844059Y16742057D01*
X844059Y16742057D02*
X1367869Y16742057D01*
D11*
X15309523Y14540420D02*
X15261904Y14492800D01*
X15261904Y14492800D02*
X15119047Y14445181D01*
X15119047Y14445181D02*
X15023809Y14445181D01*
X15023809Y14445181D02*
X14880952Y14492800D01*
X14880952Y14492800D02*
X14785714Y14588039D01*
X14785714Y14588039D02*
X14738095Y14683277D01*
X14738095Y14683277D02*
X14690476Y14873753D01*
X14690476Y14873753D02*
X14690476Y15016610D01*
X14690476Y15016610D02*
X14738095Y15207086D01*
X14738095Y15207086D02*
X14785714Y15302324D01*
X14785714Y15302324D02*
X14880952Y15397562D01*
X14880952Y15397562D02*
X15023809Y15445181D01*
X15023809Y15445181D02*
X15119047Y15445181D01*
X15119047Y15445181D02*
X15261904Y15397562D01*
X15261904Y15397562D02*
X15309523Y15349943D01*
D16*
X35138831Y1429750D02*
X35281688Y1382131D01*
X35281688Y1382131D02*
X35519783Y1382131D01*
X35519783Y1382131D02*
X35615021Y1429750D01*
X35615021Y1429750D02*
X35662640Y1477370D01*
X35662640Y1477370D02*
X35710259Y1572608D01*
X35710259Y1572608D02*
X35710259Y1667846D01*
X35710259Y1667846D02*
X35662640Y1763084D01*
X35662640Y1763084D02*
X35615021Y1810703D01*
X35615021Y1810703D02*
X35519783Y1858322D01*
X35519783Y1858322D02*
X35329307Y1905941D01*
X35329307Y1905941D02*
X35234069Y1953560D01*
X35234069Y1953560D02*
X35186450Y2001179D01*
X35186450Y2001179D02*
X35138831Y2096417D01*
X35138831Y2096417D02*
X35138831Y2191655D01*
X35138831Y2191655D02*
X35186450Y2286893D01*
X35186450Y2286893D02*
X35234069Y2334512D01*
X35234069Y2334512D02*
X35329307Y2382131D01*
X35329307Y2382131D02*
X35567402Y2382131D01*
X35567402Y2382131D02*
X35710259Y2334512D01*
X36043593Y2048798D02*
X36234069Y1382131D01*
X36234069Y1382131D02*
X36424545Y1858322D01*
X36424545Y1858322D02*
X36615021Y1382131D01*
X36615021Y1382131D02*
X36805497Y2048798D01*
X37186450Y1382131D02*
X37186450Y2048798D01*
X37186450Y2382131D02*
X37138831Y2334512D01*
X37138831Y2334512D02*
X37186450Y2286893D01*
X37186450Y2286893D02*
X37234069Y2334512D01*
X37234069Y2334512D02*
X37186450Y2382131D01*
X37186450Y2382131D02*
X37186450Y2286893D01*
X37519783Y2048798D02*
X37900735Y2048798D01*
X37662640Y2382131D02*
X37662640Y1524989D01*
X37662640Y1524989D02*
X37710259Y1429750D01*
X37710259Y1429750D02*
X37805497Y1382131D01*
X37805497Y1382131D02*
X37900735Y1382131D01*
X38662640Y1429750D02*
X38567402Y1382131D01*
X38567402Y1382131D02*
X38376926Y1382131D01*
X38376926Y1382131D02*
X38281688Y1429750D01*
X38281688Y1429750D02*
X38234069Y1477370D01*
X38234069Y1477370D02*
X38186450Y1572608D01*
X38186450Y1572608D02*
X38186450Y1858322D01*
X38186450Y1858322D02*
X38234069Y1953560D01*
X38234069Y1953560D02*
X38281688Y2001179D01*
X38281688Y2001179D02*
X38376926Y2048798D01*
X38376926Y2048798D02*
X38567402Y2048798D01*
X38567402Y2048798D02*
X38662640Y2001179D01*
X39091212Y1382131D02*
X39091212Y2382131D01*
X39519783Y1382131D02*
X39519783Y1905941D01*
X39519783Y1905941D02*
X39472164Y2001179D01*
X39472164Y2001179D02*
X39376926Y2048798D01*
X39376926Y2048798D02*
X39234069Y2048798D01*
X39234069Y2048798D02*
X39138831Y2001179D01*
X39138831Y2001179D02*
X39091212Y1953560D01*
X19224010Y37308693D02*
X19224010Y38308693D01*
X19224010Y38308693D02*
X19604962Y38308693D01*
X19604962Y38308693D02*
X19700200Y38261074D01*
X19700200Y38261074D02*
X19747819Y38213455D01*
X19747819Y38213455D02*
X19795438Y38118217D01*
X19795438Y38118217D02*
X19795438Y37975360D01*
X19795438Y37975360D02*
X19747819Y37880122D01*
X19747819Y37880122D02*
X19700200Y37832503D01*
X19700200Y37832503D02*
X19604962Y37784884D01*
X19604962Y37784884D02*
X19224010Y37784884D01*
X20366867Y37308693D02*
X20271629Y37356312D01*
X20271629Y37356312D02*
X20224010Y37403932D01*
X20224010Y37403932D02*
X20176391Y37499170D01*
X20176391Y37499170D02*
X20176391Y37784884D01*
X20176391Y37784884D02*
X20224010Y37880122D01*
X20224010Y37880122D02*
X20271629Y37927741D01*
X20271629Y37927741D02*
X20366867Y37975360D01*
X20366867Y37975360D02*
X20509724Y37975360D01*
X20509724Y37975360D02*
X20604962Y37927741D01*
X20604962Y37927741D02*
X20652581Y37880122D01*
X20652581Y37880122D02*
X20700200Y37784884D01*
X20700200Y37784884D02*
X20700200Y37499170D01*
X20700200Y37499170D02*
X20652581Y37403932D01*
X20652581Y37403932D02*
X20604962Y37356312D01*
X20604962Y37356312D02*
X20509724Y37308693D01*
X20509724Y37308693D02*
X20366867Y37308693D01*
X20985915Y37975360D02*
X21366867Y37975360D01*
X21128772Y38308693D02*
X21128772Y37451551D01*
X21128772Y37451551D02*
X21176391Y37356312D01*
X21176391Y37356312D02*
X21271629Y37308693D01*
X21271629Y37308693D02*
X21366867Y37308693D01*
X21700201Y37308693D02*
X21700201Y37975360D01*
X21700201Y38308693D02*
X21652582Y38261074D01*
X21652582Y38261074D02*
X21700201Y38213455D01*
X21700201Y38213455D02*
X21747820Y38261074D01*
X21747820Y38261074D02*
X21700201Y38308693D01*
X21700201Y38308693D02*
X21700201Y38213455D01*
X64367869Y30941153D02*
X63367869Y30941153D01*
X63367869Y30941153D02*
X63367869Y31179248D01*
X63367869Y31179248D02*
X63415488Y31322105D01*
X63415488Y31322105D02*
X63510726Y31417343D01*
X63510726Y31417343D02*
X63605964Y31464962D01*
X63605964Y31464962D02*
X63796440Y31512581D01*
X63796440Y31512581D02*
X63939297Y31512581D01*
X63939297Y31512581D02*
X64129773Y31464962D01*
X64129773Y31464962D02*
X64225011Y31417343D01*
X64225011Y31417343D02*
X64320250Y31322105D01*
X64320250Y31322105D02*
X64367869Y31179248D01*
X64367869Y31179248D02*
X64367869Y30941153D01*
X64367869Y31941153D02*
X63367869Y31941153D01*
X63367869Y31941153D02*
X64082154Y32274486D01*
X64082154Y32274486D02*
X63367869Y32607819D01*
X63367869Y32607819D02*
X64367869Y32607819D01*
X63367869Y32988772D02*
X64367869Y33655438D01*
X63367869Y33655438D02*
X64367869Y32988772D01*
X63367869Y34988772D02*
X63367869Y35179248D01*
X63367869Y35179248D02*
X63415488Y35274486D01*
X63415488Y35274486D02*
X63510726Y35369724D01*
X63510726Y35369724D02*
X63701202Y35417343D01*
X63701202Y35417343D02*
X64034535Y35417343D01*
X64034535Y35417343D02*
X64225011Y35369724D01*
X64225011Y35369724D02*
X64320250Y35274486D01*
X64320250Y35274486D02*
X64367869Y35179248D01*
X64367869Y35179248D02*
X64367869Y34988772D01*
X64367869Y34988772D02*
X64320250Y34893534D01*
X64320250Y34893534D02*
X64225011Y34798296D01*
X64225011Y34798296D02*
X64034535Y34750677D01*
X64034535Y34750677D02*
X63701202Y34750677D01*
X63701202Y34750677D02*
X63510726Y34798296D01*
X63510726Y34798296D02*
X63415488Y34893534D01*
X63415488Y34893534D02*
X63367869Y34988772D01*
X63701202Y36274486D02*
X64367869Y36274486D01*
X63701202Y35845915D02*
X64225011Y35845915D01*
X64225011Y35845915D02*
X64320250Y35893534D01*
X64320250Y35893534D02*
X64367869Y35988772D01*
X64367869Y35988772D02*
X64367869Y36131629D01*
X64367869Y36131629D02*
X64320250Y36226867D01*
X64320250Y36226867D02*
X64272630Y36274486D01*
X63701202Y36607820D02*
X63701202Y36988772D01*
X63367869Y36750677D02*
X64225011Y36750677D01*
X64225011Y36750677D02*
X64320250Y36798296D01*
X64320250Y36798296D02*
X64367869Y36893534D01*
X64367869Y36893534D02*
X64367869Y36988772D01*
D11*
X52326419Y39862977D02*
X52278800Y39910596D01*
X52278800Y39910596D02*
X52231180Y40053453D01*
X52231180Y40053453D02*
X52231180Y40148691D01*
X52231180Y40148691D02*
X52278800Y40291548D01*
X52278800Y40291548D02*
X52374038Y40386786D01*
X52374038Y40386786D02*
X52469276Y40434405D01*
X52469276Y40434405D02*
X52659752Y40482024D01*
X52659752Y40482024D02*
X52802609Y40482024D01*
X52802609Y40482024D02*
X52993085Y40434405D01*
X52993085Y40434405D02*
X53088323Y40386786D01*
X53088323Y40386786D02*
X53183561Y40291548D01*
X53183561Y40291548D02*
X53231180Y40148691D01*
X53231180Y40148691D02*
X53231180Y40053453D01*
X53231180Y40053453D02*
X53183561Y39910596D01*
X53183561Y39910596D02*
X53135942Y39862977D01*
D16*
X1367869Y32837772D02*
X367869Y32837772D01*
X367869Y32837772D02*
X367869Y33218724D01*
X367869Y33218724D02*
X415488Y33313962D01*
X415488Y33313962D02*
X463107Y33361581D01*
X463107Y33361581D02*
X558345Y33409200D01*
X558345Y33409200D02*
X701202Y33409200D01*
X701202Y33409200D02*
X796440Y33361581D01*
X796440Y33361581D02*
X844059Y33313962D01*
X844059Y33313962D02*
X891678Y33218724D01*
X891678Y33218724D02*
X891678Y32837772D01*
X367869Y33742534D02*
X1367869Y33980629D01*
X1367869Y33980629D02*
X653583Y34171105D01*
X653583Y34171105D02*
X1367869Y34361581D01*
X1367869Y34361581D02*
X367869Y34599676D01*
X1367869Y35552057D02*
X891678Y35218724D01*
X1367869Y34980629D02*
X367869Y34980629D01*
X367869Y34980629D02*
X367869Y35361581D01*
X367869Y35361581D02*
X415488Y35456819D01*
X415488Y35456819D02*
X463107Y35504438D01*
X463107Y35504438D02*
X558345Y35552057D01*
X558345Y35552057D02*
X701202Y35552057D01*
X701202Y35552057D02*
X796440Y35504438D01*
X796440Y35504438D02*
X844059Y35456819D01*
X844059Y35456819D02*
X891678Y35361581D01*
X891678Y35361581D02*
X891678Y34980629D01*
X1367869Y20258248D02*
X367869Y20258248D01*
X367869Y20258248D02*
X1082154Y20591581D01*
X1082154Y20591581D02*
X367869Y20924914D01*
X367869Y20924914D02*
X1367869Y20924914D01*
X1367869Y21401105D02*
X367869Y21401105D01*
X1367869Y21877295D02*
X367869Y21877295D01*
X367869Y21877295D02*
X367869Y22115390D01*
X367869Y22115390D02*
X415488Y22258247D01*
X415488Y22258247D02*
X510726Y22353485D01*
X510726Y22353485D02*
X605964Y22401104D01*
X605964Y22401104D02*
X796440Y22448723D01*
X796440Y22448723D02*
X939297Y22448723D01*
X939297Y22448723D02*
X1129773Y22401104D01*
X1129773Y22401104D02*
X1225011Y22353485D01*
X1225011Y22353485D02*
X1320250Y22258247D01*
X1320250Y22258247D02*
X1367869Y22115390D01*
X1367869Y22115390D02*
X1367869Y21877295D01*
X1367869Y22877295D02*
X367869Y22877295D01*
X367869Y23972533D02*
X367869Y24543961D01*
X1367869Y24258247D02*
X367869Y24258247D01*
X1367869Y24877295D02*
X367869Y24877295D01*
X1367869Y25305866D02*
X844059Y25305866D01*
X844059Y25305866D02*
X748821Y25258247D01*
X748821Y25258247D02*
X701202Y25163009D01*
X701202Y25163009D02*
X701202Y25020152D01*
X701202Y25020152D02*
X748821Y24924914D01*
X748821Y24924914D02*
X796440Y24877295D01*
X1367869Y25782057D02*
X701202Y25782057D01*
X891678Y25782057D02*
X796440Y25829676D01*
X796440Y25829676D02*
X748821Y25877295D01*
X748821Y25877295D02*
X701202Y25972533D01*
X701202Y25972533D02*
X701202Y26067771D01*
X1367869Y26543962D02*
X1320250Y26448724D01*
X1320250Y26448724D02*
X1272630Y26401105D01*
X1272630Y26401105D02*
X1177392Y26353486D01*
X1177392Y26353486D02*
X891678Y26353486D01*
X891678Y26353486D02*
X796440Y26401105D01*
X796440Y26401105D02*
X748821Y26448724D01*
X748821Y26448724D02*
X701202Y26543962D01*
X701202Y26543962D02*
X701202Y26686819D01*
X701202Y26686819D02*
X748821Y26782057D01*
X748821Y26782057D02*
X796440Y26829676D01*
X796440Y26829676D02*
X891678Y26877295D01*
X891678Y26877295D02*
X1177392Y26877295D01*
X1177392Y26877295D02*
X1272630Y26829676D01*
X1272630Y26829676D02*
X1320250Y26782057D01*
X1320250Y26782057D02*
X1367869Y26686819D01*
X1367869Y26686819D02*
X1367869Y26543962D01*
X701202Y27734438D02*
X1367869Y27734438D01*
X701202Y27305867D02*
X1225011Y27305867D01*
X1225011Y27305867D02*
X1320250Y27353486D01*
X1320250Y27353486D02*
X1367869Y27448724D01*
X1367869Y27448724D02*
X1367869Y27591581D01*
X1367869Y27591581D02*
X1320250Y27686819D01*
X1320250Y27686819D02*
X1272630Y27734438D01*
X701202Y28639200D02*
X1510726Y28639200D01*
X1510726Y28639200D02*
X1605964Y28591581D01*
X1605964Y28591581D02*
X1653583Y28543962D01*
X1653583Y28543962D02*
X1701202Y28448724D01*
X1701202Y28448724D02*
X1701202Y28305867D01*
X1701202Y28305867D02*
X1653583Y28210629D01*
X1320250Y28639200D02*
X1367869Y28543962D01*
X1367869Y28543962D02*
X1367869Y28353486D01*
X1367869Y28353486D02*
X1320250Y28258248D01*
X1320250Y28258248D02*
X1272630Y28210629D01*
X1272630Y28210629D02*
X1177392Y28163010D01*
X1177392Y28163010D02*
X891678Y28163010D01*
X891678Y28163010D02*
X796440Y28210629D01*
X796440Y28210629D02*
X748821Y28258248D01*
X748821Y28258248D02*
X701202Y28353486D01*
X701202Y28353486D02*
X701202Y28543962D01*
X701202Y28543962D02*
X748821Y28639200D01*
X1367869Y29115391D02*
X367869Y29115391D01*
X1367869Y29543962D02*
X844059Y29543962D01*
X844059Y29543962D02*
X748821Y29496343D01*
X748821Y29496343D02*
X701202Y29401105D01*
X701202Y29401105D02*
X701202Y29258248D01*
X701202Y29258248D02*
X748821Y29163010D01*
X748821Y29163010D02*
X796440Y29115391D01*
D11*
X15309523Y34240420D02*
X15261904Y34192800D01*
X15261904Y34192800D02*
X15119047Y34145181D01*
X15119047Y34145181D02*
X15023809Y34145181D01*
X15023809Y34145181D02*
X14880952Y34192800D01*
X14880952Y34192800D02*
X14785714Y34288039D01*
X14785714Y34288039D02*
X14738095Y34383277D01*
X14738095Y34383277D02*
X14690476Y34573753D01*
X14690476Y34573753D02*
X14690476Y34716610D01*
X14690476Y34716610D02*
X14738095Y34907086D01*
X14738095Y34907086D02*
X14785714Y35002324D01*
X14785714Y35002324D02*
X14880952Y35097562D01*
X14880952Y35097562D02*
X15023809Y35145181D01*
X15023809Y35145181D02*
X15119047Y35145181D01*
X15119047Y35145181D02*
X15261904Y35097562D01*
X15261904Y35097562D02*
X15309523Y35049943D01*
X33974819Y5831772D02*
X33498628Y5498439D01*
X33974819Y5260344D02*
X32974819Y5260344D01*
X32974819Y5260344D02*
X32974819Y5641296D01*
X32974819Y5641296D02*
X33022438Y5736534D01*
X33022438Y5736534D02*
X33070057Y5784153D01*
X33070057Y5784153D02*
X33165295Y5831772D01*
X33165295Y5831772D02*
X33308152Y5831772D01*
X33308152Y5831772D02*
X33403390Y5784153D01*
X33403390Y5784153D02*
X33451009Y5736534D01*
X33451009Y5736534D02*
X33498628Y5641296D01*
X33498628Y5641296D02*
X33498628Y5260344D01*
X33308152Y6688915D02*
X33974819Y6688915D01*
X32927200Y6450820D02*
X33641485Y6212725D01*
X33641485Y6212725D02*
X33641485Y6831772D01*
X48343571Y14020181D02*
X48534047Y14020181D01*
X48534047Y14020181D02*
X48629285Y13972562D01*
X48629285Y13972562D02*
X48724523Y13877324D01*
X48724523Y13877324D02*
X48772142Y13686848D01*
X48772142Y13686848D02*
X48772142Y13353515D01*
X48772142Y13353515D02*
X48724523Y13163039D01*
X48724523Y13163039D02*
X48629285Y13067800D01*
X48629285Y13067800D02*
X48534047Y13020181D01*
X48534047Y13020181D02*
X48343571Y13020181D01*
X48343571Y13020181D02*
X48248333Y13067800D01*
X48248333Y13067800D02*
X48153095Y13163039D01*
X48153095Y13163039D02*
X48105476Y13353515D01*
X48105476Y13353515D02*
X48105476Y13686848D01*
X48105476Y13686848D02*
X48153095Y13877324D01*
X48153095Y13877324D02*
X48248333Y13972562D01*
X48248333Y13972562D02*
X48343571Y14020181D01*
X49772142Y13115420D02*
X49724523Y13067800D01*
X49724523Y13067800D02*
X49581666Y13020181D01*
X49581666Y13020181D02*
X49486428Y13020181D01*
X49486428Y13020181D02*
X49343571Y13067800D01*
X49343571Y13067800D02*
X49248333Y13163039D01*
X49248333Y13163039D02*
X49200714Y13258277D01*
X49200714Y13258277D02*
X49153095Y13448753D01*
X49153095Y13448753D02*
X49153095Y13591610D01*
X49153095Y13591610D02*
X49200714Y13782086D01*
X49200714Y13782086D02*
X49248333Y13877324D01*
X49248333Y13877324D02*
X49343571Y13972562D01*
X49343571Y13972562D02*
X49486428Y14020181D01*
X49486428Y14020181D02*
X49581666Y14020181D01*
X49581666Y14020181D02*
X49724523Y13972562D01*
X49724523Y13972562D02*
X49772142Y13924943D01*
X50153095Y13924943D02*
X50200714Y13972562D01*
X50200714Y13972562D02*
X50295952Y14020181D01*
X50295952Y14020181D02*
X50534047Y14020181D01*
X50534047Y14020181D02*
X50629285Y13972562D01*
X50629285Y13972562D02*
X50676904Y13924943D01*
X50676904Y13924943D02*
X50724523Y13829705D01*
X50724523Y13829705D02*
X50724523Y13734467D01*
X50724523Y13734467D02*
X50676904Y13591610D01*
X50676904Y13591610D02*
X50105476Y13020181D01*
X50105476Y13020181D02*
X50724523Y13020181D01*
X11913333Y25074181D02*
X11580000Y25550372D01*
X11341905Y25074181D02*
X11341905Y26074181D01*
X11341905Y26074181D02*
X11722857Y26074181D01*
X11722857Y26074181D02*
X11818095Y26026562D01*
X11818095Y26026562D02*
X11865714Y25978943D01*
X11865714Y25978943D02*
X11913333Y25883705D01*
X11913333Y25883705D02*
X11913333Y25740848D01*
X11913333Y25740848D02*
X11865714Y25645610D01*
X11865714Y25645610D02*
X11818095Y25597991D01*
X11818095Y25597991D02*
X11722857Y25550372D01*
X11722857Y25550372D02*
X11341905Y25550372D01*
X12294286Y25978943D02*
X12341905Y26026562D01*
X12341905Y26026562D02*
X12437143Y26074181D01*
X12437143Y26074181D02*
X12675238Y26074181D01*
X12675238Y26074181D02*
X12770476Y26026562D01*
X12770476Y26026562D02*
X12818095Y25978943D01*
X12818095Y25978943D02*
X12865714Y25883705D01*
X12865714Y25883705D02*
X12865714Y25788467D01*
X12865714Y25788467D02*
X12818095Y25645610D01*
X12818095Y25645610D02*
X12246667Y25074181D01*
X12246667Y25074181D02*
X12865714Y25074181D01*
X40440580Y42860834D02*
X40488200Y42813215D01*
X40488200Y42813215D02*
X40535819Y42670358D01*
X40535819Y42670358D02*
X40535819Y42575120D01*
X40535819Y42575120D02*
X40488200Y42432263D01*
X40488200Y42432263D02*
X40392961Y42337025D01*
X40392961Y42337025D02*
X40297723Y42289406D01*
X40297723Y42289406D02*
X40107247Y42241787D01*
X40107247Y42241787D02*
X39964390Y42241787D01*
X39964390Y42241787D02*
X39773914Y42289406D01*
X39773914Y42289406D02*
X39678676Y42337025D01*
X39678676Y42337025D02*
X39583438Y42432263D01*
X39583438Y42432263D02*
X39535819Y42575120D01*
X39535819Y42575120D02*
X39535819Y42670358D01*
X39535819Y42670358D02*
X39583438Y42813215D01*
X39583438Y42813215D02*
X39631057Y42860834D01*
X39535819Y43717977D02*
X39535819Y43527501D01*
X39535819Y43527501D02*
X39583438Y43432263D01*
X39583438Y43432263D02*
X39631057Y43384644D01*
X39631057Y43384644D02*
X39773914Y43289406D01*
X39773914Y43289406D02*
X39964390Y43241787D01*
X39964390Y43241787D02*
X40345342Y43241787D01*
X40345342Y43241787D02*
X40440580Y43289406D01*
X40440580Y43289406D02*
X40488200Y43337025D01*
X40488200Y43337025D02*
X40535819Y43432263D01*
X40535819Y43432263D02*
X40535819Y43622739D01*
X40535819Y43622739D02*
X40488200Y43717977D01*
X40488200Y43717977D02*
X40440580Y43765596D01*
X40440580Y43765596D02*
X40345342Y43813215D01*
X40345342Y43813215D02*
X40107247Y43813215D01*
X40107247Y43813215D02*
X40012009Y43765596D01*
X40012009Y43765596D02*
X39964390Y43717977D01*
X39964390Y43717977D02*
X39916771Y43622739D01*
X39916771Y43622739D02*
X39916771Y43432263D01*
X39916771Y43432263D02*
X39964390Y43337025D01*
X39964390Y43337025D02*
X40012009Y43289406D01*
X40012009Y43289406D02*
X40107247Y43241787D01*
X11913333Y28954181D02*
X11580000Y29430372D01*
X11341905Y28954181D02*
X11341905Y29954181D01*
X11341905Y29954181D02*
X11722857Y29954181D01*
X11722857Y29954181D02*
X11818095Y29906562D01*
X11818095Y29906562D02*
X11865714Y29858943D01*
X11865714Y29858943D02*
X11913333Y29763705D01*
X11913333Y29763705D02*
X11913333Y29620848D01*
X11913333Y29620848D02*
X11865714Y29525610D01*
X11865714Y29525610D02*
X11818095Y29477991D01*
X11818095Y29477991D02*
X11722857Y29430372D01*
X11722857Y29430372D02*
X11341905Y29430372D01*
X12246667Y29954181D02*
X12865714Y29954181D01*
X12865714Y29954181D02*
X12532381Y29573229D01*
X12532381Y29573229D02*
X12675238Y29573229D01*
X12675238Y29573229D02*
X12770476Y29525610D01*
X12770476Y29525610D02*
X12818095Y29477991D01*
X12818095Y29477991D02*
X12865714Y29382753D01*
X12865714Y29382753D02*
X12865714Y29144658D01*
X12865714Y29144658D02*
X12818095Y29049420D01*
X12818095Y29049420D02*
X12770476Y29001800D01*
X12770476Y29001800D02*
X12675238Y28954181D01*
X12675238Y28954181D02*
X12389524Y28954181D01*
X12389524Y28954181D02*
X12294286Y29001800D01*
X12294286Y29001800D02*
X12246667Y29049420D01*
X30334819Y13233334D02*
X29858628Y12900001D01*
X30334819Y12661906D02*
X29334819Y12661906D01*
X29334819Y12661906D02*
X29334819Y13042858D01*
X29334819Y13042858D02*
X29382438Y13138096D01*
X29382438Y13138096D02*
X29430057Y13185715D01*
X29430057Y13185715D02*
X29525295Y13233334D01*
X29525295Y13233334D02*
X29668152Y13233334D01*
X29668152Y13233334D02*
X29763390Y13185715D01*
X29763390Y13185715D02*
X29811009Y13138096D01*
X29811009Y13138096D02*
X29858628Y13042858D01*
X29858628Y13042858D02*
X29858628Y12661906D01*
X29334819Y14138096D02*
X29334819Y13661906D01*
X29334819Y13661906D02*
X29811009Y13614287D01*
X29811009Y13614287D02*
X29763390Y13661906D01*
X29763390Y13661906D02*
X29715771Y13757144D01*
X29715771Y13757144D02*
X29715771Y13995239D01*
X29715771Y13995239D02*
X29763390Y14090477D01*
X29763390Y14090477D02*
X29811009Y14138096D01*
X29811009Y14138096D02*
X29906247Y14185715D01*
X29906247Y14185715D02*
X30144342Y14185715D01*
X30144342Y14185715D02*
X30239580Y14138096D01*
X30239580Y14138096D02*
X30287200Y14090477D01*
X30287200Y14090477D02*
X30334819Y13995239D01*
X30334819Y13995239D02*
X30334819Y13757144D01*
X30334819Y13757144D02*
X30287200Y13661906D01*
X30287200Y13661906D02*
X30239580Y13614287D01*
X11361905Y36845181D02*
X11361905Y37845181D01*
X11361905Y37845181D02*
X11600000Y37845181D01*
X11600000Y37845181D02*
X11742857Y37797562D01*
X11742857Y37797562D02*
X11838095Y37702324D01*
X11838095Y37702324D02*
X11885714Y37607086D01*
X11885714Y37607086D02*
X11933333Y37416610D01*
X11933333Y37416610D02*
X11933333Y37273753D01*
X11933333Y37273753D02*
X11885714Y37083277D01*
X11885714Y37083277D02*
X11838095Y36988039D01*
X11838095Y36988039D02*
X11742857Y36892800D01*
X11742857Y36892800D02*
X11600000Y36845181D01*
X11600000Y36845181D02*
X11361905Y36845181D01*
X12266667Y37845181D02*
X12885714Y37845181D01*
X12885714Y37845181D02*
X12552381Y37464229D01*
X12552381Y37464229D02*
X12695238Y37464229D01*
X12695238Y37464229D02*
X12790476Y37416610D01*
X12790476Y37416610D02*
X12838095Y37368991D01*
X12838095Y37368991D02*
X12885714Y37273753D01*
X12885714Y37273753D02*
X12885714Y37035658D01*
X12885714Y37035658D02*
X12838095Y36940420D01*
X12838095Y36940420D02*
X12790476Y36892800D01*
X12790476Y36892800D02*
X12695238Y36845181D01*
X12695238Y36845181D02*
X12409524Y36845181D01*
X12409524Y36845181D02*
X12314286Y36892800D01*
X12314286Y36892800D02*
X12266667Y36940420D01*
X11903333Y32979420D02*
X11855714Y32931800D01*
X11855714Y32931800D02*
X11712857Y32884181D01*
X11712857Y32884181D02*
X11617619Y32884181D01*
X11617619Y32884181D02*
X11474762Y32931800D01*
X11474762Y32931800D02*
X11379524Y33027039D01*
X11379524Y33027039D02*
X11331905Y33122277D01*
X11331905Y33122277D02*
X11284286Y33312753D01*
X11284286Y33312753D02*
X11284286Y33455610D01*
X11284286Y33455610D02*
X11331905Y33646086D01*
X11331905Y33646086D02*
X11379524Y33741324D01*
X11379524Y33741324D02*
X11474762Y33836562D01*
X11474762Y33836562D02*
X11617619Y33884181D01*
X11617619Y33884181D02*
X11712857Y33884181D01*
X11712857Y33884181D02*
X11855714Y33836562D01*
X11855714Y33836562D02*
X11903333Y33788943D01*
X12284286Y33788943D02*
X12331905Y33836562D01*
X12331905Y33836562D02*
X12427143Y33884181D01*
X12427143Y33884181D02*
X12665238Y33884181D01*
X12665238Y33884181D02*
X12760476Y33836562D01*
X12760476Y33836562D02*
X12808095Y33788943D01*
X12808095Y33788943D02*
X12855714Y33693705D01*
X12855714Y33693705D02*
X12855714Y33598467D01*
X12855714Y33598467D02*
X12808095Y33455610D01*
X12808095Y33455610D02*
X12236667Y32884181D01*
X12236667Y32884181D02*
X12855714Y32884181D01*
X48286580Y42860834D02*
X48334200Y42813215D01*
X48334200Y42813215D02*
X48381819Y42670358D01*
X48381819Y42670358D02*
X48381819Y42575120D01*
X48381819Y42575120D02*
X48334200Y42432263D01*
X48334200Y42432263D02*
X48238961Y42337025D01*
X48238961Y42337025D02*
X48143723Y42289406D01*
X48143723Y42289406D02*
X47953247Y42241787D01*
X47953247Y42241787D02*
X47810390Y42241787D01*
X47810390Y42241787D02*
X47619914Y42289406D01*
X47619914Y42289406D02*
X47524676Y42337025D01*
X47524676Y42337025D02*
X47429438Y42432263D01*
X47429438Y42432263D02*
X47381819Y42575120D01*
X47381819Y42575120D02*
X47381819Y42670358D01*
X47381819Y42670358D02*
X47429438Y42813215D01*
X47429438Y42813215D02*
X47477057Y42860834D01*
X47715152Y43717977D02*
X48381819Y43717977D01*
X47334200Y43479882D02*
X48048485Y43241787D01*
X48048485Y43241787D02*
X48048485Y43860834D01*
X11913333Y13324181D02*
X11580000Y13800372D01*
X11341905Y13324181D02*
X11341905Y14324181D01*
X11341905Y14324181D02*
X11722857Y14324181D01*
X11722857Y14324181D02*
X11818095Y14276562D01*
X11818095Y14276562D02*
X11865714Y14228943D01*
X11865714Y14228943D02*
X11913333Y14133705D01*
X11913333Y14133705D02*
X11913333Y13990848D01*
X11913333Y13990848D02*
X11865714Y13895610D01*
X11865714Y13895610D02*
X11818095Y13847991D01*
X11818095Y13847991D02*
X11722857Y13800372D01*
X11722857Y13800372D02*
X11341905Y13800372D01*
X12865714Y13324181D02*
X12294286Y13324181D01*
X12580000Y13324181D02*
X12580000Y14324181D01*
X12580000Y14324181D02*
X12484762Y14181324D01*
X12484762Y14181324D02*
X12389524Y14086086D01*
X12389524Y14086086D02*
X12294286Y14038467D01*
X52154819Y42311906D02*
X51154819Y42311906D01*
X51154819Y42311906D02*
X51154819Y42550001D01*
X51154819Y42550001D02*
X51202438Y42692858D01*
X51202438Y42692858D02*
X51297676Y42788096D01*
X51297676Y42788096D02*
X51392914Y42835715D01*
X51392914Y42835715D02*
X51583390Y42883334D01*
X51583390Y42883334D02*
X51726247Y42883334D01*
X51726247Y42883334D02*
X51916723Y42835715D01*
X51916723Y42835715D02*
X52011961Y42788096D01*
X52011961Y42788096D02*
X52107200Y42692858D01*
X52107200Y42692858D02*
X52154819Y42550001D01*
X52154819Y42550001D02*
X52154819Y42311906D01*
X51250057Y43264287D02*
X51202438Y43311906D01*
X51202438Y43311906D02*
X51154819Y43407144D01*
X51154819Y43407144D02*
X51154819Y43645239D01*
X51154819Y43645239D02*
X51202438Y43740477D01*
X51202438Y43740477D02*
X51250057Y43788096D01*
X51250057Y43788096D02*
X51345295Y43835715D01*
X51345295Y43835715D02*
X51440533Y43835715D01*
X51440533Y43835715D02*
X51583390Y43788096D01*
X51583390Y43788096D02*
X52154819Y43216668D01*
X52154819Y43216668D02*
X52154819Y43835715D01*
X52474819Y20848811D02*
X51474819Y20848811D01*
X52379580Y21896429D02*
X52427200Y21848810D01*
X52427200Y21848810D02*
X52474819Y21705953D01*
X52474819Y21705953D02*
X52474819Y21610715D01*
X52474819Y21610715D02*
X52427200Y21467858D01*
X52427200Y21467858D02*
X52331961Y21372620D01*
X52331961Y21372620D02*
X52236723Y21325001D01*
X52236723Y21325001D02*
X52046247Y21277382D01*
X52046247Y21277382D02*
X51903390Y21277382D01*
X51903390Y21277382D02*
X51712914Y21325001D01*
X51712914Y21325001D02*
X51617676Y21372620D01*
X51617676Y21372620D02*
X51522438Y21467858D01*
X51522438Y21467858D02*
X51474819Y21610715D01*
X51474819Y21610715D02*
X51474819Y21705953D01*
X51474819Y21705953D02*
X51522438Y21848810D01*
X51522438Y21848810D02*
X51570057Y21896429D01*
X52474819Y22848810D02*
X52474819Y22277382D01*
X52474819Y22563096D02*
X51474819Y22563096D01*
X51474819Y22563096D02*
X51617676Y22467858D01*
X51617676Y22467858D02*
X51712914Y22372620D01*
X51712914Y22372620D02*
X51760533Y22277382D01*
X11913333Y21289420D02*
X11865714Y21241800D01*
X11865714Y21241800D02*
X11722857Y21194181D01*
X11722857Y21194181D02*
X11627619Y21194181D01*
X11627619Y21194181D02*
X11484762Y21241800D01*
X11484762Y21241800D02*
X11389524Y21337039D01*
X11389524Y21337039D02*
X11341905Y21432277D01*
X11341905Y21432277D02*
X11294286Y21622753D01*
X11294286Y21622753D02*
X11294286Y21765610D01*
X11294286Y21765610D02*
X11341905Y21956086D01*
X11341905Y21956086D02*
X11389524Y22051324D01*
X11389524Y22051324D02*
X11484762Y22146562D01*
X11484762Y22146562D02*
X11627619Y22194181D01*
X11627619Y22194181D02*
X11722857Y22194181D01*
X11722857Y22194181D02*
X11865714Y22146562D01*
X11865714Y22146562D02*
X11913333Y22098943D01*
X12865714Y21194181D02*
X12294286Y21194181D01*
X12580000Y21194181D02*
X12580000Y22194181D01*
X12580000Y22194181D02*
X12484762Y22051324D01*
X12484762Y22051324D02*
X12389524Y21956086D01*
X12389524Y21956086D02*
X12294286Y21908467D01*
X26152819Y39366906D02*
X25152819Y39366906D01*
X25152819Y39366906D02*
X25152819Y39605001D01*
X25152819Y39605001D02*
X25200438Y39747858D01*
X25200438Y39747858D02*
X25295676Y39843096D01*
X25295676Y39843096D02*
X25390914Y39890715D01*
X25390914Y39890715D02*
X25581390Y39938334D01*
X25581390Y39938334D02*
X25724247Y39938334D01*
X25724247Y39938334D02*
X25914723Y39890715D01*
X25914723Y39890715D02*
X26009961Y39843096D01*
X26009961Y39843096D02*
X26105200Y39747858D01*
X26105200Y39747858D02*
X26152819Y39605001D01*
X26152819Y39605001D02*
X26152819Y39366906D01*
X26057580Y40938334D02*
X26105200Y40890715D01*
X26105200Y40890715D02*
X26152819Y40747858D01*
X26152819Y40747858D02*
X26152819Y40652620D01*
X26152819Y40652620D02*
X26105200Y40509763D01*
X26105200Y40509763D02*
X26009961Y40414525D01*
X26009961Y40414525D02*
X25914723Y40366906D01*
X25914723Y40366906D02*
X25724247Y40319287D01*
X25724247Y40319287D02*
X25581390Y40319287D01*
X25581390Y40319287D02*
X25390914Y40366906D01*
X25390914Y40366906D02*
X25295676Y40414525D01*
X25295676Y40414525D02*
X25200438Y40509763D01*
X25200438Y40509763D02*
X25152819Y40652620D01*
X25152819Y40652620D02*
X25152819Y40747858D01*
X25152819Y40747858D02*
X25200438Y40890715D01*
X25200438Y40890715D02*
X25248057Y40938334D01*
X26152819Y41890715D02*
X26152819Y41319287D01*
X26152819Y41605001D02*
X25152819Y41605001D01*
X25152819Y41605001D02*
X25295676Y41509763D01*
X25295676Y41509763D02*
X25390914Y41414525D01*
X25390914Y41414525D02*
X25438533Y41319287D01*
X44363580Y42860834D02*
X44411200Y42813215D01*
X44411200Y42813215D02*
X44458819Y42670358D01*
X44458819Y42670358D02*
X44458819Y42575120D01*
X44458819Y42575120D02*
X44411200Y42432263D01*
X44411200Y42432263D02*
X44315961Y42337025D01*
X44315961Y42337025D02*
X44220723Y42289406D01*
X44220723Y42289406D02*
X44030247Y42241787D01*
X44030247Y42241787D02*
X43887390Y42241787D01*
X43887390Y42241787D02*
X43696914Y42289406D01*
X43696914Y42289406D02*
X43601676Y42337025D01*
X43601676Y42337025D02*
X43506438Y42432263D01*
X43506438Y42432263D02*
X43458819Y42575120D01*
X43458819Y42575120D02*
X43458819Y42670358D01*
X43458819Y42670358D02*
X43506438Y42813215D01*
X43506438Y42813215D02*
X43554057Y42860834D01*
X43458819Y43765596D02*
X43458819Y43289406D01*
X43458819Y43289406D02*
X43935009Y43241787D01*
X43935009Y43241787D02*
X43887390Y43289406D01*
X43887390Y43289406D02*
X43839771Y43384644D01*
X43839771Y43384644D02*
X43839771Y43622739D01*
X43839771Y43622739D02*
X43887390Y43717977D01*
X43887390Y43717977D02*
X43935009Y43765596D01*
X43935009Y43765596D02*
X44030247Y43813215D01*
X44030247Y43813215D02*
X44268342Y43813215D01*
X44268342Y43813215D02*
X44363580Y43765596D01*
X44363580Y43765596D02*
X44411200Y43717977D01*
X44411200Y43717977D02*
X44458819Y43622739D01*
X44458819Y43622739D02*
X44458819Y43384644D01*
X44458819Y43384644D02*
X44411200Y43289406D01*
X44411200Y43289406D02*
X44363580Y43241787D01*
X20238571Y14020181D02*
X20429047Y14020181D01*
X20429047Y14020181D02*
X20524285Y13972562D01*
X20524285Y13972562D02*
X20619523Y13877324D01*
X20619523Y13877324D02*
X20667142Y13686848D01*
X20667142Y13686848D02*
X20667142Y13353515D01*
X20667142Y13353515D02*
X20619523Y13163039D01*
X20619523Y13163039D02*
X20524285Y13067800D01*
X20524285Y13067800D02*
X20429047Y13020181D01*
X20429047Y13020181D02*
X20238571Y13020181D01*
X20238571Y13020181D02*
X20143333Y13067800D01*
X20143333Y13067800D02*
X20048095Y13163039D01*
X20048095Y13163039D02*
X20000476Y13353515D01*
X20000476Y13353515D02*
X20000476Y13686848D01*
X20000476Y13686848D02*
X20048095Y13877324D01*
X20048095Y13877324D02*
X20143333Y13972562D01*
X20143333Y13972562D02*
X20238571Y14020181D01*
X21667142Y13115420D02*
X21619523Y13067800D01*
X21619523Y13067800D02*
X21476666Y13020181D01*
X21476666Y13020181D02*
X21381428Y13020181D01*
X21381428Y13020181D02*
X21238571Y13067800D01*
X21238571Y13067800D02*
X21143333Y13163039D01*
X21143333Y13163039D02*
X21095714Y13258277D01*
X21095714Y13258277D02*
X21048095Y13448753D01*
X21048095Y13448753D02*
X21048095Y13591610D01*
X21048095Y13591610D02*
X21095714Y13782086D01*
X21095714Y13782086D02*
X21143333Y13877324D01*
X21143333Y13877324D02*
X21238571Y13972562D01*
X21238571Y13972562D02*
X21381428Y14020181D01*
X21381428Y14020181D02*
X21476666Y14020181D01*
X21476666Y14020181D02*
X21619523Y13972562D01*
X21619523Y13972562D02*
X21667142Y13924943D01*
X22619523Y13020181D02*
X22048095Y13020181D01*
X22333809Y13020181D02*
X22333809Y14020181D01*
X22333809Y14020181D02*
X22238571Y13877324D01*
X22238571Y13877324D02*
X22143333Y13782086D01*
X22143333Y13782086D02*
X22048095Y13734467D01*
X11361905Y17245181D02*
X11361905Y18245181D01*
X11361905Y18245181D02*
X11600000Y18245181D01*
X11600000Y18245181D02*
X11742857Y18197562D01*
X11742857Y18197562D02*
X11838095Y18102324D01*
X11838095Y18102324D02*
X11885714Y18007086D01*
X11885714Y18007086D02*
X11933333Y17816610D01*
X11933333Y17816610D02*
X11933333Y17673753D01*
X11933333Y17673753D02*
X11885714Y17483277D01*
X11885714Y17483277D02*
X11838095Y17388039D01*
X11838095Y17388039D02*
X11742857Y17292800D01*
X11742857Y17292800D02*
X11600000Y17245181D01*
X11600000Y17245181D02*
X11361905Y17245181D01*
X12885714Y17245181D02*
X12314286Y17245181D01*
X12600000Y17245181D02*
X12600000Y18245181D01*
X12600000Y18245181D02*
X12504762Y18102324D01*
X12504762Y18102324D02*
X12409524Y18007086D01*
X12409524Y18007086D02*
X12314286Y17959467D01*
X15652104Y17766715D02*
X15652104Y18242905D01*
X15937819Y17671477D02*
X14937819Y18004810D01*
X14937819Y18004810D02*
X15937819Y18338143D01*
X15937819Y19195286D02*
X15937819Y18623858D01*
X15937819Y18909572D02*
X14937819Y18909572D01*
X14937819Y18909572D02*
X15080676Y18814334D01*
X15080676Y18814334D02*
X15175914Y18719096D01*
X15175914Y18719096D02*
X15223533Y18623858D01*
X34207319Y13233334D02*
X33731128Y12900001D01*
X34207319Y12661906D02*
X33207319Y12661906D01*
X33207319Y12661906D02*
X33207319Y13042858D01*
X33207319Y13042858D02*
X33254938Y13138096D01*
X33254938Y13138096D02*
X33302557Y13185715D01*
X33302557Y13185715D02*
X33397795Y13233334D01*
X33397795Y13233334D02*
X33540652Y13233334D01*
X33540652Y13233334D02*
X33635890Y13185715D01*
X33635890Y13185715D02*
X33683509Y13138096D01*
X33683509Y13138096D02*
X33731128Y13042858D01*
X33731128Y13042858D02*
X33731128Y12661906D01*
X33207319Y14090477D02*
X33207319Y13900001D01*
X33207319Y13900001D02*
X33254938Y13804763D01*
X33254938Y13804763D02*
X33302557Y13757144D01*
X33302557Y13757144D02*
X33445414Y13661906D01*
X33445414Y13661906D02*
X33635890Y13614287D01*
X33635890Y13614287D02*
X34016842Y13614287D01*
X34016842Y13614287D02*
X34112080Y13661906D01*
X34112080Y13661906D02*
X34159700Y13709525D01*
X34159700Y13709525D02*
X34207319Y13804763D01*
X34207319Y13804763D02*
X34207319Y13995239D01*
X34207319Y13995239D02*
X34159700Y14090477D01*
X34159700Y14090477D02*
X34112080Y14138096D01*
X34112080Y14138096D02*
X34016842Y14185715D01*
X34016842Y14185715D02*
X33778747Y14185715D01*
X33778747Y14185715D02*
X33683509Y14138096D01*
X33683509Y14138096D02*
X33635890Y14090477D01*
X33635890Y14090477D02*
X33588271Y13995239D01*
X33588271Y13995239D02*
X33588271Y13804763D01*
X33588271Y13804763D02*
X33635890Y13709525D01*
X33635890Y13709525D02*
X33683509Y13661906D01*
X33683509Y13661906D02*
X33778747Y13614287D01*
X55470833Y16040181D02*
X55137500Y16516372D01*
X54899405Y16040181D02*
X54899405Y17040181D01*
X54899405Y17040181D02*
X55280357Y17040181D01*
X55280357Y17040181D02*
X55375595Y16992562D01*
X55375595Y16992562D02*
X55423214Y16944943D01*
X55423214Y16944943D02*
X55470833Y16849705D01*
X55470833Y16849705D02*
X55470833Y16706848D01*
X55470833Y16706848D02*
X55423214Y16611610D01*
X55423214Y16611610D02*
X55375595Y16563991D01*
X55375595Y16563991D02*
X55280357Y16516372D01*
X55280357Y16516372D02*
X54899405Y16516372D01*
X56042262Y16611610D02*
X55947024Y16659229D01*
X55947024Y16659229D02*
X55899405Y16706848D01*
X55899405Y16706848D02*
X55851786Y16802086D01*
X55851786Y16802086D02*
X55851786Y16849705D01*
X55851786Y16849705D02*
X55899405Y16944943D01*
X55899405Y16944943D02*
X55947024Y16992562D01*
X55947024Y16992562D02*
X56042262Y17040181D01*
X56042262Y17040181D02*
X56232738Y17040181D01*
X56232738Y17040181D02*
X56327976Y16992562D01*
X56327976Y16992562D02*
X56375595Y16944943D01*
X56375595Y16944943D02*
X56423214Y16849705D01*
X56423214Y16849705D02*
X56423214Y16802086D01*
X56423214Y16802086D02*
X56375595Y16706848D01*
X56375595Y16706848D02*
X56327976Y16659229D01*
X56327976Y16659229D02*
X56232738Y16611610D01*
X56232738Y16611610D02*
X56042262Y16611610D01*
X56042262Y16611610D02*
X55947024Y16563991D01*
X55947024Y16563991D02*
X55899405Y16516372D01*
X55899405Y16516372D02*
X55851786Y16421134D01*
X55851786Y16421134D02*
X55851786Y16230658D01*
X55851786Y16230658D02*
X55899405Y16135420D01*
X55899405Y16135420D02*
X55947024Y16087800D01*
X55947024Y16087800D02*
X56042262Y16040181D01*
X56042262Y16040181D02*
X56232738Y16040181D01*
X56232738Y16040181D02*
X56327976Y16087800D01*
X56327976Y16087800D02*
X56375595Y16135420D01*
X56375595Y16135420D02*
X56423214Y16230658D01*
X56423214Y16230658D02*
X56423214Y16421134D01*
X56423214Y16421134D02*
X56375595Y16516372D01*
X56375595Y16516372D02*
X56327976Y16563991D01*
X56327976Y16563991D02*
X56232738Y16611610D01*
X38079819Y13233334D02*
X37603628Y12900001D01*
X38079819Y12661906D02*
X37079819Y12661906D01*
X37079819Y12661906D02*
X37079819Y13042858D01*
X37079819Y13042858D02*
X37127438Y13138096D01*
X37127438Y13138096D02*
X37175057Y13185715D01*
X37175057Y13185715D02*
X37270295Y13233334D01*
X37270295Y13233334D02*
X37413152Y13233334D01*
X37413152Y13233334D02*
X37508390Y13185715D01*
X37508390Y13185715D02*
X37556009Y13138096D01*
X37556009Y13138096D02*
X37603628Y13042858D01*
X37603628Y13042858D02*
X37603628Y12661906D01*
X37079819Y13566668D02*
X37079819Y14233334D01*
X37079819Y14233334D02*
X38079819Y13804763D01*
X56008333Y26095181D02*
X55675000Y26571372D01*
X55436905Y26095181D02*
X55436905Y27095181D01*
X55436905Y27095181D02*
X55817857Y27095181D01*
X55817857Y27095181D02*
X55913095Y27047562D01*
X55913095Y27047562D02*
X55960714Y26999943D01*
X55960714Y26999943D02*
X56008333Y26904705D01*
X56008333Y26904705D02*
X56008333Y26761848D01*
X56008333Y26761848D02*
X55960714Y26666610D01*
X55960714Y26666610D02*
X55913095Y26618991D01*
X55913095Y26618991D02*
X55817857Y26571372D01*
X55817857Y26571372D02*
X55436905Y26571372D01*
X56484524Y26095181D02*
X56675000Y26095181D01*
X56675000Y26095181D02*
X56770238Y26142800D01*
X56770238Y26142800D02*
X56817857Y26190420D01*
X56817857Y26190420D02*
X56913095Y26333277D01*
X56913095Y26333277D02*
X56960714Y26523753D01*
X56960714Y26523753D02*
X56960714Y26904705D01*
X56960714Y26904705D02*
X56913095Y26999943D01*
X56913095Y26999943D02*
X56865476Y27047562D01*
X56865476Y27047562D02*
X56770238Y27095181D01*
X56770238Y27095181D02*
X56579762Y27095181D01*
X56579762Y27095181D02*
X56484524Y27047562D01*
X56484524Y27047562D02*
X56436905Y26999943D01*
X56436905Y26999943D02*
X56389286Y26904705D01*
X56389286Y26904705D02*
X56389286Y26666610D01*
X56389286Y26666610D02*
X56436905Y26571372D01*
X56436905Y26571372D02*
X56484524Y26523753D01*
X56484524Y26523753D02*
X56579762Y26476134D01*
X56579762Y26476134D02*
X56770238Y26476134D01*
X56770238Y26476134D02*
X56865476Y26523753D01*
X56865476Y26523753D02*
X56913095Y26571372D01*
X56913095Y26571372D02*
X56960714Y26666610D01*
X11739580Y42858334D02*
X11787200Y42810715D01*
X11787200Y42810715D02*
X11834819Y42667858D01*
X11834819Y42667858D02*
X11834819Y42572620D01*
X11834819Y42572620D02*
X11787200Y42429763D01*
X11787200Y42429763D02*
X11691961Y42334525D01*
X11691961Y42334525D02*
X11596723Y42286906D01*
X11596723Y42286906D02*
X11406247Y42239287D01*
X11406247Y42239287D02*
X11263390Y42239287D01*
X11263390Y42239287D02*
X11072914Y42286906D01*
X11072914Y42286906D02*
X10977676Y42334525D01*
X10977676Y42334525D02*
X10882438Y42429763D01*
X10882438Y42429763D02*
X10834819Y42572620D01*
X10834819Y42572620D02*
X10834819Y42667858D01*
X10834819Y42667858D02*
X10882438Y42810715D01*
X10882438Y42810715D02*
X10930057Y42858334D01*
X10834819Y43191668D02*
X10834819Y43810715D01*
X10834819Y43810715D02*
X11215771Y43477382D01*
X11215771Y43477382D02*
X11215771Y43620239D01*
X11215771Y43620239D02*
X11263390Y43715477D01*
X11263390Y43715477D02*
X11311009Y43763096D01*
X11311009Y43763096D02*
X11406247Y43810715D01*
X11406247Y43810715D02*
X11644342Y43810715D01*
X11644342Y43810715D02*
X11739580Y43763096D01*
X11739580Y43763096D02*
X11787200Y43715477D01*
X11787200Y43715477D02*
X11834819Y43620239D01*
X11834819Y43620239D02*
X11834819Y43334525D01*
X11834819Y43334525D02*
X11787200Y43239287D01*
X11787200Y43239287D02*
X11739580Y43191668D01*
D17*
%TO.C,R4*%
X30790000Y6725502D02*
X30790000Y5271374D01*
X32610000Y6725502D02*
X32610000Y5271374D01*
%TO.C,OC2*%
X46180000Y12475000D02*
X46180000Y2195000D01*
X46180000Y2195000D02*
X52650000Y2195000D01*
X48415000Y12475000D02*
X46180000Y12475000D01*
X52650000Y12475000D02*
X50415000Y12475000D01*
X52650000Y2195000D02*
X52650000Y12475000D01*
X48415000Y12475000D02*
G75*
G03*
X50415000Y12475000I1000000J0D01*
G01*
%TO.C,R2*%
X11352936Y24619000D02*
X12807064Y24619000D01*
X11352936Y22799000D02*
X12807064Y22799000D01*
%TO.C,C6*%
X41021000Y42316248D02*
X41021000Y43738752D01*
X42841000Y42316248D02*
X42841000Y43738752D01*
%TO.C,R3*%
X11352936Y28499000D02*
X12807064Y28499000D01*
X11352936Y26679000D02*
X12807064Y26679000D01*
%TO.C,J4*%
X24730000Y39945000D02*
X24730000Y43945000D01*
X24440000Y38915000D02*
X24440000Y44935000D01*
X24440000Y44935000D02*
X16600000Y44935000D01*
X23860000Y38915000D02*
X23860000Y39515000D01*
X23860000Y39515000D02*
X22260000Y39515000D01*
X23060000Y43935000D02*
X22810000Y43405000D01*
X23060000Y43935000D02*
X17980000Y43935000D01*
X23060000Y44935000D02*
X23060000Y43935000D01*
X22810000Y43405000D02*
X18230000Y43405000D01*
X22810000Y44935000D02*
X22810000Y43935000D01*
X22260000Y39515000D02*
X22260000Y38915000D01*
X21320000Y38915000D02*
X21320000Y39515000D01*
X21320000Y39515000D02*
X19720000Y39515000D01*
X19720000Y39515000D02*
X19720000Y38915000D01*
X18780000Y38915000D02*
X18780000Y39515000D01*
X18780000Y39515000D02*
X17180000Y39515000D01*
X18230000Y43405000D02*
X17980000Y43935000D01*
X18230000Y44935000D02*
X18230000Y43935000D01*
X17980000Y43935000D02*
X17980000Y44935000D01*
X17180000Y39515000D02*
X17180000Y38915000D01*
X16600000Y38915000D02*
X24440000Y38915000D01*
X16600000Y44935000D02*
X16600000Y38915000D01*
%TO.C,R5*%
X30790000Y12635436D02*
X30790000Y14089564D01*
X32610000Y12635436D02*
X32610000Y14089564D01*
%TO.C,D3*%
X14460000Y34500000D02*
X14460000Y36500000D01*
X14460000Y34500000D02*
X10450000Y34500000D01*
X14460000Y36500000D02*
X10450000Y36500000D01*
%TO.C,J5*%
X3040000Y31289000D02*
X7040000Y31289000D01*
X2010000Y31579000D02*
X8030000Y31579000D01*
X8030000Y31579000D02*
X8030000Y36879000D01*
X2010000Y32159000D02*
X2610000Y32159000D01*
X2610000Y32159000D02*
X2610000Y33759000D01*
X7030000Y32959000D02*
X6500000Y33209000D01*
X7030000Y32959000D02*
X7030000Y35499000D01*
X8030000Y32959000D02*
X7030000Y32959000D01*
X6500000Y33209000D02*
X6500000Y35249000D01*
X8030000Y33209000D02*
X7030000Y33209000D01*
X2610000Y33759000D02*
X2010000Y33759000D01*
X2010000Y34699000D02*
X2610000Y34699000D01*
X2610000Y34699000D02*
X2610000Y36299000D01*
X6500000Y35249000D02*
X7030000Y35499000D01*
X8030000Y35249000D02*
X7030000Y35249000D01*
X7030000Y35499000D02*
X8030000Y35499000D01*
X2610000Y36299000D02*
X2010000Y36299000D01*
X2010000Y36879000D02*
X2010000Y31579000D01*
X8030000Y36879000D02*
X2010000Y36879000D01*
%TO.C,C2*%
X12791252Y30589000D02*
X11368748Y30589000D01*
X12791252Y32409000D02*
X11368748Y32409000D01*
%TO.C,C4*%
X48867000Y42316248D02*
X48867000Y43738752D01*
X50687000Y42316248D02*
X50687000Y43738752D01*
%TO.C,J6*%
X40351012Y4018438D02*
X40351012Y8018438D01*
X40061012Y2988438D02*
X40061012Y9008438D01*
X40061012Y9008438D02*
X34761012Y9008438D01*
X39481012Y2988438D02*
X39481012Y3588438D01*
X39481012Y3588438D02*
X37881012Y3588438D01*
X38681012Y8008438D02*
X38431012Y7478438D01*
X38681012Y8008438D02*
X36141012Y8008438D01*
X38681012Y9008438D02*
X38681012Y8008438D01*
X38431012Y7478438D02*
X36391012Y7478438D01*
X38431012Y9008438D02*
X38431012Y8008438D01*
X37881012Y3588438D02*
X37881012Y2988438D01*
X36941012Y2988438D02*
X36941012Y3588438D01*
X36941012Y3588438D02*
X35341012Y3588438D01*
X36391012Y7478438D02*
X36141012Y8008438D01*
X36391012Y9008438D02*
X36391012Y8008438D01*
X36141012Y8008438D02*
X36141012Y9008438D01*
X35341012Y3588438D02*
X35341012Y2988438D01*
X34761012Y2988438D02*
X40061012Y2988438D01*
X34761012Y9008438D02*
X34761012Y2988438D01*
%TO.C,R1*%
X11352936Y12869000D02*
X12807064Y12869000D01*
X11352936Y11049000D02*
X12807064Y11049000D01*
%TO.C,D2*%
X52700000Y40690000D02*
X54700000Y40690000D01*
X52700000Y40690000D02*
X52700000Y44700000D01*
X54700000Y40690000D02*
X54700000Y44700000D01*
%TO.C,IC1*%
X52860000Y21825000D02*
X52860000Y18375000D01*
X52860000Y21825000D02*
X52860000Y23775000D01*
X57980000Y21825000D02*
X57980000Y19875000D01*
X57980000Y21825000D02*
X57980000Y23775000D01*
%TO.C,C1*%
X11368748Y20709000D02*
X12791252Y20709000D01*
X11368748Y18889000D02*
X12791252Y18889000D01*
%TO.C,DC1*%
X26748000Y38605000D02*
X27948000Y38605000D01*
X26998000Y38855000D02*
X38768000Y38855000D01*
X26748000Y39805000D02*
X26748000Y38605000D01*
X26998000Y45195000D02*
X26998000Y38855000D01*
X26998000Y45195000D02*
X38768000Y45195000D01*
X38768000Y45195000D02*
X38768000Y38855000D01*
%TO.C,C5*%
X44944000Y42316248D02*
X44944000Y43738752D01*
X46764000Y42316248D02*
X46764000Y43738752D01*
%TO.C,J3*%
X62540000Y31900000D02*
X62540000Y35900000D01*
X62250000Y30870000D02*
X62250000Y36890000D01*
X62250000Y36890000D02*
X54410000Y36890000D01*
X61670000Y30870000D02*
X61670000Y31470000D01*
X61670000Y31470000D02*
X60070000Y31470000D01*
X60870000Y35890000D02*
X60620000Y35360000D01*
X60870000Y35890000D02*
X55790000Y35890000D01*
X60870000Y36890000D02*
X60870000Y35890000D01*
X60620000Y35360000D02*
X56040000Y35360000D01*
X60620000Y36890000D02*
X60620000Y35890000D01*
X60070000Y31470000D02*
X60070000Y30870000D01*
X59130000Y30870000D02*
X59130000Y31470000D01*
X59130000Y31470000D02*
X57530000Y31470000D01*
X57530000Y31470000D02*
X57530000Y30870000D01*
X56590000Y30870000D02*
X56590000Y31470000D01*
X56590000Y31470000D02*
X54990000Y31470000D01*
X56040000Y35360000D02*
X55790000Y35890000D01*
X56040000Y36890000D02*
X56040000Y35890000D01*
X55790000Y35890000D02*
X55790000Y36890000D01*
X54990000Y31470000D02*
X54990000Y30870000D01*
X54410000Y30870000D02*
X62250000Y30870000D01*
X54410000Y36890000D02*
X54410000Y30870000D01*
%TO.C,J1*%
X7000000Y18629000D02*
X3000000Y18629000D01*
X8030000Y18339000D02*
X2010000Y18339000D01*
X2010000Y18339000D02*
X2010000Y10499000D01*
X8030000Y17759000D02*
X7430000Y17759000D01*
X7430000Y17759000D02*
X7430000Y16159000D01*
X3010000Y16959000D02*
X3540000Y16709000D01*
X3010000Y16959000D02*
X3010000Y11879000D01*
X2010000Y16959000D02*
X3010000Y16959000D01*
X3540000Y16709000D02*
X3540000Y12129000D01*
X2010000Y16709000D02*
X3010000Y16709000D01*
X7430000Y16159000D02*
X8030000Y16159000D01*
X8030000Y15219000D02*
X7430000Y15219000D01*
X7430000Y15219000D02*
X7430000Y13619000D01*
X7430000Y13619000D02*
X8030000Y13619000D01*
X8030000Y12679000D02*
X7430000Y12679000D01*
X7430000Y12679000D02*
X7430000Y11079000D01*
X3540000Y12129000D02*
X3010000Y11879000D01*
X2010000Y12129000D02*
X3010000Y12129000D01*
X3010000Y11879000D02*
X2010000Y11879000D01*
X7430000Y11079000D02*
X8030000Y11079000D01*
X8030000Y10499000D02*
X8030000Y18339000D01*
X2010000Y10499000D02*
X8030000Y10499000D01*
%TO.C,OC1*%
X18075000Y12475000D02*
X18075000Y2195000D01*
X18075000Y2195000D02*
X24545000Y2195000D01*
X20310000Y12475000D02*
X18075000Y12475000D01*
X24545000Y12475000D02*
X22310000Y12475000D01*
X24545000Y2195000D02*
X24545000Y12475000D01*
X20310000Y12475000D02*
G75*
G03*
X22310000Y12475000I1000000J0D01*
G01*
%TO.C,D1*%
X14460000Y14864000D02*
X14460000Y16864000D01*
X14460000Y14864000D02*
X10450000Y14864000D01*
X14460000Y16864000D02*
X10450000Y16864000D01*
%TO.C,J2*%
X3040000Y20749000D02*
X7040000Y20749000D01*
X2010000Y21039000D02*
X8030000Y21039000D01*
X8030000Y21039000D02*
X8030000Y28879000D01*
X2010000Y21619000D02*
X2610000Y21619000D01*
X2610000Y21619000D02*
X2610000Y23219000D01*
X7030000Y22419000D02*
X6500000Y22669000D01*
X7030000Y22419000D02*
X7030000Y27499000D01*
X8030000Y22419000D02*
X7030000Y22419000D01*
X6500000Y22669000D02*
X6500000Y27249000D01*
X8030000Y22669000D02*
X7030000Y22669000D01*
X2610000Y23219000D02*
X2010000Y23219000D01*
X2010000Y24159000D02*
X2610000Y24159000D01*
X2610000Y24159000D02*
X2610000Y25759000D01*
X2610000Y25759000D02*
X2010000Y25759000D01*
X2010000Y26699000D02*
X2610000Y26699000D01*
X2610000Y26699000D02*
X2610000Y28299000D01*
X6500000Y27249000D02*
X7030000Y27499000D01*
X8030000Y27249000D02*
X7030000Y27249000D01*
X7030000Y27499000D02*
X8030000Y27499000D01*
X2610000Y28299000D02*
X2010000Y28299000D01*
X2010000Y28879000D02*
X2010000Y21039000D01*
X8030000Y28879000D02*
X2010000Y28879000D01*
D11*
%TO.C,A1*%
X16499000Y16449000D02*
X49519000Y16449000D01*
X16499000Y34229000D02*
X16499000Y16449000D01*
X16499000Y34229000D02*
X49519000Y34229000D01*
X49519000Y34229000D02*
X49519000Y16449000D01*
D17*
%TO.C,R6*%
X34652500Y12635436D02*
X34652500Y14089564D01*
X36472500Y12635436D02*
X36472500Y14089564D01*
%TO.C,R8*%
X54910436Y15585000D02*
X56364564Y15585000D01*
X54910436Y13765000D02*
X56364564Y13765000D01*
%TO.C,R7*%
X40335000Y14089564D02*
X40335000Y12635436D01*
X38515000Y14089564D02*
X38515000Y12635436D01*
%TO.C,R9*%
X55572936Y29510000D02*
X57027064Y29510000D01*
X55572936Y27690000D02*
X57027064Y27690000D01*
%TO.C,C3*%
X14140000Y43736252D02*
X14140000Y42313748D01*
X12320000Y43736252D02*
X12320000Y42313748D01*
%TD*%
M02*
